<svg id="mouth" xmlns="http://www.w3.org/2000/svg" xmlns:xlink="http://www.w3.org/1999/xlink" viewBox="0 0 177.53 92.92"><defs><style>.cls-1{fill:url(#linear-gradient);}.cls-2{clip-path:url(#clip-path);}.cls-3{fill:url(#linear-gradient-3);}.cls-4{fill:url(#linear-gradient-4);}.cls-5{fill:url(#linear-gradient-5);}.cls-6{fill:url(#linear-gradient-6);}.cls-7{fill:url(#linear-gradient-7);}.cls-8{fill:url(#linear-gradient-8);}.cls-9{fill:url(#linear-gradient-9);}.cls-10{fill:url(#linear-gradient-10);}.cls-11{fill:url(#linear-gradient-11);}.cls-12{fill:url(#linear-gradient-12);}.cls-13{fill:url(#linear-gradient-13);}.cls-14{fill:url(#linear-gradient-14);}.cls-15{fill:url(#linear-gradient-15);}.cls-16{fill:url(#linear-gradient-16);}.cls-17{fill:url(#linear-gradient-17);}.cls-18{fill:url(#linear-gradient-18);}.cls-19{fill:url(#linear-gradient-19);}.cls-20{fill:url(#linear-gradient-20);}.cls-21{fill:url(#linear-gradient-21);}.cls-22{fill:url(#linear-gradient-22);}.cls-23{fill:url(#linear-gradient-23);}.cls-24{fill:url(#linear-gradient-24);}.cls-25{fill:url(#linear-gradient-25);}.cls-26{fill:url(#linear-gradient-26);}.cls-27{fill:url(#linear-gradient-27);}.cls-28{fill:url(#linear-gradient-28);}.cls-29{fill:url(#linear-gradient-29);}.cls-30{fill:url(#linear-gradient-30);}.cls-31{fill:url(#linear-gradient-31);}.cls-32{fill:url(#linear-gradient-32);}.cls-33{fill:url(#linear-gradient-33);}.cls-34{fill:url(#linear-gradient-34);}.cls-35{fill:url(#linear-gradient-35);}.cls-36{fill:url(#linear-gradient-36);}.cls-37{fill:url(#linear-gradient-37);}.cls-38{fill:url(#linear-gradient-38);}.cls-39{fill:url(#linear-gradient-39);}.cls-40{fill:url(#linear-gradient-40);}.cls-41{fill:url(#linear-gradient-41);}.cls-42{fill:url(#linear-gradient-42);}.cls-43{fill:url(#linear-gradient-43);}.cls-44{fill:url(#linear-gradient-44);}.cls-45{fill:url(#linear-gradient-45);}.cls-46{fill:url(#linear-gradient-46);}.cls-47{fill:url(#linear-gradient-47);}.cls-48{fill:url(#linear-gradient-48);}.cls-49{fill:url(#linear-gradient-49);}.cls-50{fill:url(#linear-gradient-50);}.cls-51{fill:url(#linear-gradient-51);}.cls-52{fill:url(#linear-gradient-52);}.cls-53{fill:url(#linear-gradient-53);}.cls-54{fill:url(#linear-gradient-54);}.cls-55{fill:url(#linear-gradient-55);}.cls-56{fill:url(#linear-gradient-56);}.cls-57{fill:url(#linear-gradient-57);}.cls-58{fill:url(#linear-gradient-58);}.cls-59{fill:url(#linear-gradient-59);}.cls-60{fill:url(#linear-gradient-60);}.cls-61{fill:url(#linear-gradient-61);}.cls-62{fill:url(#linear-gradient-62);}.cls-63{fill:url(#linear-gradient-63);}.cls-64{fill:url(#linear-gradient-64);}.cls-65{fill:url(#linear-gradient-65);}.cls-66{fill:url(#linear-gradient-66);}.cls-67{fill:url(#linear-gradient-67);}.cls-68{fill:url(#linear-gradient-68);}.cls-69{fill:url(#linear-gradient-69);}.cls-70{fill:url(#linear-gradient-70);}.cls-71{fill:url(#linear-gradient-71);}.cls-72{fill:url(#linear-gradient-72);}.cls-73{fill:url(#linear-gradient-73);}.cls-74{fill:url(#linear-gradient-74);}.cls-75{fill:url(#linear-gradient-75);}.cls-76{fill:url(#linear-gradient-76);}.cls-77{fill:url(#linear-gradient-77);}.cls-78{fill:url(#linear-gradient-78);}.cls-79{fill:url(#linear-gradient-79);}.cls-80{fill:url(#linear-gradient-80);}.cls-81{fill:url(#linear-gradient-81);}.cls-82{fill:url(#linear-gradient-82);}.cls-83{fill:url(#linear-gradient-83);}.cls-84{fill:url(#linear-gradient-84);}.cls-85{fill:url(#linear-gradient-85);}.cls-86{fill:url(#linear-gradient-86);}.cls-87{fill:url(#linear-gradient-87);}.cls-88{fill:url(#linear-gradient-88);}.cls-89{fill:url(#linear-gradient-89);}.cls-90{fill:url(#linear-gradient-90);}.cls-91{fill:url(#linear-gradient-91);}.cls-92{fill:url(#linear-gradient-92);}.cls-93{fill:url(#linear-gradient-93);}.cls-94{fill:url(#linear-gradient-94);}.cls-95{fill:url(#linear-gradient-95);}.cls-96{fill:url(#linear-gradient-96);}.cls-97{fill:url(#linear-gradient-97);}.cls-98{fill:url(#linear-gradient-98);}.cls-99{fill:url(#linear-gradient-99);}.cls-100{fill:url(#linear-gradient-100);}.cls-101{fill:url(#linear-gradient-101);}.cls-102{fill:url(#linear-gradient-102);}.cls-103{fill:url(#linear-gradient-103);}.cls-104{fill:url(#linear-gradient-104);}.cls-105{fill:url(#linear-gradient-105);}.cls-106{font-size:24px;font-family:FranklinGothic-Demi, Franklin Gothic Demi;font-weight:300;}.cls-107{letter-spacing:-0.01em;}.cls-108{letter-spacing:0em;}</style><linearGradient id="linear-gradient" x1="-40.63" y1="34.11" x2="120.09" y2="34.11" gradientTransform="translate(-8.45 13.4) rotate(-16.41)" gradientUnits="userSpaceOnUse"><stop offset="0" stop-color="#ffc96a"/><stop offset="1" stop-color="#f0ffbf"/></linearGradient><clipPath id="clip-path" transform="translate(49.47 11.57)"><rect class="cls-1" x="-38.81" y="15.67" width="156.22" height="38.44" transform="translate(-9.49 15.37) rotate(-19.8)"/></clipPath><linearGradient id="linear-gradient-3" x1="-40.63" y1="12.05" x2="-29.77" y2="12.05" gradientTransform="translate(36.56 42.41) rotate(-36.2)" xlink:href="#linear-gradient"/><linearGradient id="linear-gradient-4" x1="-40.63" y1="13.23" x2="-28.14" y2="13.23" gradientTransform="translate(36.56 42.41) rotate(-36.2)" xlink:href="#linear-gradient"/><linearGradient id="linear-gradient-5" x1="-39.69" y1="13.45" x2="-26.51" y2="13.45" gradientTransform="translate(36.56 42.41) rotate(-36.2)" xlink:href="#linear-gradient"/><linearGradient id="linear-gradient-6" x1="-38.19" y1="13.67" x2="-24.88" y2="13.67" gradientTransform="translate(36.56 42.41) rotate(-36.2)" xlink:href="#linear-gradient"/><linearGradient id="linear-gradient-7" x1="-36.7" y1="13.89" x2="-23.25" y2="13.89" gradientTransform="translate(36.56 42.41) rotate(-36.2)" xlink:href="#linear-gradient"/><linearGradient id="linear-gradient-8" x1="-35.2" y1="14.11" x2="-21.71" y2="14.11" gradientTransform="translate(36.56 42.41) rotate(-36.2)" xlink:href="#linear-gradient"/><linearGradient id="linear-gradient-9" x1="-33.7" y1="14.47" x2="-20.21" y2="14.47" gradientTransform="translate(-4.34 36.94) rotate(-16.41)" xlink:href="#linear-gradient"/><linearGradient id="linear-gradient-10" x1="-32.2" y1="14.91" x2="-18.71" y2="14.91" gradientTransform="translate(-4.43 36.41) rotate(-16.41)" xlink:href="#linear-gradient"/><linearGradient id="linear-gradient-11" x1="-30.7" y1="15.35" x2="-17.21" y2="15.35" gradientTransform="matrix(0.96, -0.28, 0.28, 0.96, -4.53, 35.88)" xlink:href="#linear-gradient"/><linearGradient id="linear-gradient-12" x1="-29.2" y1="15.8" x2="-15.72" y2="15.8" gradientTransform="matrix(0.96, -0.28, 0.28, 0.96, -4.62, 35.35)" xlink:href="#linear-gradient"/><linearGradient id="linear-gradient-13" x1="-27.7" y1="16.24" x2="-14.22" y2="16.24" gradientTransform="translate(-4.71 34.82) rotate(-16.41)" xlink:href="#linear-gradient"/><linearGradient id="linear-gradient-14" x1="-26.21" y1="16.68" x2="-12.72" y2="16.68" gradientTransform="translate(-4.8 34.3) rotate(-16.41)" xlink:href="#linear-gradient"/><linearGradient id="linear-gradient-15" x1="-24.71" y1="17.12" x2="-11.22" y2="17.12" gradientTransform="translate(-4.9 33.77) rotate(-16.41)" xlink:href="#linear-gradient"/><linearGradient id="linear-gradient-16" x1="-23.21" y1="17.56" x2="-9.72" y2="17.56" gradientTransform="matrix(0.96, -0.28, 0.28, 0.96, -4.99, 33.24)" xlink:href="#linear-gradient"/><linearGradient id="linear-gradient-17" x1="-21.71" y1="18" x2="-8.22" y2="18" gradientTransform="translate(-5.08 32.71) rotate(-16.41)" xlink:href="#linear-gradient"/><linearGradient id="linear-gradient-18" x1="-20.21" y1="18.44" x2="-6.72" y2="18.44" gradientTransform="translate(-5.17 32.18) rotate(-16.41)" xlink:href="#linear-gradient"/><linearGradient id="linear-gradient-19" x1="-18.71" y1="18.88" x2="-5.23" y2="18.88" gradientTransform="translate(-5.27 31.65) rotate(-16.41)" xlink:href="#linear-gradient"/><linearGradient id="linear-gradient-20" x1="-17.21" y1="19.33" x2="-3.73" y2="19.33" gradientTransform="matrix(0.96, -0.28, 0.28, 0.96, -5.36, 31.12)" xlink:href="#linear-gradient"/><linearGradient id="linear-gradient-21" x1="-15.72" y1="19.77" x2="-2.23" y2="19.77" gradientTransform="translate(-5.45 30.59) rotate(-16.41)" xlink:href="#linear-gradient"/><linearGradient id="linear-gradient-22" x1="-14.22" y1="20.21" x2="-0.73" y2="20.21" gradientTransform="matrix(0.96, -0.28, 0.28, 0.96, -5.54, 30.06)" xlink:href="#linear-gradient"/><linearGradient id="linear-gradient-23" x1="-12.72" y1="20.65" x2="0.77" y2="20.65" gradientTransform="translate(-5.63 29.53) rotate(-16.41)" xlink:href="#linear-gradient"/><linearGradient id="linear-gradient-24" x1="-11.22" y1="21.09" x2="2.27" y2="21.09" gradientTransform="matrix(0.96, -0.28, 0.28, 0.96, -5.73, 29)" xlink:href="#linear-gradient"/><linearGradient id="linear-gradient-25" x1="-9.72" y1="21.53" x2="3.77" y2="21.53" gradientTransform="translate(-5.82 28.47) rotate(-16.41)" xlink:href="#linear-gradient"/><linearGradient id="linear-gradient-26" x1="-8.22" y1="21.97" x2="5.26" y2="21.97" gradientTransform="translate(-5.91 27.95) rotate(-16.41)" xlink:href="#linear-gradient"/><linearGradient id="linear-gradient-27" x1="-6.72" y1="22.42" x2="6.76" y2="22.42" gradientTransform="matrix(0.96, -0.28, 0.28, 0.96, -6, 27.42)" xlink:href="#linear-gradient"/><linearGradient id="linear-gradient-28" x1="-5.23" y1="22.86" x2="8.26" y2="22.86" gradientTransform="translate(-6.1 26.89) rotate(-16.41)" xlink:href="#linear-gradient"/><linearGradient id="linear-gradient-29" x1="-3.73" y1="23.3" x2="9.76" y2="23.3" gradientTransform="translate(-6.19 26.36) rotate(-16.41)" xlink:href="#linear-gradient"/><linearGradient id="linear-gradient-30" x1="-2.23" y1="23.74" x2="11.26" y2="23.74" gradientTransform="matrix(0.96, -0.28, 0.28, 0.96, -6.28, 25.83)" xlink:href="#linear-gradient"/><linearGradient id="linear-gradient-31" x1="-0.73" y1="24.18" x2="12.76" y2="24.18" gradientTransform="translate(-6.37 25.3) rotate(-16.41)" xlink:href="#linear-gradient"/><linearGradient id="linear-gradient-32" x1="0.77" y1="24.62" x2="14.26" y2="24.62" gradientTransform="translate(-6.47 24.77) rotate(-16.41)" xlink:href="#linear-gradient"/><linearGradient id="linear-gradient-33" x1="2.27" y1="25.06" x2="15.75" y2="25.06" gradientTransform="translate(-6.56 24.24) rotate(-16.41)" xlink:href="#linear-gradient"/><linearGradient id="linear-gradient-34" x1="3.77" y1="25.5" x2="17.25" y2="25.5" gradientTransform="matrix(0.96, -0.28, 0.28, 0.96, -6.65, 23.71)" xlink:href="#linear-gradient"/><linearGradient id="linear-gradient-35" x1="5.26" y1="25.95" x2="18.75" y2="25.95" gradientTransform="translate(-6.74 23.18) rotate(-16.41)" xlink:href="#linear-gradient"/><linearGradient id="linear-gradient-36" x1="6.76" y1="26.39" x2="20.25" y2="26.39" gradientTransform="matrix(0.96, -0.28, 0.28, 0.96, -6.83, 22.65)" xlink:href="#linear-gradient"/><linearGradient id="linear-gradient-37" x1="8.26" y1="26.83" x2="21.75" y2="26.83" gradientTransform="translate(-6.93 22.13) rotate(-16.41)" xlink:href="#linear-gradient"/><linearGradient id="linear-gradient-38" x1="9.76" y1="27.27" x2="23.25" y2="27.27" gradientTransform="translate(-7.02 21.6) rotate(-16.41)" xlink:href="#linear-gradient"/><linearGradient id="linear-gradient-39" x1="11.26" y1="27.71" x2="24.75" y2="27.71" gradientTransform="translate(-7.11 21.07) rotate(-16.41)" xlink:href="#linear-gradient"/><linearGradient id="linear-gradient-40" x1="12.76" y1="28.15" x2="26.25" y2="28.15" gradientTransform="matrix(0.96, -0.28, 0.28, 0.96, -7.2, 20.54)" xlink:href="#linear-gradient"/><linearGradient id="linear-gradient-41" x1="14.26" y1="28.59" x2="27.74" y2="28.59" gradientTransform="translate(-7.3 20.01) rotate(-16.41)" xlink:href="#linear-gradient"/><linearGradient id="linear-gradient-42" x1="15.76" y1="29.03" x2="29.24" y2="29.03" gradientTransform="translate(-7.39 19.48) rotate(-16.41)" xlink:href="#linear-gradient"/><linearGradient id="linear-gradient-43" x1="17.25" y1="29.48" x2="30.74" y2="29.48" gradientTransform="matrix(0.96, -0.28, 0.28, 0.96, -7.48, 18.95)" xlink:href="#linear-gradient"/><linearGradient id="linear-gradient-44" x1="18.75" y1="29.92" x2="32.24" y2="29.92" gradientTransform="translate(-7.57 18.42) rotate(-16.41)" xlink:href="#linear-gradient"/><linearGradient id="linear-gradient-45" x1="20.25" y1="30.36" x2="33.74" y2="30.36" gradientTransform="translate(-7.67 17.89) rotate(-16.41)" xlink:href="#linear-gradient"/><linearGradient id="linear-gradient-46" x1="21.75" y1="30.8" x2="35.24" y2="30.8" gradientTransform="matrix(0.96, -0.28, 0.28, 0.96, -7.76, 17.36)" xlink:href="#linear-gradient"/><linearGradient id="linear-gradient-47" x1="23.25" y1="31.24" x2="36.74" y2="31.24" gradientTransform="translate(-7.85 16.83) rotate(-16.41)" xlink:href="#linear-gradient"/><linearGradient id="linear-gradient-48" x1="24.75" y1="31.68" x2="38.23" y2="31.68" gradientTransform="matrix(0.96, -0.28, 0.28, 0.96, -7.94, 16.31)" xlink:href="#linear-gradient"/><linearGradient id="linear-gradient-49" x1="26.25" y1="32.12" x2="39.73" y2="32.12" gradientTransform="matrix(0.96, -0.28, 0.28, 0.96, -8.04, 15.78)" xlink:href="#linear-gradient"/><linearGradient id="linear-gradient-50" x1="27.74" y1="32.56" x2="41.23" y2="32.56" gradientTransform="translate(-8.13 15.25) rotate(-16.41)" xlink:href="#linear-gradient"/><linearGradient id="linear-gradient-51" x1="29.24" y1="33.01" x2="42.73" y2="33.01" gradientTransform="matrix(0.96, -0.28, 0.28, 0.96, -8.22, 14.72)" xlink:href="#linear-gradient"/><linearGradient id="linear-gradient-52" x1="30.74" y1="33.45" x2="44.23" y2="33.45" gradientTransform="matrix(0.96, -0.28, 0.28, 0.96, -8.31, 14.19)" xlink:href="#linear-gradient"/><linearGradient id="linear-gradient-53" x1="32.24" y1="33.89" x2="45.73" y2="33.89" gradientTransform="translate(-8.4 13.66) rotate(-16.41)" xlink:href="#linear-gradient"/><linearGradient id="linear-gradient-54" x1="33.74" y1="34.33" x2="47.23" y2="34.33" gradientTransform="translate(-8.5 13.13) rotate(-16.41)" xlink:href="#linear-gradient"/><linearGradient id="linear-gradient-55" x1="35.24" y1="34.77" x2="48.72" y2="34.77" gradientTransform="translate(-8.59 12.6) rotate(-16.41)" xlink:href="#linear-gradient"/><linearGradient id="linear-gradient-56" x1="36.74" y1="35.21" x2="50.22" y2="35.21" gradientTransform="matrix(0.96, -0.28, 0.28, 0.96, -8.68, 12.07)" xlink:href="#linear-gradient"/><linearGradient id="linear-gradient-57" x1="38.23" y1="35.65" x2="51.72" y2="35.65" gradientTransform="translate(-8.77 11.54) rotate(-16.41)" xlink:href="#linear-gradient"/><linearGradient id="linear-gradient-58" x1="39.73" y1="36.09" x2="53.22" y2="36.09" gradientTransform="translate(-8.87 11.01) rotate(-16.41)" xlink:href="#linear-gradient"/><linearGradient id="linear-gradient-59" x1="41.23" y1="36.54" x2="54.72" y2="36.54" gradientTransform="translate(-8.96 10.49) rotate(-16.41)" xlink:href="#linear-gradient"/><linearGradient id="linear-gradient-60" x1="42.73" y1="36.98" x2="56.22" y2="36.98" gradientTransform="matrix(0.96, -0.28, 0.28, 0.96, -9.05, 9.96)" xlink:href="#linear-gradient"/><linearGradient id="linear-gradient-61" x1="44.23" y1="37.42" x2="57.72" y2="37.42" gradientTransform="translate(-9.14 9.43) rotate(-16.41)" xlink:href="#linear-gradient"/><linearGradient id="linear-gradient-62" x1="45.73" y1="37.86" x2="59.21" y2="37.86" gradientTransform="translate(-9.24 8.9) rotate(-16.41)" xlink:href="#linear-gradient"/><linearGradient id="linear-gradient-63" x1="47.23" y1="38.3" x2="60.71" y2="38.3" gradientTransform="translate(-9.33 8.37) rotate(-16.41)" xlink:href="#linear-gradient"/><linearGradient id="linear-gradient-64" x1="48.72" y1="38.74" x2="62.21" y2="38.74" gradientTransform="matrix(0.96, -0.28, 0.28, 0.96, -9.42, 7.84)" xlink:href="#linear-gradient"/><linearGradient id="linear-gradient-65" x1="50.22" y1="39.18" x2="63.71" y2="39.18" gradientTransform="matrix(0.96, -0.28, 0.28, 0.96, -9.51, 7.31)" xlink:href="#linear-gradient"/><linearGradient id="linear-gradient-66" x1="51.72" y1="39.62" x2="65.21" y2="39.62" gradientTransform="translate(-9.6 6.78) rotate(-16.41)" xlink:href="#linear-gradient"/><linearGradient id="linear-gradient-67" x1="53.22" y1="40.07" x2="66.71" y2="40.07" gradientTransform="matrix(0.96, -0.28, 0.28, 0.96, -9.7, 6.25)" xlink:href="#linear-gradient"/><linearGradient id="linear-gradient-68" x1="54.72" y1="40.51" x2="68.21" y2="40.51" gradientTransform="translate(-9.79 5.72) rotate(-16.41)" xlink:href="#linear-gradient"/><linearGradient id="linear-gradient-69" x1="56.22" y1="40.95" x2="69.7" y2="40.95" gradientTransform="translate(-9.88 5.19) rotate(-16.41)" xlink:href="#linear-gradient"/><linearGradient id="linear-gradient-70" x1="57.72" y1="41.39" x2="71.2" y2="41.39" gradientTransform="translate(-9.97 4.66) rotate(-16.41)" xlink:href="#linear-gradient"/><linearGradient id="linear-gradient-71" x1="59.21" y1="41.83" x2="72.7" y2="41.83" gradientTransform="translate(-10.07 4.14) rotate(-16.41)" xlink:href="#linear-gradient"/><linearGradient id="linear-gradient-72" x1="60.71" y1="42.27" x2="74.2" y2="42.27" gradientTransform="translate(-10.16 3.61) rotate(-16.41)" xlink:href="#linear-gradient"/><linearGradient id="linear-gradient-73" x1="62.21" y1="42.71" x2="75.7" y2="42.71" gradientTransform="matrix(0.96, -0.28, 0.28, 0.96, -10.25, 3.08)" xlink:href="#linear-gradient"/><linearGradient id="linear-gradient-74" x1="63.71" y1="43.15" x2="77.2" y2="43.15" gradientTransform="translate(-10.34 2.55) rotate(-16.41)" xlink:href="#linear-gradient"/><linearGradient id="linear-gradient-75" x1="65.21" y1="43.6" x2="78.7" y2="43.6" gradientTransform="matrix(0.96, -0.28, 0.28, 0.96, -10.44, 2.02)" xlink:href="#linear-gradient"/><linearGradient id="linear-gradient-76" x1="66.71" y1="44.04" x2="80.2" y2="44.04" gradientTransform="matrix(0.96, -0.28, 0.28, 0.96, -10.53, 1.49)" xlink:href="#linear-gradient"/><linearGradient id="linear-gradient-77" x1="68.21" y1="44.48" x2="81.69" y2="44.48" gradientTransform="translate(-10.62 0.96) rotate(-16.41)" xlink:href="#linear-gradient"/><linearGradient id="linear-gradient-78" x1="69.71" y1="44.92" x2="83.19" y2="44.92" gradientTransform="translate(-10.71 0.43) rotate(-16.41)" xlink:href="#linear-gradient"/><linearGradient id="linear-gradient-79" x1="71.2" y1="45.36" x2="84.69" y2="45.36" gradientTransform="matrix(0.96, -0.28, 0.28, 0.96, -10.81, -0.1)" xlink:href="#linear-gradient"/><linearGradient id="linear-gradient-80" x1="72.7" y1="45.8" x2="86.19" y2="45.8" gradientTransform="matrix(0.96, -0.28, 0.28, 0.96, -10.9, -0.63)" xlink:href="#linear-gradient"/><linearGradient id="linear-gradient-81" x1="74.2" y1="46.24" x2="87.69" y2="46.24" gradientTransform="translate(-10.99 -1.16) rotate(-16.41)" xlink:href="#linear-gradient"/><linearGradient id="linear-gradient-82" x1="75.7" y1="46.68" x2="89.19" y2="46.68" gradientTransform="translate(-11.08 -1.68) rotate(-16.41)" xlink:href="#linear-gradient"/><linearGradient id="linear-gradient-83" x1="77.2" y1="47.13" x2="90.69" y2="47.13" gradientTransform="matrix(0.96, -0.28, 0.28, 0.96, -11.17, -2.21)" xlink:href="#linear-gradient"/><linearGradient id="linear-gradient-84" x1="78.7" y1="47.57" x2="92.18" y2="47.57" gradientTransform="translate(-11.27 -2.74) rotate(-16.41)" xlink:href="#linear-gradient"/><linearGradient id="linear-gradient-85" x1="80.2" y1="48.01" x2="93.68" y2="48.01" gradientTransform="translate(-11.36 -3.27) rotate(-16.41)" xlink:href="#linear-gradient"/><linearGradient id="linear-gradient-86" x1="81.69" y1="48.45" x2="95.18" y2="48.45" gradientTransform="translate(-11.45 -3.8) rotate(-16.41)" xlink:href="#linear-gradient"/><linearGradient id="linear-gradient-87" x1="83.19" y1="48.89" x2="96.68" y2="48.89" gradientTransform="translate(-11.54 -4.33) rotate(-16.41)" xlink:href="#linear-gradient"/><linearGradient id="linear-gradient-88" x1="84.69" y1="49.33" x2="98.18" y2="49.33" gradientTransform="matrix(0.96, -0.28, 0.28, 0.96, -11.64, -4.86)" xlink:href="#linear-gradient"/><linearGradient id="linear-gradient-89" x1="86.19" y1="49.77" x2="99.68" y2="49.77" gradientTransform="matrix(0.96, -0.28, 0.28, 0.96, -11.73, -5.39)" xlink:href="#linear-gradient"/><linearGradient id="linear-gradient-90" x1="87.69" y1="50.21" x2="101.18" y2="50.21" gradientTransform="translate(-11.82 -5.92) rotate(-16.41)" xlink:href="#linear-gradient"/><linearGradient id="linear-gradient-91" x1="89.19" y1="50.66" x2="102.67" y2="50.66" gradientTransform="matrix(0.96, -0.28, 0.28, 0.96, -11.91, -6.45)" xlink:href="#linear-gradient"/><linearGradient id="linear-gradient-92" x1="90.69" y1="51.1" x2="104.17" y2="51.1" gradientTransform="matrix(0.96, -0.28, 0.28, 0.96, -12.01, -6.98)" xlink:href="#linear-gradient"/><linearGradient id="linear-gradient-93" x1="92.18" y1="51.54" x2="105.67" y2="51.54" gradientTransform="translate(-12.1 -7.5) rotate(-16.41)" xlink:href="#linear-gradient"/><linearGradient id="linear-gradient-94" x1="93.68" y1="51.98" x2="107.17" y2="51.98" gradientTransform="translate(-12.19 -8.03) rotate(-16.41)" xlink:href="#linear-gradient"/><linearGradient id="linear-gradient-95" x1="95.18" y1="52.42" x2="108.67" y2="52.42" gradientTransform="matrix(0.96, -0.28, 0.28, 0.96, -12.28, -8.56)" xlink:href="#linear-gradient"/><linearGradient id="linear-gradient-96" x1="96.68" y1="52.86" x2="110.17" y2="52.86" gradientTransform="translate(-12.37 -9.09) rotate(-16.41)" xlink:href="#linear-gradient"/><linearGradient id="linear-gradient-97" x1="98.18" y1="53.3" x2="111.67" y2="53.3" gradientTransform="matrix(0.96, -0.28, 0.28, 0.96, -12.47, -9.62)" xlink:href="#linear-gradient"/><linearGradient id="linear-gradient-98" x1="99.68" y1="53.74" x2="113.16" y2="53.74" gradientTransform="translate(-12.56 -10.15) rotate(-16.41)" xlink:href="#linear-gradient"/><linearGradient id="linear-gradient-99" x1="101.18" y1="54.11" x2="114.66" y2="54.11" gradientTransform="translate(36.56 42.41) rotate(-36.2)" xlink:href="#linear-gradient"/><linearGradient id="linear-gradient-100" x1="102.72" y1="54.33" x2="116.16" y2="54.33" gradientTransform="translate(36.56 42.41) rotate(-36.2)" xlink:href="#linear-gradient"/><linearGradient id="linear-gradient-101" x1="104.35" y1="54.55" x2="117.66" y2="54.55" gradientTransform="translate(36.56 42.41) rotate(-36.2)" xlink:href="#linear-gradient"/><linearGradient id="linear-gradient-102" x1="105.98" y1="54.77" x2="119.16" y2="54.77" gradientTransform="translate(36.56 42.41) rotate(-36.2)" xlink:href="#linear-gradient"/><linearGradient id="linear-gradient-103" x1="107.61" y1="54.99" x2="120.09" y2="54.99" gradientTransform="translate(36.56 42.41) rotate(-36.2)" xlink:href="#linear-gradient"/><linearGradient id="linear-gradient-104" x1="109.23" y1="56.17" x2="120.09" y2="56.17" gradientTransform="translate(36.56 42.41) rotate(-36.2)" xlink:href="#linear-gradient"/><linearGradient id="linear-gradient-105" x1="-0.07" y1="73.92" x2="79.54" y2="-5.7" gradientTransform="translate(-12.91 30.84) rotate(-36.2)" xlink:href="#linear-gradient"/></defs><title>annevotetext</title><rect class="cls-1" x="-38.81" y="15.67" width="156.22" height="38.44" transform="translate(39.97 26.94) rotate(-19.8)"/><g class="cls-2"><polygon class="cls-3" points="8.76 54.83 21.78 91 0 61.24 8.76 54.83"/><polygon class="cls-4" points="10.08 53.87 23.93 92.36 23.01 92.69 21.78 91 8.76 54.83 10.08 53.87"/><polygon class="cls-5" points="11.39 52.91 25.4 91.83 23.93 92.36 10.08 53.87 11.39 52.91"/><polygon class="cls-6" points="12.71 51.95 26.87 91.3 25.4 91.83 11.39 52.91 12.71 51.95"/><polygon class="cls-7" points="14.02 50.98 28.34 90.77 26.87 91.3 12.71 51.95 14.02 50.98"/><polygon class="cls-8" points="14.48 50.65 15.43 50.3 29.81 90.24 28.34 90.77 14.02 50.98 14.48 50.65"/><rect class="cls-9" x="-26.89" y="37.22" width="1.56" height="42.44" transform="translate(28.13 6.18) rotate(-19.8)"/><rect class="cls-10" x="-25.42" y="36.69" width="1.56" height="42.44" transform="translate(28.4 6.65) rotate(-19.8)"/><rect class="cls-11" x="-23.95" y="36.16" width="1.56" height="42.44" transform="translate(28.67 7.11) rotate(-19.8)"/><rect class="cls-12" x="-22.48" y="35.63" width="1.56" height="42.44" transform="translate(28.93 7.58) rotate(-19.8)"/><rect class="cls-13" x="-21.01" y="35.1" width="1.56" height="42.44" transform="translate(29.2 8.05) rotate(-19.8)"/><rect class="cls-14" x="-19.54" y="34.57" width="1.56" height="42.44" transform="translate(29.46 8.51) rotate(-19.8)"/><rect class="cls-15" x="-18.07" y="34.04" width="1.56" height="42.44" transform="translate(29.73 8.98) rotate(-19.8)"/><rect class="cls-16" x="-16.6" y="33.51" width="1.56" height="42.44" transform="translate(30 9.44) rotate(-19.8)"/><rect class="cls-17" x="-15.13" y="32.98" width="1.56" height="42.44" transform="translate(30.26 9.91) rotate(-19.8)"/><rect class="cls-18" x="-13.66" y="32.45" width="1.56" height="42.44" transform="translate(30.53 10.38) rotate(-19.8)"/><rect class="cls-19" x="-12.19" y="31.92" width="1.56" height="42.44" transform="translate(30.79 10.84) rotate(-19.8)"/><rect class="cls-20" x="-10.72" y="31.39" width="1.56" height="42.44" transform="translate(31.06 11.31) rotate(-19.8)"/><rect class="cls-21" x="-9.25" y="30.87" width="1.56" height="42.44" transform="translate(31.33 11.78) rotate(-19.8)"/><rect class="cls-22" x="-7.78" y="30.34" width="1.56" height="42.44" transform="translate(31.59 12.24) rotate(-19.8)"/><rect class="cls-23" x="-6.31" y="29.81" width="1.56" height="42.44" transform="translate(31.86 12.71) rotate(-19.8)"/><rect class="cls-24" x="-4.84" y="29.28" width="1.56" height="42.44" transform="translate(32.12 13.18) rotate(-19.8)"/><rect class="cls-25" x="-3.37" y="28.75" width="1.56" height="42.44" transform="translate(32.39 13.64) rotate(-19.8)"/><rect class="cls-26" x="-1.9" y="28.22" width="1.56" height="42.44" transform="translate(32.66 14.11) rotate(-19.8)"/><rect class="cls-27" x="-0.43" y="27.69" width="1.56" height="42.44" transform="translate(32.92 14.58) rotate(-19.8)"/><rect class="cls-28" x="1.03" y="27.16" width="1.56" height="42.44" transform="translate(33.19 15.04) rotate(-19.8)"/><rect class="cls-29" x="2.5" y="26.63" width="1.56" height="42.44" transform="translate(33.46 15.51) rotate(-19.8)"/><rect class="cls-30" x="3.97" y="26.1" width="1.56" height="42.44" transform="translate(33.72 15.98) rotate(-19.8)"/><rect class="cls-31" x="5.44" y="25.57" width="1.56" height="42.44" transform="translate(33.99 16.44) rotate(-19.8)"/><rect class="cls-32" x="6.91" y="25.05" width="1.56" height="42.44" transform="translate(34.25 16.91) rotate(-19.8)"/><rect class="cls-33" x="8.38" y="24.52" width="1.56" height="42.44" transform="translate(34.52 17.38) rotate(-19.8)"/><rect class="cls-34" x="9.85" y="23.99" width="1.56" height="42.44" transform="translate(34.79 17.84) rotate(-19.8)"/><rect class="cls-35" x="11.32" y="23.46" width="1.56" height="42.44" transform="translate(35.05 18.31) rotate(-19.8)"/><rect class="cls-36" x="12.79" y="22.93" width="1.56" height="42.44" transform="translate(35.32 18.78) rotate(-19.8)"/><rect class="cls-37" x="14.26" y="22.4" width="1.56" height="42.44" transform="translate(35.58 19.24) rotate(-19.8)"/><rect class="cls-38" x="15.73" y="21.87" width="1.56" height="42.44" transform="translate(35.85 19.71) rotate(-19.8)"/><rect class="cls-39" x="17.2" y="21.34" width="1.56" height="42.44" transform="translate(36.12 20.18) rotate(-19.8)"/><rect class="cls-40" x="18.67" y="20.81" width="1.56" height="42.44" transform="translate(36.38 20.64) rotate(-19.8)"/><rect class="cls-41" x="20.14" y="20.28" width="1.56" height="42.44" transform="translate(36.65 21.11) rotate(-19.8)"/><rect class="cls-42" x="21.61" y="19.75" width="1.56" height="42.44" transform="translate(36.91 21.58) rotate(-19.8)"/><rect class="cls-43" x="23.08" y="19.23" width="1.56" height="42.44" transform="translate(37.18 22.04) rotate(-19.8)"/><rect class="cls-44" x="24.55" y="18.7" width="1.56" height="42.44" transform="translate(37.45 22.51) rotate(-19.8)"/><rect class="cls-45" x="26.02" y="18.17" width="1.56" height="42.44" transform="translate(37.71 22.98) rotate(-19.8)"/><rect class="cls-46" x="27.49" y="17.64" width="1.56" height="42.44" transform="translate(37.98 23.44) rotate(-19.8)"/><rect class="cls-47" x="28.96" y="17.11" width="1.56" height="42.44" transform="translate(38.24 23.91) rotate(-19.8)"/><rect class="cls-48" x="30.43" y="16.58" width="1.56" height="42.44" transform="translate(38.51 24.38) rotate(-19.8)"/><rect class="cls-49" x="31.9" y="16.05" width="1.56" height="42.44" transform="translate(38.78 24.84) rotate(-19.8)"/><rect class="cls-50" x="33.37" y="15.52" width="1.56" height="42.44" transform="translate(39.04 25.31) rotate(-19.8)"/><rect class="cls-51" x="34.84" y="14.99" width="1.56" height="42.44" transform="translate(39.31 25.77) rotate(-19.8)"/><rect class="cls-52" x="36.31" y="14.46" width="1.56" height="42.44" transform="translate(39.57 26.24) rotate(-19.8)"/><rect class="cls-53" x="37.78" y="13.93" width="1.56" height="42.44" transform="translate(39.84 26.71) rotate(-19.8)"/><rect class="cls-54" x="39.25" y="13.41" width="1.56" height="42.44" transform="translate(40.11 27.17) rotate(-19.8)"/><rect class="cls-55" x="40.72" y="12.88" width="1.56" height="42.44" transform="translate(40.37 27.64) rotate(-19.8)"/><rect class="cls-56" x="42.19" y="12.35" width="1.56" height="42.44" transform="translate(40.64 28.11) rotate(-19.8)"/><rect class="cls-57" x="43.66" y="11.82" width="1.56" height="42.44" transform="translate(40.91 28.57) rotate(-19.8)"/><rect class="cls-58" x="45.13" y="11.29" width="1.56" height="42.44" transform="translate(41.17 29.04) rotate(-19.8)"/><rect class="cls-59" x="46.6" y="10.76" width="1.56" height="42.44" transform="translate(41.44 29.51) rotate(-19.8)"/><rect class="cls-60" x="48.07" y="10.23" width="1.56" height="42.44" transform="translate(41.7 29.97) rotate(-19.8)"/><rect class="cls-61" x="49.54" y="9.7" width="1.56" height="42.44" transform="translate(41.97 30.44) rotate(-19.8)"/><rect class="cls-62" x="51.01" y="9.17" width="1.56" height="42.44" transform="translate(42.24 30.91) rotate(-19.8)"/><rect class="cls-63" x="52.48" y="8.64" width="1.56" height="42.44" transform="translate(42.5 31.37) rotate(-19.8)"/><rect class="cls-64" x="53.95" y="8.11" width="1.56" height="42.44" transform="translate(42.77 31.84) rotate(-19.8)"/><rect class="cls-65" x="55.42" y="7.58" width="1.56" height="42.44" transform="translate(43.03 32.31) rotate(-19.8)"/><rect class="cls-66" x="56.89" y="7.06" width="1.56" height="42.44" transform="translate(43.3 32.77) rotate(-19.8)"/><rect class="cls-67" x="58.36" y="6.53" width="1.56" height="42.44" transform="translate(43.57 33.24) rotate(-19.8)"/><rect class="cls-68" x="59.83" y="6" width="1.56" height="42.44" transform="translate(43.83 33.71) rotate(-19.8)"/><rect class="cls-69" x="61.3" y="5.47" width="1.56" height="42.44" transform="translate(44.1 34.17) rotate(-19.8)"/><rect class="cls-70" x="62.77" y="4.94" width="1.56" height="42.44" transform="translate(44.36 34.64) rotate(-19.8)"/><rect class="cls-71" x="64.24" y="4.41" width="1.56" height="42.44" transform="translate(44.63 35.11) rotate(-19.8)"/><rect class="cls-72" x="65.71" y="3.88" width="1.56" height="42.44" transform="translate(44.9 35.57) rotate(-19.8)"/><rect class="cls-73" x="67.18" y="3.35" width="1.56" height="42.44" transform="translate(45.16 36.04) rotate(-19.8)"/><rect class="cls-74" x="68.65" y="2.82" width="1.56" height="42.44" transform="translate(45.43 36.51) rotate(-19.8)"/><rect class="cls-75" x="70.12" y="2.29" width="1.56" height="42.44" transform="translate(45.69 36.97) rotate(-19.8)"/><rect class="cls-76" x="71.59" y="1.76" width="1.56" height="42.44" transform="translate(45.96 37.44) rotate(-19.8)"/><rect class="cls-77" x="73.06" y="1.24" width="1.56" height="42.44" transform="translate(46.23 37.91) rotate(-19.8)"/><rect class="cls-78" x="74.53" y="0.71" width="1.56" height="42.44" transform="translate(46.49 38.37) rotate(-19.8)"/><rect class="cls-79" x="76" y="0.18" width="1.56" height="42.44" transform="translate(46.76 38.84) rotate(-19.8)"/><rect class="cls-80" x="77.47" y="-0.35" width="1.56" height="42.44" transform="translate(47.03 39.31) rotate(-19.8)"/><rect class="cls-81" x="78.94" y="-0.88" width="1.56" height="42.44" transform="translate(47.29 39.77) rotate(-19.8)"/><rect class="cls-82" x="80.41" y="-1.41" width="1.56" height="42.44" transform="translate(47.56 40.24) rotate(-19.8)"/><rect class="cls-83" x="81.88" y="-1.94" width="1.56" height="42.44" transform="translate(47.82 40.7) rotate(-19.8)"/><rect class="cls-84" x="83.35" y="-2.47" width="1.56" height="42.44" transform="translate(48.09 41.17) rotate(-19.8)"/><rect class="cls-85" x="84.82" y="-3" width="1.56" height="42.44" transform="translate(48.36 41.64) rotate(-19.8)"/><rect class="cls-86" x="86.29" y="-3.53" width="1.56" height="42.44" transform="translate(48.62 42.1) rotate(-19.8)"/><rect class="cls-87" x="87.76" y="-4.06" width="1.56" height="42.44" transform="translate(48.89 42.57) rotate(-19.8)"/><rect class="cls-88" x="89.23" y="-4.58" width="1.56" height="42.44" transform="translate(49.15 43.04) rotate(-19.8)"/><rect class="cls-89" x="90.7" y="-5.11" width="1.56" height="42.44" transform="translate(49.42 43.5) rotate(-19.8)"/><rect class="cls-90" x="92.17" y="-5.64" width="1.56" height="42.44" transform="translate(49.69 43.97) rotate(-19.8)"/><rect class="cls-91" x="93.64" y="-6.17" width="1.56" height="42.44" transform="translate(49.95 44.44) rotate(-19.8)"/><rect class="cls-92" x="95.11" y="-6.7" width="1.56" height="42.44" transform="translate(50.22 44.9) rotate(-19.8)"/><rect class="cls-93" x="96.58" y="-7.23" width="1.56" height="42.44" transform="translate(50.48 45.37) rotate(-19.8)"/><rect class="cls-94" x="98.05" y="-7.76" width="1.56" height="42.44" transform="translate(50.75 45.84) rotate(-19.8)"/><rect class="cls-95" x="99.52" y="-8.29" width="1.56" height="42.44" transform="translate(51.02 46.3) rotate(-19.8)"/><rect class="cls-96" x="100.99" y="-8.82" width="1.56" height="42.44" transform="translate(51.28 46.77) rotate(-19.8)"/><rect class="cls-97" x="102.46" y="-9.35" width="1.56" height="42.44" transform="translate(51.55 47.24) rotate(-19.8)"/><rect class="cls-98" x="103.93" y="-9.88" width="1.56" height="42.44" transform="translate(51.81 47.7) rotate(-19.8)"/><polygon class="cls-99" points="147.72 2.68 149.19 2.15 163.52 41.94 163.06 42.27 162.1 42.62 147.72 2.68"/><polygon class="cls-100" points="149.19 2.15 150.66 1.63 164.83 40.98 163.52 41.94 149.19 2.15"/><polygon class="cls-101" points="150.66 1.63 152.13 1.1 166.14 40.02 164.83 40.98 150.66 1.63"/><polygon class="cls-102" points="152.13 1.1 153.6 0.57 167.46 39.05 166.14 40.02 152.13 1.1"/><polygon class="cls-103" points="153.6 0.57 154.52 0.24 155.75 1.92 168.77 38.09 167.46 39.05 153.6 0.57"/><polygon class="cls-104" points="168.77 38.09 155.75 1.92 177.53 31.68 168.77 38.09"/></g><path class="cls-105" d="M121.22,27.43-28.59,81.35l-14-39L107.19-11.57Zm-148,50.08L117.38,25.62l-12-33.35L-38.79,44.16Z" transform="translate(49.47 11.57)"/><text class="cls-106" transform="matrix(0.94, -0.34, 0.34, 0.94, 32.02, 75.51)"><tspan class="cls-107">V</tspan><tspan class="cls-108" x="13.02" y="0">O</tspan><tspan x="28.27" y="0">TE ANNE!</tspan></text></svg>