<svg id="Layer_1" data-name="Layer 1" xmlns="http://www.w3.org/2000/svg" xmlns:xlink="http://www.w3.org/1999/xlink" viewBox="0 0 85.72 61.44"><defs><style>.cls-1{fill:none;}.cls-2{fill:#c7b299;stroke-width:2px;}.cls-2,.cls-3,.cls-4,.cls-5{stroke:#000;stroke-miterlimit:10;}.cls-3,.cls-4{fill:#fff;}.cls-3{stroke-width:0.02px;}.cls-5{fill:#22b573;}.cls-6{clip-path:url(#clip-path);}.cls-7{fill:#dd7;}.cls-8{clip-path:url(#clip-path-2);}</style><clipPath id="clip-path" transform="translate(-461.29 -566.15)"><rect class="cls-1" x="482.26" y="560.43" width="34.44" height="85.52" transform="translate(1240.02 348.39) rotate(110.64)"/></clipPath><clipPath id="clip-path-2" transform="translate(-461.29 -566.15)"><rect class="cls-1" x="486.66" y="558.48" width="30.44" height="83.21" transform="translate(1240.36 341.94) rotate(110.64)"/></clipPath></defs><title>annearmvial</title><path class="cls-2" d="M475.52,572.18v-4.79h-4.16v4.8c-1.53.47-2.58,1.44-2.58,2.57v12.83c0,.61,2.09,1.1,4.68,1.1s4.69-.49,4.69-1.1V574.76C478.15,573.62,477.08,572.64,475.52,572.18Z" transform="translate(-461.29 -566.15)"/><ellipse class="cls-3" cx="12.16" cy="1.18" rx="2.08" ry="0.49"/><path class="cls-4" d="M471.06,567.2v2.1c0,.31,1.07.56,2.38.56s2.38-.25,2.38-.56v-2.1Z" transform="translate(-461.29 -566.15)"/><ellipse class="cls-4" cx="12.16" cy="1.05" rx="2.38" ry="0.55"/><path class="cls-5" d="M473.46,578.13c-2.59,0-4.68-.36-4.68-.81v5.53a.11.11,0,0,0,0,.08c0,.44,2.1.81,4.69.81s4.69-.37,4.69-.81V577.4C477.9,577.81,475.9,578.13,473.46,578.13Z" transform="translate(-461.29 -566.15)"/><path d="M469.59,579.33c.57.36.51.32,1.11-.05.05,0,0-.13,0-.12-.84,0-.37.8.15,1s2,0,1.84-.94-1.34-.6-1.43.16c-.15,1.22,1.82,1.25,2.53,1.1,2.89-.62-1.2-1.59-.27-.22a1.41,1.41,0,0,0,2.32-.39c.07-.29-.06-1.23-.54-.9-.8.55.57,2.16,1.52,1.39.46-.38.59-1.6-.26-1.26a.05.05,0,0,0,0,.06.86.86,0,0,0,1.12.92c.08,0,.05-.15,0-.13a9.51,9.51,0,0,1-7.92-.71c-.07-.05-.14.07-.06.11Z" transform="translate(-461.29 -566.15)"/><path d="M469.9,582.76a13.35,13.35,0,0,0,7.47-1.45c.08,0,0-.15-.06-.11-.5.25-1.65.95-1.12,1.69,0,0,0,0,.08,0,.74-.13.39-1.14,0-1.39a1.2,1.2,0,0,0-1.79,1.17s0,.08.08.06c.54-.19.15-1.2-.29-1.32-.86-.25-1.6.85-1.31,1.56,0,0,.06.07.1,0a1.07,1.07,0,0,0-.23-1.88c-.82-.31-2.19.36-1.72,1.34.21.44.84.76.78,0-.12-1.32-1.71-.3-2.06.17-.05.07.06.13.11.07Z" transform="translate(-461.29 -566.15)"/><g class="cls-6"><path class="cls-7" d="M466.12,587.61c1.95-5.17,8.92-7.32,15.59-4.81L545,606.64,541.47,616h0L538,625.35,462.59,597l3.53-9.36Z" transform="translate(-461.29 -566.15)"/><g class="cls-8"><path d="M461.29,598.35l4-10.76c2.27-6,9.85-8.58,17.25-5.79L547,606.06l-8.11,21.53Zm82.4,9.67-62.16-23.41c-5.93-2.24-12.31-.48-13.93,3.83l-3,8,73.1,27.53Z" transform="translate(-461.29 -566.15)"/></g></g></svg>