<svg id="Layer_1" data-name="Layer 1" xmlns="http://www.w3.org/2000/svg" xmlns:xlink="http://www.w3.org/1999/xlink" viewBox="0 0 35.26 85.56"><defs><style>.cls-1{fill:none;}.cls-2{fill:#f2f2f2;stroke-width:0.88px;}.cls-2,.cls-3{stroke:#000;stroke-miterlimit:10;}.cls-3{fill:#29abe2;stroke-width:0.67px;}.cls-4{clip-path:url(#clip-path);}.cls-5{fill:#dd7;}.cls-6{clip-path:url(#clip-path-2);}</style><clipPath id="clip-path" transform="translate(-225.04 -205.97)"><rect class="cls-1" x="234.14" y="208.7" width="34.44" height="85.52"/></clipPath><clipPath id="clip-path-2" transform="translate(-225.04 -205.97)"><rect class="cls-1" x="232.39" y="208.7" width="30.44" height="83.21"/></clipPath></defs><title>annearmwater</title><polygon class="cls-2" points="31.23 64.56 30.35 83.16 3.18 85.09 4.35 60.19 31.23 64.56"/><ellipse class="cls-2" cx="228.81" cy="278.61" rx="12.3" ry="3.28" transform="translate(-285.32 288.06) rotate(-87.3)"/><polygon class="cls-3" points="31.18 65.5 30.39 82.18 12.52 84.21 13.57 61.89 31.18 65.5"/><ellipse class="cls-3" cx="238.08" cy="279.02" rx="11.02" ry="2.15" transform="translate(-276.89 297.72) rotate(-87.3)"/><g class="cls-4"><path class="cls-5" d="M248.54,288.17c-5.52,0-10-5.77-10-12.89V207.65h20v80.52Z" transform="translate(-225.04 -205.97)"/><g class="cls-6"><path d="M260.3,288.91H248.8c-6.45,0-11.5-6.19-11.5-14.1V206h23Zm-20-80.52v66.42c0,6.33,3.89,11.68,8.5,11.68h8.5v-78.1Z" transform="translate(-225.04 -205.97)"/></g></g></svg>