<svg id="Layer_1" data-name="Layer 1" xmlns="http://www.w3.org/2000/svg" viewBox="0 0 721.47 856.69"><defs><style>.cls-1{fill:#ed1e79;}.cls-2{fill:#fdedf4;}.cls-3{fill:#fbd2e4;}.cls-4{fill:#fde4ef;stroke:#bc9eab;stroke-miterlimit:10;stroke-width:6px;}.cls-5{fill:#bc9eab;}.cls-6{fill:#adfca0;}.cls-7{fill:#ae8195;}.cls-8{fill:#e9ff73;}.cls-9{fill:#ffbd45;}.cls-10{fill:#fde9f2;}.cls-11{fill:#b9000f;}.cls-12{fill:#e2d0ff;}.cls-13{fill:#f0ff2e;}.cls-14{fill:#738fff;}.cls-15{fill:#ff5600;}.cls-16{fill:#010017;}.cls-17{fill:#455fff;}.cls-18{fill:#00075c;}.cls-19{fill:#0500b9;}</style></defs><title>ariel</title><path class="cls-1" d="M359,419a71.18,71.18,0,0,0-15.1-47.9,1.46,1.46,0,0,0-1.46-.38c-17.26,6.12-28.6,23.76-26.22,42.06,1.36,10.51,6.56,20,11.89,28.93,6.16,10.37,12.28,20.45,15.72,32.11,7.25,24.58,5.83,51.22,6.23,76.57.21,13.09.06,26.24.73,39.31.51,10,2.13,20.71,8.65,28.76,6,7.43,16,12.43,25.56,9.17,10.07-3.44,15.29-14,19.39-23l-2.75-.36c2.84,12.83,5.1,26,8.58,38.62,2.57,9.31,11.08,9.36,19.38,8.29a56.58,56.58,0,0,0,43.85-32.59l-2.74-.35a213.94,213.94,0,0,0,8.53,34.46c2.81,8.25,6,16.64,11.42,23.57,10.68,13.66,27.68,14.16,41.05,4,14.71-11.16,21-29.9,22.79-47.66,2-20.25-1.61-40.67-5.6-60.47-4.63-22.94-8.79-46.11-14.45-68.83a152.77,152.77,0,0,0-10.78-30.69c-4.88-9.91-11-19.18-16.83-28.53l-39.16-62.69c-5.83-9.34-11.31-19-17.87-27.9-4.85-6.53-10.63-12.89-18.2-16.24-19.81-8.76-36.24,10.14-48.26,23.19-14.12,15.33-27.65,33.15-28,54.89,0,1.93,3,1.93,3,0,.31-18.91,11.24-34.84,23.32-48.54,10.77-12.22,26.27-32.65,44.89-28.14,17.22,4.18,26.87,25.56,35.37,39.17l34.39,55.07c10.93,17.51,23.35,34.79,30.28,54.39,6.69,18.89,9.84,39,13.86,58.6,7.45,36.22,20.77,79.25,3.46,114.62-8.35,17-31.09,33.95-48.09,17.09-7.19-7.13-10.83-17.2-14-26.6a214.17,214.17,0,0,1-8.24-33.57,1.51,1.51,0,0,0-2.74-.36,53.88,53.88,0,0,1-38.25,30.58c-4.12.83-8.9,1.49-13.09.72-6.59-1.21-7-8.82-8.19-14.27q-3.4-15.31-6.79-30.63a1.51,1.51,0,0,0-2.74-.36c-4.35,9.58-10.56,22.41-22.77,22.6-13.06.19-21.34-12.48-23.79-23.83-2.66-12.28-1.77-25.48-2-38-.21-13.32-.38-26.65-.64-40-.45-22.85-1.81-46.36-12.36-67.11-9.58-18.82-27.56-38.48-19.28-61.1a37.56,37.56,0,0,1,10.74-15.47,35.28,35.28,0,0,1,7.93-5.18c1.92-.91,2.11-1.43,3.84.46a27,27,0,0,1,2.69,4A67.89,67.89,0,0,1,356,419c-.1,1.93,2.9,1.92,3,0Z" transform="translate(48.03 -235.1)"/><path class="cls-1" d="M355.35,442l22.33,32.56c.91,1.32,3.34.55,2.75-1.15l-1-2.81c-.64-1.81-3.54-1-2.9.8l1,2.8,2.74-1.15L358,440.48c-1.09-1.58-3.69-.08-2.6,1.52Z" transform="translate(48.03 -235.1)"/><path class="cls-1" d="M373.7,451.66c-2.56-4.64-8.6-5.79-13.21-3.53-5.89,2.89-7.61,10-7.53,16a1.5,1.5,0,0,0,3,0c-.06-4.41.74-9.44,4.38-12.39,3.22-2.6,8.62-2.5,10.77,1.39.94,1.69,3.53.18,2.59-1.51Z" transform="translate(48.03 -235.1)"/><path class="cls-1" d="M345.5,446.6A105.49,105.49,0,0,0,385,475.89c1.75.75,3.28-1.84,1.51-2.59a103.82,103.82,0,0,1-38.89-28.82c-1.24-1.48-3.36.65-2.12,2.12Z" transform="translate(48.03 -235.1)"/><path class="cls-1" d="M374.06,433.42a37.51,37.51,0,0,0-10.93,10.91c-2.6,3.83-6.48,9.09-7.32,13.73-.39,2.17.36,4.17,1,6.24,1.07,3.69,2.18,7.35,3.27,11l6.54,22.05c.55,1.85,3.45,1.06,2.9-.8-3.34-11.24-7.52-22.55-10.09-34-1.25-5.56,2.21-10.24,5.11-14.86A35.74,35.74,0,0,1,375.57,436c1.63-1,.12-3.63-1.51-2.6Z" transform="translate(48.03 -235.1)"/><path class="cls-1" d="M453.24,501.3l38,28c1.56,1.15,3.05-1.46,1.51-2.59l-38-28c-1.55-1.14-3.05,1.46-1.51,2.59Z" transform="translate(48.03 -235.1)"/><path class="cls-1" d="M483.52,497.52A123.73,123.73,0,0,0,458,535.93c-.74,1.76,1.84,3.29,2.59,1.52a121.38,121.38,0,0,1,25.09-37.81c1.35-1.39-.77-3.51-2.12-2.12Z" transform="translate(48.03 -235.1)"/><path class="cls-1" d="M456.41,516c7.81,3.49,15.56,7.28,23.49,10.49a17.86,17.86,0,0,0,8.24,1.72c4.26-.31,8.09-2.5,12.46-1.69,1.89.35,2.7-2.54.8-2.9a17.51,17.51,0,0,0-7.17.22c-4.8,1-8.35,1.83-13.16-.11-7.82-3.16-15.45-6.88-23.15-10.32-1.75-.78-3.27,1.8-1.51,2.59Z" transform="translate(48.03 -235.1)"/><path class="cls-1" d="M469.79,501.47c-3.21,12.92,2.78,25,8.86,36.1.92,1.69,3.51.18,2.59-1.52-5.66-10.32-11.56-21.71-8.55-33.79.46-1.87-2.43-2.67-2.9-.79Z" transform="translate(48.03 -235.1)"/><path class="cls-1" d="M402.4,511.65a123.37,123.37,0,0,1,21.89,35.85c.7,1.77,3.61,1,2.89-.8a127.64,127.64,0,0,0-22.66-37.17c-1.27-1.46-3.39.67-2.12,2.12Z" transform="translate(48.03 -235.1)"/><path class="cls-1" d="M434.14,508.52q-19.8,11-38.83,23.28c-1.62,1.05-.12,3.64,1.51,2.59q19-12.27,38.84-23.28c1.68-.94.17-3.53-1.52-2.59Z" transform="translate(48.03 -235.1)"/><path class="cls-1" d="M414.8,504a33,33,0,0,1-2.21,12.51c-1.26,3.18-3.3,6-4.58,9.12-2.64,6.57-.47,13.27,1.88,19.58.67,1.79,3.57,1,2.89-.8-1.37-3.69-3-7.66-3-11.66-.07-4.55,2.17-8,4.16-11.85a36,36,0,0,0,3.9-16.9,1.5,1.5,0,0,0-3,0Z" transform="translate(48.03 -235.1)"/><path class="cls-1" d="M400.81,526.79l26.81,8.6c1.84.59,2.63-2.3.8-2.89l-26.81-8.6c-1.84-.59-2.63,2.3-.8,2.89Z" transform="translate(48.03 -235.1)"/><path class="cls-1" d="M402.51,415.86a343.88,343.88,0,0,0,24.32,37.81c1.13,1.53,3.74,0,2.59-1.52a342.81,342.81,0,0,1-24.32-37.8c-.93-1.69-3.53-.18-2.59,1.51Z" transform="translate(48.03 -235.1)"/><path class="cls-1" d="M431.92,413.92A71.16,71.16,0,0,0,399,442.4c-1,1.65,1.58,3.16,2.59,1.52a68.63,68.63,0,0,1,31.87-27.41c1.77-.75.25-3.34-1.51-2.59Z" transform="translate(48.03 -235.1)"/><path class="cls-1" d="M406.66,404l-.24,45a1.5,1.5,0,0,0,3,0l.24-45a1.5,1.5,0,0,0-3,0Z" transform="translate(48.03 -235.1)"/><path class="cls-1" d="M389.1,437c11.72-3.07,22.54,6.63,34.07,7.52,1.92.15,1.91-2.85,0-3-12.05-.93-22.43-10.67-34.87-7.41a1.5,1.5,0,0,0,.8,2.89Z" transform="translate(48.03 -235.1)"/><path class="cls-1" d="M361.74,575.29l30.47,25.44c1.47,1.23,3.61-.88,2.12-2.12l-30.46-25.44c-1.48-1.23-3.61.89-2.13,2.12Z" transform="translate(48.03 -235.1)"/><path class="cls-1" d="M387.62,563.09c-2.52,3.55-3.46,7.91-6,11.4-2.84,3.85-7.28,6.15-10.27,9.92-5.07,6.39-7.13,14.5-9,22.28-.45,1.87,2.44,2.67,2.9.79,2.11-8.71,4.43-18,11.32-24.24,2.77-2.51,5.94-4.52,8-7.68,2.3-3.45,3.26-7.56,5.67-11,1.12-1.57-1.48-3.07-2.59-1.51Z" transform="translate(48.03 -235.1)"/><path class="cls-1" d="M371.12,563q-.4,12.75-.82,25.5c-.17,5.68-.38,11.17,3.53,15.68,1.26,1.47,3.38-.66,2.12-2.12-4.3-5-2.65-13.38-2.46-19.45l.63-19.61c.07-1.93-2.93-1.93-3,0Z" transform="translate(48.03 -235.1)"/><path class="cls-1" d="M358,589.37c12.2.16,22,11.72,34.57,8.28a1.5,1.5,0,0,0-.8-2.89c-11.74,3.22-22-8.23-33.77-8.39-1.93,0-1.93,3,0,3Z" transform="translate(48.03 -235.1)"/><path class="cls-1" d="M491.66,572.34Q514.49,594.5,538,616a1.52,1.52,0,0,0,2.36-.3,10.31,10.31,0,0,0,1-7c-.31-1.9-3.2-1.09-2.89.8l-.73,4.72,2.35-.3q-23.48-21.47-46.31-43.63c-1.38-1.34-3.51.78-2.12,2.12Z" transform="translate(48.03 -235.1)"/><path class="cls-1" d="M523.19,569.51a170.2,170.2,0,0,1-26.48,36.21c-1.34,1.39.78,3.52,2.12,2.12A172.7,172.7,0,0,0,525.78,571c.93-1.69-1.66-3.21-2.59-1.51Z" transform="translate(48.03 -235.1)"/><path class="cls-1" d="M509.78,564.34A179.59,179.59,0,0,1,515.16,626c-.17,1.92,2.83,1.91,3,0a182,182,0,0,0-5.49-62.43,1.5,1.5,0,0,0-2.89.8Z" transform="translate(48.03 -235.1)"/><path class="cls-1" d="M494.1,599.06a23.82,23.82,0,0,0,12-1.31,22.6,22.6,0,0,0,4.53-2.34c1-.69,8.07-6.46,8.26-3,.11,1.92,3.11,1.93,3,0-.21-3.81-3.93-5.42-7.28-3.82-2.77,1.33-4.75,4-7.51,5.41a21.37,21.37,0,0,1-13,2c-1.9-.26-1.89,2.75,0,3Z" transform="translate(48.03 -235.1)"/><path class="cls-1" d="M424.74,572.24l30.57,33.4c1.31,1.42,3.43-.7,2.12-2.13l-30.57-33.39c-1.31-1.43-3.42.7-2.12,2.12Z" transform="translate(48.03 -235.1)"/><path class="cls-1" d="M462.25,570.38c-22.53-6.32-40.72,10.58-55.49,25.36a1.5,1.5,0,0,0,2.12,2.12c13.93-13.94,31.22-30.58,52.57-24.59a1.5,1.5,0,0,0,.8-2.89Z" transform="translate(48.03 -235.1)"/><path class="cls-1" d="M433.48,555.8c-5.37,8.07-5.27,19.36-6.23,28.68q-1.87,18.22-2.6,36.54c-.08,1.93,2.92,1.92,3,0,.45-10.92,1.17-21.83,2.22-32.71.95-9.87.54-22.5,6.2-31,1.07-1.61-1.52-3.11-2.59-1.51Z" transform="translate(48.03 -235.1)"/><path class="cls-1" d="M403.34,575.83c12.38,7.59,28.37,25.3,43.69,13,1.51-1.2-.63-3.31-2.12-2.12-13.61,10.88-29.25-6.89-40.05-13.52-1.66-1-3.16,1.58-1.52,2.59Z" transform="translate(48.03 -235.1)"/><path class="cls-1" d="M450,454a115.21,115.21,0,0,0,41.09,29.62c1.76.75,3.29-1.83,1.51-2.59a113.45,113.45,0,0,1-40.48-29.15c-1.28-1.45-3.4.68-2.12,2.12Z" transform="translate(48.03 -235.1)"/><path class="cls-1" d="M480.1,434.93a279.56,279.56,0,0,0-23.78,64.85c-.44,1.87,2.45,2.68,2.89.79a276.52,276.52,0,0,1,23.48-64.13c.88-1.71-1.7-3.23-2.59-1.51Z" transform="translate(48.03 -235.1)"/><path class="cls-1" d="M460.94,445a233.36,233.36,0,0,0,12.94,65.66c.64,1.81,3.54,1,2.89-.8A230.65,230.65,0,0,1,463.94,445c-.1-1.92-3.1-1.93-3,0Z" transform="translate(48.03 -235.1)"/><path class="cls-1" d="M445.8,484.93c27.34-.9,61.32-3.63,75.06-31.53.85-1.73-1.74-3.25-2.59-1.52-13.25,26.91-46.18,29.19-72.47,30.05-1.93.06-1.93,3.06,0,3Z" transform="translate(48.03 -235.1)"/><path class="cls-1" d="M359.76,617.76c-13.6,12.24-23.38,26.73-31.32,43.09-2.09,4.31-4.28,8.7-7.41,12.37-2.33,2.72-5.72,4.86-7.34,8.13-3.42,6.89,5.85,12.48,10.3,16.1a1.52,1.52,0,0,0,2.56-1.06l3.45-28h-3a66,66,0,0,1-6.87,23.08l2.74.36A24.08,24.08,0,0,1,324,677.09c.69-1.8-2.2-2.58-2.9-.8l-3.4,8.77,2.89.79a14.68,14.68,0,0,1,3.11-5.09,1.52,1.52,0,0,0-1.06-2.56c-3.35-.31-9,3.72-5.19,7a1.54,1.54,0,0,0,2.12,0l.33-.3a1.51,1.51,0,0,0,.39-1.46l-.11-.5a1.51,1.51,0,0,0-1.44-1.1h-.33c-1.93.07-1.94,3.07,0,3h.33l-1.45-1.1.16-.66h2.12l3.07-1.84-1.07-2.56a19.41,19.41,0,0,0-3.87,6.42c-.69,1.81,2.2,2.57,2.89.79l3.41-8.76-2.9-.8A26.93,26.93,0,0,0,320,692.6a1.51,1.51,0,0,0,2.74.36A70.16,70.16,0,0,0,330,668.37c.21-1.92-2.76-1.88-3,0l-3.45,28,2.56-1.06c-2.58-2.1-7.5-5.13-9.1-8.18-2.76-5.23,4.62-9.83,7.17-13.08,4.18-5.34,6.72-11.67,9.74-17.69a123.79,123.79,0,0,1,28-36.5c1.44-1.29-.69-3.41-2.12-2.12Z" transform="translate(48.03 -235.1)"/><path class="cls-1" d="M320.29,673.73c-2.65,3.54-3,10.29,2.87,10.55a4.14,4.14,0,0,0,4.1-2.42,9,9,0,0,0,.23-3.79,14.57,14.57,0,0,1,1.94-7.59,1.51,1.51,0,0,0-2.36-1.81,36.7,36.7,0,0,0-11.75,17.86c-.56,1.85,2.34,2.64,2.89.8a34.05,34.05,0,0,1,11-16.54L326.84,669a18,18,0,0,0-2.32,7.36c-.09,1.14.74,5-1.66,4.89-3.33-.19-.8-4.87,0-6,1.16-1.54-1.44-3-2.59-1.51Z" transform="translate(48.03 -235.1)"/><path class="cls-1" d="M316.5,684v9a1.5,1.5,0,0,0,3,0v-9a1.5,1.5,0,0,0-3,0Z" transform="translate(48.03 -235.1)"/><path class="cls-1" d="M507.89,684.34C498,705,499.72,729.15,489.3,749.62L492,750c-1.23-8.53-7.51-19.9-17.78-14.55a1.53,1.53,0,0,0-.69,1.69,12.86,12.86,0,0,0,8.86,10.73c2.55.76,4.69.22,6.78,3,1,1.28,1.3,3.82,1.8,5.3l4.21,12.35c.62,1.82,3.52,1,2.89-.8l-3.9-11.47c-.95-2.79-1.54-7-3.75-9.19a6.6,6.6,0,0,0-4.08-1.61c-5.4-.82-9.12-3.32-9.92-9.11l-.69,1.7c8.43-4.39,12.48,6.5,13.38,12.75.18,1.29,2.19,1.44,2.74.36,10.44-20.51,8.71-44.6,18.59-65.28.83-1.73-1.75-3.26-2.59-1.51Z" transform="translate(48.03 -235.1)"/><path class="cls-1" d="M491,740.5h-1a1.5,1.5,0,0,0,0,3h1a1.5,1.5,0,0,0,0-3Z" transform="translate(48.03 -235.1)"/><path class="cls-1" d="M489.61,742.72q-2.6-4-5.08-8.1c-.74-1.2-2.9-.79-2.8.76a7.76,7.76,0,0,1-2.05,6l2.56,1.06a17.18,17.18,0,0,0-4.06-9.32c-1-1.21-2.83.1-2.5,1.46a14.21,14.21,0,0,0,9.15,10.12c1.82.65,2.61-2.24.8-2.89a11.13,11.13,0,0,1-7.06-8l-2.51,1.46a13.62,13.62,0,0,1,3.18,7.2c.14,1.18,1.59,2.12,2.56,1.06a10.72,10.72,0,0,0,2.93-8.16l-2.79.75q2.49,4.08,5.08,8.1c1,1.62,3.64.12,2.59-1.51Z" transform="translate(48.03 -235.1)"/><path class="cls-2" d="M325.48,376c5.36-31,22.38-58.56,39.12-85.2,10-15.91,21.59-33,39.67-38.08a118.6,118.6,0,0,1,38,85.38,41.16,41.16,0,0,1-5.6-27.81c.2-1.29.43-2.75-.35-3.8a4.75,4.75,0,0,0-2.57-1.42l-28.19-8.39,7.48-6.28c-9.86-5.8-24-2.59-30.37,6.89l5.9-.73a46,46,0,0,0-12.76,34.72A117.54,117.54,0,0,0,423.41,316c-1-4.25-7-4.25-11.22-3.12s-10.07,1.64-11.6-2.44l-9.61,5.8,6.94-13.83A44.4,44.4,0,0,0,392.87,340c7.65-2.21,10.93-13.24,5.73-19.26L400,311" transform="translate(48.03 -235.1)"/><path class="cls-3" d="M326.93,376.39c5.86-32.53,23.77-61.22,41.36-88.63C376,275.71,385,263,398.21,256.6c1.6-.78,3.84-2.27,5.61-1.88,1.42.31,3,2.51,4,3.51,2.6,2.67,5.08,5.48,7.41,8.4a117.49,117.49,0,0,1,25.54,71.46l2.8-.76a41,41,0,0,1-5.83-18.56c-.2-3.6,2-9.87-.12-13s-8.69-3.66-11.93-4.62L406,295.22l.66,2.51,7.48-6.28a1.51,1.51,0,0,0-.3-2.36,25.29,25.29,0,0,0-32.43,7.43,1.51,1.51,0,0,0,1.3,2.26l5.9-.73-1.06-2.56a48.43,48.43,0,0,0-13.2,35.78,1.5,1.5,0,0,0,1.5,1.5,122.48,122.48,0,0,0,48.37-15.48,1.52,1.52,0,0,0,.68-1.7c-3.86-10.85-18.93,1.88-23-5.92a1.52,1.52,0,0,0-2.05-.54l-9.62,5.8,2,2.06,7-13.84a1.5,1.5,0,0,0-2.6-1.51,46.74,46.74,0,0,0-5.19,38.78,1.52,1.52,0,0,0,1.84,1.05,14.31,14.31,0,0,0,8.49-18.26c-.57-1.5-1.25-2.34-1.44-4-.25-2.32.79-5.47,1.13-7.8.27-1.89-2.62-2.71-2.9-.8-.41,2.9-1.85,7.08-1.43,10,.24,1.63,1.61,2.82,2.11,4.49a11.25,11.25,0,0,1-6.76,13.52l1.85,1.05a43.76,43.76,0,0,1,4.9-36.47l-2.6-1.51-6.94,13.83a1.51,1.51,0,0,0,2.05,2l9.62-5.8-2.05-.54c4.56,8.82,19.95-2.4,22.66,5.21l.69-1.69a119,119,0,0,1-46.85,15.07l1.5,1.5a45.41,45.41,0,0,1,12.32-33.66c.8-.84.31-2.73-1.06-2.56l-5.9.73L384,298a22.2,22.2,0,0,1,28.32-6.36l-.3-2.35-7.48,6.28a1.51,1.51,0,0,0,.66,2.5l16.92,5,8.45,2.52c1.7.51,2.69.58,3.82,2.06,1.27,1.69.8,2.22.59,4.24a43.72,43.72,0,0,0,6,26.87,1.51,1.51,0,0,0,2.79-.75,120.53,120.53,0,0,0-23.26-69.47c-2-2.68-4.05-5.29-6.23-7.8-1.41-1.61-2.85-3.19-4.34-4.71-1.11-1.14-3.27-4-4.75-4.58-1.84-.68-4.08.58-5.83,1.3A47.3,47.3,0,0,0,388.74,259a77.49,77.49,0,0,0-14.42,14.86c-10.66,13.91-19.72,29.52-28.27,44.79-10,17.87-18.36,36.73-22,57-.34,1.89,2.55,2.7,2.9.8Z" transform="translate(48.03 -235.1)"/><path class="cls-3" d="M387,320.5a1.5,1.5,0,0,0,0-3,1.5,1.5,0,0,0,0,3Z" transform="translate(48.03 -235.1)"/><path class="cls-3" d="M389.88,312.25c-8.21-1-14,5.29-16.73,12.4-3.76,9.81-5.18,20.87-6.47,31.25a1.51,1.51,0,0,0,2.26,1.29A93.48,93.48,0,0,0,403.16,317c.35-.79.16-2-.89-2.21-6.28-1.05-11.9,2.06-15.27,7.36-4.53,7.12-3.15,16.12-1.65,23.93a1.52,1.52,0,0,0,2.74.36c16.7-27.26,33.59-55.31,41.44-86.61q1.49-5.94,2.49-12c.45-2.71,1.52-6.33.93-9.07-.94-4.38-5.46-4.22-8.88-2.94-13.4,5-26.86,15.42-36.46,25.89-5.56,6.08-5.49,14.59-7.41,22.26a156.06,156.06,0,0,1-10.55,29.16c-.83,1.73,1.76,3.26,2.59,1.51a161.68,161.68,0,0,0,9.41-24.52c2.53-8.74,2.35-20,8.69-26.94a105.29,105.29,0,0,1,20.87-17A112.45,112.45,0,0,1,422.38,240c2.29-1.12,5.7-3.53,7.67.25.77,1.48-.76,5.94-1.07,7.74-6.07,35.41-25,66.82-43.48,97l2.74.35c-1.11-5.77-2.26-12.17-.35-17.92s7.15-10.75,13.58-9.68l-.9-2.2a90.61,90.61,0,0,1-33.15,39.08l2.26,1.3a196.6,196.6,0,0,1,4.56-24.56c2-7.72,6-17.26,15.64-16.09,1.91.23,1.89-2.78,0-3Z" transform="translate(48.03 -235.1)"/><path class="cls-3" d="M402.05,317.07c6.91-5.51,3.79-15.46-2.95-19.54-9.09-5.5-21.32-3.62-30.25,1.12a1.53,1.53,0,0,0,0,2.6,366.53,366.53,0,0,0,50.5,26.85,1.52,1.52,0,0,0,2.26-1.29,22.56,22.56,0,0,0-12.39-19.47v2.59l3.43-2.46c.81-.58,1.13-2.09,0-2.59l-15.95-7.06c-1.74-.77-3.27,1.81-1.51,2.59l15.95,7.06v-2.59l-3.44,2.46a1.52,1.52,0,0,0,0,2.59,19.51,19.51,0,0,1,10.91,16.88l2.26-1.3a364.94,364.94,0,0,1-50.5-26.86v2.6c6.71-3.58,14.57-5.08,22.05-3.21,7,1.75,15.44,10.58,7.51,16.91-1.51,1.21.62,3.32,2.12,2.12Z" transform="translate(48.03 -235.1)"/><path class="cls-3" d="M389.63,302.11l8.25-5.64c1.58-1.08.08-3.68-1.52-2.59l-8.24,5.64c-1.59,1.08-.09,3.68,1.51,2.59Z" transform="translate(48.03 -235.1)"/><path class="cls-3" d="M356,365.3a4.27,4.27,0,0,0,2.32-6.16c-1.83-3.48-6.09-2.66-9-1.26-1.48.71-.56,2.65.76,2.79,9.64,1,15.29,10.09,19.75,17.72a1.52,1.52,0,0,0,2.59,0c5-10-9.64-17.14-14-6.85-.53,1.23.65,3,2.05,2a17.16,17.16,0,0,0,7.54-18.26c-.29-1.4-2-1.3-2.74-.36a29.86,29.86,0,0,1-8.1,7.5l2.2.89a13.75,13.75,0,0,1,.18-6.12l-3-.4a65.61,65.61,0,0,1-2.44,14.53,1.51,1.51,0,0,0,2.51,1.46c7.22-8.06,9.51-20,12.36-30.13,3.51-12.45,6.51-25,9.52-37.59a1.51,1.51,0,0,0-2.9-.8l-10.39,38.61,2.95.4a30.26,30.26,0,0,1,19.62-25.84c1.8-.67,1-3.57-.8-2.9a33.39,33.39,0,0,0-21.82,28.74c-.14,1.71,2.52,2,2.95.4l10.39-38.61-2.9-.8c-2.7,11.31-5.4,22.63-8.47,33.85-2.9,10.57-5.13,24.17-12.64,32.54l2.51,1.46a69.88,69.88,0,0,0,2.55-15.32c.1-1.67-2.61-2.07-2.94-.4a21.31,21.31,0,0,0-.18,7.72,1.52,1.52,0,0,0,2.21.9,34.37,34.37,0,0,0,9.17-8.58l-2.74-.36A14.08,14.08,0,0,1,358.87,371l2.06,2.05c2.69-6.28,12.14-2.69,8.86,3.82h2.59c-5.11-8.74-11.45-18.07-22.34-19.2l.76,2.8,4.36,1.93c-1.77.71-1,3.62.8,2.9Z" transform="translate(48.03 -235.1)"/><path class="cls-3" d="M427.22,243a1.5,1.5,0,0,0,0-3,1.5,1.5,0,0,0,0,3Z" transform="translate(48.03 -235.1)"/><path class="cls-3" d="M417.42,247.71a34.32,34.32,0,0,0-13.77,15.51c-.77,1.73,1.65,3.25,2.59,1.52a43.75,43.75,0,0,1,9.56-12c1.44-1.29-.68-3.4-2.12-2.12a46,46,0,0,0-10,12.64l2.59,1.52a31.6,31.6,0,0,1,12.7-14.44,1.5,1.5,0,0,0-1.52-2.59Z" transform="translate(48.03 -235.1)"/><path class="cls-3" d="M419.8,250a7.44,7.44,0,0,1,.54-5.65c.59-1.49-1.51-2.39-2.51-1.46q-7.32,6.78-15.09,13c-1.06.85-.14,2.56,1.06,2.56,7.61,0,16.73-1,19-9.64a1.5,1.5,0,0,0-2.74-1.15l-4.82,8.95c-.77,1.43.72,2.62,2.05,2.06a83.41,83.41,0,0,0,17.46-10.09c1.52-1.15,0-3.76-1.52-2.6a82.94,82.94,0,0,1-17.45,10.1l2,2.05,4.82-9L419.92,248c-1.89,7.17-10,7.48-16.12,7.44l1.06,2.56q7.77-6.26,15.09-13l-2.5-1.46a11.32,11.32,0,0,0-.54,7.24c.4,1.89,3.3,1.09,2.89-.79Z" transform="translate(48.03 -235.1)"/><path class="cls-3" d="M418.39,265.58a1.5,1.5,0,0,0,0-3,1.5,1.5,0,0,0,0,3Z" transform="translate(48.03 -235.1)"/><path class="cls-3" d="M420.81,264.47l2-5.88c.61-1.83-2.28-2.62-2.89-.8l-2,5.89c-.62,1.83,2.28,2.62,2.89.79Z" transform="translate(48.03 -235.1)"/><path class="cls-3" d="M384.08,326.36a1.5,1.5,0,0,0,0-3,1.5,1.5,0,0,0,0,3Z" transform="translate(48.03 -235.1)"/><ellipse class="cls-4" cx="426.07" cy="69.6" rx="67.43" ry="62.75"/><path class="cls-5" d="M342.9,278.32a1.5,1.5,0,0,0,0-3,1.5,1.5,0,0,0,0,3Z" transform="translate(48.03 -235.1)"/><path class="cls-5" d="M343.88,275.38a1.5,1.5,0,0,0,0-3,1.5,1.5,0,0,0,0,3Z" transform="translate(48.03 -235.1)"/><path class="cls-6" d="M341.52,273.89a14.31,14.31,0,0,1-3.51,8.52l2.51,1.46a18,18,0,0,0,1.08-6.7l-1.9,1.45a3.6,3.6,0,0,0,4.47-3.7L341.61,276a3.22,3.22,0,0,0,5.27-.82,1.53,1.53,0,0,0-.54-2.05,6.13,6.13,0,0,0-8,2.26c-1.67,2.88-.12,6.66,2.76,8.06,1.42.68,2.72.76,3.78-.48a5.8,5.8,0,0,0,1.29-3.84,6.3,6.3,0,0,0-4.86-6.22c-1.89-.33-2.7,2.56-.8,2.89a3.35,3.35,0,0,1,1.68,5.62l1.06-.44a3,3,0,0,1-2.42-3.84,3,3,0,0,1,4-1.42l-.54-2.05c-.08.4-.26.47-.56.21a1.51,1.51,0,0,0-2.56,1.06c.12.51-.11.78-.67.81a1.52,1.52,0,0,0-1.9,1.44,15.61,15.61,0,0,1-1,5.9,1.51,1.51,0,0,0,2.51,1.46,17.72,17.72,0,0,0,4.39-10.64c.13-1.93-2.87-1.92-3,0Z" transform="translate(48.03 -235.1)"/><path class="cls-6" d="M407.11,278.79a2.38,2.38,0,0,0,2.24,2.23,2.23,2.23,0,0,0,1.21-4.25,2.41,2.41,0,0,0-3.13.8l2.75,1.16,1.11-3.28c.62-1.83-2.28-2.62-2.89-.8l-1.12,3.28a1.5,1.5,0,0,0,.87,1.77,1.52,1.52,0,0,0,1.87-.62c-.74,1-1.39-.11-.9-.72a.37.37,0,0,1,.35-.28c.23,0,.24-.05,0,0,.38.06.52,0,.61.75a1.55,1.55,0,0,0-1.5-1.5,1.51,1.51,0,0,0-1.5,1.5Z" transform="translate(48.03 -235.1)"/><path class="cls-6" d="M413.38,276.73a9.44,9.44,0,0,0,1.85-9.59,1.52,1.52,0,0,0-2.51-.66l-.15.13a1.47,1.47,0,0,0-.39,1.46c.56,1.66,3.22,2.16,3.75.17.73-2.74-3-3.37-4.86-3.16a7.75,7.75,0,0,0-5.65,11.81,1.51,1.51,0,0,0,2.74-.36l1.18-5.31c.41-1.88-2.48-2.68-2.89-.8l-1.18,5.32,2.74-.36a4.87,4.87,0,0,1,.36-5.81,4.73,4.73,0,0,1,2.26-1.37,4.67,4.67,0,0,1,1.17-.18,3.09,3.09,0,0,1,.86.06c.49.2.62-.07.39-.8l.9-.69,1.13.68-.39,1.46.15-.13-2.51-.67a6.45,6.45,0,0,1-1.07,6.68c-1.26,1.45.85,3.58,2.12,2.12Z" transform="translate(48.03 -235.1)"/><path class="cls-6" d="M408.59,268.52a1.5,1.5,0,0,0,0-3,1.5,1.5,0,0,0,0,3Z" transform="translate(48.03 -235.1)"/><path class="cls-6" d="M405.44,269.66c1,1.43,2.47,3,4.43,2.57,1.73-.41,3-2.39,2-4s-3.6-.15-2.59,1.51c-.08-.13.05-.41,0-.47.08.22-.22,0-.09.05-.48-.1-.9-.78-1.16-1.15a1.54,1.54,0,0,0-2-.54,1.51,1.51,0,0,0-.54,2.05Z" transform="translate(48.03 -235.1)"/><path class="cls-6" d="M408.05,272.62a8.84,8.84,0,0,0,5.19-3.78,1.53,1.53,0,0,0-.9-2.21,3.39,3.39,0,0,0-4.11,1.59c-.91,1.7,1.68,3.22,2.59,1.51.18-.35.37-.34.73-.2l-.9-2.21a5.74,5.74,0,0,1-3.39,2.41,1.5,1.5,0,0,0,.79,2.89Z" transform="translate(48.03 -235.1)"/><path class="cls-6" d="M413,267.15a17.92,17.92,0,0,0-15.35,3.14A1.52,1.52,0,0,0,398,273c4.34,1.55,10,3.19,14.7,2.42,2.4-.39,5.16-2.14,4.08-4.9-.7-1.77-3.6-1-2.89.8s-7.12.84-7.87.72a41.14,41.14,0,0,1-7.22-1.93l.36,2.74a15.09,15.09,0,0,1,13-2.83c1.87.45,2.67-2.44.79-2.9Z" transform="translate(48.03 -235.1)"/><path d="M341.5,270.87a39.38,39.38,0,0,0,4.66-12.3c.37-1.89-2.52-2.7-2.89-.8a36.75,36.75,0,0,1-4.36,11.58,1.5,1.5,0,0,0,2.59,1.52Z" transform="translate(48.03 -235.1)"/><path d="M347.85,272.94A28.55,28.55,0,0,1,357,267.5c1.8-.65,1-3.55-.8-2.89a32.46,32.46,0,0,0-10.5,6.21c-1.45,1.28.68,3.4,2.12,2.12Z" transform="translate(48.03 -235.1)"/><path d="M346.73,271.84A147.87,147.87,0,0,0,361,253.17c1.06-1.62-1.54-3.13-2.59-1.51a143.16,143.16,0,0,1-13.82,18.06c-1.29,1.43.83,3.56,2.12,2.12Z" transform="translate(48.03 -235.1)"/><path d="M406.09,260.55l5-17.63a1.5,1.5,0,0,0-2.89-.8l-4.95,17.63a1.5,1.5,0,0,0,2.89.8Z" transform="translate(48.03 -235.1)"/><path d="M415.8,274.18q20.43-5.87,40.37-13.21c1.8-.66,1-3.56-.79-2.89q-20,7.34-40.38,13.21a1.5,1.5,0,0,0,.8,2.89Z" transform="translate(48.03 -235.1)"/><path d="M420.3,266.62l5.5-11.48c.83-1.73-1.76-3.26-2.59-1.51l-5.5,11.48c-.83,1.73,1.76,3.25,2.59,1.51Z" transform="translate(48.03 -235.1)"/><path class="cls-7" d="M348.51,320.37c6.76,11.8,16.14,20.81,30.61,20.59,14.18-.22,24.38-10.65,33.29-20.45a1.52,1.52,0,0,0-.31-2.36,13,13,0,0,0-8.7-1.17c-5.55.88-10.95,2.4-16.55,3.14a133.74,133.74,0,0,1-34.1,0c-1.91-.24-1.89,2.76,0,3a134.65,134.65,0,0,0,29.56.53c4.25-.4,8.49-1,12.69-1.81,4.86-.94,10.89-3.6,15.59-1.09l-.3-2.35c-8,8.79-17.09,18.65-29.73,19.51-13.95,1-23-7.75-29.46-19a1.5,1.5,0,0,0-2.59,1.51Z" transform="translate(48.03 -235.1)"/><path class="cls-8" d="M65.45,415.58a1.5,1.5,0,0,0,0-3,1.5,1.5,0,0,0,0,3Z" transform="translate(48.03 -235.1)"/><path class="cls-8" d="M311.72,296.73c-6.1-8.77-14.4,9.72-16.23,13.15-6.66,12.49-12,25.81-19.05,38.07s-20.53,20.56-31.3,29.25l-34.86,28.09,2.56,1.06-.8-48.5c-.07-4.07-.85-9.08.05-13.07s4.86-6.39,8.09-8.54a156.48,156.48,0,0,1,16.36-9.37c22.5-11.32,47.08-19.22,66-36.47,1.43-1.3-.7-3.42-2.12-2.12-20.73,18.87-48.34,26.29-72.39,39.68-5.28,2.94-11.39,6.05-15.66,10.42-4.45,4.55-3.51,10.63-3.41,16.5l.85,51.47a1.52,1.52,0,0,0,2.56,1.06L242.71,383c9.64-7.76,20.15-15.07,28.9-23.84,7.8-7.83,11.62-18.28,16.4-28q4.23-8.64,8.72-17.15c.93-1.77,9.75-19.52,12.4-15.71,1.09,1.58,3.7.08,2.59-1.51Z" transform="translate(48.03 -235.1)"/><path class="cls-8" d="M296.38,309.38c-5.36-11.37-21.61,5-25.56,9.37C260,330.81,248.5,341.21,234.2,349.08c-1.45.8-.46,3.37,1.16,2.75q17-6.57,34.44-11.7c1.85-.54,1.06-3.44-.8-2.89q-17.46,5.13-34.44,11.69l1.16,2.75a126.36,126.36,0,0,0,28.23-21c3.48-3.45,25-30.1,29.84-19.74.82,1.74,3.41.22,2.59-1.52Z" transform="translate(48.03 -235.1)"/><path class="cls-8" d="M266.12,325.6,216.5,344.21c-1.77.67-1.1,3.41.8,2.89A324,324,0,0,1,282,336.36v-3l-13.6,1.26.76,2.8c11.11-6.66,14.59-19.64,17.19-31.52a1.53,1.53,0,0,0-1.45-1.9c-3.59-.13-9.44-1.47-12.75.36-3.06,1.68-4.94,6.38-6.35,9.34-4,8.33-6.54,17.51-13.6,23.91l2.56,1.06a133.13,133.13,0,0,1,3.3-39.44l-2.89-.8a68.94,68.94,0,0,1-2.7,11.42c-.61,1.84,2.29,2.62,2.89.79a68.59,68.59,0,0,0,2.7-11.41c.27-1.86-2.44-2.72-2.89-.8a135.84,135.84,0,0,0-3.41,40.24,1.52,1.52,0,0,0,2.56,1.06c5.56-5,8.5-11.7,11.4-18.49a80.76,80.76,0,0,1,5.05-10.53c2-3.26,3.33-3.83,7.19-4,2.29-.07,4.65.18,6.94.26l-1.45-1.9c-2.41,11-5.43,23.51-15.81,29.73-1.19.71-.79,2.93.76,2.79l13.6-1.26c1.9-.17,2-3.12,0-3a328.4,328.4,0,0,0-65.53,10.85l.8,2.89,49.61-18.61c1.79-.67,1-3.57-.79-2.89Z" transform="translate(48.03 -235.1)"/><path class="cls-8" d="M257.58,334.33c-3.95-3-7.85,2.11-10.16,4.82a94.07,94.07,0,0,0-11.59,17.24,1.5,1.5,0,0,0,2.59,1.51,91,91,0,0,0,15.31-39.2c.15-1.06-.63-2.21-1.84-1.84-11.43,3.48-12.69,20.67-15.16,30.21l-13.14,50.82c-.3,1.16,1.1,2.51,2.21,1.69,14.67-10.88,23.64-26.83,30.67-43.36,1.6-3.79,4.66-11.65-2.86-10.24-7.08,1.33-13.82,9.23-17.72,14.75a1.52,1.52,0,0,0,1.3,2.26,59.7,59.7,0,0,0,32.22-14.2,1.51,1.51,0,0,0-1.06-2.56c-14.51-.36-26.59,8-37.72,16.39l2.26,1.29-.32-42.69a1.52,1.52,0,0,0-2.8-.76c-7.74,13.6-11,28.85-13.45,44.16-.49,3.07-3.31,11.06,1.7,11.88,2.66.44,5.29-2.2,7.17-3.55l10.63-7.69-2-2.05a70.27,70.27,0,0,1-8.67,12.48c-1.27,1.45.85,3.58,2.12,2.13a73.67,73.67,0,0,0,9.14-13.09c.66-1.22-.77-3-2.05-2.06l-7.6,5.49c-1.82,1.32-6.9,6.75-8.28,2.34-.58-1.86.88-5.69,1.2-7.62q.69-4.23,1.51-8.45c2.23-11.32,5.48-22.37,11.22-32.45l-2.79-.76.32,42.69c0,1,1.31,2,2.26,1.3,10.66-8,22.25-16.32,36.2-16l-1.06-2.57A56,56,0,0,1,237.19,360l1.29,2.26a43,43,0,0,1,6.92-7.77c1.39-1.2,5.22-4.94,7.31-5,4.47-.19,2.31,2.51,1.56,4.3s-1.58,3.73-2.41,5.57c-1.22,2.71-2.5,5.38-3.86,8-5.87,11.39-13.34,22-23.72,29.65l2.2,1.7,11.16-43.15c1.82-7,3.62-14.07,5.46-21.09,1.48-5.68,3.28-12.78,9.58-14.7l-1.84-1.84a89.13,89.13,0,0,1-15,38.48l2.59,1.51c1.59-3,13.46-24.15,17.65-21,1.54,1.17,3-1.44,1.51-2.59Z" transform="translate(48.03 -235.1)"/><path class="cls-9" d="M310.67,291.61c-21.8-8.24-34.12,20.16-49.72,29-17.59,10-39.45,9.1-55.86,21.63a1.52,1.52,0,0,0,.76,2.8l8.62,0a1.5,1.5,0,0,0,0-3l-8.62,0,.76,2.79c15.15-11.57,35.06-11.8,51.93-19.62,8.8-4.09,15-10.56,21.45-17.64,7.51-8.27,17.85-17.6,29.89-13.05,1.8.69,2.59-2.21.79-2.89Z" transform="translate(48.03 -235.1)"/><path class="cls-9" d="M321.4,324.8a56.74,56.74,0,0,0-15-10.12c-1.74-.8-3.27,1.78-1.51,2.59a54.2,54.2,0,0,1,14.36,9.65c1.41,1.32,3.53-.8,2.12-2.12Z" transform="translate(48.03 -235.1)"/><path class="cls-9" d="M309.27,301.47c-7.46-2-14.25,1.94-20.82,5-7.72,3.63-15.42,7.32-22.95,11.34-14.58,7.79-28.43,16.91-40.11,28.68a1.5,1.5,0,0,0,2.12,2.12c10.7-10.78,23.24-19.29,36.51-26.58,6.48-3.57,13.11-6.86,19.78-10.05,7.18-3.44,16.49-9.83,24.67-7.65a1.5,1.5,0,0,0,.8-2.89Z" transform="translate(48.03 -235.1)"/><path class="cls-9" d="M296.31,318c-16.92,4.53-34.75,11.45-48.61,22.42-13,10.29-16.77,27.69-29.63,37.92-1.51,1.2.63,3.31,2.13,2.12,12.05-9.59,15.75-25.66,27.14-35.85,13.48-12,32.6-19.11,49.77-23.71a1.51,1.51,0,0,0-.8-2.9Z" transform="translate(48.03 -235.1)"/><path class="cls-10" d="M517.76,452c-.37-2.33,2.9-6.38,4.07-8.24a82.3,82.3,0,0,1,6.6-9.12,88.08,88.08,0,0,1,15.44-14.45c4.63-3.39.15-11.2-4.54-7.77a97.84,97.84,0,0,0-19.85,19.08c-4.86,6.27-11.71,14.54-10.4,22.89.9,5.71,9.57,3.29,8.68-2.39Z" transform="translate(48.03 -235.1)"/><path class="cls-10" d="M546.16,416.79c16.41-9.19,31-20.34,41.9-35.8,10.61-15,17.57-32.16,24.47-49.06,2.19-5.36-6.51-7.69-8.68-2.39-6.41,15.69-13,31.52-22.63,45.56C571,389.92,557.15,400.32,541.62,409c-5.06,2.83-.52,10.61,4.54,7.77Z" transform="translate(48.03 -235.1)"/><path class="cls-10" d="M354.24,495c-29.92,2.4-57.4,12.65-82.58,28.77S221.37,560.31,190.28,562c-5.76.32-5.8,9.32,0,9,30.35-1.69,55.27-19.36,79.78-35.54,12.79-8.45,25.91-16.33,40.31-21.75a161.53,161.53,0,0,1,43.87-9.8c5.73-.46,5.78-9.46,0-9Z" transform="translate(48.03 -235.1)"/><path class="cls-11" d="M307.07,287.57c-17.39-3.73-27.54,10.94-41.17,18.35-12.62,6.85-27.43,8.14-40.32,14.45-13.13,6.43-21.69,18.42-25.12,32.49-4.18,17.17-.67,34.85,2.83,51.8a4.55,4.55,0,0,0,4.34,3.31,132.31,132.31,0,0,0,71.53-19.09,130.89,130.89,0,0,0,28.41-23.06c8.48-9.19,18.26-20.58,15.62-33.95-1.12-5.67-9.8-3.27-8.68,2.4,2.17,11-10.55,22.71-17.61,29.62A123.84,123.84,0,0,1,207.63,399l4.33,3.3c-3.16-15.32-6.6-31.49-2.82-47,3.22-13.2,11.23-23.15,23.82-28.39,11.34-4.73,23.66-6.53,34.81-11.82,11.53-5.47,22.88-21.8,36.91-18.79,5.65,1.21,8.06-7.46,2.39-8.68Z" transform="translate(48.03 -235.1)"/><path class="cls-11" d="M304.17,333.5c-13.35-2-26.66,2.44-35.55,12.79-3.27,3.81.79,9.58,5.45,7.07a96,96,0,0,0,31.19-27c2.8-3.71-2.54-8.35-6.16-6.15l-14.5,8.82,6.61,5.08a27.94,27.94,0,0,1,5.08-9.18c3.69-4.42-2.65-10.82-6.36-6.37a40,40,0,0,0-7.4,13.16c-1.26,3.75,3.36,7.06,6.61,5.08L303.65,328l-6.16-6.16a85.76,85.76,0,0,1-28,23.75l5.45,7.06c6.64-7.72,16.58-12,26.8-10.47,5.67.83,8.11-7.84,2.39-8.68Z" transform="translate(48.03 -235.1)"/><path class="cls-11" d="M276.61,346.44c1.53-5.4,2.62-11.26-.56-16.31a11,11,0,0,0-12.42-4.74c-5.95,1.59-11.83,5-17.43,7.58-4.35,2-8.74,4.25-11.68,8.14-7.45,9.86,1.88,21.12-2,31.78-4.14,11.33-16.8,12.45-24.18,20.7l7.07,5.45a260.22,260.22,0,0,1,44-54.67l-7.07-5.46c-1.71,3-9.73,2.17-12.85,3.85-4.76,2.57-6.68,7.59-6.14,12.8,1.35,12.8,12.23,24.53,20.66,33.47,3.92,4.15,8.74,8,14.75,7.8,6.46-.21,10.93-5.37,14.77-9.95a154.63,154.63,0,0,0,23.38-37.76l-5.08,2.07a48,48,0,0,0,17.86,3.6c5.8.08,5.8-8.92,0-9a41.37,41.37,0,0,1-15.47-3.28,4.47,4.47,0,0,0-5.08,2.07,152.31,152.31,0,0,1-16.78,29.34c-3,4.1-6.66,10-11,12.76-5.29,3.38-9.84-2.74-13.05-6.36A114.77,114.77,0,0,1,248,367.45c-2.43-3.7-6.21-9.18-5.76-13.89.42-4.42,6.15-3.76,9.48-4.45,3.59-.75,6.55-2.42,8.41-5.65,2.57-4.47-3.36-9-7.07-5.46a269.41,269.41,0,0,0-45.4,56.5c-2.59,4.3,3.61,9.33,7.07,5.46,5.57-6.25,14.51-7.87,20.23-14.1a29.47,29.47,0,0,0,7.74-21.67c-.32-4.31-2.18-8.45-2.32-12.74-.15-4.94,3.4-7.26,7.35-9.26,4.24-2.16,8.69-4,13-5.9,2.31-1,5.94-3.55,7.84-1,1.67,2.23,0,6.43-.63,8.77-1.58,5.58,7.1,8,8.68,2.39Z" transform="translate(48.03 -235.1)"/><path class="cls-11" d="M311.93,353.68l.31-22.3c.06-4.77-.64-10.1-6.64-10.26-3.85-.09-10.7,2.58-12.1,6.48-1.74,4.87,3.9,10,6.95,13.11s7.83,8.42,12.5,5.18,4.7-12.82,5.11-17.94c1.18-14.41.22-29.17.1-43.62,0-5.79-9-5.8-9,0q.12,13.8.22,27.6c0,4.4.09,8.81-.14,13.21a69.74,69.74,0,0,1-.67,7.21c-.11.73-.69,6-1.18,6.27h4.55c-2.87-1.44-5.41-4.4-7.46-6.8a32.68,32.68,0,0,1-2.44-3.18l-.89,3.32a26.88,26.88,0,0,1,3.41-1.56c-1-2.33-1.46-2.65-1.3-1-.64,1.35-.05,4.29-.07,5.82l-.08,5.81-.18,12.61c-.07,5.8,8.93,5.8,9,0Z" transform="translate(48.03 -235.1)"/><path class="cls-11" d="M297,299.2a14.88,14.88,0,0,0-8.44,2.6A4.52,4.52,0,0,0,292,310c6-1.22,14.29-3.49,18.56-8.2A7.54,7.54,0,0,0,308,290c-5.62-2.77-13,1-18.37,2.86a108.78,108.78,0,0,0-17.75,7.72,98.17,98.17,0,0,0-44.71,54.17c-1.35,4,3.34,6.7,6.61,5.09a31,31,0,0,1,14-3.31c4.65,0,8.46,1.69,12.88,2.65,7.78,1.69,11.26-5.23,12-11.91s-2.08-13.84-8.66-16.4c-5.84-2.28-12.66-.5-15.79,5.11a4.59,4.59,0,0,0,1.61,6.15L280,361c3.6,2.26,8.95-2.48,6.15-6.16a28.75,28.75,0,0,0-26.81-11.32c-10.21,1.32-21,9.29-21,20.49.05,10.48,11.45,18.68,20.6,11.8a10.84,10.84,0,0,0,3.89-12.15c-1.71-5.25-6.81-8.47-11.53-10.74A4.56,4.56,0,0,0,244.7,358c-.52-2.24-5.4,2.89-5.82,3.71a9.3,9.3,0,0,0-.41,7.06c1.69,5.07,7.05,7.34,12.07,7,4.71-.33,10-2.94,10.83-8.06s-2.73-9-7.6-9.37a4.49,4.49,0,0,0-3.88,2.23,31.73,31.73,0,0,0-3.78,25.59c1.52,5.58,10.2,3.21,8.68-2.39a22.64,22.64,0,0,1,2.87-18.65l-3.89,2.22a4.19,4.19,0,0,0-4-.5q-2.65.63-1.53-1.62c.28-.62,2.64-1.57,3.21-2.15a7.62,7.62,0,0,0,1.91-7.45l-6.61,5.08c2.27,1.09,4.91,2.27,6.54,4.25s.88,4.8-2.14,4.46c-7.37-.84-2.32-11,.71-13.44,7.69-6.28,20.58-4.37,26.51,3.43l6.16-6.16-30.19-18.9L256,340.5c2.31-4.15,7.11-.23,7.71,3,.23,1.19.27,5.87-.65,6.64-.66.55-4.31-1.07-5.66-1.41a40.71,40.71,0,0,0-28.1,3.32l6.61,5.09a87.72,87.72,0,0,1,53.55-54.68c2.33-.85,4.68-1.63,7-2.4,1.09-.35,6.6-1.2,7.4-2.09l-.37-1.85L302,297a28,28,0,0,0-3.19,1.6,44.2,44.2,0,0,1-9.13,2.73l3.46,8.23a5.07,5.07,0,0,1,3.9-1.37c5.78-.17,5.8-9.17,0-9Z" transform="translate(48.03 -235.1)"/><path class="cls-11" d="M274,354.05c2.08,7.2,7.68,14.06,15.4,15.43,9,1.6,13.56-7,17.55-13.6,2.51-4.15,9.79-15.61,0-16.65-7.48-.8-13.16,10.11-16.44,15.39l7.77,4.54c2.16-4.46,7.65-12.33.54-15.22-5-2-11,.38-14.54,4.06a4.57,4.57,0,0,0,.91,7.07c6.83,4.18,11.09-2.23,14.09-7.51,2.86-5,6.08-11-1.36-13.75-5.6-2-12.92-2.83-18.24.33-6.83,4.05-5.87,10.31-2.32,16.23a79.23,79.23,0,0,0,14.64,18c4.63,4.18,11,8.35,17.12,4.33,5.41-3.56,8.6-12.52,11.29-18.09a79.8,79.8,0,0,0,7.46-22.31c.88-5.66-7.79-8.1-8.68-2.39-1.29,8.26-4.31,15.86-8.1,23.27-1.59,3.1-3.23,7.74-5.62,10.34-3.24,3.54-7-1.27-9.56-3.87a68.59,68.59,0,0,1-8-9.51c-1-1.4-1.9-2.83-2.77-4.29-1.29-2.14-2.57-3.4.4-4.48a10.81,10.81,0,0,1,4.24-.22,24,24,0,0,1,3,.58c2.07,1,2.47,0,1.22-3.13-.26-.05-2.39,4.2-2.52,4.44-.66,1.17-2.75,3.67-1.77,4.27l.91,7.07a5.72,5.72,0,0,1,3.07-1.92c1.6-.34,2.35.75,1.12-.56l-1.16-4.38c-.43,2.45-2.1,4.91-3.17,7.12-2.51,5.17,4.68,9.52,7.77,4.54,1.25-2,2.49-4,3.89-6,.69-.94,3.36-5.1,4.78-5l-3.18-1.32.61.64-1.32-3.18c0,1.8-3,5.5-3.89,7a48.07,48.07,0,0,1-4.67,7.13c-4.77,5.34-10.44-2-11.83-6.81-1.61-5.56-10.29-3.2-8.68,2.39Z" transform="translate(48.03 -235.1)"/><path class="cls-11" d="M301.46,317.26c1.16-2.8,2.22-5.63,3.21-8.5l-8.23,1.08,5.34,11.29c1.93,4.09,8.52,2,8.38-2.27a255.32,255.32,0,0,0-2.38-27.19c-.53-3.81-6.61-4.35-8.23-1.07a419.76,419.76,0,0,0-31.76,88.31,4.54,4.54,0,0,0,7.52,4.38,93.83,93.83,0,0,0,28.38-63.74c.14-3.74-5.14-6.15-7.69-3.19-11.32,13.2-14.48,30.07-16.93,46.8-.82,5.56,7.16,8.15,8.68,2.39l6.17-23.42c1.07-4.06-3.16-6.68-6.61-5.08-6.36,2.94-10.63,8.49-15.11,13.67l-15.9,18.41,7.68,3.18,2.26-25.83c.35-4-5.11-5.82-7.68-3.18-10.68,10.93-4.38,25.56,2.46,36.61,2.52,4.06,7.91,2,8.39-2.28q1-8.83,1.31-17.71c.22-5.91-8.37-5.62-9,0l-2.52,22.55,7.69-3.18L258,368.09l-5.46,7.07c4.18,2.59,4.65,8.6,9.5,10.93,5.61,2.7,12.27-1,17.09-3.89a51.93,51.93,0,0,0,25-51.91c-.79-5.91-2.27-13.31-6.56-17.83-3.5-3.69-9.37-4.74-13.36-1.15s-4.53,10.05-3.19,15.09a4.54,4.54,0,0,0,7.52,2,27.84,27.84,0,0,0,8.26-21.48,4.56,4.56,0,0,0-7.68-3.18,58.72,58.72,0,0,0-19.57,33.84c-1,5.22,5.13,7.48,8.22,3.47a228.64,228.64,0,0,0,21.74-34c2-3.9-2.13-8.51-6.16-6.16a158.26,158.26,0,0,0-29.12,21.84c-3.62,3.43,1.23,10.1,5.46,7.07A149.85,149.85,0,0,0,294.08,308c2.36-2.64,1-8.06-3.19-7.68-6.47.58-11.42,3.55-16.47,7.47-6.34,4.91-12.58,9.95-18.86,14.93l-37.38,29.62,7.07,5.46L236.57,340c2.34-3.66,7-13.55,12.75-10.22l2.27-8.38c-14.57,1.61-26.67,9-37.56,18.51a159.84,159.84,0,0,0-16,15.62c-4.55,5.26-8.65,11.67-7.63,18.95,1,7.07,6.48,11.61,11.55,16l20.49,17.82c10.9,9.48,24.32,23.74,40.31,18.7,5.51-1.74,3.16-10.43-2.39-8.68-12.79,4-25.19-10.85-33.75-18.3l-15.36-13.36c-4-3.43-11.06-7.8-11.91-13.39-.88-5.82,4.65-11.14,8.34-14.89,4.11-4.18,8.33-8.28,12.75-12.13,8.88-7.72,19.24-14.55,31.2-15.87,4.18-.46,6.45-6,2.27-8.39-7.23-4.22-15-.56-19.72,5.49-6.27,7.95-11.23,17.19-16.66,25.72-3,4.64,3.34,8.4,7.07,5.45l32.8-26,16-12.69c5-4,10.79-10.1,17.53-10.7l-3.18-7.69A138.61,138.61,0,0,1,265.14,322l5.45,7.07a147.5,147.5,0,0,1,27.29-20.44l-6.16-6.15a227.78,227.78,0,0,1-21.73,34l8.23,3.47a51,51,0,0,1,17.25-29.88l-7.68-3.18A19,19,0,0,1,282.17,322l7.52,2c-.6-2.26-.51-8.53,2.26-4,2.25,3.66,3.14,9,3.51,13.17a43.22,43.22,0,0,1-24.11,43c-1.63.81-4.18,2.38-5.89,1.38-1-.58-1.66-2.46-2.23-3.4a18.72,18.72,0,0,0-6.12-6.8c-4.66-2.9-8.42,3.32-5.45,7.07l8.86,11.19c2.72,3.44,7.31.19,7.68-3.18l2.52-22.55h-9q-.32,8.88-1.31,17.71l8.38-2.27c-4.44-7.17-11.25-18.14-3.87-25.7l-7.68-3.18L255,372.31c-.34,3.81,5.21,6.05,7.68,3.18l14.63-16.93c4.33-5,8.41-10.89,14.56-13.74l-6.61-5.08-6.17,23.42,8.68,2.39c2.18-14.88,4.48-31,14.62-42.82l-7.68-3.18a84.47,84.47,0,0,1-25.75,57.37l7.53,4.38a409,409,0,0,1,30.86-86.16l-8.23-1.07a231,231,0,0,1,2.06,24.79l8.39-2.27-5.33-11.29c-1.78-3.77-7.08-2.27-8.23,1.07-1,2.87-2.05,5.7-3.2,8.5-2.2,5.36,6.5,7.69,8.67,2.39Z" transform="translate(48.03 -235.1)"/><path class="cls-11" d="M265.68,426c14.85-22.41,38.05-38.18,50.28-62.51,2.59-5.14-5-9.66-7.77-4.54A105.58,105.58,0,0,0,299,381.81l4.34-3.31c-13.74-1.3-22.21,10.3-28.33,20.83-2.94,5.05,4.62,9.38,7.77,4.55a267.05,267.05,0,0,1,29.3-37.29c2.9-3.08.08-9.06-4.38-7.52-25.28,8.77-56.81,22.52-57.22,54a4.57,4.57,0,0,0,4.5,4.5c8.16.09,14.23-7.45,19.86-12.42,5-4.38,13.26-9.1,11.6-16.8-.75-3.44-5.19-4.18-7.53-2a342.1,342.1,0,0,0-24.1,25.11c-3.78,4.36,2.56,10.75,6.36,6.36a344.11,344.11,0,0,1,24.11-25.1l-7.52-2c.18.85-8.91,7.72-10,8.69-3.26,2.87-8.1,9.19-12.77,9.14l4.5,4.5c.35-26.78,29.5-38,50.62-45.28l-4.38-7.52A280,280,0,0,0,275,399.33l7.77,4.55c4.55-7.84,10.14-17.36,20.56-16.38a4.52,4.52,0,0,0,4.34-3.3A95.17,95.17,0,0,1,316,363.51L308.19,359c-12.18,24.23-35.45,40.12-50.28,62.51-3.21,4.84,4.58,9.35,7.77,4.54Z" transform="translate(48.03 -235.1)"/><path class="cls-11" d="M239.09,411.78a89.56,89.56,0,0,1-15.82,13.84,71.08,71.08,0,0,1-7.64,5.11,26.22,26.22,0,0,1-5,1.6c-.58.18-4.53.22-1.37,1.21l-3.14-3.14.22.9.45-3.46-.41.83c-2.58,5.17,5.18,9.73,7.77,4.54,3.46-6.95-4.72-11.31-10.53-7.88s-4.31,11.49,1,14.48c6.63,3.76,14-.08,19.59-3.86,7.65-5.22,15.17-10.81,21.28-17.81,3.8-4.35-2.54-10.74-6.36-6.36Z" transform="translate(48.03 -235.1)"/><path class="cls-11" d="M233.48,408.56a7,7,0,0,0,3.36,8.32,4.55,4.55,0,0,0,6.61-2.69c1.06-3.94,2.8-9.49,1.87-13.62a5.55,5.55,0,0,0-7.32-4.14,4.69,4.69,0,0,0-3.15,5.54c.44,2.93.71,5.87.88,8.82.24,4.16,6.23,6.51,8.38,2.28a7.68,7.68,0,0,0-.34-8.38c-2-3-5.22-3.23-7.63-5.51L233,406.86c10.17.95,18.24,8.79,28.73,8.9,3.57,0,8.93-.63,10.86-4.19s-.58-9.27-2.15-12.66c-3.7-8-14.44-6.21-19.49-.47-5.75,6.53-2.62,16,5,19,5.38,2.13,7.72-6.57,2.39-8.68-3.46-1.37-.19-5.85,2.3-6.15,2-.24,1.57.16,2.35,2.19.51,1.36,1.37,3,1.18,4.48l1.32-3.18c-1.56,1.69-6.34.46-8.23,0a53.4,53.4,0,0,1-8.87-3.53c-5-2.31-9.88-4.18-15.42-4.7-3.94-.36-5.87,5.14-3.18,7.68a16.7,16.7,0,0,0,3.46,2.51c.57.28,1.16.55,1.75.81,1.09,1.1,1.54,1,1.35-.34l8.39,2.27c-.22-3.76-.64-7.48-1.2-11.21l-3.14,5.53.75-.29-3.47-.45.76.46-2.07-2.69c.86,2.56-.91,7.14-1.59,9.65l6.61-2.69.78,1.85c1.56-5.58-7.12-8-8.68-2.39Z" transform="translate(48.03 -235.1)"/><path class="cls-11" d="M254.7,403.81a56.65,56.65,0,0,1-7.1,18l8.39,2.28a58.48,58.48,0,0,0-6.16-22.41l-7.78,4.54,1.09,2.16c1,2,4.29,3,6.16,1.62,5.5-4.11,5.87-11,1.84-16.41-1.75-2.34-6.36-4.53-6.68-7.33-.19-1.62,2-5.25,2.66-6.82l2.67-6.81c1.39-3.55-3.53-7.34-6.61-5.09A18.08,18.08,0,0,0,235.52,379a4.66,4.66,0,0,0,2.07,5.08,34.84,34.84,0,0,1,11.18,10.53,4.5,4.5,0,0,0,7.77-4.54c-5.75-11.92-24.71-3.85-33.18-.41-2.77,1.12-4.91,5.14-2,7.52a83.38,83.38,0,0,0,26.75,14.73c2.84.94,5.64-1.55,5.69-4.34.15-7.81-2-32.36-16-24.45-10.9,6.16-5.7,24.17-.72,32.35.93,1.54,3.25,2.82,5.08,2.07,4.39-1.79,5.83-5.13,6.3-9.68a156.79,156.79,0,0,0,.51-20.79,191.49,191.49,0,0,0-1.59-19.44c-.62-4.72-.31-12.22-5-15-4.3-2.56-11.5-1.71-16.22-1-4.31.66-8.82,2.37-11.52,5.95-3.09,4.1-2.39,8.89.21,13.06,3.54,5.67,8.11,10.91,12.11,16.27,2,2.63,7.65,3.23,8.23-1.08a104.38,104.38,0,0,0-.94-34.19c-1-5.17-8.61-3.66-8.84,1.2-.54,11.49-13.22,18.95-19.65,27.32l8.22,3.46,9.65-56.46-8.84-1.2a140.93,140.93,0,0,1-3.93,27.11c-1.29,5.25,5.26,7.38,8.22,3.47l3.51-4.63c2.56-3.39-1.65-7.37-5.08-6.61-9.59,2.1-12.39,12.64-14.06,21-2.14,10.71-1.63,21.89,7.91,28.77,1.67,1.2,4.06.54,5.45-.7a98.22,98.22,0,0,1,21-14.31c5.16-2.64.61-10.4-4.55-7.77A107.58,107.58,0,0,0,210.49,388l5.45-.7c-6.39-4.62-4.81-13.86-3.39-20.43,1-4.51,2-11.73,7.39-12.9l-5.08-6.62L211.35,352l8.23,3.46a154.54,154.54,0,0,0,4.25-29.5c.24-5-8-6.25-8.84-1.2l-9.65,56.47c-.88,5.2,5.1,7.53,8.23,3.47,8-10.46,20.19-17.33,20.88-31.86L225.61,354a90.47,90.47,0,0,1,.94,29.41l8.22-1.07-7.25-9.72c-1.19-1.6-6.86-7.24-5.74-9.64,1-2.13,5.45-2.52,7.4-2.71,1.8-.18,3.59-.09,5.39-.14,2.9-.07,2.61-.1,3.08,2.7a180.19,180.19,0,0,1,2.32,24.2c.12,3.78.12,7.57,0,11.35-.06,1.89-.14,3.78-.26,5.66,0,.78-.76,5.11.05,4.78l5.08,2.07c-2.68-4.4-6.29-12.8-3.75-18,1.81-3.72,2.51,1.44,2.9,3.41a52.36,52.36,0,0,1,.81,11.25l5.7-4.34a71.34,71.34,0,0,1-22.77-12.41l-2,7.52c3.8-1.55,20.33-9.31,23-3.73l7.77-4.54a45.1,45.1,0,0,0-14.41-13.76l2.07,5.08a9,9,0,0,1,3.52-6.07l-6.61-5.08-4.33,11.08c-1.16,3-2.43,5.85-1.16,9,.77,1.88,11.29,10.34,9.14,12l6.15,1.61-1.08-2.16c-2.61-5.18-10.37-.62-7.78,4.54A47,47,0,0,1,247,424.08c.31,4.34,6,6.26,8.38,2.27a64.4,64.4,0,0,0,8-20.15c1.2-5.64-7.47-8.06-8.68-2.39Z" transform="translate(48.03 -235.1)"/><path class="cls-11" d="M609.28,326.19a155.58,155.58,0,0,0,1.31-37.83c-.52-5.72-9.52-5.78-9,0a145.87,145.87,0,0,1-1,35.43c-.87,5.67,7.8,8.11,8.68,2.4Z" transform="translate(48.03 -235.1)"/><path class="cls-11" d="M616.75,330.29a130.8,130.8,0,0,0,11-17.94c2.81-5.57,6.22-11.9,6.83-18.2.48-4.91-1.13-10.56-6.76-11.11a22.8,22.8,0,0,0-7.85,1.12c-2.34.66-6.3,3.6-8.52,3.57l3.18,1.32c-3-2.62-2.88-10.09-2.28-13.63.13-.83,1.16-6.15,2.06-6.25s4.28,6,3,6.72l6.61,2.69c-1-5.28-1.51-20.8-10.53-17.87a4.69,4.69,0,0,0-3.31,4.34,125.14,125.14,0,0,0-.17,19.07c.35,5.28,6.95,5.84,8.84,1.19.72-1.77,2.66-1.4,4-.86,5.36,2.19,7.69-6.51,2.39-8.68-6.38-2.6-12.63,1.18-15.06,7.15l8.84,1.2a125.14,125.14,0,0,1,.17-19.07l-3.3,4.33.77-.24-3.47-.46c-.66-.83-.65-.34,0,1.46l.71,3.61L615.4,281c.57,2.88,4.26,4.08,6.61,2.69,9.52-5.63,3.25-20.77-5.81-23.42-11.52-3.36-13.76,15.56-12.79,22.92.52,4,1.76,10.81,5.8,12.95,5,2.68,10.68-3,15.58-3.85,2.94-.49,1.2-.25.68,2.31a28,28,0,0,1-1.57,4.71c-1.14,2.9-2.49,5.74-3.89,8.53a132.41,132.41,0,0,1-11,17.94c-3.41,4.69,4.39,9.19,7.77,4.54Z" transform="translate(48.03 -235.1)"/><path class="cls-11" d="M604.5,279.59a37.14,37.14,0,0,0-9.84,6.15c-2.91,2.35-7.25,6.47-11.31,4.35-5.13-2.68-9.68,5.08-4.54,7.77a15.15,15.15,0,0,0,13.87.07c5.27-2.41,8.83-7.53,14.22-9.66s3-10.81-2.4-8.68Z" transform="translate(48.03 -235.1)"/><path class="cls-11" d="M581.58,290.71a17.25,17.25,0,0,0-5.47-5,18,18,0,0,0-3.2-1.35,13.74,13.74,0,0,0-1.69-.37l-1.19-.17c-.71-.05-.77-.08-.19-.08l2,1.16-.29-.26,1.16,2,0-.28-.46,3.46.15-.26-1.62,1.62L571,291l-3.47.45.23.1c2.24.93,4.95-1,5.53-3.15.71-2.58-.88-4.6-3.14-5.53s-4.62.5-5.68,2.37a5,5,0,0,0,2.48,6.93c2.46,1.1,5,.6,6.9,3.07,1.46,1.94,3.89,2.95,6.16,1.62,1.91-1.12,3.08-4.2,1.61-6.16Z" transform="translate(48.03 -235.1)"/><path class="cls-11" d="M574.55,289.11q-2.16,8.16-5,16.11c-1.94,5.47,6.75,7.82,8.68,2.4s3.54-10.68,5-16.12c1.49-5.6-7.19-8-8.68-2.39Z" transform="translate(48.03 -235.1)"/><path class="cls-11" d="M616.92,279.7A81.93,81.93,0,0,0,633,299.54c6.09,5.41,16.09,10.5,15.33,19.92-.43,5.35,7.23,5.7,8.84,1.2a28.9,28.9,0,0,0,1.68-11L653.18,314a88.93,88.93,0,0,0,14.62,4c5.66,1.06,8.09-7.61,2.39-8.68a89.48,89.48,0,0,1-14.62-4c-2.71-1-5.8,1.6-5.7,4.34a22,22,0,0,1-1.36,8.63l8.84,1.19c.76-9.53-5.78-16.42-12.7-21.95-8-6.4-14.74-13.48-20-22.35-2.93-5-10.72-.47-7.77,4.54Z" transform="translate(48.03 -235.1)"/><path class="cls-12" d="M604.63,281.71c-.59,6.3,6,7.44,10.69,6.9,5.08-.58,10-1.78,13.64-5.68,3.92-4.25-2.43-10.63-6.37-6.36a8.81,8.81,0,0,1-5,2.64,24.9,24.9,0,0,1-2.72.46l-1.47.14q-2.39-.26.27,1.9c.54-5.76-8.46-5.73-9,0Z" transform="translate(48.03 -235.1)"/><path class="cls-12" d="M609.67,272.83c5.79,0,5.8-9,0-9s-5.8,9,0,9Z" transform="translate(48.03 -235.1)"/><path class="cls-12" d="M618.33,272.17c5.79,0,5.8-9,0-9s-5.8,9,0,9Z" transform="translate(48.03 -235.1)"/><path class="cls-13" d="M165.15,607.7c-4.6-5.75-12.86-4-18.36-.63a31,31,0,0,0-13.44,18.25c-2.21,7.73-4.51,18.29-.78,25.86,3.47,7,11.57,10.87,18.43,13.72,3.5,1.45,7.57,3.25,11.41,3.47,4.33.25,8-2.53,11.3-5,6.47-4.71,13.19-10.66,16.89-17.9,3.52-6.87,3.88-16.71,1.81-24.13-2.5-9-10.27-10.14-18.4-11.35-4.27-.64-9-1.87-13.17,0-3.66,1.68-5.45,5.16-6.33,8.93-2.57,11-4.06,22.29-6.06,33.37a4.56,4.56,0,0,0,6.61,5.08c7.61-3.76,10.27-15.31,12.45-22.77,2.68-9.14-1.13-15.38-8.13-21.18-2-1.63-5.8-2-7.06.91l-8.73,20c-2,4.48,3.12,9.19,7.07,5.45,6.42-6.07,14.59-16.83,8-25.31-1.56-2-4.71-1.42-6.36,0l-6.69,5.73c-4.4,3.78,2,10.12,6.37,6.37l6.68-5.74h-6.36c.8,1-2.16,5.47-2.73,6.36a32.81,32.81,0,0,1-5.3,6.22l7.06,5.46,8.73-20-7.07.91c1.89,1.57,4.18,3.25,5.47,5.37,1.83,3,.76,5.78-.24,8.9-1.48,4.59-3.05,13.23-7.74,15.55l6.61,5.08,4.28-23.59c.58-3.23.57-8.09,2.1-11.07,1.75-3.42,6.78-1.58,10-1.09s8,.34,9.79,3.46c1.36,2.39,1.06,6,1.09,8.62.1,8.61-3.49,14-9.56,19.8a58.69,58.69,0,0,1-8.47,6.7c-3.83,2.48-6.87,1-10.85-.51-5.89-2.27-14.95-5.94-15.76-13.11-.73-6.48,1.24-15.77,4.33-21.46,1.82-3.33,10.75-13.4,14.71-8.44,3.62,4.53,9.95-1.88,6.37-6.36Z" transform="translate(48.03 -235.1)"/><path class="cls-13" d="M148.15,613.22c-6.68-7.14-14.07.95-17.18,7-4.26,8.35-5.23,17.58,1.05,25.13a4.48,4.48,0,0,0,5.45.7c7-5.31,10.21-13.36,8.18-22-1.05-4.44-7.46-4.11-8.68,0-2.12,7.19-4.89,20.4,1.88,26A10.8,10.8,0,0,0,150,651.4a13.35,13.35,0,0,0,4.69-3.58c1.31-1.53,1.81-3.91,3.33-5.16L154.81,644c4.11-.48,9.78,2.62,13.83,3.57,3.41.81,7.32,2.09,10.84,1.94,7.62-.32,6-8.29,3.44-12.94-9.2-17-29.62-2.08-41.39,3.66-4.22,2-1.9,8.24,2.27,8.38,7.36.25,24.77,3.49,24.1-8.68l-4.5,4.5a13.75,13.75,0,0,0,4.52-.25l-4.37-7.52a16.94,16.94,0,0,0-5.19,18.12,4.57,4.57,0,0,0,6.61,2.69c2.05-1,4.65-.58,6.8-1.43a21,21,0,0,0,5.22-3.44q6.75-5.33,13.45-10.7a4.37,4.37,0,0,0,1.16-4.37L181,606.37c-1.86-5.45-10.56-3.11-8.68,2.39l10.62,31.14,1.16-4.38-12,9.57c-2,1.59-3.26,2.5-5.79,2.94a19.61,19.61,0,0,0-5.83,1.65l6.61,2.69c-1.17-3.8-.14-6.82,2.87-9.37,3.78-3.2-.42-8.2-4.38-7.52l-2.13-.07c-2.33-.28-4.63,2.28-4.5,4.5,0,.16-13.67-.27-15.1-.32l2.27,8.39c5.81-2.83,11.57-5.78,17.43-8.5,2.71-1.25,6.06-3,9-1.54,1.81.93,3.7,4.21,3.9,6.2l1.32-3.18c.79-1-4.63-1.62-5.8-1.89q-3.45-.8-6.84-1.78c-4.06-1.19-8.94-3.93-13-1.34-2,1.26-5.89,10.58-8.06,6-.72-1.51-.08-4.48,0-6.08a44.2,44.2,0,0,1,1.6-9.42H137a11.49,11.49,0,0,1-4,11.86l5.45.71c-2.47-3-2.3-6.94-1.23-10.46.22-.72,4.68-9,4.63-9,4,4.24,10.33-2.13,6.37-6.36Z" transform="translate(48.03 -235.1)"/><path class="cls-13" d="M178.53,616.88a34.8,34.8,0,0,0-18.92,3.26c-4.05,1.87-2.06,8.65,2.27,8.39a41.7,41.7,0,0,1,10.64.59c5.66,1.09,8.08-7.59,2.39-8.68a51.31,51.31,0,0,0-13-.91l2.27,8.38a26.28,26.28,0,0,1,14.38-2c2.44.28,4.48-2.28,4.5-4.5,0-2.67-2.09-4.22-4.5-4.5Z" transform="translate(48.03 -235.1)"/><path class="cls-13" d="M176.88,604a72.26,72.26,0,0,0-13.36-3.22c-2.4-.34-4.83.59-5.54,3.14-.57,2.11.73,5.2,3.15,5.54a72.26,72.26,0,0,1,13.36,3.22c5.48,1.9,7.84-6.79,2.39-8.68Z" transform="translate(48.03 -235.1)"/><path class="cls-13" d="M180.1,624.93c-.49-8.26-8.17-5.93-13.43-4l-25,9.32a4.52,4.52,0,0,0,1.19,8.84q11.19,1.05,22.42,1.43c5,.18,6.22-7.82,1.19-8.84a14.93,14.93,0,0,0-11.56,2c-2.56,1.63-3.28,6.32,0,7.77,10.21,4.49,22.46,8.95,33.8,8.65,12.18-.33,10.51-15.79,10.9-24.42.27-5.8-8.74-5.78-9,0-.16,3.7-.4,7.4-.75,11.1-.2,2.16.25,3.51-1.86,4.34-1.52.59-4.92-.55-6.44-.81a94.64,94.64,0,0,1-22.1-6.63v7.77a5.66,5.66,0,0,1,4.62-1.06l1.2-8.84q-11.23-.37-22.42-1.43l1.2,8.83,15.72-5.86,7.4-2.77,3.69-1.38c.78-.29,3-.69,2.36-1.15L171,623.91l.06,1c.34,5.76,9.34,5.8,9,0Z" transform="translate(48.03 -235.1)"/><path class="cls-13" d="M173.91,636c3.06.61,6.1,1.26,9.14,2v-8.68c-10,4-20.21,9.84-27.51,18-3.46,3.85-3.09,6.94,0,10.82q6.1,7.74,12.26,15.43c1.54,1.94,4.76,1.52,6.36,0l1.42-1.35c4.21-4-2.16-10.35-6.36-6.36l-1.42,1.35h6.36l-6.42-8.09c-1.61-2-5.51-5.37-6-7.89l-.46,3.47c2.43-4,7.5-7.33,11.3-9.86A71,71,0,0,1,185.44,638c3.77-1.5,4.76-7.58,0-8.68-3-.69-6.08-1.35-9.13-2-5.66-1.13-8.08,7.54-2.4,8.68Z" transform="translate(48.03 -235.1)"/><path class="cls-14" d="M132.76,621.75q4.76,7.86,9,16c1.45,2.76,5,2.66,7.06.91a7.72,7.72,0,0,0,2.37-8.14c-1.46-5.6-10.14-3.23-8.68,2.39l0-.62,7.07.91q-4.27-8.13-9-16c-3-5-10.78-.43-7.77,4.54Z" transform="translate(48.03 -235.1)"/><path class="cls-14" d="M145.11,612.1l3.16,14.18c1.26,5.65,9.94,3.26,8.68-2.39l-3.16-14.19c-1.26-5.65-9.94-3.26-8.68,2.4Z" transform="translate(48.03 -235.1)"/><path class="cls-14" d="M161.16,605.67a78.76,78.76,0,0,1-.09,14c-.24,2.42,2.23,4.5,4.5,4.5,2.62,0,4.26-2.07,4.5-4.5a78.76,78.76,0,0,0,.09-14c-.47-5.74-9.47-5.79-9,0Z" transform="translate(48.03 -235.1)"/><path class="cls-15" d="M173.67,628.83c5.79,0,5.8-9,0-9s-5.8,9,0,9Z" transform="translate(48.03 -235.1)"/><path class="cls-15" d="M182.33,629.5c5.79,0,5.8-9,0-9s-5.8,9,0,9Z" transform="translate(48.03 -235.1)"/><path class="cls-15" d="M164.36,640.64c3.06,6.3,11.51,7.16,16.55,2.94,1.87-1.55,1.61-4.75,0-6.36a4.59,4.59,0,0,0-6.36,0c.25-.21-.3.06-.2.06.45,0-.43,0-.51,0-.71,0,.89.29-.36,0-.23-.06-.64-.19-.19,0a8.62,8.62,0,0,1-.78-.44c.55.33-.2-.37,0,0s-.36-.71-.35-.68c-1.06-2.19-4.17-2.77-6.15-1.61a4.58,4.58,0,0,0-1.62,6.15Z" transform="translate(48.03 -235.1)"/><path class="cls-16" d="M173.67,630.17c5.79,0,5.8-9,0-9s-5.8,9,0,9Z" transform="translate(48.03 -235.1)"/><path class="cls-16" d="M179.67,629.5c5.79,0,5.8-9,0-9s-5.8,9,0,9Z" transform="translate(48.03 -235.1)"/><path class="cls-16" d="M163.58,637.46c1.89,6.19,8.8,10.17,15.08,8a4.61,4.61,0,0,0,3.14-5.53,4.55,4.55,0,0,0-5.54-3.15,2.71,2.71,0,0,1-2.32,0,4.9,4.9,0,0,1-.83-.49c-.28-.2,0,.1-.38-.37s-.29-.27-.47-.89c-1.69-5.52-10.38-3.17-8.68,2.39Z" transform="translate(48.03 -235.1)"/><path class="cls-17" d="M4.56,685.29,2.35,688.2-1,683.76c.62,15.75,3.37,32.48,10.19,46.82,6.6,13.86,21.5,17.19,35.43,13.47,7.7-2,15.07-5.55,22.39-8.65,8-3.4,16-6.88,24-10.36,15.54-6.78,31.06-13.68,45.9-21.91,15.73-8.73,30.26-21.34,48-25.63l-5.2-2.11c12.87,20.6,33.95,37.17,59.09,37.52,15,.21,29.5-4.77,44.2-7.14a167.57,167.57,0,0,1,46.54-.68c5.88.7,5.83-8.51,0-9.21a172.49,172.49,0,0,0-41.25-.08c-14.13,1.71-27.82,6.24-42,7.57-25,2.36-45.81-12-58.65-32.63a4.76,4.76,0,0,0-5.21-2.12c-18.09,4.37-32.71,16.68-48.63,25.65-16.94,9.55-34.8,17.29-52.61,25-9.07,4-18.14,7.91-27.29,11.65-8.27,3.37-17.87,7.44-26.88,4.49-9.4-3.09-12-13.82-14.36-22.33a127.87,127.87,0,0,1-4.52-29.35,4.83,4.83,0,0,0-3.38-4.44c-5.69-2.21-9.88,3.22-9.12,8.41.85,5.85,9.73,3.36,8.88-2.44Z" transform="translate(48.03 -235.1)"/><path class="cls-17" d="M181.2,677.43c-5.77,7.89-6.56,17.53-7.51,27-1,10.32-3.66,19.21-10.63,27.14-13.38,15.21-33.23,25.92-51.61,33.84a197.35,197.35,0,0,1-93,15.47c-4.11-.32-10.56-.08-10.59-5.54s3.31-11.75,4.61-17A152.67,152.67,0,0,0,16.9,721c-.07-8.76-2.21-18.47-11.46-21.58a4.62,4.62,0,0,0-5.2,2.12,80.08,80.08,0,0,0-7,51c.52,2.72,4.48,4.45,6.77,2.75q15-11.16,30.64-21.4a4.57,4.57,0,0,0,2.28-4c-1.36-12.55-11.69-22.4-24.55-22.13a4.68,4.68,0,0,0-4.61,4.61,303.38,303.38,0,0,0,2.28,31C6.5,747,9.6,749,13,747.39c8.78-4.27,12.63-15.09,10.12-24.28-1.05-3.82-4-9.6-8.23-10.76-2.73-.75-6.81.64-9.48,1.3A62.37,62.37,0,0,0-4,716.86c-8.53,3.63-27.53,13.28-22.54,25.12,4.47,10.62,16.66,22.48,29.09,19.19,14.86-3.93,13.13-23.32,3.1-31.31l-2,7.69c8.23-2.21,10.42-15.08,2.14-18.89-4.19-1.93-8.47,1.16-10.36,4.84-2.69,5.24-1.75,12.2-1.78,17.84,0,12.74-1.42,26.16,4.67,37.84,4.84,9.27,13.32,16.33,22.37,21.29,21.59,11.85,46.8,11,69.37,19.92,25.08,9.88,36.9,34.71,45.43,58.63,10.31,28.91,16.31,62,3.89,91.3-1.09,2.56-.46,6,2.75,6.77a167,167,0,0,1,45,17q4.92,2.75,9.66,5.81c2.85,1.84,8.23,4.36,8.87,8.15,1.53,9.13-11.22,9.42-16.78,8l2,7.7a1038.06,1038.06,0,0,0,91.46-87.37c3.51-3.78-.93-9.9-5.58-7.23C249,945,225.19,966.64,201.69,988.17l6.52,6.52a241.08,241.08,0,0,0,42.95-82.18q1.69-5.76,3.08-11.61c.72-3,2.22-6.67,1.26-9.7-1.65-5.22-7.71-7.87-12.64-8.52-6.76-.89-13.38.92-19.9,2.48l-26.44,6.31,4.48,7.7,40.32-46.81-6.52-6.52A223.34,223.34,0,0,0,214.14,876c-2.17,3.83,2.34,9,6.3,6.3,24.55-16.44,49.58-34.74,63.4-61.66a90.78,90.78,0,0,0,7.37-19.24c1.29-5.16,4.46-14.75,0-18.77-2.27-2-6-5.65-9-6.47s-7.24,2-9.89,3.21a144.18,144.18,0,0,0-19.41,11.14c-14.26,9.62-27.1,21.17-39.83,32.69l7.23,5.58c14.67-27.4,29.33-55.16,36.89-85.51.87-3.51-3.37-7.78-6.77-5.2a456.24,456.24,0,0,0-69.58,65.38c-3.92,4.55,1.93,10.21,6.51,6.51a421,421,0,0,0,70.85-73.19c1.45-1.92.36-5.26-1.65-6.3-7.1-3.68-14.11-1.06-20.9,2a111.73,111.73,0,0,0-20.86,12.39c-13.07,9.81-23.4,22.05-31.87,36-9,14.87-17,29.94-28.27,43.34-10.11,12-20.49,23.7-26.44,38.46-1.53,3.8,3.58,7.2,6.77,5.2,31.66-19.85,55.88-48.52,79.51-77l-7.23-5.58a420.54,420.54,0,0,0-32.66,69.05c-1.59,4.33,4.7,7.79,7.7,4.48a133.1,133.1,0,0,0,26.05-42.77c1.62-4.3-4.74-7.82-7.7-4.48a214.48,214.48,0,0,0-36,55.85c-2,4.63,3.17,9.32,7.24,5.58a256.39,256.39,0,0,0,54.33-71.28c2-3.81-2.23-9.06-6.3-6.3a114.94,114.94,0,0,0-29.19,28.5l7.95,4.65a81.9,81.9,0,0,0,10.76-22.15c2.27-7.36,4.37-16.45,3.31-24.19-2.86-20.75-27.68-.5-34.26,6.27-4.14,4.25,2.37,10.77,6.51,6.51a63,63,0,0,1,13.5-10.78c.81-.47,2.28-1.65,3.22-1.68,2.61-.07,1.71.56,2,2.19.41,2.49-.31,5.92-.67,8.38a73.07,73.07,0,0,1-12.3,30.8c-3.38,4.92,4.54,9.41,7.95,4.65a102.34,102.34,0,0,1,25.89-25.2l-6.3-6.3a249.06,249.06,0,0,1-52.9,69.42l7.24,5.58a206.59,206.59,0,0,1,34.53-54l-7.69-4.49a121.18,121.18,0,0,1-23.68,38.71l7.69,4.48A407.3,407.3,0,0,1,215.2,790c2.59-4.38-3.81-9.71-7.23-5.59-23.09,27.81-46.7,56.13-77.65,75.54l6.76,5.2c5.3-13.15,15.09-23.69,24.07-34.4,9.8-11.67,17.56-24.28,25.15-37.46s15.77-25.39,27.16-35.49a106.39,106.39,0,0,1,17.46-12.5c5-2.86,15.15-9.83,21-6.82l-1.66-6.3a411.74,411.74,0,0,1-69.4,71.33l6.51,6.51A446.48,446.48,0,0,1,255.06,746l-6.77-5.2c-7.36,29.61-21.65,56.58-35.95,83.31a4.62,4.62,0,0,0,7.23,5.58c19-17.2,38.57-34.88,62.62-44.67l-3.54-.46,7.87,6-2.28-4c-2.64,40.41-37.56,67-68.45,87.74l6.31,6.3a207.29,207.29,0,0,1,19.22-28.31c3.66-4.53-2.6-11.06-6.52-6.52l-40.31,46.82c-3,3.44-.17,8.8,4.48,7.69l29.27-7c5.45-1.3,15.67-4.41,19.07,1.93l-.46-3.55a231,231,0,0,1-45.16,96.42c-3.62,4.55,2,10.61,6.52,6.52,22.93-21,46.07-42.08,73.19-57.65l-5.58-7.23a1039.64,1039.64,0,0,1-91.47,87.37c-2.68,2.26-1.13,6.88,2,7.69,9.08,2.35,20.06,1.52,25.65-7.07s2-17-5.67-22.53c-18.26-13.2-39.9-22.17-61.82-27.07L147.3,975c9.08-21.37,9.8-44.36,5.65-67-4-21.88-11.73-44.62-23.13-63.81-5.24-8.81-11.73-16.92-19.92-23.15-8.62-6.55-18.77-10.52-29.17-13.25-19.9-5.2-41.2-6.15-59-17.37-8.82-5.55-16.31-13.63-18.29-24.16-1.28-6.84-.62-14.2-.59-21.12,0-2.8-1.56-17.52,1.84-18l-3.55-.47c.79.4,1.1,1.78.06,2.06-3.07.83-4.82,5.48-2,7.7,4.22,3.37,9.22,13.67,1,15.92-7.23,2-13-6-16.4-11-2.81-4.1-.37-5.47,2.93-8.18a53.1,53.1,0,0,1,8.27-5.51,57.38,57.38,0,0,1,20-6.33l-4.48-1.18c6.41,5.14,5.41,15.75-2.06,19.38l6.93,4a303.38,303.38,0,0,1-2.28-31L8.39,717c7.44-.15,14.51,5.26,15.34,12.92L26,726q-15.65,10.23-30.64,21.4l6.77,2.75a69.6,69.6,0,0,1,6-43.91L3,708.3c3.93,1.33,4.49,7,4.66,10.53a118.81,118.81,0,0,1-.74,18A140.61,140.61,0,0,1,4,754c-1.39,6-3.79,11.79-4.92,17.81-1.85,9.92,3.87,16.3,13.47,17.65,10.76,1.53,22,1.47,32.78.82a207.85,207.85,0,0,0,63.41-13.92c19.76-7.77,39.53-18.34,55.29-32.73,8.24-7.52,14.95-16.86,17.28-27.92,2.36-11.24.72-23.91,7.81-33.61,3.5-4.79-4.48-9.39-8-4.65Z" transform="translate(48.03 -235.1)"/><path class="cls-17" d="M183.18,682.64c-6.48,18.17-12.52,36.43-16.75,55.27-4.33,19.3-7.34,38.88-10.58,58.38-1.59,9.54-2.9,19.19-4.81,28.67-1.79,8.81-7.54,15-12.41,22.27-9.43,14.08-16.36,29.56-18.16,46.52-.52,4.91,6.29,5.75,8.58,2.32a157.11,157.11,0,0,1,25.22-29.13c4.4-4-2.13-10.49-6.51-6.51a166.47,166.47,0,0,0-26.66,31l8.58,2.32C131.51,876.49,140,860.9,150,847c5.12-7.12,8.83-13.24,10.4-22,1.67-9.39,3.13-18.82,4.69-28.22,3.13-18.85,6.06-37.76,10.25-56.41,4.23-18.84,10.28-37.11,16.75-55.28,2-5.59-6.91-8-8.88-2.44Z" transform="translate(48.03 -235.1)"/><path class="cls-17" d="M79.3,759.24c-2.33,7.43,6.67,10.33,12,12.44,6,2.38,14.57,6.25,21.13,5.27,6.39-.94,7.34-7.81,8.69-13,1.45-5.53,5.55-14.22-.15-18.63-8.19-6.33-26.57,8.85-18,16,2.7,2.25,7.12,2.45,10.44,3,3.48.55,7,1,10.5,1.19A109.83,109.83,0,0,0,149.31,764c4.74-.79,4-7.65,0-8.88-7.57-2.32-15.19-4.48-23.11-5.23s-15.83.46-23.61,1.86a328.75,328.75,0,0,0-48.33,12.67c-4,1.38-4.73,7.83,0,8.88,19.43,4.29,39.28,8.24,59,3.62,3.48-.81,4.32-5.27,2-7.69a46.37,46.37,0,0,0-27-14.17c-5.8-.85-8.3,8-2.45,8.89a38.34,38.34,0,0,1,22.93,11.79l2-7.7c-18.07,4.22-36.39.3-54.14-3.62v8.88a329.06,329.06,0,0,1,44.61-12c7.28-1.4,14.64-2.75,22.08-2.42,8,.36,15.82,2.75,23.46,5.09v-8.88a100.07,100.07,0,0,1-20.16,1.3,93.85,93.85,0,0,1-9.62-.83c-1.72-.24-7.57-.75-8.35-1.53l1.35,3.25c0,.16,1.93-2.27,2.79-2.94a8.19,8.19,0,0,1,2.34-1.39q-1.53-.51-1.2,1.65c-1,2-1.23,4.73-1.79,6.85-.35,1.34-.59,4.68-1.5,5.69-1.33,1.48-8.08-1.3-10.36-2-3.13-1-11.61-2.7-13-5.95l.47,3.55.34-1.08c1.77-5.67-7.12-8.1-8.88-2.45Z" transform="translate(48.03 -235.1)"/><path class="cls-17" d="M168.33,914.33c7.72,0,7.74-12,0-12s-7.73,12,0,12Z" transform="translate(48.03 -235.1)"/><path class="cls-17" d="M181,939.67c7.72,0,7.73-12,0-12s-7.73,12,0,12Z" transform="translate(48.03 -235.1)"/><path class="cls-17" d="M191.67,917.67c7.72,0,7.73-12,0-12s-7.74,12,0,12Z" transform="translate(48.03 -235.1)"/><path class="cls-17" d="M164.33,929.67c7.72,0,7.74-12,0-12s-7.73,12,0,12Z" transform="translate(48.03 -235.1)"/><path class="cls-17" d="M161.31,915.73c-.67,10.47,1.33,23.38,13.71,25.46,4.54.77,9.25-.42,12.33-4,4.76-5.5,1.52-11.58,1.91-17.86l-6,6c5.25.39,10.5.83,15.76,1.18,3.83.25,8,.33,10.79-2.85,4.53-5.18,1.86-15.58-3.13-19.63-6.2-5-13.79-1.51-17.3,4.79-4.35,7.8-4.91,18.57-5.14,27.29-.14,5.27,6.62,7.83,10.24,4.24,14.11-14,21.22-34.91,26.31-53.67,5.55-20.43,7.33-42.43-.21-62.6-1.32-3.51-5.26-5.76-8.82-3.58a102.57,102.57,0,0,0-45.69,61.71c-1,4,2.94,9.16,7.38,7.38l55.49-22.28c7.08-2.84,4-14.45-3.19-11.57L170.26,878l7.38,7.39a90.26,90.26,0,0,1,40.18-54.54L209,827.29c6.84,18.3,5.25,37.67.21,56.22-4.54,16.74-10.61,35.89-23.22,48.38l10.24,4.24a79.92,79.92,0,0,1,1.39-13.54,37,37,0,0,1,1.68-6.75,10.6,10.6,0,0,1,1.09-2.05c.55-.48.43-.55-.38-.21-.53-.75-.48,3.16.07,3.48,2.81-1.83,3.1-2.63.9-2.39l-3-.22-14.77-1.1c-3.38-.25-5.82,3-6,6-.18,2.86,1.3,6.15.89,8.86-.21,1.36-.09,1.86-2.12.93-4.16-1.93-2.95-9.86-2.72-13.41.5-7.71-11.5-7.68-12,0Z" transform="translate(48.03 -235.1)"/><path class="cls-18" d="M199,841.33a46.42,46.42,0,0,0,31.82-13.18c7.8-7.8,13.68-20.61,13.18-31.82-.52-11.63-4.34-23.71-13.18-31.82S211.19,751.33,199,751.33a46.42,46.42,0,0,0-31.82,13.18c-7.8,7.81-13.68,20.61-13.18,31.82.52,11.64,4.34,23.71,13.18,31.82s19.63,13.18,31.82,13.18Z" transform="translate(48.03 -235.1)"/><path class="cls-19" d="M199,841.33a46.42,46.42,0,0,0,31.82-13.18c7.8-7.8,13.68-20.61,13.18-31.82-.52-11.63-4.34-23.71-13.18-31.82S211.19,751.33,199,751.33a46.42,46.42,0,0,0-31.82,13.18c-7.8,7.81-13.68,20.61-13.18,31.82.52,11.64,4.34,23.71,13.18,31.82s19.63,13.18,31.82,13.18Z" transform="translate(48.03 -235.1)"/><path class="cls-19" d="M172.28,827c.5,1.13,1,2.26,1.47,3.4l-4.53-10.75a159.36,159.36,0,0,1,7,21c2.78,10.85,11.07,21.28,20.68,26.9s23.86,8,34.67,4.53c24.13-7.81,36.94-30.71,31.43-55.35l-.68-3C259.94,803,251,792.26,241.65,786.83c-9.64-5.65-23.86-8-34.67-4.54C182.84,790.1,170,813,175.55,837.64l.68,3L263,816.76c-3.14-12.21-7.92-23.67-13-35.2-4.26-9.64-17.19-18-26.89-20.68-10.77-3-25.12-1.63-34.68,4.54s-18.06,15.42-20.68,26.89l-1.61,12A44.83,44.83,0,0,0,172.28,827Z" transform="translate(48.03 -235.1)"/><path class="cls-19" d="M254.1,742.43c-4.11,32.22,1.59,64.36,2.78,96.57,1.22,32.68-3.5,65.1-7.65,97.42-2.35,18.28-4.46,36.59-5.27,55l83.86-22.71C320.37,953,306,944.4,295.61,931.28l7,9.11A52.26,52.26,0,0,1,297,930.5l4.53,10.75c-4.24-10.36-6.63-21.5-9.56-32.28L282,872.35l-19.63-72.29L196.3,850.88l3.47,1.89c14.23,7.78,31.22,8.31,45.42,0a45.28,45.28,0,0,0,16.15-16.15,44.82,44.82,0,0,0,6.14-22.71l.16-1.65-1.61,12A50.48,50.48,0,0,1,268.9,813l-4.53,10.75a55.71,55.71,0,0,1,2.94-6,46.82,46.82,0,0,0,4.54-34.68c-2.87-10.44-11-21.75-20.68-26.89-21.36-11.29-49.13-5.71-61.57,16.14C182,785.77,179,798.73,177.48,813.91l67.71-38.85-3.46-1.9c-16.07-8.78-35.42-7.72-50,3.52A45.21,45.21,0,0,0,175.62,824L203.1,925.19c5,18.42,9.07,37.41,18,54.48,4.55,8.73,11.28,16.59,18.45,23.32,4.83,4.53,9.88,8.79,14,14l-7-9.11a40.91,40.91,0,0,1,3.68,6.21l7,9.11a33.82,33.82,0,0,0,14.49,9.31c8.94,3.77,19.8,5.34,29.3,2.27,19.5-6.32,32.13-22.85,33-43.4,1.42-32.34,7-64.26,10.41-96.41a405.23,405.23,0,0,0,2.69-49.25c-.24-16.17-1.9-32.28-3.14-48.39-1.4-18.31-2.15-36.68.18-55,1.35-10.59-6-24.64-13.18-31.82-7.8-7.8-20.61-13.68-31.82-13.18-11.64.53-23.71,4.35-31.82,13.18l-7,9.11a44.84,44.84,0,0,0-6.14,22.71Z" transform="translate(48.03 -235.1)"/><path class="cls-19" d="M233.67,824.67a46.44,46.44,0,0,0,31.82-13.18c7.8-7.81,13.68-20.61,13.18-31.82-.52-11.64-4.35-23.71-13.18-31.82s-19.63-13.18-31.82-13.18a46.42,46.42,0,0,0-31.82,13.18c-7.81,7.8-13.69,20.61-13.18,31.82.52,11.63,4.34,23.71,13.18,31.82s19.62,13.18,31.82,13.18Z" transform="translate(48.03 -235.1)"/><path class="cls-19" d="M278,779v-1.33a50.11,50.11,0,0,0-13.18-31.82,33.78,33.78,0,0,0-14.48-9.31A33.81,33.81,0,0,0,233,732.67l-12,1.6a44.91,44.91,0,0,0-19.86,11.58l-7,9.1A44.85,44.85,0,0,0,188,777.67V779a50.11,50.11,0,0,0,13.18,31.82,33.67,33.67,0,0,0,14.48,9.3A33.92,33.92,0,0,0,233,824l12-1.61a44.89,44.89,0,0,0,19.86-11.57l7-9.11A44.84,44.84,0,0,0,278,779Z" transform="translate(48.03 -235.1)"/><path class="cls-19" d="M231,791.33a46.42,46.42,0,0,0,31.82-13.18c7.8-7.8,13.68-20.61,13.18-31.82-.52-11.63-4.34-23.71-13.18-31.82S243.19,701.33,231,701.33a46.42,46.42,0,0,0-31.82,13.18c-7.8,7.81-13.68,20.61-13.18,31.82.52,11.64,4.34,23.71,13.18,31.82s19.63,13.18,31.82,13.18Z" transform="translate(48.03 -235.1)"/><path class="cls-19" d="M265.67,794a46.44,46.44,0,0,0,31.82-13.18c7.8-7.81,13.68-20.61,13.18-31.82-.52-11.64-4.35-23.71-13.18-31.82S277.86,704,265.67,704a46.42,46.42,0,0,0-31.82,13.18C226,725,220.16,737.79,220.67,749c.52,11.64,4.34,23.71,13.18,31.82S253.47,794,265.67,794Z" transform="translate(48.03 -235.1)"/><path class="cls-19" d="M206.13,758.34a22.52,22.52,0,0,1,1.44-5.35L203,763.74a27,27,0,0,1,2.11-3.59l-7,9.11a24.7,24.7,0,0,1,3.92-3.93l-9.1,7a25.23,25.23,0,0,1,3.6-2.07l-10.75,4.53,1.3-.49c11.24-4.25,20.64-10,26.9-20.68,5.64-9.65,8-23.86,4.53-34.68s-10.27-21.39-20.68-26.89c-10.19-5.39-23.42-8.67-34.67-4.54a29.29,29.29,0,0,1-4.95,1.37l12-1.61a27.87,27.87,0,0,1-6.83-.09l12,1.6a29,29,0,0,1-4.91-1.5l33,43.4a10.58,10.58,0,0,1,0-2.45l-1.61,12a17.45,17.45,0,0,1,.89-3.5l-4.54,10.75a20.66,20.66,0,0,1,1.83-3.15l-7,9.11a23.84,23.84,0,0,1,2.57-2.65l-9.1,7a20.5,20.5,0,0,1,4.24-2.49l-10.75,4.54a19.42,19.42,0,0,1,3.53-.89l-12,1.6a17.36,17.36,0,0,1,3.6.12l-12-1.61a11.37,11.37,0,0,1,2.35.71l-10.75-82.25-1.33.6,10.75-4.54a30.73,30.73,0,0,1-4.19,1.19l12-1.61a28.12,28.12,0,0,1-5.8.17L178,675a28.15,28.15,0,0,1-5.64-1.38l10.75,4.53a26.06,26.06,0,0,1-5-2.89l9.11,7c-10.42-8.86-20.46-17.34-34.44-19.74-10.78-1.85-20.63-1.94-31.42-1.42-18.84.9-38,2.69-56.34,7C29.7,676.51-3.2,697.09-22.64,728.23c-20.57,32.95-16.94,72.91-16.33,110q.86,51.13,1.69,102.28l.46,27.78c.08,5,.15,9.92.25,14.88.28,14.26,4.13,27.6,14.11,38.15,10.41,11,24,13.47,37.75,17.55a251.4,251.4,0,0,1,25.83,9.42l-10.74-4.54c27.47,11.71,53.46,26.59,81.5,37s58.37,12,87.9,10.57c9.44-.46,19.22-.65,28.48-2.62,22.65-4.8,37.15-26.4,37.14-48.66,0-9-2.29-14.76-5.54-22.48-1.58-3.74-3-7.4-5.25-10.74-7.65-11.2-14.48-17.61-25.23-25.57-11-8.19-24.25-13.24-37.07-17.94A280.82,280.82,0,0,0,154.7,952.4a364.89,364.89,0,0,0-54.58-7.46c-15.25-.94-30.65-.68-45.82-2.65l12,1.61a9,9,0,0,1-2.83-.88l10.75,4.53L73,946.68l16.14,16.15-.87-1.22,4.54,10.75a8.79,8.79,0,0,1-.83-2.93l1.61,12c-2-20.32-.3-41,2.35-61.17l-1.61,12c3.54-26.14,9.09-51.94,13.08-78,2.46-16,4.71-32.17,5.74-48.37.86-13.56.55-27.17,2.24-40.67l-1.6,12a88.18,88.18,0,0,1,2-10.45l-4.53,10.75.46-1.06-7,9.11.73-.87-9.1,7,.94-.51-10.75,4.54,1.07-.24-12,1.61c12-1,24.33-1.36,36.33.05l-12-1.61a85.79,85.79,0,0,1,21.28,5.72l-10.75-4.54a196.61,196.61,0,0,1,39.7,23l-9.11-7a66,66,0,0,1,11,10.75l-7-9.11a52.24,52.24,0,0,1,6.35,11.14l-4.53-10.75c4.33,11.13,5.42,23,7.13,34.78q2.82,19.38,6.63,38.58A780.54,780.54,0,0,0,180,964.82l82.25-34.68-.72-1.54,4.54,10.75a46.07,46.07,0,0,1-2.87-9.8l1.6,12c-.17-1.12-.3-2.25-.37-3.39-1.31-14.63-5.91-26.2-17.74-35.34a33.82,33.82,0,0,0-15.3-8,45.2,45.2,0,0,0-23.93,0,71.65,71.65,0,0,1-17.51,4.71l12-1.61c-13.19,1.65-26.42.52-39.63,0-16.49-.68-33.63.14-49.5,4.91l55.35,31.43a938.54,938.54,0,0,1-32.55-128.94L53.33,839.88c5.75,7.68,10.39,14.11,19,19A64.8,64.8,0,0,0,88,865.32c4.55,1.12,9.24,1.2,13.68,2.8l-10.75-4.53a21,21,0,0,1,3.47,1.93l-9.11-7a24.09,24.09,0,0,1,3.77,3.85l-7-9.11c5.61,7.94,8.37,17.43,14.06,25.42,6.46,9.07,13.47,17.39,17.93,27.72l-4.53-10.75a78,78,0,0,1,5,18.76l-1.61-12c.26,2.35.43,4.69.52,7.05l57-43.39-36.42-10.4,19.85,75.21c23-18.08,36.88-45.76,46.55-72.71,8.86-24.69,12.94-50.79,21.84-75.48H135.37l9.92,27.7c3.73,10.42,7.19,19.48,15.3,27.39,15.56,15.18,38.5,17.69,57.31,7.19,9.75-5.45,17.74-16.2,20.68-26.89S240.21,793,234,783.4c-13.41-20.81-39.56-28.43-61.57-16.14l-.88.49,22.71-6.14-1-.1,22.72,6.15-.95-.56,9.11,7-.87-.88,7,9.11a7.45,7.45,0,0,1-1.25-2.19l4.53,10.75-11.52-32.16c-3.39-9.47-8-17.13-16.13-23.38-7.59-5.86-17.41-10.1-27.26-9.66a53.46,53.46,0,0,0-22.71,6.14c-10.5,5.55-16.83,16.21-20.68,26.9-10.08,27.93-14.11,57.71-25.62,85.16l4.53-10.75a130.12,130.12,0,0,1-15.71,27.54l7-9.1a91.22,91.22,0,0,1-15.49,15.62A45,45,0,0,0,110,942.45l36.42,10.4c27.38,7.82,58-14.21,57-43.39a124.89,124.89,0,0,0-13.86-53.34c-5.14-10.13-13.11-18.33-19.07-27.92a122.5,122.5,0,0,1-6.53-13.07A64.2,64.2,0,0,0,150,795.69c-8-7.49-18.35-13.59-29.25-15.68-4.11-.79-8.27-1-12.19-2.59L119.29,782a11.38,11.38,0,0,1-2-1.13l9.11,7a9.61,9.61,0,0,1-1.7-1.55l7,9.11-.72-1c-7-9.3-14.92-18-26.89-20.68-10.07-2.29-19.75-1.77-29.3,2.27-8.65,3.64-17,9.88-21.52,18.41-5.95,11.25-6.77,22.16-4.54,34.67A938.21,938.21,0,0,0,81.35,958.07C84.84,968.68,91.81,979.57,102,985,112.6,990.55,125,993,136.7,989.5A82.44,82.44,0,0,1,148.11,987l-12,1.61c31.77-4.21,64.44,5.8,95.24-7.06l-57-43.39c1.32,14.76,3.89,24.14,10.11,37.45,4.33,9.26,17.13,18.45,26.89,20.68a46.59,46.59,0,0,0,29.3-2.27c20-8.43,32.67-31.48,26.06-53.09a780.24,780.24,0,0,1-19.72-78.69q-3.94-20.16-6.81-40.49c-.78-5.59-1.47-11.19-2.55-16.73-1.82-9.36-5.22-17.81-9.21-26.54-12.22-26.64-40.63-43.74-65.91-56.39a143.19,143.19,0,0,0-56.19-15.51,164.34,164.34,0,0,0-18.57-.16c-12.81.48-25.45,1.17-37,7.55-25.69,14.2-26.17,48.22-27,73.91a441.06,441.06,0,0,1-3.5,45.07L22,821c-5.94,43-16.73,85.5-18.86,129a227.44,227.44,0,0,0,.31,29.88A81.54,81.54,0,0,0,6,996.29a49.35,49.35,0,0,0,21.55,28.1c10.21,6.27,20.38,7.42,32.06,8.47,20.33,1.84,40.76,1.42,61,4.08l-12-1.61A276.06,276.06,0,0,1,175.86,1053l-10.75-4.54A87.68,87.68,0,0,1,184,1059l-9.11-7a49.92,49.92,0,0,1,7.88,7.77l-7-9.11a38.92,38.92,0,0,1,4.18,7l-4.54-10.75A33.16,33.16,0,0,1,177,1052l-1.61-12a5.76,5.76,0,0,1,0,2.41l6.14-22.71-.48,1.08,7-9.11-1,.93,9.1-7-1.24.56,10.75-4.53-1.4.29,12-1.61c-20.36,1.89-41.36,2.58-61.67-.07l12,1.61a161,161,0,0,1-39.46-11.35L137.87,995c-17.62-7.53-34.53-16.63-52-24.57-11.33-5.16-22.81-10.12-34.52-14.37-8.91-3.24-18-5.22-27.08-7.92l10.75,4.54a6.94,6.94,0,0,1-2.17-1.18l9.1,7-.81-.91,7,9.11-.59-1.35,4.54,10.75-.25-1.48,1.61,12c-1.41-34.84-1.19-69.82-1.76-104.69q-.43-25.86-.86-51.71c-.28-17.07-1.48-34.44.66-51.42l-1.61,12A79.05,79.05,0,0,1,54.87,772l-4.54,10.75a72.65,72.65,0,0,1,9-15.12l-7,9.11A86.88,86.88,0,0,1,67,762.31l-9.1,7a105,105,0,0,1,22-12.61l-10.75,4.54c12.1-5,24.83-7.81,37.75-9.57l-12,1.61c7.88-1,15.78-1.65,23.71-2.06,7.34-.39,14.88-1.09,22.21-.33l-12-1.61a29.37,29.37,0,0,1,5.91,1.54L124,746.32a22.85,22.85,0,0,1,3.95,2.42l-9.11-7c10,8.67,19.7,16.91,33.08,19.71,6.26,1.32,12.79,2.5,19.2,1.88,13-1.23,17.1-2.67,29-8l9.11-7,7-9.1a44.49,44.49,0,0,0,5.34-28.7,42.63,42.63,0,0,0-8.85-21.28c-6.29-8.14-13.62-12.59-23.38-16.13-15.26-5.52-35.22-2.13-48.4,7.1-16.28,11.4-29,29.76-27.53,50.6.7,10.22,3.31,19,9.66,27.26s13.57,12.21,23.37,16.13c11.84,4.73,28.72,4.61,40.62.23l-23.92-86.79c-10.68,4.05-20.62,8.61-28.26,17.52-3.48,4.07-7.15,8.42-9.58,13.25s-5.17,10.53-6,16.09a34.06,34.06,0,0,0-.81,18,33.47,33.47,0,0,0,5.34,16.73c5.46,9.33,16.17,18.24,26.9,20.68,11.52,2.62,24.45,2.06,34.67-4.54,9.14-5.89,19.05-15.61,20.68-26.89Z" transform="translate(48.03 -235.1)"/><path class="cls-19" d="M273.67,786.67a46.44,46.44,0,0,0,31.82-13.18c7.8-7.81,13.68-20.61,13.18-31.82-.52-11.64-4.35-23.71-13.18-31.82s-19.63-13.18-31.82-13.18a46.42,46.42,0,0,0-31.82,13.18c-7.81,7.8-13.69,20.61-13.18,31.82.52,11.63,4.34,23.71,13.18,31.82s19.62,13.18,31.82,13.18Z" transform="translate(48.03 -235.1)"/><path class="cls-19" d="M304.33,780a46.42,46.42,0,0,0,31.82-13.18C344,759,349.84,746.21,349.33,735c-.52-11.64-4.34-23.71-13.18-31.82S316.53,690,304.33,690a46.44,46.44,0,0,0-31.82,13.18c-7.8,7.81-13.68,20.61-13.18,31.82.52,11.64,4.35,23.71,13.18,31.82S292.14,780,304.33,780Z" transform="translate(48.03 -235.1)"/><path class="cls-19" d="M-3,766.67a46.42,46.42,0,0,0,31.82-13.18c7.8-7.81,13.68-20.61,13.18-31.82C41.48,710,37.66,698,28.82,689.85S9.19,676.67-3,676.67a46.42,46.42,0,0,0-31.82,13.18c-7.8,7.8-13.68,20.61-13.18,31.82.52,11.63,4.34,23.71,13.18,31.82S-15.19,766.67-3,766.67Z" transform="translate(48.03 -235.1)"/></svg>