<svg id="Layer_1" data-name="Layer 1" xmlns="http://www.w3.org/2000/svg" viewBox="0 0 594.38 641.11"><defs><style>.cls-1,.cls-3,.cls-5,.cls-7{fill:#754c24;}.cls-1,.cls-2,.cls-3,.cls-4,.cls-5,.cls-6,.cls-7,.cls-8{stroke:#000;stroke-miterlimit:10;}.cls-1,.cls-2{stroke-width:2.33px;}.cls-2{fill:#009245;}.cls-3,.cls-4{stroke-width:5.48px;}.cls-4,.cls-8{fill:#00a21b;}.cls-5,.cls-6{stroke-width:2.18px;}.cls-6{fill:#007445;}.cls-7,.cls-8{stroke-width:4.66px;}</style></defs><title>backgroundtrees</title><rect class="cls-1" x="248.27" y="600.57" width="8.86" height="39.37"/><path class="cls-2" d="M171.67,490.52c-1.83-.21-3.4-1.92-4-4.35a16.39,16.39,0,0,1-.13-8.87l37.65-137.44c.81-3,2.4-4.82,4.14-4.82s3.33,1.86,4.14,4.82l37.66,137.51a16.79,16.79,0,0,1-.13,8.87c-.61,2.43-2.17,4.14-4,4.35Z" transform="translate(43.38 114.19)"/><rect class="cls-3" x="103.03" y="317.78" width="23.44" height="81.97"/><path class="cls-4" d="M-28.27,212.2a12.51,12.51,0,0,1-10.58-9,27.29,27.29,0,0,1-.35-18.46L60.42-101.43c2.14-6.17,6.35-10,11-10s8.81,3.85,10.95,10L182,184.83a27.65,27.65,0,0,1-.35,18.46A12.53,12.53,0,0,1,171,212.35Z" transform="translate(43.38 114.19)"/><rect class="cls-5" x="382.33" y="601.86" width="8.86" height="34.38"/><path class="cls-6" d="M305.73,491.29a4.92,4.92,0,0,1-4-3.8,12.59,12.59,0,0,1-.13-7.75l37.65-120c.81-2.59,2.4-4.2,4.14-4.2s3.33,1.61,4.14,4.2l37.66,120.07a12.86,12.86,0,0,1-.13,7.74,4.91,4.91,0,0,1-4,3.8Z" transform="translate(43.38 114.19)"/><rect class="cls-7" x="497.07" y="330.63" width="17.99" height="77.35"/><path class="cls-8" d="M386.22,224.57c-3.72-.41-6.91-3.76-8.13-8.54a31.4,31.4,0,0,1-.26-17.43l76.46-270c1.64-5.81,4.87-9.45,8.4-9.45s6.77,3.64,8.41,9.45l76.48,270.14a31.73,31.73,0,0,1-.27,17.42c-1.22,4.79-4.4,8.14-8.12,8.55Z" transform="translate(43.38 114.19)"/></svg>