<svg id="Layer_1" data-name="Layer 1" xmlns="http://www.w3.org/2000/svg" xmlns:xlink="http://www.w3.org/1999/xlink" viewBox="0 0 143.12 156.96"><defs><style>.cls-1,.cls-2,.cls-3,.cls-4,.cls-5,.cls-8{stroke:#000;stroke-miterlimit:10;}.cls-1{fill:url(#radial-gradient);}.cls-2,.cls-3,.cls-4,.cls-5{stroke-width:0.57px;}.cls-2{fill:url(#radial-gradient-2);}.cls-3{fill:url(#radial-gradient-3);}.cls-4{fill:url(#radial-gradient-4);}.cls-5{fill:url(#radial-gradient-5);}.cls-6{fill:#b3b3b3;opacity:0.48;}.cls-7{fill:none;stroke:#65c8d0;stroke-linecap:round;stroke-linejoin:round;stroke-width:3px;}.cls-8{fill:#29abe2;fill-opacity:0.48;stroke-width:0.06px;}</style><radialGradient id="radial-gradient" cx="63" cy="93.96" r="62.5" gradientUnits="userSpaceOnUse"><stop offset="0" stop-color="#fff" stop-opacity="0.2"/><stop offset="1" stop-color="aqua" stop-opacity="0.1"/></radialGradient><radialGradient id="radial-gradient-2" cx="192.7" cy="74.11" r="27.46" gradientTransform="matrix(0.54, -0.12, 0.12, 0.57, 42.29, 62.19)" xlink:href="#radial-gradient"/><radialGradient id="radial-gradient-3" cx="213.19" cy="75.11" r="24.77" gradientTransform="matrix(0.54, -0.12, 0.12, 0.57, 42.29, 62.19)" xlink:href="#radial-gradient"/><radialGradient id="radial-gradient-4" cx="183.15" cy="137.41" r="27.29" gradientTransform="matrix(0.54, -0.12, 0.12, 0.57, 42.29, 62.19)" xlink:href="#radial-gradient"/><radialGradient id="radial-gradient-5" cx="209.77" cy="131.12" r="22.64" gradientTransform="matrix(0.54, -0.12, 0.12, 0.57, 42.29, 62.19)" xlink:href="#radial-gradient"/></defs><title>bigbubblepop</title><circle class="cls-1" cx="63" cy="93.96" r="62.5"/><path class="cls-2" d="M167.6,98.66c-4,1.36-8.06,3-12.18,4.8A103.73,103.73,0,0,0,144.19,63a91.39,91.39,0,0,1,11.16,1A94,94,0,0,1,167.6,98.66Z" transform="translate(-58.98 -10.69)"/><path class="cls-3" d="M179.53,95.31a117.38,117.38,0,0,0-11.93,3.35A94,94,0,0,0,155.35,64a109.49,109.49,0,0,1,11.52,2.4A84.45,84.45,0,0,1,179.53,95.31Z" transform="translate(-58.98 -10.69)"/><path class="cls-4" d="M165.3,129.06q-7.55,4.65-15.55,9.94a79.38,79.38,0,0,0,5.67-35.54c4.12-1.84,8.17-3.44,12.18-4.8A69.13,69.13,0,0,1,165.3,129.06Z" transform="translate(-58.98 -10.69)"/><path class="cls-5" d="M180,120.39q-7.14,4-14.69,8.67a69.13,69.13,0,0,0,2.3-30.4,117.38,117.38,0,0,1,11.93-3.35A59.48,59.48,0,0,1,180,120.39Z" transform="translate(-58.98 -10.69)"/><circle class="cls-6" cx="40.74" cy="68.28" r="25.68"/><path class="cls-7" d="M92.87,54.37s.74-.45.75-.43c.16.28,11.09-1.41,11.24-1.14,0,0,.53-.32.53-.31s5,3.21,5,3.35.29-.17.3-.17,4.15,2.73,4.2,2.83.26-.16.27-.15,3.4,3.51,3.46,3.61.24-.15.25-.14.11,5.35.19,5.48,6.49-3.75,6.49-3.74-2.28,7.08-2.2,7.22,3.29-1.9,3.29-1.9c.1.17-1.77,6.88-1.68,7s.27-.16.27-.15-2.25,6.76-2.17,6.9,4.49-2.61,4.49-2.6-4.26,8-4.15,8.14c0,0,.4-.24.4-.23.15.25-5.82,8.45-5.71,8.63,0,0,4.32-2.52,4.34-2.5" transform="translate(-58.98 -10.69)"/><path class="cls-7" d="M81,60.83s3.23-1.9,3.25-1.87c.2.35-12.93,13.12-12.67,13.57,0,0,7-4.06,7-4,.17.29-7.13,9.89-7,10.2,0,0,5-2.88,5-2.87s-2.46,7.36-2.36,7.54l.27-.16c.07.14,2.83,4.2,2.89,4.31l2.07-1.2c.11.21-4.07,8.2-3.94,8.43,0,0,5.62-3.25,5.62-3.24s.15,5.53.21,5.65.24-.15.25-.14,3.89,3.38,4,3.51a2.4,2.4,0,0,1,.27-.16c.06.1,4.62,2.59,4.68,2.7a3.14,3.14,0,0,1,.31-.18c.08.13,6.53,2.34,6.63,2.5,0,0,4.92-2.86,4.93-2.84" transform="translate(-58.98 -10.69)"/><path d="M134.25,19A42.87,42.87,0,0,1,145,18c4.75.17,7.76,1.33,9.37,2.91a5,5,0,0,1,1,5.83,9.36,9.36,0,0,1-4.94,4.69c-2.87,1.22-6.34,1.54-10.25,1.52-.87,0-1.65,0-2.25-.07l-2.34,8.21a57.35,57.35,0,0,0-6.15.65Q131.87,30.39,134.25,19Zm4.86,9.9a19,19,0,0,0,2.29.11c3.65.05,6.34-1,7.23-3.31.78-2.06-.74-3.62-4.45-3.76a15.5,15.5,0,0,0-3.14.18C140.4,24.39,139.75,26.65,139.11,28.91Z" transform="translate(-58.98 -10.69)"/><path d="M178.93,45.26c-5.17,5.68-11.47,5.48-17.56,2.08s-8.22-9.06-5.29-15.38c3-6.52,11.46-10,19.39-5C183.56,32.31,183.17,40.64,178.93,45.26ZM162.45,34.14c-2.32,4.14-1.73,7.86,1.56,9.76s7.1.67,10-3c2.6-3.32,2.94-8-1-10.49S164.73,30.07,162.45,34.14Z" transform="translate(-58.98 -10.69)"/><path d="M189.23,40.42a32.69,32.69,0,0,1,5.6,7.73,18.81,18.81,0,0,1,2.61,10.12c-.19,2.61-1.26,4.95-3,6.11a4.39,4.39,0,0,1-5,.26c-2-1.21-3.84-3.73-5.67-6.92-.41-.7-.77-1.35-1-1.88l-5.92,5.48a45.79,45.79,0,0,0-3.32-4.44Zm-3.55,12.74a15.91,15.91,0,0,0,1,2c1.7,3,3.56,4.21,5.33,2.83,1.57-1.22,1.78-3.86.13-6.94a12,12,0,0,0-1.57-2.36Z" transform="translate(-58.98 -10.69)"/><path d="M185.26,74.23c1.38-.89,2.78,0,3.21,2.29s-.41,4.38-1.78,5.12-2.54-.23-3-2.38S183.91,75.11,185.26,74.23Zm4-.94q5.78-4.11,11.55-8.41A68.58,68.58,0,0,1,202.1,73c-4,1.69-7.95,3.45-11.92,5.25C189.94,76.58,189.63,74.92,189.27,73.29Z" transform="translate(-58.98 -10.69)"/><circle class="cls-8" cx="63" cy="14.8" r="3.65"/><circle class="cls-8" cx="31.24" cy="42.17" r="3.65"/><circle class="cls-8" cx="49.27" cy="90.31" r="3.65"/><circle class="cls-8" cx="138.5" cy="29.73" r="3.65"/><circle class="cls-8" cx="128.26" cy="75.93" r="3.65"/><circle class="cls-8" cx="118.2" cy="3.68" r="3.65"/></svg>