<svg id="Layer_1" data-name="Layer 1" xmlns="http://www.w3.org/2000/svg" xmlns:xlink="http://www.w3.org/1999/xlink" viewBox="0 0 126 126"><defs><style>.cls-1,.cls-2,.cls-3,.cls-4,.cls-5{stroke:#000;stroke-miterlimit:10;}.cls-1{fill:url(#radial-gradient);}.cls-2,.cls-3,.cls-4,.cls-5{stroke-width:0.57px;}.cls-2{fill:url(#radial-gradient-2);}.cls-3{fill:url(#radial-gradient-3);}.cls-4{fill:url(#radial-gradient-4);}.cls-5{fill:url(#radial-gradient-5);}</style><radialGradient id="radial-gradient" cx="63" cy="63" r="62.5" gradientUnits="userSpaceOnUse"><stop offset="0" stop-color="#fff" stop-opacity="0.2"/><stop offset="1" stop-color="aqua" stop-opacity="0.1"/></radialGradient><radialGradient id="radial-gradient-2" cx="192.7" cy="74.11" r="27.46" gradientTransform="matrix(0.54, -0.12, 0.12, 0.57, 42.29, 62.19)" xlink:href="#radial-gradient"/><radialGradient id="radial-gradient-3" cx="213.19" cy="75.11" r="24.77" gradientTransform="matrix(0.54, -0.12, 0.12, 0.57, 42.29, 62.19)" xlink:href="#radial-gradient"/><radialGradient id="radial-gradient-4" cx="183.15" cy="137.41" r="27.29" gradientTransform="matrix(0.54, -0.12, 0.12, 0.57, 42.29, 62.19)" xlink:href="#radial-gradient"/><radialGradient id="radial-gradient-5" cx="209.77" cy="131.12" r="22.64" gradientTransform="matrix(0.54, -0.12, 0.12, 0.57, 42.29, 62.19)" xlink:href="#radial-gradient"/></defs><title>bigbubble</title><circle class="cls-1" cx="63" cy="63" r="62.5"/><path class="cls-2" d="M167.6,98.66c-4,1.36-8.06,3-12.18,4.8A103.73,103.73,0,0,0,144.19,63a91.39,91.39,0,0,1,11.16,1A94,94,0,0,1,167.6,98.66Z" transform="translate(-58.98 -41.65)"/><path class="cls-3" d="M179.53,95.31a117.38,117.38,0,0,0-11.93,3.35A94,94,0,0,0,155.35,64a109.49,109.49,0,0,1,11.52,2.4A84.45,84.45,0,0,1,179.53,95.31Z" transform="translate(-58.98 -41.65)"/><path class="cls-4" d="M165.3,129.06q-7.55,4.65-15.55,9.94a79.38,79.38,0,0,0,5.67-35.54c4.12-1.84,8.17-3.44,12.18-4.8A69.13,69.13,0,0,1,165.3,129.06Z" transform="translate(-58.98 -41.65)"/><path class="cls-5" d="M180,120.39q-7.14,4-14.69,8.67a69.13,69.13,0,0,0,2.3-30.4,117.38,117.38,0,0,1,11.93-3.35A59.48,59.48,0,0,1,180,120.39Z" transform="translate(-58.98 -41.65)"/></svg>