<svg id="Layer_1" data-name="Layer 1" xmlns="http://www.w3.org/2000/svg" viewBox="0 0 208.11 181.02"><defs><style>.cls-1{fill:#ff4564;stroke:#000;stroke-miterlimit:10;stroke-width:8.83px;}</style></defs><title>bigheart</title><path class="cls-1" d="M322.23,149.08c5.6-28.57-16.3-56.91-48.91-63.29a65.31,65.31,0,0,0-39.63,4.34,13.23,13.23,0,0,1-12.94-1.46,66.86,66.86,0,0,0-26.87-11.73c-32.61-6.38-63.59,11.59-69.19,40.16-4.5,23,8.82,45.85,31.21,57.21a12.65,12.65,0,0,1,1.81,1.1c16.52,12.27,31.95,31.06,42.61,53.85q2.7,5.78,4.82,11.51c3,8.14,16.23,9.68,20.46,2.38q3.09-5.33,6.78-10.58c14.51-20.64,33.28-36.11,52-44.51a10.33,10.33,0,0,1,1.25-.46C304.19,181.77,318.59,167.67,322.23,149.08Z" transform="translate(-119.41 -71.24)"/></svg>