<svg id="Layer_1" data-name="Layer 1" xmlns="http://www.w3.org/2000/svg" viewBox="0 0 135.2 119.42"><defs><style>.cls-1{fill:blue;stroke:#000;stroke-miterlimit:10;stroke-width:5px;}</style></defs><title>bignote</title><path class="cls-1" d="M123.24,104.6l-.36.05-3.46,18.85,1.23-.19v53a13.49,13.49,0,0,0-6-1.39,13.63,13.63,0,1,0,13.63,13.63c0-.31,0-.61-.05-.92h.05v-65.5l90.45-13.74v53.38a13.4,13.4,0,0,0-6-1.39A13.63,13.63,0,1,0,226.44,174c0-.15,0-.29,0-.44h0V107.23l.4-.06.36-.06,3.46-18.84Z" transform="translate(-98.57 -85.27)"/></svg>