<svg id="Layer_1" data-name="Layer 1" xmlns="http://www.w3.org/2000/svg" viewBox="0 0 504.46 415.23"><defs><style>.cls-1,.cls-12,.cls-6{fill:#c69c6d;}.cls-1,.cls-10,.cls-12,.cls-2,.cls-3,.cls-4,.cls-5,.cls-6,.cls-7,.cls-8,.cls-9{stroke:#000;}.cls-1,.cls-10,.cls-11,.cls-12,.cls-2,.cls-3,.cls-4,.cls-5,.cls-6,.cls-7,.cls-8,.cls-9{stroke-miterlimit:10;}.cls-1{stroke-width:5.48px;}.cls-2,.cls-4{fill:#666;}.cls-2,.cls-5,.cls-7{stroke-width:3.46px;}.cls-3{fill:#999;}.cls-3,.cls-9{stroke-width:2.59px;}.cls-4{stroke-width:3.67px;}.cls-5{fill:#4d4d4d;}.cls-6{stroke-width:3.65px;}.cls-7{fill:gray;}.cls-8{fill:blue;stroke-width:4.23px;}.cls-10,.cls-9{fill:#b3b3b3;}.cls-10{stroke-width:3.32px;}.cls-11{stroke:#333;stroke-width:13.49px;}.cls-12{stroke-width:5.7px;}</style></defs><title>bridge</title><rect class="cls-1" x="261.15" y="23.25" width="16.8" height="75.79"/><rect class="cls-1" x="299.63" y="11.77" width="16.8" height="75.79"/><rect class="cls-1" x="338.1" y="5.63" width="16.8" height="75.79"/><rect class="cls-1" x="376.57" y="11.77" width="16.8" height="75.79"/><rect class="cls-1" x="415.04" y="23.25" width="16.8" height="75.79"/><rect class="cls-1" x="453.52" y="49.67" width="16.8" height="75.79"/><path class="cls-2" d="M25.66,193.69H102.8a23.93,23.93,0,0,1,23.93,23.93V386.85a23.93,23.93,0,0,1-23.93,23.93H1.73a0,0,0,0,1,0,0V217.62A23.93,23.93,0,0,1,25.66,193.69Z"/><rect class="cls-3" x="106.67" y="148.54" width="99.47" height="61.59" rx="11.37"/><rect class="cls-4" x="49.57" y="166.34" width="125" height="244.71" rx="11.36"/><path class="cls-5" d="M102.59,193.69h77.14a23.93,23.93,0,0,1,23.93,23.93V386.85a23.93,23.93,0,0,1-23.93,23.93H78.66a0,0,0,0,1,0,0V217.62A23.93,23.93,0,0,1,102.59,193.69Z"/><rect class="cls-1" x="222.68" y="49.67" width="16.8" height="75.79"/><path class="cls-5" d="M401.66,193.69H478.8a23.93,23.93,0,0,1,23.93,23.93V410.78a0,0,0,0,1,0,0H401.66a23.93,23.93,0,0,1-23.93-23.93V217.62a23.93,23.93,0,0,1,23.93-23.93Z"/><path class="cls-6" d="M225.09,260c0-41.54,52.93-75.21,118.22-75.21S461.52,218.44,461.52,260a48.87,48.87,0,0,1-2.16,14.35c10.51-10.8,16.51-23.24,16.51-36.48,0-41.54-58.9-75.21-131.56-75.21s-131.56,33.67-131.56,75.21c0,12,4.92,23.32,13.66,33.39A48.83,48.83,0,0,1,225.09,260Z" transform="translate(1.73 -89.31)"/><rect class="cls-7" x="377.73" y="128.63" width="125" height="217.09" rx="23.93"/><rect class="cls-8" x="260.8" y="122.51" width="140.57" height="288.27" rx="29.24"/><rect class="cls-9" x="260.8" y="400.95" width="53.93" height="10.11" rx="3.39"/><rect class="cls-3" x="339.48" y="391.11" width="65" height="19.67" rx="5.19"/><path class="cls-7" d="M193.08,193.69h67.63a28.61,28.61,0,0,1,28.61,28.61V410.53a.26.26,0,0,1-.26.26H164.32a0,0,0,0,1,0,0V222.45A28.76,28.76,0,0,1,193.08,193.69Z"/><rect class="cls-3" x="177.09" y="135.55" width="99.47" height="61.59" rx="11.37"/><rect class="cls-10" x="230.12" y="394.22" width="53.93" height="16.56" rx="4.34"/><path class="cls-11" d="M116.65,229.89h5.58A128.89,128.89,0,0,1,251.12,358.78v22.7a27,27,0,0,1-27,27H84.53a27,27,0,0,1-27-27V289a59.13,59.13,0,0,1,59.13-59.13Z"/><rect class="cls-12" x="437.74" y="86.01" width="16.8" height="81.97" transform="matrix(-0.6, 0.8, -0.8, -0.6, 818.68, -241.01)"/><rect class="cls-12" x="240.99" y="83.78" width="16.8" height="81.97" transform="translate(199.8 -238.64) rotate(52.82)"/><polygon class="cls-12" points="359.92 3.37 336.75 3.37 277.96 3.37 277.96 20.17 336.75 20.17 359.92 20.17 418.71 20.17 418.71 3.37 359.92 3.37"/></svg>