<svg id="Layer_1" data-name="Layer 1" xmlns="http://www.w3.org/2000/svg" viewBox="0 0 500 500"><defs><style>.cls-1{fill:#fff;}</style></defs><title>bubblesortbg</title><rect width="500" height="500"/><path class="cls-1" d="M383.24,44.73H381.6c-.88,0-1.31-.37-1.31-1.12a1.52,1.52,0,0,1,.53-1.19,1.88,1.88,0,0,1,1.32-.49h5.07a5.49,5.49,0,0,1,3.56,1A3.47,3.47,0,0,1,392,45.83a4.81,4.81,0,0,1-.95,2.91,5.12,5.12,0,0,1-2.52,1.84,3.67,3.67,0,0,1,2.14,3.59,6.4,6.4,0,0,1-.88,3.19,7,7,0,0,1-2.34,2.5,11,11,0,0,1-5.91,1.27h-1.72l-.14.33A25.08,25.08,0,0,1,378.42,64a6.62,6.62,0,0,1-1.21,1.43,6.4,6.4,0,0,1-4.46,1.8A4.85,4.85,0,0,1,369.36,66,4,4,0,0,1,368,62.92a4.58,4.58,0,0,1,.57-2.24,4.1,4.1,0,0,1,1.56-1.61,6.85,6.85,0,0,1,3.47-.74h4.09Zm-6.67,16.4h-3.05c-1.53,0-2.29.54-2.29,1.64a1.44,1.44,0,0,0,.49,1.11,1.73,1.73,0,0,0,1.22.46,3,3,0,0,0,2-.85A6.39,6.39,0,0,0,376.57,61.13Zm4.43-2.8H382a6.88,6.88,0,0,0,3.81-.87A4.22,4.22,0,0,0,387.11,56a4,4,0,0,0,.52-1.94A1.82,1.82,0,0,0,387,52.4a4.38,4.38,0,0,0-2.39-.47h-1Zm3.73-9.2h.7a3.58,3.58,0,0,0,2.48-.77,3,3,0,0,0,.75-1,2.74,2.74,0,0,0,.3-1.17,1.25,1.25,0,0,0-.86-1.29,5,5,0,0,0-1.4-.13h-.18Z"/><path class="cls-1" d="M400.27,55.37h1.36a2,2,0,0,1,1.14.24.91.91,0,0,1,.34.8,1.32,1.32,0,0,1-.52,1.11,2.33,2.33,0,0,1-1.46.41H399a1.3,1.3,0,0,1-1.32-.76,2.05,2.05,0,0,1-1.61.76h-1.72a2.41,2.41,0,0,1-1.71-.65,2.15,2.15,0,0,1-.68-1.62,3.67,3.67,0,0,1,.31-1.32l1.59-3.91c.45-1.09,1.06-1.63,1.83-1.63a1.25,1.25,0,0,1,.86.32,1.05,1.05,0,0,1,.35.79,2.05,2.05,0,0,1-.19.81l-.13.32-1.23,3-.13.35a2.23,2.23,0,0,0-.12.46c0,.35.22.53.68.53a1.88,1.88,0,0,0,1.94-1.18l1.46-3.61c.44-1.09,1.06-1.64,1.85-1.64a1.21,1.21,0,0,1,.85.33,1.05,1.05,0,0,1,.35.79A3.34,3.34,0,0,1,402,51.2Z"/><path class="cls-1" d="M409.36,49a3.14,3.14,0,0,1,.94-.16,2.74,2.74,0,0,1,2.2,1,4,4,0,0,1,.84,2.63,5.67,5.67,0,0,1-2.41,4.88,2.94,2.94,0,0,1-1.76.61h-1.11a2.71,2.71,0,0,1-2-.83,1.69,1.69,0,0,1-1.55.83,1.19,1.19,0,0,1-.85-.33,1,1,0,0,1-.36-.8,2.24,2.24,0,0,1,.19-.8l.13-.32,4.91-12.11.13-.32a1.81,1.81,0,0,1,1.7-1.32,1.27,1.27,0,0,1,.88.32,1,1,0,0,1,.36.8,2,2,0,0,1-.19.8l-.13.33ZM407,54.71a1.71,1.71,0,0,0,1.37.75,1.47,1.47,0,0,0,1-.32,3.6,3.6,0,0,0,.94-1.29,3.66,3.66,0,0,0,.41-1.53,1.27,1.27,0,0,0-.31-.87,1,1,0,0,0-.8-.33c-.74,0-1.33.55-1.78,1.65Z"/><path class="cls-1" d="M419.78,49a3.13,3.13,0,0,1,.93-.16,2.75,2.75,0,0,1,2.21,1,4,4,0,0,1,.84,2.63,5.67,5.67,0,0,1-2.41,4.88,2.94,2.94,0,0,1-1.76.61h-1.11a2.67,2.67,0,0,1-2-.83,1.69,1.69,0,0,1-1.55.83,1.22,1.22,0,0,1-.86-.33,1.06,1.06,0,0,1-.35-.8,2,2,0,0,1,.19-.8l.13-.32L419,43.57l.13-.32a1.8,1.8,0,0,1,1.7-1.32,1.29,1.29,0,0,1,.88.32,1,1,0,0,1,.36.8,2,2,0,0,1-.19.8l-.13.33Zm-2.33,5.75a1.7,1.7,0,0,0,1.37.75,1.47,1.47,0,0,0,.95-.32,4.27,4.27,0,0,0,1.34-2.82,1.26,1.26,0,0,0-.3-.87,1,1,0,0,0-.8-.33c-.74,0-1.33.55-1.78,1.65Z"/><path class="cls-1" d="M427.52,55.37h1.23c1,0,1.49.35,1.49,1.05a1.32,1.32,0,0,1-.52,1.11,2.33,2.33,0,0,1-1.46.4h-2.11a2.13,2.13,0,0,1-1.37-.41,1.35,1.35,0,0,1-.5-1.1,3.68,3.68,0,0,1,.34-1.21l4.73-11.65.13-.31a1.81,1.81,0,0,1,1.72-1.32,1.17,1.17,0,0,1,.84.33,1.05,1.05,0,0,1,.35.79,2.12,2.12,0,0,1-.18.79l-.13.32Z"/><path class="cls-1" d="M433.57,54.5q0,.87,1.32.87h3.49q1.47,0,1.47,1.05a1.32,1.32,0,0,1-.52,1.11,2.33,2.33,0,0,1-1.46.4h-3.32a3.93,3.93,0,0,1-2.81-.92,3.47,3.47,0,0,1-1-2.67,5.51,5.51,0,0,1,1.53-3.9,4.82,4.82,0,0,1,3.64-1.64,3.66,3.66,0,0,1,2.46.8,2.64,2.64,0,0,1,.94,2.12,2.54,2.54,0,0,1-1.29,2.34,4.19,4.19,0,0,1-2.14.44Zm.56-2.14h1.29c.84,0,1.24-.18,1.22-.55s-.29-.62-.81-.62A1.89,1.89,0,0,0,434.13,52.36Z"/><path class="cls-1" d="M444.2,52.16l-.22.54a1.62,1.62,0,0,1-1.47,1.16,1.27,1.27,0,0,1-.86-.33,1,1,0,0,1-.38-.77,2.59,2.59,0,0,1,.34-1.09l1.56-3.16c.38-.76.86-1.14,1.43-1.14a1.12,1.12,0,0,1,.78.3.92.92,0,0,1,.33.71,2.58,2.58,0,0,1-.07.45,2.91,2.91,0,0,0-.05.46,2.65,2.65,0,0,0,.55,1.51l.67.93a4.71,4.71,0,0,1,1,2.74,3.19,3.19,0,0,1-1.1,2.47,3.94,3.94,0,0,1-2.74,1h-2.45c-1,0-1.49-.35-1.49-1a1.34,1.34,0,0,1,.53-1.12,2.31,2.31,0,0,1,1.45-.41h1.36c1.09,0,1.63-.39,1.63-1.18a2.21,2.21,0,0,0-.31-1Z"/><path class="cls-1" d="M454.1,48.8a3.83,3.83,0,0,1,2.8,1.08A3.68,3.68,0,0,1,458,52.62a5.87,5.87,0,0,1-.57,2.49,5.38,5.38,0,0,1-1.49,2,3.52,3.52,0,0,1-1.26.67,7.14,7.14,0,0,1-1.82.18,4.9,4.9,0,0,1-2.58-.46,3.61,3.61,0,0,1-1.57-3.19,5.29,5.29,0,0,1,1.6-3.85A5.16,5.16,0,0,1,454.1,48.8Zm-.28,2.5a2,2,0,0,0-1.58.85,2.87,2.87,0,0,0-.72,1.89c0,.9.51,1.36,1.53,1.36a1.75,1.75,0,0,0,1.37-.55,3,3,0,0,0,.79-2.07,1.48,1.48,0,0,0-.38-1.07A1.31,1.31,0,0,0,453.82,51.3Z"/><path class="cls-1" d="M461.54,51.53l-.4,1c-.35.88-.82,1.32-1.4,1.32a1.27,1.27,0,0,1-.88-.32,1,1,0,0,1-.35-.78,2.77,2.77,0,0,1,.26-.92l1.32-3.27c.32-.79.77-1.18,1.36-1.18a1,1,0,0,1,1.07.82l.09.36c.05.19.12.31.21.35a1.89,1.89,0,0,0,.69.07h2.74c1,0,1.54.36,1.54,1.08,0,1-.65,1.49-2,1.49l-.13.12c-1.24,1.18-1.86,2.1-1.86,2.75s.36,1,1.08,1h1.48c1,0,1.48.35,1.48,1a1.33,1.33,0,0,1-.52,1.12,2.31,2.31,0,0,1-1.46.4h-2.29a2.5,2.5,0,0,1-1.92-.81A3,3,0,0,1,461,55a3.38,3.38,0,0,1,.4-1.59,9.45,9.45,0,0,1,1.4-1.9Z"/><path class="cls-1" d="M474.27,49h.36c1,0,1.49.35,1.49,1a1.3,1.3,0,0,1-.53,1.11,2.31,2.31,0,0,1-1.45.4h-.85l-1.58,3.85H473c1,0,1.49.35,1.49,1.05a1.33,1.33,0,0,1-.53,1.11,2.29,2.29,0,0,1-1.45.4h-2.1a2.21,2.21,0,0,1-1.41-.41,1.34,1.34,0,0,1-.53-1.11,2.7,2.7,0,0,1,.21-1l.23-.51,1.38-3.41h-.18c-.87,0-1.31-.34-1.31-1a1.36,1.36,0,0,1,.52-1.13,2.35,2.35,0,0,1,1.46-.41h.54l.62-1.53.13-.32a1.84,1.84,0,0,1,1.74-1.3,1.17,1.17,0,0,1,.82.32,1,1,0,0,1,.35.78A2.84,2.84,0,0,1,474.7,48Z"/><path class="cls-1" d="M478.23,55a1.64,1.64,0,0,1,0,3.27,1.6,1.6,0,0,1-1.16-.49,1.62,1.62,0,0,1,0-2.3A1.59,1.59,0,0,1,478.23,55Zm5.26-9.41-2.56,6.94c-.44,1.19-1,1.79-1.57,1.79a1.13,1.13,0,0,1-1.11-1.12,3.34,3.34,0,0,1,.13-.76l2.22-8q.42-1.5,1.65-1.5a1.53,1.53,0,0,1,1.09.42,1.35,1.35,0,0,1,.45,1A3.9,3.9,0,0,1,483.49,45.57Z"/><path class="cls-1" d="M372.46,75.93h-2v-.74h5v.74h-2.06v6h-.88Z"/><path class="cls-1" d="M381.82,79c-.05-.94-.11-2.07-.1-2.91h0c-.23.79-.51,1.63-.85,2.56l-1.18,3.27H379l-1.09-3.21c-.32-1-.59-1.82-.78-2.62h0c0,.84-.07,2-.13,3l-.18,2.89H376l.47-6.74h1.11l1.15,3.26c.28.83.51,1.57.68,2.27h0c.17-.68.41-1.42.71-2.27l1.19-3.26h1.11l.42,6.74H382Z"/><path class="cls-1" d="M384.19,75.28a12.46,12.46,0,0,1,1.85-.14,3.83,3.83,0,0,1,2.72.84,3.1,3.1,0,0,1,.95,2.42,3.6,3.6,0,0,1-1,2.62,4.15,4.15,0,0,1-3,1,14,14,0,0,1-1.58-.08Zm.87,6a5.49,5.49,0,0,0,.88.05,2.59,2.59,0,0,0,2.86-2.86,2.4,2.4,0,0,0-2.72-2.6,4.94,4.94,0,0,0-1,.09Z"/><path class="cls-1" d="M390.85,75.28a8.43,8.43,0,0,1,1.59-.14,2.79,2.79,0,0,1,1.85.49,1.41,1.41,0,0,1,.56,1.19,1.6,1.6,0,0,1-1.14,1.48v0A1.73,1.73,0,0,1,395.09,80a1.81,1.81,0,0,1-.56,1.35,3.39,3.39,0,0,1-2.33.63,10.17,10.17,0,0,1-1.35-.08Zm.87,2.76h.79c.92,0,1.46-.48,1.46-1.13s-.6-1.1-1.48-1.1a3.73,3.73,0,0,0-.77.06Zm0,3.23a4.65,4.65,0,0,0,.73,0c.9,0,1.73-.33,1.73-1.31s-.79-1.3-1.74-1.3h-.72Z"/><path class="cls-1" d="M397.43,75.08a11.54,11.54,0,0,1-.94,2.37l-.56.07a14.16,14.16,0,0,0,.59-2.35Z"/><path class="cls-1" d="M397.55,81a2.31,2.31,0,0,0,1.16.35c.64,0,.94-.32.94-.72s-.25-.65-.9-.89c-.87-.31-1.28-.79-1.28-1.37A1.49,1.49,0,0,1,399.14,77a2.42,2.42,0,0,1,1.19.3l-.22.64a1.88,1.88,0,0,0-1-.28c-.52,0-.81.3-.81.66s.29.58.92.82c.84.32,1.27.74,1.27,1.46S399.84,82,398.69,82a2.76,2.76,0,0,1-1.36-.33Z"/><path class="cls-1" d="M403.75,78.4c0-.5,0-.91,0-1.31h.77l0,.78h0a1.67,1.67,0,0,1,1.52-.89,1.43,1.43,0,0,1,1.37,1h0a2,2,0,0,1,.54-.63,1.65,1.65,0,0,1,1.07-.34c.64,0,1.58.42,1.58,2.1v2.85h-.86V79.19c0-.93-.33-1.49-1-1.49a1.14,1.14,0,0,0-1,.8,1.45,1.45,0,0,0-.07.44v3h-.86V79c0-.77-.34-1.33-1-1.33A1.31,1.31,0,0,0,404.61,79v2.92h-.86Z"/><path class="cls-1" d="M416.47,79.47A2.37,2.37,0,0,1,414.06,82a2.3,2.3,0,0,1-2.32-2.49,2.36,2.36,0,0,1,2.4-2.57A2.29,2.29,0,0,1,416.47,79.47Zm-3.84,0c0,1.06.61,1.86,1.47,1.86s1.47-.79,1.47-1.88c0-.82-.41-1.86-1.45-1.86S412.63,78.6,412.63,79.52Z"/><path class="cls-1" d="M417.46,81a2.31,2.31,0,0,0,1.16.35c.64,0,.94-.32.94-.72s-.25-.65-.9-.89c-.87-.31-1.28-.79-1.28-1.37A1.49,1.49,0,0,1,419.05,77a2.42,2.42,0,0,1,1.19.3l-.22.64a1.88,1.88,0,0,0-1-.28c-.52,0-.81.3-.81.66s.29.58.92.82c.84.32,1.27.74,1.27,1.46S419.75,82,418.6,82a2.76,2.76,0,0,1-1.36-.33Z"/><path class="cls-1" d="M422.6,75.7v1.39h1.26v.67H422.6v2.61c0,.6.17.94.66.94a2,2,0,0,0,.51-.06l0,.66A2.15,2.15,0,0,1,423,82a1.22,1.22,0,0,1-.95-.37,1.79,1.79,0,0,1-.34-1.26V77.76H421v-.67h.75V75.93Z"/><path class="cls-1" d="M427,78.67c0-.62,0-1.12,0-1.58h.79l0,.83h0A1.9,1.9,0,0,1,429.5,77a2.19,2.19,0,0,1,2,2.46c0,1.74-1.05,2.6-2.19,2.6a1.7,1.7,0,0,1-1.49-.76h0v2.63H427Zm.87,1.29a2,2,0,0,0,0,.36,1.36,1.36,0,0,0,1.32,1c.93,0,1.47-.76,1.47-1.87s-.51-1.8-1.44-1.8a1.4,1.4,0,0,0-1.33,1.09,1.43,1.43,0,0,0-.06.36Z"/><path class="cls-1" d="M437,79.47A2.37,2.37,0,0,1,434.63,82a2.3,2.3,0,0,1-2.32-2.49,2.36,2.36,0,0,1,2.4-2.57A2.29,2.29,0,0,1,437,79.47Zm-3.84,0c0,1.06.61,1.86,1.47,1.86s1.47-.79,1.47-1.88c0-.82-.41-1.86-1.45-1.86S433.2,78.6,433.2,79.52Z"/><path class="cls-1" d="M438.15,78.67c0-.62,0-1.12,0-1.58h.79l0,.83h0a1.9,1.9,0,0,1,1.72-.94,2.19,2.19,0,0,1,2,2.46c0,1.74-1.05,2.6-2.19,2.6a1.7,1.7,0,0,1-1.49-.76h0v2.63h-.87ZM439,80a2,2,0,0,0,0,.36,1.36,1.36,0,0,0,1.32,1c.93,0,1.47-.76,1.47-1.87s-.51-1.8-1.44-1.8a1.4,1.4,0,0,0-1.33,1.09,1.43,1.43,0,0,0-.06.36Z"/><path class="cls-1" d="M447.88,80.61c0,.5,0,.94,0,1.32h-.77l0-.79h0a1.82,1.82,0,0,1-1.6.9c-.76,0-1.67-.42-1.67-2.12V77.09h.88v2.68c0,.92.28,1.54,1.08,1.54a1.27,1.27,0,0,0,1.16-.8,1.29,1.29,0,0,0,.07-.45v-3h.88Z"/><path class="cls-1" d="M449.35,74.83h.88v7.1h-.88Z"/><path class="cls-1" d="M454.39,81.93l-.07-.61h0a1.8,1.8,0,0,1-1.48.72,1.38,1.38,0,0,1-1.48-1.39c0-1.17,1-1.81,2.91-1.8v-.1a1,1,0,0,0-1.1-1.12,2.41,2.41,0,0,0-1.26.36l-.2-.58a3,3,0,0,1,1.59-.43c1.48,0,1.84,1,1.84,2v1.81a6.81,6.81,0,0,0,.08,1.16Zm-.13-2.47c-1,0-2.05.15-2.05,1.09a.78.78,0,0,0,.83.84,1.2,1.2,0,0,0,1.17-.81.92.92,0,0,0,.05-.28Z"/><path class="cls-1" d="M456.53,78.6c0-.57,0-1.06,0-1.51h.77l0,1h0A1.45,1.45,0,0,1,458.67,77a1,1,0,0,1,.25,0v.83a1.32,1.32,0,0,0-.3,0,1.23,1.23,0,0,0-1.18,1.13,2.48,2.48,0,0,0,0,.41v2.58h-.87Z"/><path class="cls-1" d="M371.15,90.4c0-.5,0-.91,0-1.31h.77l0,.78h0a1.67,1.67,0,0,1,1.52-.89,1.43,1.43,0,0,1,1.37,1h0a2,2,0,0,1,.54-.63,1.62,1.62,0,0,1,1.06-.34c.64,0,1.59.42,1.59,2.1v2.85h-.86V91.19c0-.93-.34-1.49-1.05-1.49a1.13,1.13,0,0,0-1,.8,1.45,1.45,0,0,0-.07.44v3h-.86V91c0-.77-.34-1.33-1-1.33A1.31,1.31,0,0,0,372,91v2.92h-.86Z"/><path class="cls-1" d="M383.87,91.47A2.37,2.37,0,0,1,381.46,94a2.3,2.3,0,0,1-2.32-2.49,2.36,2.36,0,0,1,2.4-2.57A2.29,2.29,0,0,1,383.87,91.47Zm-3.84,0c0,1.06.61,1.86,1.47,1.86S383,92.59,383,91.5c0-.82-.41-1.86-1.45-1.86S380,90.6,380,91.52Z"/><path class="cls-1" d="M385.25,89.09l.95,2.72a12.45,12.45,0,0,1,.39,1.24h0c.11-.4.25-.8.41-1.24l.94-2.72h.91L387,93.93h-.84l-1.84-4.84Z"/><path class="cls-1" d="M390.7,87.73a.55.55,0,0,1-1.09,0,.54.54,0,0,1,.55-.55A.52.52,0,0,1,390.7,87.73Zm-1,6.2V89.09h.88v4.84Z"/><path class="cls-1" d="M392.55,91.67a1.55,1.55,0,0,0,1.66,1.68,3.16,3.16,0,0,0,1.33-.25l.15.63a3.86,3.86,0,0,1-1.6.3,2.25,2.25,0,0,1-2.38-2.44A2.35,2.35,0,0,1,394,89a2,2,0,0,1,2,2.28,2.07,2.07,0,0,1,0,.41Zm2.58-.63a1.26,1.26,0,0,0-1.22-1.43A1.46,1.46,0,0,0,392.56,91Z"/><path class="cls-1" d="M397,93a2.31,2.31,0,0,0,1.16.35c.64,0,.94-.32.94-.72s-.25-.65-.9-.89c-.87-.31-1.28-.79-1.28-1.37A1.49,1.49,0,0,1,398.54,89a2.34,2.34,0,0,1,1.18.3l-.22.64a1.81,1.81,0,0,0-1-.28c-.52,0-.81.3-.81.66s.29.58.92.82c.83.32,1.26.74,1.26,1.46s-.65,1.45-1.8,1.45a2.76,2.76,0,0,1-1.36-.33Z"/><path class="cls-1" d="M403.24,93.93V89.76h-.68v-.67h.68v-.23a2.28,2.28,0,0,1,.56-1.69,1.68,1.68,0,0,1,1.18-.45,2,2,0,0,1,.75.14l-.12.68a1.35,1.35,0,0,0-.56-.11c-.75,0-.94.66-.94,1.4v.26h1.17v.67h-1.17v4.17Z"/><path class="cls-1" d="M406.07,90.6c0-.57,0-1.06,0-1.51h.77l0,1h0A1.45,1.45,0,0,1,408.21,89a1,1,0,0,1,.25,0v.83a1.32,1.32,0,0,0-.3,0A1.23,1.23,0,0,0,407,90.94a2.48,2.48,0,0,0,0,.41v2.58h-.87Z"/><path class="cls-1" d="M413.61,91.47a2.36,2.36,0,0,1-2.4,2.57,2.3,2.3,0,0,1-2.32-2.49,2.36,2.36,0,0,1,2.4-2.57A2.29,2.29,0,0,1,413.61,91.47Zm-3.83,0c0,1.06.61,1.86,1.47,1.86s1.46-.79,1.46-1.88c0-.82-.41-1.86-1.44-1.86S409.78,90.6,409.78,91.52Z"/><path class="cls-1" d="M414.73,90.4c0-.5,0-.91,0-1.31h.77l0,.78h0A1.66,1.66,0,0,1,417,89a1.43,1.43,0,0,1,1.38,1h0a2,2,0,0,1,.54-.63A1.65,1.65,0,0,1,420,89c.64,0,1.59.42,1.59,2.1v2.85h-.86V91.19c0-.93-.34-1.49-1-1.49a1.14,1.14,0,0,0-1,.8,1.45,1.45,0,0,0-.07.44v3h-.86V91c0-.77-.33-1.33-1-1.33A1.31,1.31,0,0,0,415.59,91v2.92h-.86Z"/><path class="cls-1" d="M426.82,88.25h0l-1.13.61-.17-.67,1.42-.76h.75v6.5h-.85Z"/><path class="cls-1" d="M430.55,93.31a3.67,3.67,0,0,0,.71,0,2.45,2.45,0,0,0,1.36-.63,2.9,2.9,0,0,0,.85-1.73h0A1.95,1.95,0,0,1,430,89.63a2.23,2.23,0,0,1,2.22-2.31c1.32,0,2.14,1.08,2.14,2.74a4.14,4.14,0,0,1-1.11,3,3.25,3.25,0,0,1-1.89.87,4.1,4.1,0,0,1-.81,0Zm.32-3.74A1.25,1.25,0,0,0,432.12,91a1.43,1.43,0,0,0,1.27-.68.58.58,0,0,0,.08-.32c0-1.11-.4-2-1.32-2C431.4,88,430.87,88.65,430.87,89.57Z"/><path class="cls-1" d="M435.68,93.31a3.67,3.67,0,0,0,.71,0,2.45,2.45,0,0,0,1.36-.63,2.9,2.9,0,0,0,.85-1.73h0a1.95,1.95,0,0,1-3.44-1.29,2.23,2.23,0,0,1,2.22-2.31c1.32,0,2.14,1.08,2.14,2.74a4.14,4.14,0,0,1-1.11,3,3.25,3.25,0,0,1-1.89.87,4.1,4.1,0,0,1-.81,0Zm.32-3.74A1.25,1.25,0,0,0,437.25,91a1.45,1.45,0,0,0,1.27-.68.58.58,0,0,0,.08-.32c0-1.11-.4-2-1.32-2C436.53,88,436,88.65,436,89.57Z"/><path class="cls-1" d="M440.3,93.93v-.54l.69-.67c1.66-1.58,2.4-2.42,2.41-3.4a1.16,1.16,0,0,0-1.28-1.27,2.21,2.21,0,0,0-1.38.55l-.28-.62a2.84,2.84,0,0,1,1.83-.66,1.83,1.83,0,0,1,2,1.89c0,1.2-.86,2.17-2.23,3.49l-.52.48v0h2.91v.73Z"/><path class="cls-1" d="M448.89,87.7v1.39h1.25v.67h-1.25v2.61c0,.6.17.94.65.94a1.84,1.84,0,0,0,.51-.06l0,.66a2.09,2.09,0,0,1-.77.12,1.22,1.22,0,0,1-.95-.37A1.79,1.79,0,0,1,448,92.4V89.76h-.75v-.67H448V87.93Z"/><path class="cls-1" d="M455.45,91.47A2.37,2.37,0,0,1,453,94a2.3,2.3,0,0,1-2.31-2.49,2.36,2.36,0,0,1,2.4-2.57A2.29,2.29,0,0,1,455.45,91.47Zm-3.83,0c0,1.06.61,1.86,1.46,1.86s1.47-.79,1.47-1.88c0-.82-.41-1.86-1.44-1.86S451.62,90.6,451.62,91.52Z"/><path class="cls-1" d="M458.41,93.93v-.54l.69-.67c1.66-1.58,2.4-2.42,2.41-3.4a1.15,1.15,0,0,0-1.28-1.27,2.21,2.21,0,0,0-1.38.55l-.28-.62a2.85,2.85,0,0,1,1.84-.66,1.83,1.83,0,0,1,2,1.89c0,1.2-.86,2.17-2.23,3.49l-.52.48v0h2.91v.73Z"/><path class="cls-1" d="M467.85,90.61c0,2.21-.81,3.43-2.25,3.43-1.27,0-2.13-1.19-2.15-3.34s.94-3.38,2.26-3.38S467.85,88.54,467.85,90.61Zm-3.52.1c0,1.69.52,2.65,1.32,2.65s1.32-1,1.32-2.71-.4-2.65-1.31-2.65S464.33,88.94,464.33,90.71Z"/><path class="cls-1" d="M470.58,88.25h0l-1.13.61-.17-.67,1.42-.76h.74v6.5h-.84Z"/><path class="cls-1" d="M477.5,88.05a3.18,3.18,0,0,0-.66,0,2.64,2.64,0,0,0-2.25,2.31h0a2,2,0,0,1,3.52,1.35A2.17,2.17,0,0,1,476,94c-1.39,0-2.3-1.08-2.3-2.77a4.09,4.09,0,0,1,1.1-2.93,3.51,3.51,0,0,1,2.08-1,4.11,4.11,0,0,1,.63,0Zm-.25,3.75a1.32,1.32,0,0,0-1.33-1.49,1.45,1.45,0,0,0-1.26.8.75.75,0,0,0-.1.39c0,1.07.51,1.86,1.43,1.86C476.75,93.36,477.25,92.73,477.25,91.8Z"/><path class="cls-1" d="M478.64,95.16a14.39,14.39,0,0,0,.6-2.39l1-.1a12.19,12.19,0,0,1-1,2.43Z"/><path class="cls-1" d="M371,105a2.31,2.31,0,0,0,1.16.35c.64,0,.94-.32.94-.72s-.25-.65-.9-.89c-.87-.31-1.28-.79-1.28-1.37a1.49,1.49,0,0,1,1.67-1.42,2.42,2.42,0,0,1,1.19.3l-.22.64a1.88,1.88,0,0,0-1-.28c-.52,0-.81.3-.81.66s.29.58.92.82c.84.32,1.27.74,1.27,1.46s-.66,1.45-1.81,1.45a2.76,2.76,0,0,1-1.36-.33Z"/><path class="cls-1" d="M379.49,103.47a2.37,2.37,0,0,1-2.41,2.57,2.3,2.3,0,0,1-2.32-2.49,2.36,2.36,0,0,1,2.4-2.57A2.29,2.29,0,0,1,379.49,103.47Zm-3.84,0c0,1.06.61,1.86,1.47,1.86s1.47-.79,1.47-1.88c0-.82-.41-1.86-1.45-1.86S375.65,102.6,375.65,103.52Z"/><path class="cls-1" d="M380.6,102.6c0-.57,0-1.06,0-1.51h.77l0,1h0a1.45,1.45,0,0,1,1.34-1.06,1,1,0,0,1,.25,0v.83a1.32,1.32,0,0,0-.3,0,1.23,1.23,0,0,0-1.18,1.13,2.48,2.48,0,0,0,0,.41v2.58h-.87Z"/><path class="cls-1" d="M385.17,99.7v1.39h1.26v.67h-1.26v2.61c0,.6.17.94.66.94a2,2,0,0,0,.51-.06l0,.66a2.15,2.15,0,0,1-.78.12,1.22,1.22,0,0,1-1-.37,1.79,1.79,0,0,1-.34-1.26v-2.64h-.75v-.67h.75V99.93Z"/><path class="cls-1" d="M387.85,103.67a1.55,1.55,0,0,0,1.66,1.68,3.16,3.16,0,0,0,1.33-.25l.15.63a3.86,3.86,0,0,1-1.6.3,2.25,2.25,0,0,1-2.38-2.44,2.35,2.35,0,0,1,2.27-2.61,2,2,0,0,1,2,2.28,3.32,3.32,0,0,1,0,.41Zm2.57-.63a1.25,1.25,0,0,0-1.21-1.43,1.46,1.46,0,0,0-1.35,1.43Z"/><path class="cls-1" d="M396.54,98.83v5.85c0,.43,0,.92,0,1.25h-.79l0-.84h0a1.78,1.78,0,0,1-1.65,1,2.21,2.21,0,0,1-2.06-2.46,2.32,2.32,0,0,1,2.17-2.6,1.61,1.61,0,0,1,1.45.74h0V98.83Zm-.88,4.23a2.31,2.31,0,0,0,0-.37,1.31,1.31,0,0,0-1.27-1c-.91,0-1.45.8-1.45,1.87s.48,1.79,1.42,1.79a1.34,1.34,0,0,0,1.3-1,2.25,2.25,0,0,0,0-.38Z"/><path class="cls-1" d="M404.17,104.61c0,.5,0,.94,0,1.32h-.78l-.05-.79h0a1.8,1.8,0,0,1-1.59.9c-.76,0-1.67-.42-1.67-2.12v-2.83H401v2.68c0,.92.28,1.54,1.07,1.54a1.27,1.27,0,0,0,1.16-.8,1.29,1.29,0,0,0,.08-.45v-3h.88Z"/><path class="cls-1" d="M405.52,105a2.3,2.3,0,0,0,1.15.35c.64,0,.95-.32.95-.72s-.25-.65-.91-.89c-.86-.31-1.27-.79-1.27-1.37a1.49,1.49,0,0,1,1.67-1.42,2.4,2.4,0,0,1,1.18.3l-.22.64a1.85,1.85,0,0,0-1-.28c-.51,0-.8.3-.8.66s.29.58.92.82c.83.32,1.26.74,1.26,1.46s-.66,1.45-1.8,1.45a2.76,2.76,0,0,1-1.36-.33Z"/><path class="cls-1" d="M410.58,99.73a.55.55,0,0,1-1.09,0,.54.54,0,0,1,.55-.55A.52.52,0,0,1,410.58,99.73Zm-1,6.2v-4.84h.88v4.84Z"/><path class="cls-1" d="M411.94,102.4c0-.5,0-.91,0-1.31h.77l.06.8h0a1.76,1.76,0,0,1,1.59-.91c.67,0,1.71.4,1.71,2.06v2.89h-.88v-2.79c0-.78-.29-1.43-1.12-1.43a1.24,1.24,0,0,0-1.17.9,1,1,0,0,0-.06.41v2.91h-.88Z"/><path class="cls-1" d="M421.65,101.09c0,.35,0,.74,0,1.33v2.81a2.78,2.78,0,0,1-.69,2.21,2.57,2.57,0,0,1-1.76.58,3.09,3.09,0,0,1-1.6-.4l.22-.67a2.66,2.66,0,0,0,1.41.38c.9,0,1.56-.47,1.56-1.69v-.54h0a1.73,1.73,0,0,1-1.54.81,2.16,2.16,0,0,1-2.05-2.36,2.32,2.32,0,0,1,2.17-2.57,1.61,1.61,0,0,1,1.51.84h0l0-.73Zm-.91,1.91a1.25,1.25,0,0,0-.05-.4,1.27,1.27,0,0,0-1.23-.93c-.83,0-1.43.71-1.43,1.83,0,1,.47,1.74,1.42,1.74a1.29,1.29,0,0,0,1.22-.9,1.53,1.53,0,0,0,.07-.47Z"/><path class="cls-1" d="M425.16,105.93c0-.33,0-.82,0-1.25V98.83h.86v3h0a1.8,1.8,0,0,1,1.65-.89,2.17,2.17,0,0,1,2,2.47A2.3,2.3,0,0,1,427.6,106a1.7,1.7,0,0,1-1.61-.91h0l0,.8Zm.9-1.94a1.65,1.65,0,0,0,0,.32,1.36,1.36,0,0,0,1.32,1c.92,0,1.47-.75,1.47-1.86s-.5-1.8-1.44-1.8a1.38,1.38,0,0,0-1.33,1.08,1.23,1.23,0,0,0-.06.36Z"/><path class="cls-1" d="M434.93,104.61c0,.5,0,.94,0,1.32h-.78l-.05-.79h0a1.82,1.82,0,0,1-1.6.9c-.76,0-1.67-.42-1.67-2.12v-2.83h.88v2.68c0,.92.28,1.54,1.08,1.54a1.27,1.27,0,0,0,1.16-.8,1.29,1.29,0,0,0,.08-.45v-3h.88Z"/><path class="cls-1" d="M436.35,105.93c0-.33,0-.82,0-1.25V98.83h.87v3h0a1.8,1.8,0,0,1,1.65-.89,2.17,2.17,0,0,1,2,2.47A2.3,2.3,0,0,1,438.8,106a1.72,1.72,0,0,1-1.62-.91h0l0,.8Zm.91-1.94a1.65,1.65,0,0,0,0,.32,1.36,1.36,0,0,0,1.32,1c.92,0,1.47-.75,1.47-1.86s-.5-1.8-1.44-1.8a1.4,1.4,0,0,0-1.34,1.08,1.73,1.73,0,0,0-.05.36Z"/><path class="cls-1" d="M442,105.93c0-.33,0-.82,0-1.25V98.83H443v3h0a1.8,1.8,0,0,1,1.65-.89,2.17,2.17,0,0,1,2,2.47,2.3,2.3,0,0,1-2.17,2.59,1.72,1.72,0,0,1-1.62-.91h0l0,.8ZM443,104a1.65,1.65,0,0,0,0,.32,1.36,1.36,0,0,0,1.32,1c.92,0,1.47-.75,1.47-1.86s-.5-1.8-1.44-1.8a1.4,1.4,0,0,0-1.34,1.08,1.73,1.73,0,0,0-.05.36Z"/><path class="cls-1" d="M447.77,98.83h.88v7.1h-.88Z"/><path class="cls-1" d="M450.62,103.67a1.55,1.55,0,0,0,1.66,1.68,3.18,3.18,0,0,0,1.34-.25l.15.63a3.92,3.92,0,0,1-1.61.3,2.25,2.25,0,0,1-2.38-2.44,2.35,2.35,0,0,1,2.27-2.61,2.05,2.05,0,0,1,2,2.28,3.32,3.32,0,0,1,0,.41Zm2.58-.63a1.25,1.25,0,0,0-1.22-1.43,1.46,1.46,0,0,0-1.35,1.43Z"/><path class="cls-1" d="M455,105a2.31,2.31,0,0,0,1.16.35c.64,0,.94-.32.94-.72s-.25-.65-.9-.89c-.87-.31-1.28-.79-1.28-1.37a1.49,1.49,0,0,1,1.67-1.42,2.42,2.42,0,0,1,1.19.3l-.22.64a1.88,1.88,0,0,0-1-.28c-.52,0-.81.3-.81.66s.29.58.92.82c.84.32,1.27.74,1.27,1.46s-.66,1.45-1.81,1.45a2.76,2.76,0,0,1-1.36-.33Z"/><path class="cls-1" d="M463.48,103.47a2.37,2.37,0,0,1-2.41,2.57,2.3,2.3,0,0,1-2.32-2.49,2.36,2.36,0,0,1,2.4-2.57A2.29,2.29,0,0,1,463.48,103.47Zm-3.84,0c0,1.06.61,1.86,1.47,1.86s1.47-.79,1.47-1.88c0-.82-.41-1.86-1.45-1.86S459.64,102.6,459.64,103.52Z"/><path class="cls-1" d="M464.59,102.6c0-.57,0-1.06,0-1.51h.77l0,1h0a1.45,1.45,0,0,1,1.34-1.06,1,1,0,0,1,.25,0v.83a1.32,1.32,0,0,0-.3,0,1.23,1.23,0,0,0-1.18,1.13,2.48,2.48,0,0,0,0,.41v2.58h-.87Z"/><path class="cls-1" d="M469.16,99.7v1.39h1.26v.67h-1.26v2.61c0,.6.17.94.66.94a2,2,0,0,0,.51-.06l0,.66a2.15,2.15,0,0,1-.78.12,1.22,1.22,0,0,1-.95-.37,1.79,1.79,0,0,1-.34-1.26v-2.64h-.75v-.67h.75V99.93Z"/><path class="cls-1" d="M474.59,99.7v1.39h1.26v.67h-1.26v2.61c0,.6.17.94.66.94a2,2,0,0,0,.51-.06l0,.66a2.15,2.15,0,0,1-.78.12,1.22,1.22,0,0,1-.95-.37,1.79,1.79,0,0,1-.34-1.26v-2.64H473v-.67h.75V99.93Z"/><path class="cls-1" d="M481.16,103.47a2.37,2.37,0,0,1-2.41,2.57,2.3,2.3,0,0,1-2.32-2.49,2.36,2.36,0,0,1,2.4-2.57A2.29,2.29,0,0,1,481.16,103.47Zm-3.84,0c0,1.06.61,1.86,1.47,1.86s1.47-.79,1.47-1.88c0-.82-.41-1.86-1.45-1.86S477.32,102.6,477.32,103.52Z"/><path class="cls-1" d="M375.53,115.47a2.37,2.37,0,0,1-2.41,2.57,2.3,2.3,0,0,1-2.32-2.49,2.36,2.36,0,0,1,2.4-2.57A2.29,2.29,0,0,1,375.53,115.47Zm-3.84,0c0,1.06.61,1.86,1.47,1.86s1.47-.79,1.47-1.88c0-.82-.41-1.86-1.45-1.86S371.69,114.6,371.69,115.52Z"/><path class="cls-1" d="M376.91,113.09l.95,2.72a12.45,12.45,0,0,1,.39,1.24h0c.11-.4.25-.8.41-1.24l.94-2.72h.91l-1.89,4.84h-.84L376,113.09Z"/><path class="cls-1" d="M381.77,115.67a1.55,1.55,0,0,0,1.66,1.68,3.18,3.18,0,0,0,1.34-.25l.15.63a3.92,3.92,0,0,1-1.61.3,2.25,2.25,0,0,1-2.38-2.44A2.35,2.35,0,0,1,383.2,113a2.05,2.05,0,0,1,2,2.28,3.32,3.32,0,0,1,0,.41Zm2.58-.63a1.25,1.25,0,0,0-1.22-1.43,1.46,1.46,0,0,0-1.35,1.43Z"/><path class="cls-1" d="M386.29,114.6c0-.57,0-1.06,0-1.51H387l0,1h0a1.45,1.45,0,0,1,1.34-1.06,1,1,0,0,1,.25,0v.83a1.32,1.32,0,0,0-.3,0,1.23,1.23,0,0,0-1.18,1.13,2.48,2.48,0,0,0,0,.41v2.58h-.87Z"/><path class="cls-1" d="M392.19,117.93l-.07-.61h0a1.8,1.8,0,0,1-1.48.72,1.38,1.38,0,0,1-1.48-1.39c0-1.17,1-1.81,2.91-1.8v-.1a1,1,0,0,0-1.1-1.12,2.41,2.41,0,0,0-1.26.36l-.2-.58a3,3,0,0,1,1.59-.43c1.47,0,1.84,1,1.84,2v1.81a5.92,5.92,0,0,0,.08,1.16Zm-.13-2.47c-1,0-2.05.15-2.05,1.09a.78.78,0,0,0,.83.84,1.2,1.2,0,0,0,1.17-.81.92.92,0,0,0,.05-.28Z"/><path class="cls-1" d="M394.33,110.83h.88v7.1h-.88Z"/><path class="cls-1" d="M396.69,110.83h.88v7.1h-.88Z"/><path class="cls-1" d="M401.17,114.6c0-.57,0-1.06,0-1.51h.77l0,1h0a1.45,1.45,0,0,1,1.34-1.06,1,1,0,0,1,.25,0v.83a1.32,1.32,0,0,0-.3,0,1.23,1.23,0,0,0-1.18,1.13,2.48,2.48,0,0,0,0,.41v2.58h-.87Z"/><path class="cls-1" d="M407.07,117.93l-.07-.61h0a1.8,1.8,0,0,1-1.48.72,1.38,1.38,0,0,1-1.48-1.39c0-1.17,1-1.81,2.91-1.8v-.1a1,1,0,0,0-1.1-1.12,2.41,2.41,0,0,0-1.26.36l-.2-.58A3,3,0,0,1,406,113c1.48,0,1.84,1,1.84,2v1.81a6.81,6.81,0,0,0,.08,1.16Zm-.13-2.47c-1,0-2.05.15-2.05,1.09a.78.78,0,0,0,.83.84,1.2,1.2,0,0,0,1.17-.81.92.92,0,0,0,.05-.28Z"/><path class="cls-1" d="M410.23,111.7v1.39h1.26v.67h-1.26v2.61c0,.6.17.94.66.94a2,2,0,0,0,.51-.06l0,.66a2.15,2.15,0,0,1-.78.12,1.22,1.22,0,0,1-1-.37,1.79,1.79,0,0,1-.34-1.26v-2.64h-.75v-.67h.75v-1.16Z"/><path class="cls-1" d="M413.46,111.73a.55.55,0,0,1-1.09,0,.54.54,0,0,1,.55-.55A.52.52,0,0,1,413.46,111.73Zm-1,6.2v-4.84h.88v4.84Z"/><path class="cls-1" d="M414.82,114.4c0-.5,0-.91,0-1.31h.78l.05.8h0a1.78,1.78,0,0,1,1.6-.91c.67,0,1.71.4,1.71,2.06v2.89h-.88v-2.79c0-.78-.29-1.43-1.12-1.43a1.25,1.25,0,0,0-1.18.9,1.27,1.27,0,0,0-.06.41v2.91h-.88Z"/><path class="cls-1" d="M424.54,113.09c0,.35,0,.74,0,1.33v2.81a2.78,2.78,0,0,1-.69,2.21,2.57,2.57,0,0,1-1.76.58,3.12,3.12,0,0,1-1.61-.4l.22-.67a2.73,2.73,0,0,0,1.42.38c.9,0,1.56-.47,1.56-1.69v-.54h0a1.73,1.73,0,0,1-1.54.81,2.16,2.16,0,0,1-2.06-2.36A2.32,2.32,0,0,1,422.2,113a1.61,1.61,0,0,1,1.51.84h0l0-.73Zm-.91,1.91a1.25,1.25,0,0,0-.05-.4,1.27,1.27,0,0,0-1.23-.93c-.84,0-1.44.71-1.44,1.83,0,1,.48,1.74,1.43,1.74a1.29,1.29,0,0,0,1.22-.9,1.53,1.53,0,0,0,.07-.47Z"/><path class="cls-1" d="M425.6,117.41a.59.59,0,0,1,.6-.63.63.63,0,1,1-.6.63Z"/></svg>