<svg id="Layer_1" data-name="Layer 1" xmlns="http://www.w3.org/2000/svg" viewBox="0 0 311.78 245.24"><defs><style>.cls-1{fill:#333;stroke-width:2.42px;}.cls-1,.cls-2,.cls-3,.cls-4,.cls-5,.cls-7,.cls-8{stroke:#000;stroke-miterlimit:10;}.cls-2,.cls-4{fill:#a67c52;}.cls-2{stroke-width:6.78px;}.cls-3{fill:#ccc;stroke-width:5.72px;}.cls-4{stroke-width:7px;}.cls-5{fill:#999;stroke-width:3.61px;}.cls-6{fill:#4d4d4d;}.cls-7{fill:#e6e6e6;stroke-width:3.07px;}.cls-8{fill:blue;stroke-width:1.73px;}.cls-9{font-size:16px;fill:#f2f2f2;font-family:MyriadPro-Regular, Myriad Pro;}</style></defs><title>car</title><rect class="cls-1" x="240.96" y="177.03" width="58.69" height="67" rx="21.35"/><rect class="cls-2" x="14.1" y="3.39" width="285.55" height="107.57" rx="16.2"/><rect class="cls-3" x="36.97" y="16.47" width="239.84" height="91.29" rx="13.67"/><rect class="cls-1" x="14.1" y="177.03" width="58.69" height="67" rx="21.35"/><rect class="cls-4" x="3.5" y="96.55" width="304.78" height="107.57" rx="16.73"/><rect class="cls-5" x="80.99" y="136.06" width="149.8" height="58.24" rx="8.63"/><rect class="cls-6" x="169.36" y="136.06" width="3.19" height="45.09"/><rect class="cls-6" x="146.53" y="138" width="3.19" height="45.09"/><rect class="cls-6" x="191.21" y="136.06" width="3.19" height="45.09"/><rect class="cls-6" x="125.91" y="136.06" width="3.19" height="45.09"/><circle class="cls-7" cx="43.44" cy="167.96" r="22.81"/><rect class="cls-8" x="125.91" y="171.36" width="68.45" height="29.12" rx="4.13"/><circle class="cls-7" cx="270.3" cy="167.96" r="22.81"/><text class="cls-9" transform="translate(130.66 191.77)">123 ABC</text><rect class="cls-6" x="97.75" y="136.06" width="3.19" height="45.09"/><rect class="cls-6" x="111.83" y="138" width="3.19" height="45.09"/><rect class="cls-6" x="214.66" y="138" width="3.19" height="45.09"/><rect class="cls-6" x="203.73" y="138" width="3.19" height="45.09"/></svg>