<svg id="Layer_1" data-name="Layer 1" xmlns="http://www.w3.org/2000/svg" xmlns:xlink="http://www.w3.org/1999/xlink" viewBox="0 0 694.77 579.75"><defs><style>.cls-1{fill:none;}.cls-2{clip-path:url(#clip-path);}.cls-3{clip-path:url(#clip-path-2);}.cls-4{fill:#3fe6ff;}.cls-10,.cls-11,.cls-12,.cls-13,.cls-14,.cls-15,.cls-4,.cls-5,.cls-6,.cls-7,.cls-8,.cls-9{stroke:#000;stroke-miterlimit:10;stroke-width:4px;}.cls-5{fill:#19df00;}.cls-6{fill:#ecffc9;}.cls-7{fill:#bfeaff;}.cls-8{fill:#dffff8;}.cls-9{fill:#ffdfe8;}.cls-10{fill:#e9ff55;}.cls-11{fill:#b5aaff;}.cls-12{fill:#b4ffc1;}.cls-13{fill:#fbffaa;}.cls-14{fill:#c9ddff;}.cls-15{fill:#b4b4b4;}</style><clipPath id="clip-path" transform="translate(80.89 5.69)"><rect class="cls-1" width="397.76" height="500"/></clipPath><clipPath id="clip-path-2" transform="translate(80.89 5.69)"><rect class="cls-1" width="397.76" height="513.11"/></clipPath></defs><title>city4</title><g class="cls-2"><g class="cls-3"><rect class="cls-4" x="76.26" y="2" width="506.56" height="299.18"/><ellipse class="cls-5" cx="190.81" cy="254.46" rx="132.99" ry="58.2"/><ellipse class="cls-5" cx="335.89" cy="274.34" rx="130.53" ry="54.3"/><ellipse class="cls-5" cx="497.78" cy="234.17" rx="124.8" ry="48.98"/><ellipse class="cls-5" cx="315.61" cy="299.13" rx="255.74" ry="67.21"/><rect class="cls-6" x="182.82" y="314.7" width="39.84" height="59.84"/><rect class="cls-6" x="71.46" y="248.38" width="39.84" height="59.84"/><rect class="cls-6" x="207.93" y="333.21" width="39.84" height="59.84"/><rect class="cls-6" x="434.16" y="308.21" width="39.84" height="59.84"/><rect class="cls-6" x="387.85" y="320.1" width="39.84" height="59.84"/><rect class="cls-6" x="283.97" y="271.26" width="39.84" height="59.84"/><rect class="cls-7" x="15.2" y="291.61" width="157.79" height="56.97"/><rect class="cls-7" x="2" y="320.1" width="157.79" height="56.97"/><rect class="cls-7" x="64.87" y="337.86" width="157.79" height="56.97"/><rect class="cls-7" x="534.98" y="266.61" width="157.79" height="56.97"/><rect class="cls-8" x="249.23" y="302.48" width="49.18" height="92.21"/><rect class="cls-8" x="300.95" y="312.66" width="49.18" height="92.21"/><rect class="cls-8" x="529.62" y="298.52" width="49.18" height="92.21"/><rect class="cls-8" x="403.1" y="330.96" width="49.18" height="92.21"/><rect class="cls-8" x="80.89" y="330.96" width="49.18" height="92.21"/><rect class="cls-9" x="128.31" y="377.07" width="47.66" height="47.66"/><rect class="cls-9" x="350.13" y="358.76" width="47.66" height="47.66"/><rect class="cls-9" x="491.09" y="323.58" width="47.66" height="47.66"/><rect class="cls-9" x="454.82" y="339.3" width="47.66" height="47.66"/><rect class="cls-9" x="214.63" y="369.22" width="47.66" height="47.66"/><circle class="cls-10" cx="290.62" cy="128.43" r="35.45"/><rect class="cls-11" x="78.8" y="370.63" width="77.87" height="108.2"/><rect class="cls-11" x="278.72" y="420.84" width="77.87" height="108.2"/><rect class="cls-12" x="198.8" y="382.59" width="107.79" height="150.14"/><rect class="cls-13" x="130.07" y="382.59" width="103.57" height="155.06"/><rect class="cls-14" x="61.1" y="395.85" width="86.07" height="133.18"/><rect class="cls-14" x="303.89" y="395.85" width="86.07" height="133.18"/><rect class="cls-13" x="380.64" y="377.07" width="103.57" height="155.06"/></g></g><rect class="cls-15" x="80.89" y="498.25" width="397.76" height="79.51"/></svg>