<svg id="Layer_1" data-name="Layer 1" xmlns="http://www.w3.org/2000/svg" xmlns:xlink="http://www.w3.org/1999/xlink" viewBox="0 0 298.96 106.46"><defs><style>.cls-1{stroke:#000;stroke-miterlimit:10;stroke-width:4.46px;fill:url(#linear-gradient);}</style><linearGradient id="linear-gradient" x1="249.65" y1="301" x2="249.65" y2="199" gradientUnits="userSpaceOnUse"><stop offset="0" stop-color="#fff"/><stop offset="0" stop-color="#f6f6f6"/><stop offset="0" stop-color="#c8c8c8"/><stop offset="0" stop-color="#9d9d9d"/><stop offset="0" stop-color="#777"/><stop offset="0" stop-color="#575757"/><stop offset="0" stop-color="#3b3b3b"/><stop offset="0" stop-color="#252525"/><stop offset="0" stop-color="#141414"/><stop offset="0" stop-color="#090909"/><stop offset="0" stop-color="#020202"/><stop offset="0"/><stop offset="0.03" stop-color="#111114"/><stop offset="0.09" stop-color="#393a45"/><stop offset="0.17" stop-color="#5e5f71"/><stop offset="0.25" stop-color="#7e8097"/><stop offset="0.33" stop-color="#999bb8"/><stop offset="0.42" stop-color="#aeb1d2"/><stop offset="0.52" stop-color="#bfc2e6"/><stop offset="0.63" stop-color="#cbcef4"/><stop offset="0.77" stop-color="#d2d5fc"/><stop offset="0.99" stop-color="#d4d7ff"/></linearGradient></defs><title>cloud02</title><path class="cls-1" d="M396.9,260.25c0-19.74-27-35.75-60.25-35.75a99.23,99.23,0,0,0-15.06,1.13c-6.8-15.33-30.3-26.63-58.26-26.63-23.63,0-44.07,8.07-53.94,19.82a94.41,94.41,0,0,0-28.74-4.32c-33.28,0-60.25,16-60.25,35.75a22.19,22.19,0,0,0,1.59,8.16c-11.9,4.13-19.59,10.7-19.59,18.09,0,12.5,22,22.63,49.09,22.63a95.45,95.45,0,0,0,25.59-3.32,118.6,118.6,0,0,0,68.37.31,96.48,96.48,0,0,0,23.7,2.88,94.89,94.89,0,0,0,27.43-3.92c7.87,3.69,18.11,5.92,29.32,5.92,12.54,0,23.88-2.8,32-7.3C380.71,288.59,396.9,275.54,396.9,260.25Z" transform="translate(-100.16 -196.77)"/></svg>