<svg id="Layer_1" data-name="Layer 1" xmlns="http://www.w3.org/2000/svg" xmlns:xlink="http://www.w3.org/1999/xlink" viewBox="0 0 306.85 92.85"><defs><style>.cls-1{stroke:#000;stroke-miterlimit:10;stroke-width:3.35px;fill:url(#linear-gradient);}</style><linearGradient id="linear-gradient" x1="249.61" y1="295" x2="249.61" y2="205.5" gradientUnits="userSpaceOnUse"><stop offset="0" stop-color="#fff"/><stop offset="0" stop-color="#f6f6f6"/><stop offset="0" stop-color="#c8c8c8"/><stop offset="0" stop-color="#9d9d9d"/><stop offset="0" stop-color="#777"/><stop offset="0" stop-color="#575757"/><stop offset="0" stop-color="#3b3b3b"/><stop offset="0" stop-color="#252525"/><stop offset="0" stop-color="#141414"/><stop offset="0" stop-color="#090909"/><stop offset="0" stop-color="#020202"/><stop offset="0"/><stop offset="0.03" stop-color="#111114"/><stop offset="0.09" stop-color="#393a45"/><stop offset="0.17" stop-color="#5e5f71"/><stop offset="0.25" stop-color="#7e8097"/><stop offset="0.33" stop-color="#999bb8"/><stop offset="0.42" stop-color="#aeb1d2"/><stop offset="0.52" stop-color="#bfc2e6"/><stop offset="0.63" stop-color="#cbcef4"/><stop offset="0.77" stop-color="#d2d5fc"/><stop offset="0.99" stop-color="#d4d7ff"/></linearGradient></defs><title>cloud01</title><path class="cls-1" d="M361.66,241.15c-6.29-8.25-22.85-14.15-42.3-14.15a89.68,89.68,0,0,0-14.92,1.22c-4.21-9.8-22.35-17.16-44.08-17.16-12.59,0-24,2.47-32.13,6.45-7.33-7.11-22.66-12-40.37-12-19.37,0-35.88,5.85-42.22,14-.92,0-1.85,0-2.78,0-24.86,0-45,9.63-45,21.5,0,5,3.58,9.6,9.57,13.25-6,3.65-9.57,8.25-9.57,13.25,0,11.87,20.14,21.5,45,21.5a83.36,83.36,0,0,0,25-3.62c8.06,5.8,21.85,9.62,37.51,9.62,12.11,0,23.09-2.29,31.18-6h.57c11.28,0,21.59-2,29.49-5.27,8.26,4.75,20.7,7.77,34.63,7.77,15.38,0,28.94-3.69,37.06-9.31A88.52,88.52,0,0,0,356.36,284c24.85,0,45-9.63,45-21.5C401.36,251.48,384,242.41,361.66,241.15Z" transform="translate(-96.18 -203.82)"/></svg>