<svg id="Layer_1" data-name="Layer 1" xmlns="http://www.w3.org/2000/svg" xmlns:xlink="http://www.w3.org/1999/xlink" viewBox="0 0 283.28 154.03"><defs><style>.cls-1{stroke:#000;stroke-miterlimit:10;stroke-width:3.53px;fill:url(#linear-gradient);}</style><linearGradient id="linear-gradient" x1="250.12" y1="324.94" x2="250.12" y2="174.44" gradientUnits="userSpaceOnUse"><stop offset="0" stop-color="#fff"/><stop offset="0" stop-color="#f6f6f6"/><stop offset="0" stop-color="#c8c8c8"/><stop offset="0" stop-color="#9d9d9d"/><stop offset="0" stop-color="#777"/><stop offset="0" stop-color="#575757"/><stop offset="0" stop-color="#3b3b3b"/><stop offset="0" stop-color="#252525"/><stop offset="0" stop-color="#141414"/><stop offset="0" stop-color="#090909"/><stop offset="0" stop-color="#020202"/><stop offset="0"/><stop offset="0.03" stop-color="#111114"/><stop offset="0.09" stop-color="#393a45"/><stop offset="0.17" stop-color="#5e5f71"/><stop offset="0.25" stop-color="#7e8097"/><stop offset="0.33" stop-color="#999bb8"/><stop offset="0.42" stop-color="#aeb1d2"/><stop offset="0.52" stop-color="#bfc2e6"/><stop offset="0.63" stop-color="#cbcef4"/><stop offset="0.77" stop-color="#d2d5fc"/><stop offset="0.99" stop-color="#d4d7ff"/></linearGradient></defs><title>cloud03</title><path class="cls-1" d="M362.65,274.35c7.14-4.58,11.35-10.2,11.35-16.28,0-5-2.86-9.68-7.84-13.74,6.53-3.19,10.34-7.05,10.34-11.19,0-3.51-2.73-6.81-7.52-9.67,12.86-5.11,21-12.69,21-21.15,0-15.4-27-27.88-60.25-27.88-23.18,0-43.29,6.06-53.36,14.94q-3.36-.31-6.89-.32c-17.07,0-31.62,5.61-37.19,13.46a106.87,106.87,0,0,0-29.53,5.58,44.37,44.37,0,0,0-13.53-2c-13.57,0-24.56,5.4-24.56,12.05a7.23,7.23,0,0,0,2,4.81c-15.67,2.75-27,10.51-27,19.66,0,5.31,3.82,10.16,10.1,13.83-5.3,3.16-8.35,6.85-8.35,10.79a8.26,8.26,0,0,0,1,3.81c-19.17,3.29-32.24,9.86-32.24,17.44,0,9.58,20.93,17.56,48.65,19.33,16.12,6.84,42,11.27,71.1,11.27a240.56,240.56,0,0,0,50.2-4.92c11,6.55,28.22,10.77,47.55,10.77,33.28,0,60.25-12.48,60.25-27.88C388,287.69,378,279.4,362.65,274.35Z" transform="translate(-108.48 -172.67)"/></svg>