<svg id="Layer_1" data-name="Layer 1" xmlns="http://www.w3.org/2000/svg" xmlns:xlink="http://www.w3.org/1999/xlink" viewBox="0 0 243.54 179.04"><defs><style>.cls-1,.cls-2,.cls-3{stroke:#000;stroke-miterlimit:10;stroke-width:4px;}.cls-1{fill:url(#linear-gradient);}.cls-2{fill:url(#linear-gradient-2);}.cls-3{fill:url(#linear-gradient-3);}</style><linearGradient id="linear-gradient" x1="139.7" y1="167.44" x2="138.18" y2="209.37" gradientTransform="matrix(0.84, 0.19, -0.94, 0.98, 232.18, -54.19)" gradientUnits="userSpaceOnUse"><stop offset="0.07" stop-color="#fff"/><stop offset="0.11" stop-color="#d6d6d6"/><stop offset="0.16" stop-color="#a9a9a9"/><stop offset="0.22" stop-color="#818181"/><stop offset="0.28" stop-color="#5e5e5e"/><stop offset="0.34" stop-color="#414141"/><stop offset="0.42" stop-color="#292929"/><stop offset="0.5" stop-color="#161616"/><stop offset="0.6" stop-color="#0a0a0a"/><stop offset="0.72" stop-color="#020202"/><stop offset="1"/></linearGradient><linearGradient id="linear-gradient-2" x1="89.99" y1="66.84" x2="89.99" y2="218.47" gradientTransform="matrix(1, 0.32, 0, 1, 0, -83.45)" gradientUnits="userSpaceOnUse"><stop offset="0.07" stop-color="#fff"/><stop offset="0.08" stop-color="#f6f6f6"/><stop offset="0.11" stop-color="#c8c8c8"/><stop offset="0.16" stop-color="#9d9d9d"/><stop offset="0.2" stop-color="#777"/><stop offset="0.25" stop-color="#575757"/><stop offset="0.31" stop-color="#3b3b3b"/><stop offset="0.37" stop-color="#252525"/><stop offset="0.44" stop-color="#141414"/><stop offset="0.53" stop-color="#090909"/><stop offset="0.65" stop-color="#020202"/><stop offset="1"/></linearGradient><linearGradient id="linear-gradient-3" x1="85.9" y1="109.13" x2="85.9" y2="221.39" gradientTransform="matrix(1, 0.14, 0, 1, 0, -38.26)" xlink:href="#linear-gradient-2"/></defs><title>computerback</title><path class="cls-1" d="M193,183.59,92.1,156.31c-5.29-1.11-8.07-3.81-4.77-9.52l14.1-12.7c3.31-5.71,10.27-9.44,15.56-8.33l134.1,28.16c5.29,1.11,6.9,6.65,3.59,12.37l-30.61,15.87C220.76,187.88,198.27,184.7,193,183.59Z" transform="translate(-14.86 -9.89)"/><path class="cls-2" d="M150.19,148.81,29.78,129.74a15.72,15.72,0,0,1-12.92-15V22.93c0-7.13,5.78-12,12.92-10.87L150.19,31.13a15.73,15.73,0,0,1,12.93,15v91.84C163.12,145.07,157.33,149.94,150.19,148.81Z" transform="translate(-14.86 -9.89)"/><path class="cls-3" d="M103.55,186.9l-35.29-7.36c-2.09-.44-3.78-5.66-3.78-11.67V90.55c0-6,1.69-10.52,3.78-10.09l35.29,7.37c2.09.44,3.78,5.66,3.78,11.67v77.31C107.33,182.82,105.64,187.34,103.55,186.9Z" transform="translate(-14.86 -9.89)"/></svg>