<svg id="Layer_1" data-name="Layer 1" xmlns="http://www.w3.org/2000/svg" viewBox="0 0 283.47 114.5"><defs><style>.cls-1{fill:red;stroke:#000;stroke-miterlimit:10;stroke-width:4px;}</style></defs><title>error</title><path class="cls-1" d="M131.12,233l3.38,25.49q-1.51.06-6.53.45c-2.26.24-4.73.6-7.38,1.08l.93,7.71q4.4-.76,14.22-3.08-.13,1.56-.28,5.76c0,1.69,0,3.62.14,5.8a58.55,58.55,0,0,0-5.9.45q-2.17.31-6.37,1.21l1.39,8.94q3-.64,10.86-2.74a36.81,36.81,0,0,0,4.77-1.95q-.07,1.29-.27,6.21c-.05,1.69-.08,3.82-.12,6.39l-35.55,7.19L97,271q-2.47-10.62-7.59-29.56Z" transform="translate(-86.89 -189.71)"/><path class="cls-1" d="M192.51,244.31A21.94,21.94,0,0,1,191,258.09a20.71,20.71,0,0,1-7.62,8.9q1.5,1.56,7.19,6.36a98.58,98.58,0,0,0,8.31,5.52q-1.72,1-7.53,5.07-4,2.93-7.58,5.67-1.44-1.2-6.62-6.35-2.43-2.65-7.41-9.09l-.08,0,2.41,14-22.36,4.53q-2.19-8.58-7-28.32-2.73-11.64-8.19-32.12a197.14,197.14,0,0,1,19.71-5.19Q187.66,220.32,192.51,244.31Zm-16.3,12.23a5.73,5.73,0,0,0-4.27-4.76,11.87,11.87,0,0,0-6.09.16l2.51,13.63a11.91,11.91,0,0,0,5.58-2.66A6.25,6.25,0,0,0,176.21,256.54Z" transform="translate(-86.89 -189.71)"/><path class="cls-1" d="M248.16,233.06a22,22,0,0,1-1.47,13.78,20.73,20.73,0,0,1-7.63,8.9q1.51,1.56,7.2,6.36a93.41,93.41,0,0,0,8.31,5.51q-1.74,1.06-7.54,5.08-4,2.93-7.57,5.67-1.46-1.2-6.62-6.35-2.44-2.65-7.42-9.09l-.08,0,2.41,14-22.36,4.52q-2.19-8.56-7-28.31-2.73-11.64-8.19-32.12a197.14,197.14,0,0,1,19.71-5.19Q243.3,209.07,248.16,233.06Zm-16.3,12.23a5.72,5.72,0,0,0-4.27-4.76,12,12,0,0,0-6.09.15L224,254.32a11.91,11.91,0,0,0,5.58-2.66A6.26,6.26,0,0,0,231.86,245.29Z" transform="translate(-86.89 -189.71)"/><path class="cls-1" d="M305,228.18q2.84,14-2.44,25.18Q297,265,285.21,267.41,273,269.89,263.4,261.2,254.34,253,251.51,239q-3-15,3-25.08Q260.19,204.41,272,202q11.6-2.34,20.53,4.24Q302,213.29,305,228.18ZM287.32,239q-2.22-11-9.7-9.53-7.26,1.47-5,12.59a18.84,18.84,0,0,0,3.59,7.92q3,3.9,6.16,3.26t4.51-5.5A17.73,17.73,0,0,0,287.32,239Z" transform="translate(-86.89 -189.71)"/><path class="cls-1" d="M360.1,210.43a22,22,0,0,1-1.47,13.77,20.76,20.76,0,0,1-7.63,8.91q1.51,1.54,7.2,6.36a93.41,93.41,0,0,0,8.31,5.51q-1.74,1.05-7.53,5.08-4.05,2.92-7.58,5.67-1.45-1.2-6.62-6.36-2.44-2.64-7.42-9.08h-.08l2.41,14-22.36,4.52q-2.19-8.56-7-28.31-2.71-11.66-8.19-32.13a194.23,194.23,0,0,1,19.71-5.18Q355.25,186.44,360.1,210.43Zm-16.3,12.22a5.73,5.73,0,0,0-4.27-4.76,12.09,12.09,0,0,0-6.09.16L336,231.68a11.82,11.82,0,0,0,5.58-2.66A6.25,6.25,0,0,0,343.8,222.65Z" transform="translate(-86.89 -189.71)"/></svg>