<svg id="Layer_1" data-name="Layer 1" xmlns="http://www.w3.org/2000/svg" viewBox="0 0 167.65 123.52"><defs><style>.cls-1{fill:#f2f2f2;opacity:0.72;}.cls-2{fill:aqua;}.cls-3{fill:blue;}.cls-4{fill:#e6e6e6;}.cls-5{fill:#999;}.cls-6{fill:#b3b3b3;}</style></defs><title>extinguishercloud</title><path class="cls-1" d="M62.86,143.73c-1.51,4.19-1,9.11-2.4,13.54-1.6,5-3.89,9.75-5.12,14.86-1.37,5.69-1.73,12.31-6.26,16a8.7,8.7,0,0,1-4.37,1.93,25.07,25.07,0,0,1-4.41-.17c-6.38-.4-12.51,2.26-18.35,4.87-2.63,1.18-5.4,2.47-7,4.88-2.57,3.88-1.3,9.53-4.19,13.2-1.16,1.46-2.86,2.41-4.15,3.77A9.41,9.41,0,0,0,6,228.47c1.43,1.84,3.59,3.16,4.45,5.33,1.71,4.36-2.79,9.18-1.58,13.71,1,3.89,5.63,5.48,9.58,6.29,6.16,1.26,12.93,2,18.42-1,3.75-2.1,7.12-6,11.38-5.4,2,.28,3.77,1.58,5.47,2.75,6.86,4.72,15.91,7.82,23.44,4.27,4.11-1.93,8-5.8,12.4-4.82,3,.66,5,3.3,7.27,5.26,5.2,4.44,14,5.28,18.51.19,1.11-1.25,1.94-2.78,3.26-3.81,3.19-2.48,7.73-1.16,11.71-.48a26.48,26.48,0,0,0,18.53-3.3c5.41-3.44,9.26-9.52,9.31-15.94s-4-12.85-10.11-14.9c-2.84-1-6.12-1.06-8.35-3.06-1.83-1.64-2.5-4.18-3.54-6.42-3.88-8.43-14.49-13.06-23.31-10.18a14.13,14.13,0,0,0-26.51-.58c-6.23-6-6.66-15.62-9.4-23.82-2.83-8.43-8.51-16.87-6.17-25.45" transform="translate(2.84 -140.31)"/><path class="cls-2" d="M63.53,141.83c-7.32,20-8,41.43-11,62.32-.28,1.89,2.61,2.7,2.89.8,3.06-20.89,3.72-42.3,11-62.32.66-1.82-2.23-2.6-2.89-.8Z" transform="translate(2.84 -140.31)"/><path class="cls-2" d="M66.29,141.39a157.14,157.14,0,0,0-1.65,50.14c2.19,17.6,6.12,35.23,3.3,53-.3,1.89,2.59,2.7,2.89.79,2.59-16.29-.23-32.39-2.49-48.55-2.57-18.31-2.74-36.37.84-54.58.37-1.88-2.52-2.69-2.89-.8Z" transform="translate(2.84 -140.31)"/><path class="cls-2" d="M51.58,185.38c-5.89-4.48-21.85-.76-18.76,8.75.6,1.83,3.49,1.05,2.89-.8-2.22-6.81,10.76-8.1,14.35-5.36,1.54,1.17,3-1.44,1.52-2.59Z" transform="translate(2.84 -140.31)"/><path class="cls-2" d="M35.71,196.1c-6.43-4.32-15.24-5.27-21.12.59A11.79,11.79,0,0,0,15,214c1.45,1.27,3.58-.84,2.12-2.12A8.87,8.87,0,0,1,18,197.73c5.11-3.62,11.25-2.34,16.15,1,1.61,1.08,3.11-1.51,1.52-2.59Z" transform="translate(2.84 -140.31)"/><path class="cls-2" d="M25.62,212.08c-8.14-3.25-23.39-.7-22.87,10.65.55,12,14.2,14.73,23.68,13.28,1.9-.3,1.09-3.19-.8-2.9-7.54,1.16-19.31-.57-19.88-10.38-.54-9.4,13-10.19,19.07-7.76,1.79.71,2.57-2.19.8-2.89Z" transform="translate(2.84 -140.31)"/><path class="cls-2" d="M94.65,191.78c3.09-3.46,7.92-5.36,12.27-3,1.72,1,4.47,3.5,4,5.7-.53,2.73-4.14,4.61-6.19,6.11-1.54,1.13,0,3.73,1.52,2.59,2.51-1.85,6.71-3.84,7.52-7.19.75-3.12-1.13-6.44-3.4-8.42-5.5-4.77-13.29-3.08-17.87,2-1.28,1.43.83,3.56,2.12,2.12Z" transform="translate(2.84 -140.31)"/><path class="cls-2" d="M114.21,198.32c6.58-.48,14.48-1.18,19.66,3.78,6.85,6.56,1.4,13.62-5.39,16.88-1.74.83-.22,3.42,1.51,2.59,6.93-3.32,13.12-10.15,8.74-18.07-4.9-8.86-15.71-8.83-24.52-8.18-1.91.14-1.93,3.14,0,3Z" transform="translate(2.84 -140.31)"/><path class="cls-2" d="M139.19,219.87c10.68-.79,19.4,10.25,13,20-6.14,9.26-21.54,7.44-30.34,4-1.8-.7-2.58,2.2-.79,2.89,10.91,4.23,29.82,5.1,35.09-8.1,4.6-11.51-5.1-22.67-16.92-21.79-1.92.14-1.93,3.14,0,3Z" transform="translate(2.84 -140.31)"/><path class="cls-3" d="M41.37,189.83c-.67.59-2.21.32-3.07.51A4.4,4.4,0,0,0,35.73,192c-1.25,1.65-1.33,3.92-1.14,5.91s3.18,1.92,3,0c-.12-1.29-.38-3.64.91-4.47a6.21,6.21,0,0,1,2.51-.39A4.38,4.38,0,0,0,43.5,192c1.46-1.27-.67-3.38-2.13-2.12Z" transform="translate(2.84 -140.31)"/><path class="cls-3" d="M17.48,200.06a9,9,0,0,0-.07,9.64c1,1.64,3.61.13,2.59-1.51a6,6,0,0,1,.07-6.62c1.05-1.63-1.55-3.13-2.59-1.51Z" transform="translate(2.84 -140.31)"/><path class="cls-3" d="M12.72,226.52c2.85,7.09,10.38,8.1,17.13,6.92,1.9-.34,1.09-3.23-.8-2.9-4.89.86-11.27.56-13.44-4.82-.71-1.77-3.61-1-2.89.8Z" transform="translate(2.84 -140.31)"/><path class="cls-3" d="M155.94,242c-8.45,9.57-21.62,8.58-33.18,7.41-1.92-.2-1.9,2.81,0,3,12.4,1.26,26.3,1.9,35.3-8.29,1.28-1.44-.84-3.57-2.12-2.12Z" transform="translate(2.84 -140.31)"/><path class="cls-3" d="M141,211a10.78,10.78,0,0,1-9.18,9.43c-1.89.24-1.91,3.24,0,3A13.86,13.86,0,0,0,144,211c.2-1.92-2.8-1.9-3,0Z" transform="translate(2.84 -140.31)"/><path class="cls-3" d="M114.35,192.83c-2.11,4.53-4.9,9.5-10.11,10.79-1.87.47-1.08,3.36.8,2.89,6-1.49,9.45-6.9,11.91-12.17.81-1.74-1.78-3.26-2.6-1.51Z" transform="translate(2.84 -140.31)"/><path class="cls-3" d="M69.21,149.94,70.15,161c.16,1.91,3.16,1.93,3,0l-.94-11.05c-.16-1.91-3.16-1.93-3,0Z" transform="translate(2.84 -140.31)"/><path class="cls-3" d="M65.56,147.61c-4.56,8.62-2.35,18.1-3.08,27.4-.15,1.93,2.85,1.92,3,0,.68-8.66-1.58-17.86,2.67-25.89.9-1.7-1.69-3.22-2.59-1.51Z" transform="translate(2.84 -140.31)"/><path class="cls-3" d="M59.77,209a90.85,90.85,0,0,1-.21,11.9c-.16,1.92,2.84,1.91,3,0a90.85,90.85,0,0,0,.21-11.9c-.09-1.92-3.09-1.93-3,0Z" transform="translate(2.84 -140.31)"/><path class="cls-3" d="M76.67,215.5l4.15,12.68c.6,1.83,3.5,1,2.89-.79L79.56,214.7c-.6-1.83-3.5-1-2.89.8Z" transform="translate(2.84 -140.31)"/><path class="cls-4" d="M68.89,168a221.92,221.92,0,0,0,5.33,36.44c.44,1.88,3.33,1.08,2.89-.8A217.57,217.57,0,0,1,71.89,168c-.12-1.92-3.12-1.93-3,0Z" transform="translate(2.84 -140.31)"/><path class="cls-4" d="M58.36,197.3C55.77,209,53,220.65,46.54,230.87c-1,1.64,1.56,3.14,2.59,1.51C55.74,222,58.6,210,61.26,198.09c.41-1.88-2.48-2.68-2.9-.79Z" transform="translate(2.84 -140.31)"/><path class="cls-4" d="M12.51,235.58c-11.35.17-9.2,16.1-1.12,19.86,5,2.34,12.15,1.73,17.44,1.07,6.66-.83,12.6-3.85,18.46-6.93,1.71-.9.2-3.49-1.51-2.59-7.08,3.71-13.79,6.63-21.91,6.85-3.2.09-6.93.32-10-.67-5.37-1.73-10.64-14.45-1.34-14.59,1.93,0,1.94-3,0-3Z" transform="translate(2.84 -140.31)"/><path class="cls-4" d="M112.7,231.93c1.15,4.17,2.51,8.83,1,13.07s-6.39,6.38-10.43,7.73c-7.1,2.37-14.87,2-20.62-3.24-1.43-1.29-3.56.83-2.12,2.13,7.3,6.59,17.23,6.69,26,3.08,3.85-1.58,7.58-3.56,9.45-7.46,2.47-5.14,1.06-10.9-.38-16.11a1.5,1.5,0,0,0-2.89.8Z" transform="translate(2.84 -140.31)"/><path class="cls-4" d="M44.51,240.14c11.34,20.17,38.61,17.65,50.9,0,1.11-1.59-1.49-3.09-2.59-1.52-11.06,15.88-35.51,18.14-45.72,0a1.5,1.5,0,0,0-2.59,1.51Z" transform="translate(2.84 -140.31)"/><path class="cls-4" d="M110.1,182.93a4.27,4.27,0,0,1,2.57,4.3c-.11,1.93,2.89,1.92,3,0a7.32,7.32,0,0,0-4.77-7.2c-1.8-.7-2.58,2.2-.8,2.9Z" transform="translate(2.84 -140.31)"/><path class="cls-4" d="M136.33,197.27a8.54,8.54,0,0,1,5.48,7.17c.16,1.91,3.17,1.93,3,0a11.65,11.65,0,0,0-7.69-10.06c-1.81-.67-2.59,2.22-.79,2.89Z" transform="translate(2.84 -140.31)"/><path class="cls-4" d="M159.85,228.62a12.59,12.59,0,0,1-.25,9.08c-.74,1.76,1.84,3.29,2.59,1.51a15.73,15.73,0,0,0,.55-11.39c-.61-1.82-3.51-1-2.89.8Z" transform="translate(2.84 -140.31)"/><path class="cls-4" d="M47.27,179a10.73,10.73,0,0,0-10.53-1.42c-1.76.72-1,3.63.8,2.9a8,8,0,0,1,8.22,1.11c1.53,1.17,3-1.43,1.51-2.59Z" transform="translate(2.84 -140.31)"/><path class="cls-4" d="M28.76,188.12a9.81,9.81,0,0,0-12.34.54c-1.46,1.26.67,3.37,2.13,2.12a6.82,6.82,0,0,1,8.69-.07c1.54,1.17,3-1.43,1.52-2.59Z" transform="translate(2.84 -140.31)"/><path class="cls-4" d="M7.24,206.84a12.44,12.44,0,0,0-5.47,2.22c-1.55,1.11-.06,3.72,1.52,2.59A10.58,10.58,0,0,1,8,209.73a1.51,1.51,0,0,0,1.05-1.84,1.53,1.53,0,0,0-1.85-1Z" transform="translate(2.84 -140.31)"/><path class="cls-5" d="M6.08,256.79a21,21,0,0,0,23.59,5.49c1.76-.72,1-3.62-.8-2.89A18.11,18.11,0,0,1,8.2,254.67c-1.29-1.44-3.41.69-2.12,2.12Z" transform="translate(2.84 -140.31)"/><path class="cls-5" d="M51.17,255.67c10.07,6.46,23.19,4.08,33.22-1.31,1.7-.92.19-3.51-1.52-2.59-9.09,4.9-21,7.18-30.19,1.31-1.63-1-3.13,1.55-1.51,2.59Z" transform="translate(2.84 -140.31)"/><path class="cls-5" d="M95.87,259.66a20.15,20.15,0,0,0,22.48-7.33c1.15-1.54-1.45-3-2.59-1.51a17.09,17.09,0,0,1-19.1,5.95c-1.84-.6-2.63,2.3-.79,2.89Z" transform="translate(2.84 -140.31)"/><path class="cls-5" d="M119.92,190.78a1.5,1.5,0,0,0,0-3,1.5,1.5,0,0,0,0,3Z" transform="translate(2.84 -140.31)"/><path class="cls-5" d="M147.79,210a1.5,1.5,0,0,0,0-3,1.5,1.5,0,0,0,0,3Z" transform="translate(2.84 -140.31)"/><path class="cls-5" d="M163.36,246.11a1.5,1.5,0,0,0,0-3,1.5,1.5,0,0,0,0,3Z" transform="translate(2.84 -140.31)"/><path class="cls-5" d="M35.9,259.22a1.5,1.5,0,0,0,0-3,1.5,1.5,0,0,0,0,3Z" transform="translate(2.84 -140.31)"/><path class="cls-5" d="M13.36,194.88a1.5,1.5,0,0,0,0-3,1.5,1.5,0,0,0,0,3Z" transform="translate(2.84 -140.31)"/><path class="cls-5" d="M-1.39,218.24a1.5,1.5,0,0,0,0-3,1.5,1.5,0,0,0,0,3Z" transform="translate(2.84 -140.31)"/><path class="cls-5" d="M30.16,185a1.5,1.5,0,0,0,0-3,1.5,1.5,0,0,0,0,3Z" transform="translate(2.84 -140.31)"/><path class="cls-5" d="M74.24,144.15c1.58,11.57,3.14,23.14,4.76,34.69,1.35,9.62,3.11,19.12,8,27.61a1.5,1.5,0,0,0,2.59-1.52c-5.1-8.75-6.61-18.67-8-28.55q-2.28-16.51-4.53-33c-.26-1.91-3.15-1.1-2.89.79Z" transform="translate(2.84 -140.31)"/><path class="cls-5" d="M99.43,185a1.5,1.5,0,0,0,0-3,1.5,1.5,0,0,0,0,3Z" transform="translate(2.84 -140.31)"/><path class="cls-5" d="M63.11,146.23c-1,2.91-.72,5.42-.37,8.45a100,100,0,0,1,.33,12.12c0,8.19,2.7,17,0,24.92-.62,1.83,2.27,2.62,2.89.8,2.46-7.27.36-14.49.12-21.92-.13-3.8.16-7.6,0-11.39-.15-4-1.46-8.3-.11-12.19.64-1.82-2.26-2.61-2.89-.79Z" transform="translate(2.84 -140.31)"/><path class="cls-6" d="M96.75,225.15a6.77,6.77,0,0,1-6.36,11.49c-1.88-.46-2.68,2.43-.8,2.89A9.79,9.79,0,0,0,98.87,223a1.5,1.5,0,0,0-2.12,2.12Z" transform="translate(2.84 -140.31)"/><path class="cls-6" d="M29.79,225.21A13.79,13.79,0,0,0,47.65,229a1.5,1.5,0,0,0-1.51-2.59,10.73,10.73,0,0,1-13.76-2.7c-1.15-1.52-3.76,0-2.59,1.51Z" transform="translate(2.84 -140.31)"/><path class="cls-6" d="M116.23,212.27a7.73,7.73,0,0,1-3.71,13.48c-1.89.41-1.09,3.3.8,2.89a10.73,10.73,0,0,0,5-18.49c-1.41-1.32-3.54.79-2.12,2.12Z" transform="translate(2.84 -140.31)"/></svg>