<svg id="Layer_1" data-name="Layer 1" xmlns="http://www.w3.org/2000/svg" xmlns:xlink="http://www.w3.org/1999/xlink" viewBox="0 0 500.99 500.99"><defs><style>.cls-1,.cls-10,.cls-11,.cls-12,.cls-13,.cls-14,.cls-15,.cls-16,.cls-17,.cls-18,.cls-19,.cls-2,.cls-20,.cls-21,.cls-22,.cls-23,.cls-24,.cls-25,.cls-26,.cls-27,.cls-28,.cls-29,.cls-3,.cls-30,.cls-31,.cls-32,.cls-33,.cls-34,.cls-35,.cls-36,.cls-37,.cls-38,.cls-39,.cls-4,.cls-40,.cls-41,.cls-42,.cls-43,.cls-44,.cls-45,.cls-46,.cls-5,.cls-6,.cls-7,.cls-8,.cls-9{stroke:#000;stroke-miterlimit:10;}.cls-1,.cls-2{stroke-width:0.24px;}.cls-1{fill:url(#linear-gradient);}.cls-2{fill:url(#linear-gradient-2);}.cls-11,.cls-13,.cls-15,.cls-17,.cls-19,.cls-21,.cls-23,.cls-25,.cls-27,.cls-29,.cls-3,.cls-31,.cls-33,.cls-35,.cls-37,.cls-39,.cls-41,.cls-43,.cls-45,.cls-5,.cls-7,.cls-9{stroke-width:0.7px;}.cls-3{fill:url(#linear-gradient-3);}.cls-10,.cls-12,.cls-14,.cls-16,.cls-18,.cls-20,.cls-22,.cls-24,.cls-26,.cls-28,.cls-30,.cls-32,.cls-34,.cls-36,.cls-38,.cls-4,.cls-40,.cls-42,.cls-44,.cls-46,.cls-6,.cls-8{stroke-width:0.51px;}.cls-4{fill:url(#linear-gradient-4);}.cls-5{fill:url(#linear-gradient-5);}.cls-6{fill:url(#linear-gradient-6);}.cls-7{fill:url(#linear-gradient-7);}.cls-8{fill:url(#linear-gradient-8);}.cls-9{fill:url(#linear-gradient-9);}.cls-10{fill:url(#linear-gradient-10);}.cls-11{fill:url(#linear-gradient-11);}.cls-12{fill:url(#linear-gradient-12);}.cls-13{fill:url(#linear-gradient-13);}.cls-14{fill:url(#linear-gradient-14);}.cls-15{fill:url(#linear-gradient-15);}.cls-16{fill:url(#linear-gradient-16);}.cls-17{fill:url(#linear-gradient-17);}.cls-18{fill:url(#linear-gradient-18);}.cls-19{fill:url(#linear-gradient-19);}.cls-20{fill:url(#linear-gradient-20);}.cls-21{fill:url(#linear-gradient-21);}.cls-22{fill:url(#linear-gradient-22);}.cls-23{fill:url(#linear-gradient-23);}.cls-24{fill:url(#linear-gradient-24);}.cls-25{fill:url(#linear-gradient-25);}.cls-26{fill:url(#linear-gradient-26);}.cls-27{fill:url(#linear-gradient-27);}.cls-28{fill:url(#linear-gradient-28);}.cls-29{fill:url(#linear-gradient-29);}.cls-30{fill:url(#linear-gradient-30);}.cls-31{fill:url(#linear-gradient-31);}.cls-32{fill:url(#linear-gradient-32);}.cls-33{fill:url(#linear-gradient-33);}.cls-34{fill:url(#linear-gradient-34);}.cls-35{fill:url(#linear-gradient-35);}.cls-36{fill:url(#linear-gradient-36);}.cls-37{fill:url(#linear-gradient-37);}.cls-38{fill:url(#linear-gradient-38);}.cls-39{fill:url(#linear-gradient-39);}.cls-40{fill:url(#linear-gradient-40);}.cls-41{fill:url(#linear-gradient-41);}.cls-42{fill:url(#linear-gradient-42);}.cls-43{fill:url(#linear-gradient-43);}.cls-44{fill:url(#linear-gradient-44);}.cls-45{fill:url(#linear-gradient-45);}.cls-46{fill:url(#linear-gradient-46);}</style><linearGradient id="linear-gradient" x1="250.5" y1="500.87" x2="250.5" y2="471.75" gradientUnits="userSpaceOnUse"><stop offset="0" stop-color="#603813"/><stop offset="0.29" stop-color="#653d17"/><stop offset="0.62" stop-color="#734a23"/><stop offset="0.97" stop-color="#896037"/><stop offset="1" stop-color="#8c6239"/></linearGradient><linearGradient id="linear-gradient-2" x1="250.5" y1="500.87" x2="250.5" y2="0.12" gradientUnits="userSpaceOnUse"><stop offset="0" stop-color="#a67c52"/><stop offset="0.22" stop-color="#a88057"/><stop offset="0.47" stop-color="#af8a65"/><stop offset="0.74" stop-color="#b99c7b"/><stop offset="1" stop-color="#c7b299"/></linearGradient><linearGradient id="linear-gradient-3" x1="34.94" y1="478.38" x2="34.94" y2="459.34" gradientUnits="userSpaceOnUse"><stop offset="0" stop-color="#3c9400"/><stop offset="1" stop-color="#7f6000"/></linearGradient><linearGradient id="linear-gradient-4" x1="32.86" y1="484.03" x2="32.86" y2="475.58" gradientUnits="userSpaceOnUse"><stop offset="0" stop-color="#bf7440"/><stop offset="1" stop-color="#956874"/></linearGradient><linearGradient id="linear-gradient-5" x1="85.79" y1="469.92" x2="85.79" y2="450.88" xlink:href="#linear-gradient-3"/><linearGradient id="linear-gradient-6" x1="83.71" y1="475.58" x2="83.71" y2="467.13" xlink:href="#linear-gradient-4"/><linearGradient id="linear-gradient-7" x1="474.72" y1="453.56" x2="474.72" y2="434.52" xlink:href="#linear-gradient-3"/><linearGradient id="linear-gradient-8" x1="472.64" y1="459.22" x2="472.64" y2="450.76" xlink:href="#linear-gradient-4"/><linearGradient id="linear-gradient-9" x1="140.22" y1="298.78" x2="140.22" y2="279.74" xlink:href="#linear-gradient-3"/><linearGradient id="linear-gradient-10" x1="138.14" y1="304.44" x2="138.14" y2="295.98" xlink:href="#linear-gradient-4"/><linearGradient id="linear-gradient-11" x1="376.65" y1="401.1" x2="376.65" y2="382.06" xlink:href="#linear-gradient-3"/><linearGradient id="linear-gradient-12" x1="374.57" y1="406.76" x2="374.57" y2="398.3" xlink:href="#linear-gradient-4"/><linearGradient id="linear-gradient-13" x1="424.94" y1="65.12" x2="424.94" y2="46.08" xlink:href="#linear-gradient-3"/><linearGradient id="linear-gradient-14" x1="422.86" y1="70.78" x2="422.86" y2="62.32" xlink:href="#linear-gradient-4"/><linearGradient id="linear-gradient-15" x1="97.76" y1="77.53" x2="97.76" y2="58.49" xlink:href="#linear-gradient-3"/><linearGradient id="linear-gradient-16" x1="95.68" y1="83.19" x2="95.68" y2="74.73" xlink:href="#linear-gradient-4"/><linearGradient id="linear-gradient-17" x1="474.72" y1="274.79" x2="474.72" y2="255.75" xlink:href="#linear-gradient-3"/><linearGradient id="linear-gradient-18" x1="472.64" y1="280.44" x2="472.64" y2="271.99" xlink:href="#linear-gradient-4"/><linearGradient id="linear-gradient-19" x1="26.89" y1="417.47" x2="26.89" y2="398.42" xlink:href="#linear-gradient-3"/><linearGradient id="linear-gradient-20" x1="24.81" y1="423.12" x2="24.81" y2="414.67" xlink:href="#linear-gradient-4"/><linearGradient id="linear-gradient-21" x1="28.84" y1="224.51" x2="28.84" y2="205.47" xlink:href="#linear-gradient-3"/><linearGradient id="linear-gradient-22" x1="26.77" y1="230.17" x2="26.77" y2="221.72" xlink:href="#linear-gradient-4"/><linearGradient id="linear-gradient-23" x1="470.91" y1="102.35" x2="470.91" y2="83.31" xlink:href="#linear-gradient-3"/><linearGradient id="linear-gradient-24" x1="468.83" y1="108.01" x2="468.83" y2="99.55" xlink:href="#linear-gradient-4"/><linearGradient id="linear-gradient-25" x1="30.8" y1="40.3" x2="30.8" y2="21.26" xlink:href="#linear-gradient-3"/><linearGradient id="linear-gradient-26" x1="28.72" y1="45.96" x2="28.72" y2="37.51" xlink:href="#linear-gradient-4"/><linearGradient id="linear-gradient-27" x1="416.89" y1="485.01" x2="416.89" y2="465.97" xlink:href="#linear-gradient-3"/><linearGradient id="linear-gradient-28" x1="414.81" y1="490.67" x2="414.81" y2="482.21" xlink:href="#linear-gradient-4"/><linearGradient id="linear-gradient-29" x1="56.59" y1="337.98" x2="56.59" y2="318.94" xlink:href="#linear-gradient-3"/><linearGradient id="linear-gradient-30" x1="54.51" y1="343.64" x2="54.51" y2="335.19" xlink:href="#linear-gradient-4"/><linearGradient id="linear-gradient-31" x1="195.29" y1="44.26" x2="195.29" y2="25.22" xlink:href="#linear-gradient-3"/><linearGradient id="linear-gradient-32" x1="193.21" y1="49.91" x2="193.21" y2="41.46" xlink:href="#linear-gradient-4"/><linearGradient id="linear-gradient-33" x1="229.78" y1="482.12" x2="229.78" y2="463.08" xlink:href="#linear-gradient-3"/><linearGradient id="linear-gradient-34" x1="227.7" y1="487.78" x2="227.7" y2="479.32" xlink:href="#linear-gradient-4"/><linearGradient id="linear-gradient-35" x1="311.5" y1="114.76" x2="311.5" y2="95.72" xlink:href="#linear-gradient-3"/><linearGradient id="linear-gradient-36" x1="309.42" y1="120.42" x2="309.42" y2="111.96" xlink:href="#linear-gradient-4"/><linearGradient id="linear-gradient-37" x1="175.08" y1="172.7" x2="175.08" y2="153.66" xlink:href="#linear-gradient-3"/><linearGradient id="linear-gradient-38" x1="173.01" y1="178.36" x2="173.01" y2="169.91" xlink:href="#linear-gradient-4"/><linearGradient id="linear-gradient-39" x1="332.94" y1="341.94" x2="332.94" y2="322.9" xlink:href="#linear-gradient-3"/><linearGradient id="linear-gradient-40" x1="330.86" y1="347.6" x2="330.86" y2="339.14" xlink:href="#linear-gradient-4"/><linearGradient id="linear-gradient-41" x1="198.22" y1="369.12" x2="198.22" y2="350.08" xlink:href="#linear-gradient-3"/><linearGradient id="linear-gradient-42" x1="196.14" y1="374.78" x2="196.14" y2="366.33" xlink:href="#linear-gradient-4"/><linearGradient id="linear-gradient-43" x1="376.65" y1="193.29" x2="376.65" y2="174.25" xlink:href="#linear-gradient-3"/><linearGradient id="linear-gradient-44" x1="374.57" y1="198.95" x2="374.57" y2="190.5" xlink:href="#linear-gradient-4"/><linearGradient id="linear-gradient-45" x1="279.94" y1="262.38" x2="279.94" y2="243.34" xlink:href="#linear-gradient-3"/><linearGradient id="linear-gradient-46" x1="277.86" y1="268.03" x2="277.86" y2="259.58" xlink:href="#linear-gradient-4"/></defs><title>farm</title><rect class="cls-1" x="0.12" y="471.75" width="500.75" height="29.13"/><rect class="cls-2" x="0.12" y="0.12" width="500.75" height="500.75"/><polygon class="cls-3" points="26.68 478.38 44.94 478.38 44.95 478.37 38.67 475.37 40.93 464.14 35.34 470.22 32.63 459.34 31.01 470.93 24.93 466.76 28.22 477.07 26.68 478.38"/><path class="cls-4" d="M48.09,482.29l-.76-.32a1.45,1.45,0,0,0,.3-.86c0-1.05-1.23-1.9-2.74-1.9a4.12,4.12,0,0,0-1,.12c0-1.32-1.62-2.39-3.56-2.39a5,5,0,0,0-1.53.24,2.62,2.62,0,0,0-2.7-1.6,3.33,3.33,0,0,0-2.09.67l-.84-.36a.9.9,0,0,0-.72,0l-2.26,1a4.86,4.86,0,0,0-.95-.09c-1.75,0-3.21.86-3.51,2l-.18.08a5,5,0,0,0-1.37-.18c-1.91,0-3.47,1-3.56,2.31l-3,1.3A.91.91,0,0,0,18,484H47.73A.91.91,0,0,0,48.09,482.29Z" transform="translate(0.12 0.12)"/><polygon class="cls-5" points="77.53 469.92 95.79 469.92 95.8 469.91 89.52 466.91 91.78 455.69 86.19 461.76 83.48 450.88 81.86 462.47 75.78 458.31 79.07 468.62 77.53 469.92"/><path class="cls-6" d="M98.94,473.84l-.76-.33a1.4,1.4,0,0,0,.3-.85c0-1.05-1.23-1.9-2.74-1.9a3.64,3.64,0,0,0-.95.12c0-1.33-1.62-2.39-3.56-2.39a5,5,0,0,0-1.53.23,2.63,2.63,0,0,0-2.7-1.59,3.33,3.33,0,0,0-2.09.67l-.84-.36a.9.9,0,0,0-.72,0l-2.26,1a4.86,4.86,0,0,0-1-.09c-1.75,0-3.21.87-3.51,2l-.18.08a5,5,0,0,0-1.37-.19c-1.91,0-3.47,1-3.56,2.31l-3,1.31a.91.91,0,0,0,.36,1.74H98.58A.91.91,0,0,0,98.94,473.84Z" transform="translate(0.12 0.12)"/><polygon class="cls-7" points="466.46 453.56 484.72 453.56 484.73 453.55 478.45 450.55 480.71 439.32 475.12 445.4 472.42 434.52 470.79 446.11 464.71 441.94 468 452.25 466.46 453.56"/><path class="cls-8" d="M487.87,457.47l-.76-.32a1.45,1.45,0,0,0,.3-.86c0-1.05-1.23-1.9-2.74-1.9a4.19,4.19,0,0,0-.95.12c0-1.32-1.61-2.39-3.56-2.39a4.89,4.89,0,0,0-1.52.24,2.64,2.64,0,0,0-2.71-1.6,3.27,3.27,0,0,0-2.09.68l-.84-.37a.9.9,0,0,0-.72,0l-2.26,1a4.86,4.86,0,0,0-.95-.09c-1.75,0-3.21.86-3.51,2l-.18.08a5,5,0,0,0-1.37-.18c-1.91,0-3.46,1-3.56,2.31l-3,1.3a.91.91,0,0,0,.36,1.75h29.74A.91.91,0,0,0,487.87,457.47Z" transform="translate(0.12 0.12)"/><polygon class="cls-9" points="131.96 298.78 150.22 298.78 150.23 298.77 143.95 295.77 146.21 284.55 140.62 290.62 137.92 279.74 136.29 291.33 130.21 287.16 133.5 297.48 131.96 298.78"/><path class="cls-10" d="M153.37,302.7l-.76-.33a1.45,1.45,0,0,0,.3-.86c0-1-1.23-1.89-2.74-1.89a4,4,0,0,0-.94.11c0-1.32-1.62-2.38-3.57-2.38a4.89,4.89,0,0,0-1.52.23,2.64,2.64,0,0,0-2.71-1.6,3.33,3.33,0,0,0-2.09.68l-.84-.36a.9.9,0,0,0-.72,0l-2.26,1a4.83,4.83,0,0,0-.94-.09c-1.76,0-3.22.87-3.52,2l-.18.08a5,5,0,0,0-1.37-.19c-1.9,0-3.46,1-3.56,2.31l-3,1.31a.91.91,0,0,0,.36,1.74H153A.91.91,0,0,0,153.37,302.7Z" transform="translate(0.12 0.12)"/><polygon class="cls-11" points="368.39 401.1 386.65 401.1 386.66 401.09 380.38 398.09 382.63 386.87 377.05 392.94 374.34 382.06 372.72 393.65 366.64 389.48 369.93 399.8 368.39 401.1"/><path class="cls-12" d="M389.8,405l-.76-.33a1.45,1.45,0,0,0,.3-.86c0-1-1.23-1.89-2.74-1.89a4.12,4.12,0,0,0-1,.11c0-1.32-1.62-2.38-3.57-2.38a4.94,4.94,0,0,0-1.52.23,2.62,2.62,0,0,0-2.7-1.6,3.33,3.33,0,0,0-2.09.68l-.84-.36a.9.9,0,0,0-.72,0l-2.26,1a4.86,4.86,0,0,0-.95-.09c-1.76,0-3.21.87-3.51,2l-.18.07a5,5,0,0,0-1.37-.18c-1.91,0-3.47,1-3.56,2.31l-3,1.31a.91.91,0,0,0,.36,1.74h29.74A.91.91,0,0,0,389.8,405Z" transform="translate(0.12 0.12)"/><polygon class="cls-13" points="416.68 65.12 434.94 65.12 434.95 65.11 428.67 62.11 430.93 50.89 425.34 56.96 422.63 46.08 421.01 57.67 414.93 53.5 418.22 63.82 416.68 65.12"/><path class="cls-14" d="M438.09,69l-.76-.33a1.45,1.45,0,0,0,.3-.86c0-1-1.23-1.89-2.74-1.89a4.12,4.12,0,0,0-.95.11c0-1.32-1.62-2.38-3.56-2.38a5,5,0,0,0-1.53.23,2.64,2.64,0,0,0-2.7-1.6,3.33,3.33,0,0,0-2.09.68l-.84-.36a.9.9,0,0,0-.72,0l-2.26,1a4.86,4.86,0,0,0-.95-.09c-1.75,0-3.21.87-3.51,2l-.18.08a5,5,0,0,0-1.37-.19c-1.91,0-3.47,1-3.56,2.31l-3,1.31a.91.91,0,0,0,.36,1.74h29.74A.91.91,0,0,0,438.09,69Z" transform="translate(0.12 0.12)"/><polygon class="cls-15" points="89.5 77.53 107.76 77.53 107.77 77.52 101.49 74.52 103.75 63.3 98.16 69.37 95.45 58.49 93.83 70.08 87.75 65.91 91.04 76.23 89.5 77.53"/><path class="cls-16" d="M110.91,81.45l-.76-.33a1.45,1.45,0,0,0,.3-.86c0-1-1.23-1.89-2.74-1.89a4.12,4.12,0,0,0-.95.11c0-1.32-1.62-2.38-3.57-2.38a4.94,4.94,0,0,0-1.52.23,2.64,2.64,0,0,0-2.7-1.6,3.33,3.33,0,0,0-2.09.68L96,75.05a.9.9,0,0,0-.72,0l-2.26,1a4.86,4.86,0,0,0-1-.09c-1.76,0-3.21.87-3.51,2l-.18.08a5,5,0,0,0-1.37-.19c-1.91,0-3.47,1-3.56,2.31l-3,1.31a.91.91,0,0,0,.36,1.74h29.74A.91.91,0,0,0,110.91,81.45Z" transform="translate(0.12 0.12)"/><polygon class="cls-17" points="466.46 274.79 484.72 274.79 484.73 274.78 478.45 271.78 480.71 260.55 475.12 266.63 472.42 255.75 470.79 267.33 464.71 263.17 468 273.49 466.46 274.79"/><path class="cls-18" d="M487.87,278.7l-.76-.32a1.45,1.45,0,0,0,.3-.86c0-1-1.23-1.9-2.74-1.9a4.19,4.19,0,0,0-.95.12c0-1.32-1.61-2.39-3.56-2.39a4.89,4.89,0,0,0-1.52.24,2.64,2.64,0,0,0-2.71-1.6,3.33,3.33,0,0,0-2.09.67l-.84-.36a.9.9,0,0,0-.72,0l-2.26,1a4.86,4.86,0,0,0-.95-.09c-1.75,0-3.21.86-3.51,2l-.18.08a5,5,0,0,0-1.37-.18c-1.91,0-3.46,1-3.56,2.3l-3,1.31a.91.91,0,0,0,.36,1.74h29.74A.91.91,0,0,0,487.87,278.7Z" transform="translate(0.12 0.12)"/><polygon class="cls-19" points="18.63 417.46 36.89 417.46 36.9 417.46 30.62 414.46 32.88 403.23 27.29 409.31 24.58 398.42 22.96 410.01 16.88 405.85 20.17 416.16 18.63 417.46"/><path class="cls-20" d="M40,421.38l-.76-.32a1.45,1.45,0,0,0,.3-.86c0-1.05-1.23-1.9-2.74-1.9a3.64,3.64,0,0,0-1,.12c0-1.32-1.62-2.39-3.56-2.39a5,5,0,0,0-1.53.23,2.63,2.63,0,0,0-2.7-1.59,3.33,3.33,0,0,0-2.09.67l-.84-.36a.9.9,0,0,0-.72,0l-2.26,1a5.8,5.8,0,0,0-1-.08c-1.76,0-3.21.86-3.51,2l-.18.08a5,5,0,0,0-1.37-.19c-1.91,0-3.47,1-3.56,2.31l-3,1.31a.91.91,0,0,0,.36,1.74H39.68A.91.91,0,0,0,40,421.38Z" transform="translate(0.12 0.12)"/><polygon class="cls-21" points="20.59 224.51 38.84 224.51 38.85 224.5 32.58 221.5 34.83 210.28 29.24 216.35 26.54 205.47 24.91 217.06 18.83 212.89 22.12 223.21 20.59 224.51"/><path class="cls-22" d="M42,228.43l-.76-.33a1.43,1.43,0,0,0,.29-.85c0-1.05-1.22-1.9-2.74-1.9a3.56,3.56,0,0,0-.94.12c0-1.33-1.62-2.39-3.57-2.39a4.94,4.94,0,0,0-1.52.23,2.63,2.63,0,0,0-2.7-1.59,3.38,3.38,0,0,0-2.1.67l-.84-.36a.88.88,0,0,0-.71,0l-2.26,1a4.86,4.86,0,0,0-.95-.09c-1.76,0-3.22.87-3.51,2l-.18.08a5.09,5.09,0,0,0-1.37-.19c-1.91,0-3.47,1-3.57,2.31l-3,1.31a.91.91,0,0,0,.35,1.74H41.64A.91.91,0,0,0,42,228.43Z" transform="translate(0.12 0.12)"/><polygon class="cls-23" points="462.65 102.35 480.91 102.35 480.92 102.34 474.64 99.34 476.9 88.12 471.31 94.19 468.6 83.31 466.98 94.9 460.9 90.73 464.19 101.05 462.65 102.35"/><path class="cls-24" d="M484.06,106.27l-.76-.33a1.45,1.45,0,0,0,.3-.86c0-1-1.23-1.89-2.74-1.89a4.12,4.12,0,0,0-.95.11c0-1.32-1.62-2.38-3.56-2.38a5,5,0,0,0-1.53.23,2.64,2.64,0,0,0-2.7-1.6,3.33,3.33,0,0,0-2.09.68l-.84-.36a.9.9,0,0,0-.72,0l-2.26,1a4.86,4.86,0,0,0-.95-.09c-1.75,0-3.21.87-3.51,2l-.18.08a5,5,0,0,0-1.37-.19c-1.91,0-3.47,1-3.56,2.31l-3,1.31A.91.91,0,0,0,454,108H483.7A.91.91,0,0,0,484.06,106.27Z" transform="translate(0.12 0.12)"/><polygon class="cls-25" points="22.55 40.3 40.8 40.3 40.81 40.29 34.53 37.29 36.79 26.07 31.2 32.14 28.5 21.26 26.87 32.85 20.79 28.68 24.08 39 22.55 40.3"/><path class="cls-26" d="M44,44.22l-.75-.33a1.5,1.5,0,0,0,.29-.85c0-1-1.22-1.9-2.74-1.9a3.56,3.56,0,0,0-.94.12c0-1.33-1.62-2.39-3.57-2.39a4.94,4.94,0,0,0-1.52.23A2.63,2.63,0,0,0,32,37.51a3.38,3.38,0,0,0-2.1.67l-.84-.36a.88.88,0,0,0-.71,0l-2.26,1a4.94,4.94,0,0,0-.95-.09c-1.76,0-3.22.87-3.51,2l-.18.08a5.09,5.09,0,0,0-1.37-.19c-1.91,0-3.47,1-3.57,2.31l-3,1.31A.91.91,0,0,0,13.85,46H43.6A.91.91,0,0,0,44,44.22Z" transform="translate(0.12 0.12)"/><polygon class="cls-27" points="408.63 485.01 426.89 485.01 426.9 485 420.62 482 422.88 470.78 417.29 476.85 414.58 465.97 412.96 477.56 406.88 473.39 410.17 483.71 408.63 485.01"/><path class="cls-28" d="M430,488.92l-.76-.32a1.45,1.45,0,0,0,.3-.86c0-1.05-1.23-1.9-2.74-1.9a4.12,4.12,0,0,0-.95.12c0-1.32-1.62-2.39-3.56-2.39a5,5,0,0,0-1.53.24,2.62,2.62,0,0,0-2.7-1.6,3.27,3.27,0,0,0-2.09.68l-.84-.37a1,1,0,0,0-.72,0l-2.26,1a4.86,4.86,0,0,0-.95-.09c-1.76,0-3.21.87-3.51,2l-.18.07a5,5,0,0,0-1.37-.18c-1.91,0-3.47,1-3.56,2.31l-3,1.3a.91.91,0,0,0,.36,1.75h29.74A.91.91,0,0,0,430,488.92Z" transform="translate(0.12 0.12)"/><polygon class="cls-29" points="48.34 337.98 66.59 337.98 66.6 337.98 60.33 334.97 62.58 323.75 56.99 329.82 54.29 318.94 52.66 330.53 46.58 326.37 49.87 336.68 48.34 337.98"/><path class="cls-30" d="M69.75,341.9l-.76-.33a1.39,1.39,0,0,0,.29-.85c0-1.05-1.22-1.9-2.74-1.9a3.56,3.56,0,0,0-.94.12c0-1.33-1.62-2.39-3.57-2.39a4.94,4.94,0,0,0-1.52.23,2.63,2.63,0,0,0-2.7-1.59,3.38,3.38,0,0,0-2.1.67l-.84-.36a.88.88,0,0,0-.71,0l-2.26,1a5.88,5.88,0,0,0-.95-.09c-1.76,0-3.22.87-3.51,2l-.18.08a5.09,5.09,0,0,0-1.37-.19c-1.91,0-3.47,1-3.57,2.31l-3,1.31a.91.91,0,0,0,.36,1.74H69.39A.91.91,0,0,0,69.75,341.9Z" transform="translate(0.12 0.12)"/><polygon class="cls-31" points="187.03 44.26 205.29 44.26 205.3 44.25 199.02 41.25 201.28 30.02 195.69 36.1 192.98 25.22 191.36 36.8 185.28 32.64 188.57 42.95 187.03 44.26"/><path class="cls-32" d="M208.44,48.17l-.76-.32A1.45,1.45,0,0,0,208,47c0-1.05-1.23-1.9-2.74-1.9a4.12,4.12,0,0,0-1,.12c0-1.32-1.62-2.39-3.56-2.39a5,5,0,0,0-1.53.24,2.62,2.62,0,0,0-2.7-1.6,3.33,3.33,0,0,0-2.09.67l-.84-.36a.9.9,0,0,0-.72,0l-2.26,1a4.86,4.86,0,0,0-1-.09c-1.75,0-3.21.86-3.51,2l-.18.08a5,5,0,0,0-1.37-.18c-1.91,0-3.47,1-3.56,2.31l-3,1.3a.91.91,0,0,0,.36,1.74h29.74A.91.91,0,0,0,208.44,48.17Z" transform="translate(0.12 0.12)"/><polygon class="cls-33" points="221.52 482.12 239.78 482.12 239.79 482.11 233.51 479.11 235.76 467.89 230.18 473.96 227.47 463.08 225.85 474.67 219.77 470.5 223.06 480.82 221.52 482.12"/><path class="cls-34" d="M242.93,486l-.76-.33a1.45,1.45,0,0,0,.3-.86c0-1.05-1.23-1.9-2.74-1.9a4.12,4.12,0,0,0-.95.12c0-1.32-1.62-2.39-3.56-2.39a5,5,0,0,0-1.53.24,2.62,2.62,0,0,0-2.7-1.6,3.33,3.33,0,0,0-2.09.68l-.84-.36a.9.9,0,0,0-.72,0l-2.26,1a4.86,4.86,0,0,0-1-.09c-1.76,0-3.21.87-3.51,2l-.18.07a5,5,0,0,0-1.37-.18c-1.91,0-3.47,1-3.56,2.31l-3,1.31a.91.91,0,0,0,.36,1.74h29.74A.91.91,0,0,0,242.93,486Z" transform="translate(0.12 0.12)"/><polygon class="cls-35" points="303.24 114.76 321.5 114.76 321.51 114.75 315.23 111.75 317.49 100.53 311.9 106.6 309.19 95.72 307.57 107.31 301.49 103.14 304.78 113.46 303.24 114.76"/><path class="cls-36" d="M324.65,118.68l-.76-.33a1.45,1.45,0,0,0,.3-.86c0-1-1.23-1.89-2.74-1.89a4.19,4.19,0,0,0-.95.11c0-1.32-1.61-2.38-3.56-2.38a5,5,0,0,0-1.53.23,2.63,2.63,0,0,0-2.7-1.6,3.33,3.33,0,0,0-2.09.68l-.84-.36a.9.9,0,0,0-.72,0l-2.26,1a4.86,4.86,0,0,0-.95-.09c-1.75,0-3.21.87-3.51,2l-.18.08a5,5,0,0,0-1.37-.19c-1.91,0-3.46,1-3.56,2.31l-3,1.31a.91.91,0,0,0,.36,1.74h29.74A.91.91,0,0,0,324.65,118.68Z" transform="translate(0.12 0.12)"/><polygon class="cls-37" points="166.83 172.7 185.09 172.7 185.09 172.69 178.82 169.69 181.07 158.47 175.48 164.54 172.78 153.66 171.16 165.25 165.07 161.08 168.37 171.4 166.83 172.7"/><path class="cls-38" d="M188.24,176.62l-.76-.33a1.44,1.44,0,0,0,.3-.85c0-1.05-1.23-1.9-2.75-1.9a3.56,3.56,0,0,0-.94.12c0-1.33-1.62-2.39-3.57-2.39a4.94,4.94,0,0,0-1.52.23,2.63,2.63,0,0,0-2.7-1.59,3.33,3.33,0,0,0-2.09.67l-.85-.36a.88.88,0,0,0-.71,0l-2.26,1a4.86,4.86,0,0,0-.95-.09c-1.76,0-3.22.87-3.51,2l-.18.08a5,5,0,0,0-1.37-.19c-1.91,0-3.47,1-3.57,2.31l-3,1.31a.91.91,0,0,0,.35,1.74h29.75A.91.91,0,0,0,188.24,176.62Z" transform="translate(0.12 0.12)"/><polygon class="cls-39" points="324.68 341.94 342.94 341.94 342.95 341.93 336.67 338.93 338.93 327.71 333.34 333.78 330.63 322.9 329.01 334.49 322.93 330.32 326.22 340.64 324.68 341.94"/><path class="cls-40" d="M346.09,345.86l-.76-.33a1.45,1.45,0,0,0,.3-.86c0-1-1.23-1.89-2.74-1.89a4.12,4.12,0,0,0-.95.11c0-1.32-1.62-2.38-3.56-2.38a5,5,0,0,0-1.53.23,2.64,2.64,0,0,0-2.7-1.6,3.33,3.33,0,0,0-2.09.68l-.84-.36a.9.9,0,0,0-.72,0l-2.26,1a4.86,4.86,0,0,0-.95-.09c-1.75,0-3.21.87-3.51,2l-.18.08a5,5,0,0,0-1.37-.19c-1.91,0-3.47,1-3.56,2.31l-3,1.31a.91.91,0,0,0,.36,1.74h29.74A.91.91,0,0,0,346.09,345.86Z" transform="translate(0.12 0.12)"/><polygon class="cls-41" points="189.96 369.12 208.22 369.12 208.22 369.11 201.95 366.11 204.2 354.89 198.62 360.96 195.91 350.08 194.28 361.67 188.21 357.5 191.5 367.82 189.96 369.12"/><path class="cls-42" d="M211.37,373l-.76-.33a1.44,1.44,0,0,0,.3-.85c0-1.05-1.23-1.9-2.75-1.9a3.56,3.56,0,0,0-.94.12c0-1.33-1.62-2.39-3.57-2.39a4.94,4.94,0,0,0-1.52.23,2.63,2.63,0,0,0-2.7-1.59,3.33,3.33,0,0,0-2.09.67l-.84-.36a.9.9,0,0,0-.72,0l-2.26,1a4.86,4.86,0,0,0-1-.09c-1.76,0-3.21.87-3.51,2l-.18.08a5,5,0,0,0-1.37-.19c-1.91,0-3.47,1-3.56,2.31l-3,1.31a.91.91,0,0,0,.35,1.74H211A.91.91,0,0,0,211.37,373Z" transform="translate(0.12 0.12)"/><polygon class="cls-43" points="368.39 193.29 386.65 193.29 386.66 193.28 380.38 190.28 382.63 179.06 377.05 185.13 374.34 174.25 372.72 185.84 366.64 181.68 369.93 191.99 368.39 193.29"/><path class="cls-44" d="M389.8,197.21l-.76-.33a1.4,1.4,0,0,0,.3-.85c0-1.05-1.23-1.9-2.74-1.9a3.64,3.64,0,0,0-1,.12c0-1.33-1.62-2.39-3.57-2.39a4.94,4.94,0,0,0-1.52.23,2.63,2.63,0,0,0-2.7-1.59,3.33,3.33,0,0,0-2.09.67l-.84-.36a.9.9,0,0,0-.72,0l-2.26,1a5.78,5.78,0,0,0-.95-.09c-1.76,0-3.21.87-3.51,2l-.18.08a5,5,0,0,0-1.37-.19c-1.91,0-3.47,1-3.56,2.31l-3,1.31a.91.91,0,0,0,.36,1.74h29.74A.91.91,0,0,0,389.8,197.21Z" transform="translate(0.12 0.12)"/><polygon class="cls-45" points="271.68 262.38 289.94 262.38 289.95 262.37 283.67 259.37 285.93 248.15 280.34 254.22 277.63 243.34 276.01 254.93 269.93 250.76 273.22 261.07 271.68 262.38"/><path class="cls-46" d="M293.09,266.29l-.76-.32a1.45,1.45,0,0,0,.3-.86c0-1.05-1.23-1.9-2.74-1.9a4.12,4.12,0,0,0-.95.12c0-1.32-1.62-2.39-3.56-2.39a5,5,0,0,0-1.53.24,2.62,2.62,0,0,0-2.7-1.6,3.33,3.33,0,0,0-2.09.67l-.84-.36a.9.9,0,0,0-.72,0l-2.26,1a4.86,4.86,0,0,0-.95-.09c-1.75,0-3.21.86-3.51,2l-.18.08a5,5,0,0,0-1.37-.18c-1.91,0-3.47,1-3.56,2.31l-3,1.3A.91.91,0,0,0,263,268h29.74A.91.91,0,0,0,293.09,266.29Z" transform="translate(0.12 0.12)"/></svg>