<svg id="Layer_1" data-name="Layer 1" xmlns="http://www.w3.org/2000/svg" xmlns:xlink="http://www.w3.org/1999/xlink" viewBox="0 0 505.62 505"><defs><style>.cls-1{fill:#c69c6d;}.cls-1,.cls-10,.cls-11,.cls-12,.cls-13,.cls-14,.cls-15,.cls-16,.cls-17,.cls-18,.cls-19,.cls-20,.cls-21,.cls-22,.cls-23,.cls-3,.cls-4,.cls-5,.cls-7,.cls-8,.cls-9{stroke:#000;stroke-miterlimit:10;}.cls-1,.cls-7{stroke-width:5px;}.cls-16,.cls-2,.cls-20,.cls-21,.cls-22,.cls-23{fill:#754c24;}.cls-3,.cls-7{fill:none;}.cls-3{stroke-width:5.3px;}.cls-4{stroke-width:1.03px;fill:url(#linear-gradient);}.cls-5{stroke-width:0.76px;fill:url(#linear-gradient-2);}.cls-6{fill:aqua;}.cls-10,.cls-11,.cls-12,.cls-13,.cls-8,.cls-9{fill:#ccc;}.cls-8{stroke-width:4.34px;}.cls-9{stroke-width:2.17px;}.cls-10{stroke-width:2.66px;}.cls-11{stroke-width:2.03px;}.cls-12{stroke-width:7px;}.cls-13,.cls-22{stroke-width:4px;}.cls-14{stroke-width:0.77px;fill:url(#linear-gradient-3);}.cls-15{stroke-width:0.56px;fill:url(#linear-gradient-4);}.cls-16{stroke-width:4.26px;}.cls-17,.cls-18,.cls-19{fill:#006837;}.cls-17{stroke-width:4.43px;}.cls-18{stroke-width:2.59px;}.cls-19{stroke-width:2.43px;}.cls-20{stroke-width:3.2px;}.cls-21{stroke-width:2.63px;}.cls-23{stroke-width:3.41px;}</style><linearGradient id="linear-gradient" x1="220.06" y1="385.63" x2="220.06" y2="360.3" gradientUnits="userSpaceOnUse"><stop offset="0" stop-color="#3c9400"/><stop offset="1" stop-color="#7f6000"/></linearGradient><linearGradient id="linear-gradient-2" x1="213.84" y1="390.82" x2="213.84" y2="379.57" gradientUnits="userSpaceOnUse"><stop offset="0" stop-color="#bf7440"/><stop offset="1" stop-color="#956874"/></linearGradient><linearGradient id="linear-gradient-3" x1="465.94" y1="66.8" x2="465.94" y2="51.59" xlink:href="#linear-gradient"/><linearGradient id="linear-gradient-4" x1="460" y1="68.91" x2="460" y2="62.16" xlink:href="#linear-gradient-2"/></defs><title>fishing</title><rect class="cls-1" x="2.97" y="2.5" width="500" height="500"/><path class="cls-2" d="M500,256.84c-166.67,6-333.33,87.81-500,107.81V144c166.67-7.11,333.33-75.14,500-66.35Z" transform="translate(2.97 2.5)"/><path class="cls-3" d="M500,256.84c-166.67,6-333.33,87.81-500,107.81V144c166.67-7.11,333.33-75.14,500-66.35Z" transform="translate(2.97 2.5)"/><polygon class="cls-4" points="206.33 385.63 236.68 385.63 236.69 385.62 226.26 381.63 230.01 366.69 220.72 374.77 216.23 360.3 213.53 375.71 203.42 370.17 208.89 383.9 206.33 385.63"/><path class="cls-5" d="M239.15,388.5l-1.26-.43a1.7,1.7,0,0,0,.49-1.14c0-1.4-2-2.53-4.55-2.53a7.8,7.8,0,0,0-1.57.16c-.07-1.76-2.69-3.18-5.93-3.18a10.08,10.08,0,0,0-2.53.31c-.35-1.2-2.23-2.12-4.49-2.12a6.48,6.48,0,0,0-3.48.9l-1.4-.48a1.86,1.86,0,0,0-1.19,0l-3.75,1.29a10.12,10.12,0,0,0-1.58-.12c-2.92,0-5.34,1.16-5.84,2.67l-.3.11a10.25,10.25,0,0,0-2.27-.25c-3.17,0-5.76,1.36-5.92,3.07l-5.05,1.74c-1.51.52-1.05,2.32.59,2.32h49.43C240.19,390.82,240.65,389,239.15,388.5Z" transform="translate(2.97 2.5)"/><path class="cls-6" d="M500,250.78c-166.67,5.3-333.33,78-500,95.8V150.52c166.67-6.31,333.33-66.76,500-59Z" transform="translate(2.97 2.5)"/><path class="cls-7" d="M500,250.78c-166.67,5.3-333.33,78-500,95.8V150.52c166.67-6.31,333.33-66.76,500-59Z" transform="translate(2.97 2.5)"/><path class="cls-8" d="M34.47,37.59H62.72A15.75,15.75,0,0,1,78.47,53.34v.75A11.5,11.5,0,0,1,67,65.59H34.47A11.5,11.5,0,0,1,23,54.09v-5A11.5,11.5,0,0,1,34.47,37.59Z"/><path class="cls-9" d="M72.72,56.5H86.84a7.88,7.88,0,0,1,7.88,7.88v.38A5.75,5.75,0,0,1,89,70.5H72.72A5.75,5.75,0,0,1,67,64.75v-2.5A5.75,5.75,0,0,1,72.72,56.5Z"/><path class="cls-10" d="M274.41,61h37.18a5.91,5.91,0,0,1,5.91,5.91v0A8.09,8.09,0,0,1,309.41,75h-35a5.91,5.91,0,0,1-5.91-5.91V66.91A5.91,5.91,0,0,1,274.41,61Z" transform="translate(588.97 138.5) rotate(180)"/><path class="cls-11" d="M313,68h19.49A4.51,4.51,0,0,1,337,72.51v3.32A6.17,6.17,0,0,1,330.83,82H313a4.51,4.51,0,0,1-4.51-4.51v-5A4.51,4.51,0,0,1,313,68Z" transform="translate(648.47 152.5) rotate(-180)"/><path class="cls-12" d="M273,313.5H443.83a34.63,34.63,0,0,1,34.63,34.63v19.44a22.93,22.93,0,0,1-22.93,22.93H241.89A22.93,22.93,0,0,1,219,367.57v0A54.07,54.07,0,0,1,273,313.5Z"/><path class="cls-13" d="M236.58,382.25h15.94a5.44,5.44,0,0,1,5.44,5.44v7.46a3.6,3.6,0,0,1-3.6,3.6H231.69a3.6,3.6,0,0,1-3.6-3.6v-4.41a8.49,8.49,0,0,1,8.49-8.49Z"/><path class="cls-13" d="M254.22,384.75h11.57a2.72,2.72,0,0,1,2.72,2.72v9.68a4.1,4.1,0,0,1-4.1,4.1h-6.49a6.41,6.41,0,0,1-6.41-6.41v-7.38a2.72,2.72,0,0,1,2.72-2.72Z" transform="translate(522.97 788.5) rotate(180)"/><polygon class="cls-14" points="453.39 66.8 481.13 66.8 481.15 66.79 471.61 64.39 475.04 55.43 466.55 60.28 462.44 51.59 459.97 60.84 450.73 57.52 455.73 65.76 453.39 66.8"/><path class="cls-15" d="M483.14,67.52,482,67.26a.92.92,0,0,0,.45-.68c0-.84-1.87-1.52-4.17-1.52a10.86,10.86,0,0,0-1.43.09c-.06-1.05-2.46-1.9-5.42-1.9a13.8,13.8,0,0,0-2.31.18c-.32-.72-2-1.27-4.11-1.27a8.43,8.43,0,0,0-3.18.54l-1.28-.29a2.51,2.51,0,0,0-1.09,0l-3.43.77c-.46,0-.94-.07-1.44-.07-2.67,0-4.88.7-5.33,1.61l-.28.06a13.56,13.56,0,0,0-2.08-.15c-2.9,0-5.27.82-5.41,1.84l-4.62,1c-1.38.31-.95,1.39.54,1.39h45.19C484.09,68.91,484.52,67.83,483.14,67.52Z" transform="translate(2.97 2.5)"/><rect class="cls-16" x="37.47" y="242.5" width="51" height="169.5" rx="14.5"/><path class="cls-17" d="M60,140.5H74.69A63.28,63.28,0,0,1,138,203.78v90.31A21.91,21.91,0,0,1,116.06,316H31.87A21.91,21.91,0,0,1,10,294.09V190.53A50,50,0,0,1,60,140.5Z"/><path class="cls-18" d="M84.76,249h28.15A37.05,37.05,0,0,1,150,286.05v31.62a12.83,12.83,0,0,1-12.83,12.83H68.29a12.83,12.83,0,0,1-12.83-12.83V278.29A29.29,29.29,0,0,1,84.76,249Z"/><path class="cls-19" d="M33.83,228.25h0a39.89,39.89,0,0,1,39.89,39.89v36.45a17.16,17.16,0,0,1-17.16,17.16H18.38A17.16,17.16,0,0,1,1.22,304.59V260.86A32.61,32.61,0,0,1,33.83,228.25Z"/><rect class="cls-20" x="191.3" y="2.5" width="51" height="95.5" rx="10.88"/><rect class="cls-21" x="355.62" y="2.5" width="51" height="64.3" rx="8.93"/><rect class="cls-22" x="308.94" y="369.75" width="21.54" height="190.49" rx="10.24" transform="matrix(0.13, 0.99, -0.99, 0.13, 741.94, 89.79)"/><rect class="cls-23" x="389.9" y="377.6" width="15.69" height="190.49" rx="7.84" transform="translate(873.55 77.6) rotate(90)"/></svg>