<svg xmlns="http://www.w3.org/2000/svg" viewBox="0 0 34.05 62.39"><defs><style>.cls-1{fill:#5ce900;}.cls-2{fill:#bf9600;}.cls-3{fill:#ff8a9d;}.cls-4{fill:#ff2a42;}.cls-5{fill:#ff5f68;stroke:#553200;stroke-miterlimit:10;stroke-width:4px;}</style></defs><title>Flowerpot002</title><g id="Layer_2" data-name="Layer 2"><g id="Layer_1-2" data-name="Layer 1"><path class="cls-1" d="M18.6,36.21a42.27,42.27,0,0,0,3.66-19.58c-.11-1.92-3.11-1.93-3,0A39.07,39.07,0,0,1,16,34.7c-.77,1.75,1.81,3.27,2.59,1.51Z"/><path class="cls-2" d="M21.07,12.31a.78.78,0,0,1-1-.91c.09-.5.72-.83,1.15-.93a1.56,1.56,0,0,1,1.48.33c.33.38,0,1.37,0,1.37L21.74,10a4.52,4.52,0,0,1-4.41,1.87l1.1,1.44c.11-2,1.82-5.9,4.38-3.95s-3.62,4.77-5,4.77a1.5,1.5,0,0,0,0,3c4.13,0,11.92-5.67,7.13-9.91a5.27,5.27,0,0,0-6.07-.6c-2.33,1.38-3.27,4.13-3.42,6.69a1.51,1.51,0,0,0,1.1,1.45,7.67,7.67,0,0,0,7.8-3.24,1.52,1.52,0,0,0-.89-2.21c-3.19-1.11-5.17,3.56-2.16,5.14,3.23,1.7,5.84-2.4,4-5.11s-6-2.38-7.66.22c-1.81,2.84.88,6.74,4.2,5.68,1.83-.58,1.05-3.48-.79-2.89Z"/><path class="cls-3" d="M21.48,5.84a1.5,1.5,0,0,0,0-3,1.5,1.5,0,0,0,0,3Z"/><path class="cls-3" d="M25.16,7.89a1.5,1.5,0,0,0,0-3,1.5,1.5,0,0,0,0,3Z"/><path class="cls-3" d="M22.71,5.84a1.5,1.5,0,0,0,0-3,1.5,1.5,0,0,0,0,3Z"/><path class="cls-4" d="M18.2,7.89a1.5,1.5,0,0,0,0-3,1.5,1.5,0,0,0,0,3Z"/><path class="cls-4" d="M20.42,4.58,17.58,2.09a1.54,1.54,0,0,0-2.12,0,1.52,1.52,0,0,0,0,2.12L18.3,6.7a1.53,1.53,0,0,0,2.12,0,1.5,1.5,0,0,0,0-2.12Z"/><path class="cls-4" d="M22.16,4.75V1.47a1.5,1.5,0,0,0-3,0V4.75a1.5,1.5,0,0,0,3,0Z"/><path class="cls-4" d="M24.66,7.13l4.05-3.34a1.5,1.5,0,0,0,0-2.12,1.54,1.54,0,0,0-2.12,0L22.54,5a1.5,1.5,0,0,0,0,2.12,1.53,1.53,0,0,0,2.12,0Z"/><path class="cls-4" d="M24.47,6.37a15,15,0,0,0,2.1-4.51,1.51,1.51,0,0,0-2.9-.8,12.26,12.26,0,0,1-1.79,3.8,1.5,1.5,0,0,0,2.59,1.51Z"/><path class="cls-4" d="M25.05,10.06l4.57-2.77c1.65-1,.14-3.6-1.51-2.59L23.54,7.47c-1.65,1-.14,3.6,1.51,2.59Z"/><path class="cls-4" d="M27.21,11.58h5.33a1.5,1.5,0,0,0,0-3H27.21a1.5,1.5,0,0,0,0,3Z"/><path class="cls-4" d="M27.24,13.93l1.63.43a1.52,1.52,0,0,0,1.85-1,1.53,1.53,0,0,0-1-1.85L28,11a1.5,1.5,0,1,0-.8,2.89Z"/><path class="cls-4" d="M24.4,14.67a15.62,15.62,0,0,1,4.66,3.4c1.32,1.41,3.44-.71,2.12-2.12a17.79,17.79,0,0,0-5.27-3.87c-1.73-.84-3.25,1.75-1.51,2.59Z"/><path class="cls-4" d="M23.36,14.56l1.15,4.12a1.5,1.5,0,0,0,2.89-.8l-1.15-4.12a1.5,1.5,0,0,0-2.89.8Z"/><path class="cls-4" d="M21.72,15.81a5.35,5.35,0,0,1-.66,5.85c-1.18,1.53,1.43,3,2.59,1.52a8.29,8.29,0,0,0,.66-8.88c-.89-1.72-3.48-.2-2.59,1.51Z"/><path class="cls-4" d="M20.12,16.6a4,4,0,0,1-.48,3.93c-1.18,1.5.93,3.64,2.12,2.12a7.13,7.13,0,0,0,.95-7.56c-.78-1.77-3.36-.24-2.59,1.51Z"/><path class="cls-4" d="M18.78,16.39l-.82.82a1.5,1.5,0,0,0,2.12,2.12l.82-.82a1.5,1.5,0,0,0-2.12-2.12Z"/><path class="cls-4" d="M17.13,13.52l-2.46,2.87a1.54,1.54,0,0,0,0,2.12,1.51,1.51,0,0,0,2.12,0l2.46-2.87a1.53,1.53,0,0,0,0-2.12,1.51,1.51,0,0,0-2.12,0Z"/><path class="cls-4" d="M17.79,11.84A12.32,12.32,0,0,0,12.15,13a1.5,1.5,0,0,0-.54,2,1.55,1.55,0,0,0,2.06.54,9.08,9.08,0,0,1,4.12-.72c1.93.08,1.92-2.92,0-3Z"/><path class="cls-4" d="M16.14,11a3.32,3.32,0,0,1-3-.78C11.68,9,9.56,11.06,11,12.38a6.44,6.44,0,0,0,6,1.55c1.88-.45,1.08-3.35-.8-2.89Z"/><path class="cls-4" d="M17,9.46a4.67,4.67,0,0,1-3.4-1.72c-1.26-1.46-3.37.67-2.12,2.12A7.66,7.66,0,0,0,17,12.46c1.93.08,1.92-2.92,0-3Z"/><path class="cls-4" d="M18.15,6.73A9.39,9.39,0,0,1,14,4.41c-1.39-1.33-3.52.79-2.12,2.13a12.68,12.68,0,0,0,5.45,3.09,1.51,1.51,0,0,0,.8-2.9Z"/><path class="cls-4" d="M21.07,8.71a1.5,1.5,0,0,0,0-3,1.5,1.5,0,0,0,0,3Z"/><path class="cls-4" d="M18.61,10.35a1.5,1.5,0,0,0,0-3,1.5,1.5,0,0,0,0,3Z"/><path class="cls-4" d="M17,12.81a1.5,1.5,0,0,0,0-3,1.5,1.5,0,0,0,0,3Z"/><path class="cls-4" d="M19.84,17.72a1.5,1.5,0,0,0,0-3,1.5,1.5,0,0,0,0,3Z"/><path class="cls-4" d="M25.57,12.81a1.5,1.5,0,0,0,0-3,1.5,1.5,0,0,0,0,3Z"/><path class="cls-5" d="M22,60.39H10.31a4.26,4.26,0,0,1-4-3.34L2.16,40.92C1.4,37.93,3.47,35,6.33,35h22.6a3.35,3.35,0,0,1,3,4.43L26.71,56.7A5,5,0,0,1,22,60.39Z"/></g></g></svg>