<svg xmlns="http://www.w3.org/2000/svg" viewBox="0 0 41.05 60.67"><defs><style>.cls-1{fill:#39b54a;}.cls-2{fill:#ff0;}.cls-3{fill:#f4ffd4;}.cls-4{fill:#347400;stroke:#00485f;stroke-miterlimit:10;stroke-width:4px;}</style></defs><title>Flowerpot001</title><g id="Layer_2" data-name="Layer 2"><g id="Layer_1-2" data-name="Layer 1"><path class="cls-1" d="M16.55,32.29a16.93,16.93,0,0,1,8.16-15.45c1.65-1,.14-3.6-1.51-2.59a20,20,0,0,0-9.65,18c.08,1.92,3.08,1.93,3,0Z"/><path class="cls-2" d="M28.83,14.56a6.05,6.05,0,0,1-2.7-1,4.75,4.75,0,0,1-1.06-1,2.31,2.31,0,0,1-.28-.48q-.37.35,0,.27c1,0,3.19-.27,3.54,1.05a1.5,1.5,0,0,0,2.89-.8,4.34,4.34,0,0,0-3.43-3C26.29,9.24,24,9,22.72,10c-1.63,1.24-.88,3.44.23,4.73A8.28,8.28,0,0,0,28,17.45a1.55,1.55,0,0,0,1.84-1.05,1.49,1.49,0,0,0-1-1.84Z"/><path class="cls-3" d="M26.75,6.46a6.66,6.66,0,0,1-1.73-2C24.88,4.14,24.69,3,25.3,3L23.86,1.9l1.31,5.74c.43,1.88,3.32,1.09,2.89-.79L26.75,1.1A1.52,1.52,0,0,0,25.3,0a3.68,3.68,0,0,0-3.43,3.6c-.12,2.07,1.34,3.67,2.75,5s3.55-.8,2.13-2.12Z"/><path class="cls-3" d="M30.12,7.68a3.8,3.8,0,0,1,3-4.31l-1.9-1.45c0,1.91-1.92,3.21-3.33,4.19-1.58,1.1-.08,3.7,1.51,2.59C31.8,7.06,34.21,5,34.25,1.92A1.52,1.52,0,0,0,32.35.47a6.74,6.74,0,0,0-5.23,7.21,1.54,1.54,0,0,0,1.5,1.5,1.51,1.51,0,0,0,1.5-1.5Z"/><path class="cls-3" d="M31.34,10.07l3.8-1.67,1.91-.83c.43-.19.86-.38,1.3-.55-.11-.79-.34-1-.7-.56-.46.08-1.13.76-1.56,1a18.47,18.47,0,0,1-1.72.87,18.62,18.62,0,0,1-3.88,1.15c-1.89.38-1.09,3.27.8,2.9a20.74,20.74,0,0,0,6.58-2.48c1.45-.86,3.51-2.15,3.13-4.14s-2.39-2-3.84-1.5c-2.49.91-4.91,2.15-7.34,3.21-1.76.77-.23,3.36,1.52,2.59Z"/><path class="cls-3" d="M30.68,14.07l1.46,1.62,1.06-2.56s-.47,0-.2,0c0,0-.39-.11-.26-.06s-.21-.12-.22-.13c.19.14-.13-.15-.14-.17a1.5,1.5,0,0,0-2.13,2.12,3.72,3.72,0,0,0,3,1.22,1.53,1.53,0,0,0,1.06-2.57L32.8,12a1.5,1.5,0,0,0-2.12,2.12Z"/><path class="cls-3" d="M30.69,16c.56,1.13,2.09,4.08.11,4.72-.58.19-.63.05-.74-.5a6.19,6.19,0,0,0-.75-2.63c-1.09-1.58-3.69-.08-2.59,1.51a6.15,6.15,0,0,1,.5,2.18,3.33,3.33,0,0,0,1.26,1.91,3.7,3.7,0,0,0,3.79.15c3.64-1.77,2.42-6,1-8.86-.85-1.73-3.44-.21-2.59,1.52Z"/><path class="cls-3" d="M25.59,18.74c.43.48.09,1.29-.35,1.63a3,3,0,0,1-2.87,0l1.1,1.45a7.15,7.15,0,0,1,1.86-4.52c1.29-1.43-.83-3.56-2.12-2.12a10.42,10.42,0,0,0-2.74,6.64,1.54,1.54,0,0,0,1.1,1.44c2.07.79,4.7.61,6.19-1.2a4.15,4.15,0,0,0-.05-5.45c-1.29-1.44-3.41.69-2.12,2.12Z"/><path class="cls-3" d="M23.46,16c-.78-.57-3-2.16-1.88-3.34,1.31-1.41-.81-3.54-2.13-2.12a4.21,4.21,0,0,0-.81,4.42,8.56,8.56,0,0,0,3.3,3.63C23.5,19.68,25,17.08,23.46,16Z"/><path class="cls-3" d="M21,9.64a5.24,5.24,0,0,1-1.43-.53c-.19-.11-.5-.48-.35-.56s-.28.33-.25.25.19,0,.35,0a4.22,4.22,0,0,1,1.26.7A1.5,1.5,0,0,0,22.63,9,1.54,1.54,0,0,0,22.09,7a5.38,5.38,0,0,0-3-1.16A2.85,2.85,0,0,0,16.36,7.7,3.43,3.43,0,0,0,17.12,11a6.07,6.07,0,0,0,3.09,1.58A1.5,1.5,0,0,0,21,9.64Z"/><path class="cls-4" d="M22,58.67H10.31a4.26,4.26,0,0,1-4-3.34L2.16,39.2c-.76-3,1.31-5.94,4.17-5.94h22.6a3.35,3.35,0,0,1,3,4.43L26.71,55A5,5,0,0,1,22,58.67Z"/></g></g></svg>