<svg id="Layer_1" data-name="Layer 1" xmlns="http://www.w3.org/2000/svg" viewBox="0 0 262.59 128.09"><defs><style>.cls-1{fill:#ff0;stroke-width:2px;}.cls-1,.cls-10,.cls-11,.cls-12,.cls-13,.cls-2,.cls-3,.cls-4,.cls-7,.cls-8,.cls-9{stroke:#000;stroke-miterlimit:10;}.cls-2{fill:lime;}.cls-10,.cls-11,.cls-12,.cls-2,.cls-3,.cls-4,.cls-7,.cls-8,.cls-9{stroke-width:3px;}.cls-3{fill:#ccc;}.cls-4{fill:red;}.cls-5{font-size:12px;font-family:GillSans-UltraBold, Gill Sans Ultra Bold;font-weight:700;}.cls-6{letter-spacing:-0.1em;}.cls-13,.cls-7{fill:gray;}.cls-8{fill:#fbb03b;}.cls-9{fill:#fcee21;}.cls-10{fill:#8cc63f;}.cls-11{fill:#e6e6e6;}.cls-12{fill:#999;}.cls-13{stroke-width:2.48px;}</style></defs><title>forcefieldmachine</title><path class="cls-1" d="M179.37,203.27c-2.19-7.56-4.45-16.14-13-18.16a44.78,44.78,0,0,0-21.88.66,48,48,0,0,0-20.28,11.43c-4.74,4.53-10,11.23-8.91,18.23a11.88,11.88,0,0,0,.47,1.78,16.78,16.78,0,0,0-6.13,5.75c-4.77,7.7-1.75,14,4,18.45a25.39,25.39,0,0,0-4.61,3.27c-5.36,4.84-4.48,11.67.94,16.05a25.9,25.9,0,0,0,3.53,2.37,10.57,10.57,0,0,0,.65,4.59c3,8.51,14.15,11.87,22.15,13,11.07,1.53,22.24-.42,33.34.46,3.85.3,3.83-5.7,0-6-10.27-.82-20.58.87-30.83-.16a33.4,33.4,0,0,1-14.66-4.59c-1.52-1-3.6-2.62-4.41-4.58a46,46,0,0,0,13.89,2.06c4.55,0,15.9-.76,13.07-8.3-2.89-7.7-15.08-7.07-21.41-6.05a16.83,16.83,0,0,0-9.27,4.34c-2.31-1.19-4.24-2.76-4.66-4.77-.77-3.68,4.14-6.33,8.46-7.94a43.19,43.19,0,0,0,14.81,4c4.17.27,17.27.4,15.61-7-1.39-6.18-14.26-5.9-18.86-5.62a46.37,46.37,0,0,0-11.7,2.21c-4.08-2.29-7-5.51-6.17-9.78.62-3.29,3.08-5.48,6-6.95,3.64,2.69,9,3.68,13.24,4.11,5,.49,16,1.07,14.81-6.93-1.17-7.76-12.29-6.87-17.81-6.09a58.52,58.52,0,0,0-7.94,1.61c-.8-2.41.2-5.4,2.35-8.41,5.79-8.1,15.16-13.49,24.81-15.47a38.54,38.54,0,0,1,14.4-.26c7.09,1.28,8.47,8.14,10.24,14.25C174.66,208.56,180.45,207,179.37,203.27ZM126.26,259.4c2-.34,13.3-1.68,13.54,1.56.15,2.06-14.32.08-15.76-.29l-1.43-.38A20.75,20.75,0,0,1,126.26,259.4ZM139,242.87a19.46,19.46,0,0,1-2.77.34,34.26,34.26,0,0,1-5.32-.61A35.31,35.31,0,0,1,139,242.87Zm2.08-23.36c2,1.26-.76.63-1.9.73a34.58,34.58,0,0,1-3.67.08,32.79,32.79,0,0,1-7.31-1C132.5,218.31,138,217.52,141.06,219.51Z" transform="translate(-104.45 -166.37)"/><path class="cls-2" d="M289.78,204.32c.65-7.27-3.74-20.42,4.2-24.92,4-2.24,9.7-2.3,14.11-2.47a61.5,61.5,0,0,1,12.86.68c8.88,1.56,18,7.06,15.32,17.2-2.07,7.82-.19,13.74,5.82,19.38,4.33,4.06,18.56,14.2,13.28,21.26-4.64,6.2-12.25,8.8-15.44,16.35a19.81,19.81,0,0,0-1.37,10.59c.53,3.85,4.29,8.71-.67,10.81-4.08,1.74-9.55-.36-13.85-.17a17.17,17.17,0,0,0-9.86,3.21c-4.57,3.45-.09,11.27,4.54,7.77,6.37-4.82,15.6.34,22.87-2.65s9.31-9.55,6.91-16.53c-3.32-9.62,3-13.93,9.58-19.5,6.09-5.14,9.65-11.63,6-19.38-3.6-7.6-9.62-12.52-15.6-18.13-3.53-3.31-4.85-5.91-3.5-10.61a19.62,19.62,0,0,0,.37-11C340.69,169.49,320,167,305.39,168.09c-8.18.62-17.69,1.84-22.2,9.63-4.77,8.24-1.62,17.71-2.41,26.6-.51,5.77,8.49,5.74,9,0Z" transform="translate(-104.45 -166.37)"/><rect class="cls-3" x="49.08" y="32.74" width="165.16" height="93.85" rx="15.16"/><circle class="cls-4" cx="65.47" cy="47.09" r="5.12"/><text class="cls-5" transform="translate(77.77 52.13)">FIELD O<tspan class="cls-6" x="55.88" y="0">’</tspan><tspan x="59.54" y="0" xml:space="preserve"> FORCE</tspan></text><rect class="cls-7" x="171.55" y="25.29" width="19.67" height="7.45"/><rect class="cls-7" x="313.18" y="271.33" width="19.67" height="7.45" transform="translate(493.62 -214.33) rotate(90)"/><rect class="cls-8" x="68.22" y="61.23" width="15.9" height="15.9" rx="4.73"/><rect class="cls-9" x="89.89" y="61.23" width="15.9" height="15.9" rx="4.73"/><rect class="cls-10" x="112.56" y="61.23" width="15.9" height="15.9" rx="4.73"/><rect class="cls-11" x="149.08" y="61.23" width="15.9" height="15.9" rx="3.48"/><rect class="cls-11" x="171.55" y="61.23" width="15.9" height="15.9" rx="3.48"/><rect class="cls-12" x="55.55" y="81.96" width="154" height="5"/><rect class="cls-7" x="58.39" y="26.96" width="19.67" height="7.45"/><rect class="cls-7" x="139.97" y="271.33" width="19.67" height="7.45" transform="translate(320.41 -41.11) rotate(90)"/><circle class="cls-13" cx="87.28" cy="107.55" r="15.09"/><circle class="cls-13" cx="133.24" cy="106.89" r="15.09"/><circle class="cls-13" cx="179.19" cy="107.55" r="15.09"/></svg>