<svg id="Layer_1" data-name="Layer 1" xmlns="http://www.w3.org/2000/svg" xmlns:xlink="http://www.w3.org/1999/xlink" viewBox="0 0 505 502.65"><defs><style>.cls-1,.cls-10,.cls-11,.cls-12,.cls-13,.cls-14,.cls-15,.cls-16,.cls-17,.cls-18,.cls-19,.cls-2,.cls-20,.cls-21,.cls-22,.cls-23,.cls-24,.cls-25,.cls-26,.cls-27,.cls-28,.cls-29,.cls-3,.cls-4,.cls-5,.cls-6,.cls-7,.cls-8,.cls-9{stroke:#000;stroke-miterlimit:10;}.cls-1{stroke-width:5px;fill:url(#linear-gradient);}.cls-2,.cls-3,.cls-4,.cls-5,.cls-6,.cls-7,.cls-8,.cls-9{stroke-width:0.33px;}.cls-2{fill:url(#linear-gradient-2);}.cls-3{fill:url(#linear-gradient-3);}.cls-4{fill:url(#linear-gradient-4);}.cls-5{fill:url(#linear-gradient-5);}.cls-6{fill:url(#linear-gradient-6);}.cls-7{fill:url(#linear-gradient-7);}.cls-8{fill:url(#linear-gradient-8);}.cls-9{fill:url(#linear-gradient-9);}.cls-10{stroke-width:0.3px;fill:url(#linear-gradient-10);}.cls-11{stroke-width:4px;fill:url(#linear-gradient-11);}.cls-12,.cls-15,.cls-18,.cls-21,.cls-24,.cls-27{fill:lime;}.cls-13,.cls-16,.cls-19,.cls-22,.cls-25,.cls-28{fill:red;}.cls-13,.cls-14{stroke-width:3px;}.cls-14,.cls-17,.cls-20,.cls-23,.cls-26,.cls-29{fill:#f0f;}.cls-15{stroke-width:0.95px;}.cls-16,.cls-17{stroke-width:2.86px;}.cls-18{stroke-width:0.95px;}.cls-19,.cls-20{stroke-width:2.85px;}.cls-21{stroke-width:0.68px;}.cls-22,.cls-23{stroke-width:2.04px;}.cls-24{stroke-width:0.65px;}.cls-25,.cls-26{stroke-width:1.94px;}.cls-27{stroke-width:0.78px;}.cls-28,.cls-29{stroke-width:2.35px;}</style><linearGradient id="linear-gradient" x1="252.5" y1="500.15" x2="252.5" y2="195.17" gradientUnits="userSpaceOnUse"><stop offset="0" stop-color="#008953"/><stop offset="1" stop-color="lime"/></linearGradient><linearGradient id="linear-gradient-2" x1="252.5" y1="195.17" x2="252.5" y2="173.04" gradientUnits="userSpaceOnUse"><stop offset="0" stop-color="#bfeeff"/><stop offset="1" stop-color="#d4f9ff"/></linearGradient><linearGradient id="linear-gradient-3" x1="252.5" y1="173.04" x2="252.5" y2="150.91" xlink:href="#linear-gradient-2"/><linearGradient id="linear-gradient-4" x1="252.5" y1="152.15" x2="252.5" y2="130.02" xlink:href="#linear-gradient-2"/><linearGradient id="linear-gradient-5" x1="252.5" y1="130.02" x2="252.5" y2="107.89" xlink:href="#linear-gradient-2"/><linearGradient id="linear-gradient-6" x1="252.5" y1="107.89" x2="252.5" y2="85.76" xlink:href="#linear-gradient-2"/><linearGradient id="linear-gradient-7" x1="252.5" y1="85.76" x2="252.5" y2="63.63" xlink:href="#linear-gradient-2"/><linearGradient id="linear-gradient-8" x1="252.5" y1="63.63" x2="252.5" y2="41.5" xlink:href="#linear-gradient-2"/><linearGradient id="linear-gradient-9" x1="252.5" y1="41.5" x2="252.5" y2="19.37" xlink:href="#linear-gradient-2"/><linearGradient id="linear-gradient-10" x1="252.5" y1="19.37" x2="252.5" y2="0.15" xlink:href="#linear-gradient-2"/><linearGradient id="linear-gradient-11" x1="252.5" y1="344.52" x2="252.5" y2="192.47" gradientUnits="userSpaceOnUse"><stop offset="0" stop-color="#bf7440"/><stop offset="1" stop-color="#956874"/></linearGradient></defs><title>garden01</title><rect class="cls-1" x="2.5" y="195.17" width="500" height="304.98"/><rect class="cls-2" x="2.5" y="173.04" width="500" height="22.13"/><rect class="cls-3" x="2.5" y="150.91" width="500" height="22.13"/><rect class="cls-4" x="2.5" y="130.02" width="500" height="22.13"/><rect class="cls-5" x="2.5" y="107.89" width="500" height="22.13"/><rect class="cls-6" x="2.5" y="85.76" width="500" height="22.13"/><rect class="cls-7" x="2.5" y="63.63" width="500" height="22.13"/><rect class="cls-8" x="2.5" y="41.5" width="500" height="22.13"/><rect class="cls-9" x="2.5" y="19.37" width="500" height="22.13"/><rect class="cls-10" x="2.5" y="0.15" width="500" height="19.21"/><rect class="cls-11" x="2.5" y="192.47" width="500" height="152.05"/><path class="cls-12" d="M479.82,188.54a1.5,1.5,0,0,0-.64-.92c-1.14-.76-2.64-2.18-4.14-1.93l-.17,0a12.67,12.67,0,0,0-9.19-.17c-3.75,1.42-6.07,4.72-9.2,7.05.31-11-5.56-21.35-11.08-30.63a1.49,1.49,0,0,0-2.57,1.51c8.22,13.8,16.08,29.63,4.72,44.07-.66.84-1.28,1.7-1.89,2.56a8.67,8.67,0,0,0-.7-1.56c-1.69-2.92-4.65-5.19-7.78-7.18a8,8,0,0,0-7.27-4.69,1.44,1.44,0,0,0-.43.06c-1.48-.55-2.68,1.75-1.19,2.73,1.08.7,3.67,2.17,6.41,4a12,12,0,0,1,.47,4.55c-.14,1.88-1,4.05-.53,5.94.68,2.62,3.89,3.78,6.29,4.51a39.76,39.76,0,0,0-2.86,22.23c.28,1.89,3.15,1.08,2.87-.79a37.42,37.42,0,0,1,3.32-22.18,6.91,6.91,0,0,0,1.6-2.88c3.33-5.35,8.08-9.57,9.73-15.91.2-.8.37-1.61.51-2.41,3.63-.22,7.57.68,11-.66a13.85,13.85,0,0,0,3.56-2.33c2.8-2.2,5.6-2.31,8.95-2.06C481.5,191.63,481.54,188.85,479.82,188.54ZM439.87,210.2v-.15l.07.06Zm-1.27-3.88a1.76,1.76,0,0,0-.4.07V206C438.33,206.11,438.46,206.22,438.6,206.32Zm22.25-12.66-.88,0,.91-.78A1.4,1.4,0,0,0,460.85,193.66Zm5.36-.84c.2-.24.39-.46.59-.66l.89-.21A11,11,0,0,1,466.21,192.82Z" transform="translate(2.5 0.15)"/><ellipse class="cls-13" cx="445.72" cy="143.13" rx="5.32" ry="10.04"/><ellipse class="cls-13" cx="439.03" cy="143.64" rx="5.32" ry="10.04" transform="translate(-20.4 142.85) rotate(-18)"/><ellipse class="cls-13" cx="435.24" cy="145.57" rx="5.32" ry="10.04" transform="translate(0.06 283.78) rotate(-36)"/><ellipse class="cls-13" cx="432.24" cy="148.57" rx="5.32" ry="10.04" transform="translate(60.48 411.08) rotate(-54)"/><ellipse class="cls-13" cx="430.31" cy="152.35" rx="5.32" ry="10.04" transform="matrix(0.31, -0.95, 0.95, 0.31, 154.95, 514.68)"/><ellipse class="cls-13" cx="432.15" cy="156.7" rx="10.04" ry="5.32"/><ellipse class="cls-13" cx="430.31" cy="160.74" rx="10.04" ry="5.32" transform="translate(-26.11 140.99) rotate(-18)"/><ellipse class="cls-13" cx="432.24" cy="164.52" rx="10.04" ry="5.32" transform="translate(-11.65 285.64) rotate(-36)"/><ellipse class="cls-13" cx="435.24" cy="167.52" rx="10.04" ry="5.32" transform="translate(46.39 421.33) rotate(-54)"/><ellipse class="cls-13" cx="439.03" cy="169.45" rx="10.04" ry="5.32" transform="translate(144.7 534.78) rotate(-72)"/><ellipse class="cls-13" cx="445.72" cy="170.26" rx="5.32" ry="10.04"/><ellipse class="cls-13" cx="447.41" cy="169.45" rx="5.32" ry="10.04" transform="translate(-27.96 146.7) rotate(-18)"/><ellipse class="cls-13" cx="451.2" cy="167.52" rx="5.32" ry="10.04" transform="translate(-9.8 297.35) rotate(-36)"/><ellipse class="cls-13" cx="454.2" cy="164.52" rx="5.32" ry="10.04" transform="translate(56.63 435.42) rotate(-54)"/><ellipse class="cls-13" cx="456.12" cy="160.74" rx="5.32" ry="10.04" transform="translate(164.8 545.02) rotate(-72)"/><ellipse class="cls-13" cx="459.29" cy="156.7" rx="10.04" ry="5.32"/><ellipse class="cls-13" cx="456.12" cy="152.35" rx="10.04" ry="5.32" transform="translate(-22.25 148.56) rotate(-18)"/><ellipse class="cls-13" cx="454.2" cy="148.57" rx="10.04" ry="5.32" transform="translate(1.92 295.5) rotate(-36)"/><ellipse class="cls-13" cx="451.2" cy="145.57" rx="10.04" ry="5.32" transform="translate(70.72 425.18) rotate(-54)"/><ellipse class="cls-13" cx="447.41" cy="143.64" rx="10.04" ry="5.32" transform="translate(175.05 524.92) rotate(-72)"/><ellipse class="cls-14" cx="445.72" cy="156.7" rx="12.1" ry="9.25"/><path class="cls-15" d="M223.14,177.37a1.43,1.43,0,0,1,.58-.93c1-.76,2.4-2.18,3.77-1.93l.15.05a10.61,10.61,0,0,1,8.38-.18c3.42,1.43,5.54,4.72,8.39,7.05-.28-11,5.06-21.35,10.1-30.62.89-1.65,3.24-.15,2.34,1.5-7.5,13.81-14.66,29.63-4.31,44.07.61.85,1.18,1.7,1.73,2.57a8.13,8.13,0,0,1,.64-1.56c1.54-2.92,4.23-5.19,7.09-7.18a7.33,7.33,0,0,1,6.62-4.7,1.6,1.6,0,0,1,.4.06c1.34-.55,2.43,1.76,1.07,2.73-1,.71-3.33,2.17-5.83,4a13.34,13.34,0,0,0-.44,4.56c.14,1.88.94,4,.49,5.93-.62,2.62-3.55,3.78-5.73,4.52a43.26,43.26,0,0,1,2.61,22.22c-.26,1.89-2.88,1.09-2.62-.79a40.53,40.53,0,0,0-3-22.17,7.18,7.18,0,0,1-1.45-2.89c-3-5.34-7.37-9.56-8.87-15.9-.19-.81-.34-1.61-.47-2.41-3.31-.23-6.9.67-10.06-.67a12.26,12.26,0,0,1-3.24-2.32c-2.56-2.21-5.11-2.31-8.16-2.06C221.6,180.45,221.56,177.67,223.14,177.37ZM259.54,199a.75.75,0,0,0,0-.15l-.06.05A.53.53,0,0,1,259.54,199Zm1.16-3.88a1.51,1.51,0,0,1,.37.07v-.39Zm-20.28-12.66.8,0-.83-.78A1.63,1.63,0,0,1,240.42,182.49Zm-4.89-.84A7.45,7.45,0,0,0,235,181l-.81-.2A10.59,10.59,0,0,0,235.53,181.65Z" transform="translate(2.5 0.15)"/><ellipse class="cls-16" cx="258.99" cy="131.95" rx="4.85" ry="10.04"/><ellipse class="cls-16" cx="260.31" cy="132.46" rx="9.96" ry="4.89" transform="translate(65.59 348.05) rotate(-74.5)"/><ellipse class="cls-16" cx="263.76" cy="134.39" rx="9.76" ry="4.99" transform="translate(13.29 288.28) rotate(-58.29)"/><ellipse class="cls-16" cx="266.5" cy="137.39" rx="9.48" ry="5.14" transform="translate(-22.68 207) rotate(-40.67)"/><ellipse class="cls-16" cx="268.25" cy="141.18" rx="9.25" ry="5.27" transform="translate(-30.35 106.32) rotate(-21.13)"/><ellipse class="cls-16" cx="271.36" cy="145.52" rx="9.15" ry="5.32"/><ellipse class="cls-16" cx="268.25" cy="149.56" rx="5.27" ry="9.25" transform="translate(34.56 346.03) rotate(-68.87)"/><ellipse class="cls-16" cx="266.5" cy="153.34" rx="5.14" ry="9.48" transform="translate(-20.98 255.7) rotate(-49.33)"/><ellipse class="cls-16" cx="263.76" cy="156.35" rx="4.99" ry="9.76" transform="matrix(0.85, -0.53, 0.53, 0.85, -40.3, 162.14)"/><ellipse class="cls-16" cx="260.31" cy="158.27" rx="4.89" ry="9.96" transform="translate(-30.34 75.49) rotate(-15.5)"/><ellipse class="cls-16" cx="258.99" cy="159.09" rx="4.85" ry="10.04"/><ellipse class="cls-16" cx="252.67" cy="158.27" rx="9.96" ry="4.89" transform="translate(35.11 359.59) rotate(-74.5)"/><ellipse class="cls-16" cx="249.22" cy="156.35" rx="9.76" ry="4.99" transform="translate(-12.28 286.33) rotate(-58.29)"/><ellipse class="cls-16" cx="246.49" cy="153.34" rx="9.48" ry="5.14" transform="matrix(0.76, -0.65, 0.65, 0.76, -37.9, 197.81)"/><ellipse class="cls-16" cx="244.73" cy="149.56" rx="9.25" ry="5.27" transform="translate(-34.96 98.41) rotate(-21.13)"/><ellipse class="cls-16" cx="246.62" cy="145.52" rx="9.15" ry="5.32"/><ellipse class="cls-16" cx="244.73" cy="141.18" rx="5.27" ry="9.25" transform="translate(27.34 318.73) rotate(-68.87)"/><ellipse class="cls-16" cx="246.49" cy="137.39" rx="5.14" ry="9.48" transform="translate(-15.86 234.97) rotate(-49.33)"/><ellipse class="cls-16" cx="249.22" cy="134.39" rx="4.99" ry="9.76" transform="translate(-30.93 151.22) rotate(-31.71)"/><ellipse class="cls-16" cx="252.67" cy="132.46" rx="4.89" ry="9.96" transform="translate(-23.71 72.51) rotate(-15.5)"/><ellipse class="cls-17" cx="258.99" cy="145.52" rx="11.03" ry="9.25"/><path class="cls-12" d="M425.91,264a1.48,1.48,0,0,0-.63-.92c-1.14-.76-2.64-2.18-4.14-1.93l-.17,0a12.67,12.67,0,0,0-9.19-.17c-3.75,1.43-6.08,4.72-9.2,7,.3-11-5.56-21.35-11.09-30.63a1.49,1.49,0,0,0-2.57,1.51c8.23,13.8,16.09,29.63,4.73,44.07-.66.84-1.29,1.7-1.89,2.56a9,9,0,0,0-.7-1.56c-1.7-2.92-4.65-5.19-7.79-7.18a8,8,0,0,0-7.26-4.69,1.44,1.44,0,0,0-.43.06c-1.48-.55-2.68,1.75-1.19,2.73,1.08.7,3.67,2.17,6.41,4a12.18,12.18,0,0,1,.47,4.55c-.14,1.88-1,4.05-.54,5.94.68,2.62,3.9,3.78,6.3,4.51a39.59,39.59,0,0,0-2.86,22.23c.28,1.89,3.15,1.08,2.87-.79a37.42,37.42,0,0,1,3.32-22.18,7,7,0,0,0,1.6-2.88c3.33-5.35,8.08-9.57,9.72-15.9.21-.81.38-1.62.52-2.42,3.63-.22,7.57.68,11-.66A14,14,0,0,0,416.8,269c2.8-2.2,5.59-2.31,8.95-2.06C427.6,267.05,427.64,264.27,425.91,264ZM386,285.62v-.15l.06.06Zm-1.28-3.88a1.78,1.78,0,0,0-.39.07v-.39ZM407,269.08l-.88,0,.91-.78A1.4,1.4,0,0,0,407,269.08Zm5.36-.83a8,8,0,0,1,.59-.67l.88-.21A11.43,11.43,0,0,1,412.31,268.25Z" transform="translate(2.5 0.15)"/><ellipse class="cls-13" cx="391.82" cy="218.55" rx="5.32" ry="10.04"/><ellipse class="cls-13" cx="385.13" cy="219.06" rx="5.32" ry="10.04" transform="translate(-46.34 129.88) rotate(-18)"/><ellipse class="cls-13" cx="381.34" cy="220.99" rx="5.32" ry="10.04" transform="translate(-54.56 266.5) rotate(-36)"/><ellipse class="cls-13" cx="378.34" cy="223.99" rx="5.32" ry="10.04" transform="translate(-22.75 398.57) rotate(-54)"/><ellipse class="cls-13" cx="376.41" cy="227.77" rx="5.32" ry="10.04" transform="translate(45.97 515.53) rotate(-72)"/><ellipse class="cls-13" cx="378.25" cy="232.12" rx="10.04" ry="5.32"/><ellipse class="cls-13" cx="376.41" cy="236.16" rx="10.04" ry="5.32" transform="translate(-52.05 128.03) rotate(-18)"/><ellipse class="cls-13" cx="378.34" cy="239.94" rx="10.04" ry="5.32" transform="translate(-66.28 268.36) rotate(-36)"/><ellipse class="cls-13" cx="381.34" cy="242.94" rx="10.04" ry="5.32" transform="translate(-36.85 408.81) rotate(-54)"/><ellipse class="cls-13" cx="385.13" cy="244.87" rx="10.04" ry="5.32" transform="translate(35.73 535.63) rotate(-72)"/><ellipse class="cls-13" cx="391.82" cy="245.69" rx="5.32" ry="10.04"/><ellipse class="cls-13" cx="393.51" cy="244.87" rx="5.32" ry="10.04" transform="translate(-53.91 133.74) rotate(-18)"/><ellipse class="cls-13" cx="397.29" cy="242.94" rx="5.32" ry="10.04" transform="translate(-64.42 280.07) rotate(-36)"/><ellipse class="cls-13" cx="400.3" cy="239.94" rx="5.32" ry="10.04" transform="translate(-26.61 422.91) rotate(-54)"/><ellipse class="cls-13" cx="402.22" cy="236.16" rx="5.32" ry="10.04" transform="translate(55.83 545.87) rotate(-72)"/><ellipse class="cls-13" cx="405.39" cy="232.12" rx="10.04" ry="5.32"/><ellipse class="cls-13" cx="402.22" cy="227.77" rx="10.04" ry="5.32" transform="translate(-48.2 135.59) rotate(-18)"/><ellipse class="cls-13" cx="400.3" cy="223.99" rx="10.04" ry="5.32" transform="translate(-52.71 278.22) rotate(-36)"/><ellipse class="cls-13" cx="397.29" cy="220.99" rx="10.04" ry="5.32" transform="translate(-12.51 412.66) rotate(-54)"/><ellipse class="cls-13" cx="393.51" cy="219.06" rx="10.04" ry="5.32" transform="translate(66.07 525.77) rotate(-72)"/><ellipse class="cls-14" cx="391.82" cy="232.12" rx="12.1" ry="9.25"/><path class="cls-18" d="M76.4,177.37a1.51,1.51,0,0,1,.58-.93c1-.76,2.38-2.18,3.74-1.93l.16.05a10.44,10.44,0,0,1,8.31-.18c3.41,1.43,5.51,4.72,8.34,7.05-.28-11,5-21.35,10-30.62.89-1.65,3.22-.15,2.33,1.5-7.45,13.81-14.56,29.63-4.28,44.07.6.85,1.17,1.7,1.71,2.57a9.65,9.65,0,0,1,.64-1.56c1.53-2.92,4.21-5.19,7-7.18a7.31,7.31,0,0,1,6.59-4.7,1.51,1.51,0,0,1,.38.06c1.34-.55,2.43,1.76,1.08,2.73-1,.71-3.32,2.17-5.8,4a13.33,13.33,0,0,0-.43,4.56c.13,1.88.93,4,.48,5.93-.61,2.62-3.52,3.78-5.69,4.52a43.57,43.57,0,0,1,2.59,22.22c-.26,1.89-2.86,1.09-2.6-.79a40.89,40.89,0,0,0-3-22.17,7.16,7.16,0,0,1-1.44-2.89c-3-5.34-7.32-9.56-8.81-15.9-.19-.81-.35-1.61-.47-2.41-3.28-.23-6.85.67-10-.67a12.21,12.21,0,0,1-3.23-2.32c-2.53-2.21-5.06-2.31-8.1-2.06C74.88,180.45,74.84,177.67,76.4,177.37ZM112.57,199c0-.05,0-.1,0-.15s0,0,0,.05Zm1.15-3.88a1.53,1.53,0,0,1,.36.07v-.39ZM93.57,182.49l.8,0-.83-.78A1.63,1.63,0,0,1,93.57,182.49Zm-4.86-.84c-.17-.24-.35-.47-.52-.67l-.81-.2A11.24,11.24,0,0,0,88.71,181.65Z" transform="translate(2.5 0.15)"/><ellipse class="cls-19" cx="112.03" cy="131.95" rx="4.82" ry="10.04"/><ellipse class="cls-19" cx="113.33" cy="132.46" rx="9.96" ry="4.86" transform="translate(-41.9 206.85) rotate(-74.66)"/><ellipse class="cls-19" cx="116.75" cy="134.39" rx="9.74" ry="4.97" transform="translate(-56.3 164.12) rotate(-58.58)"/><ellipse class="cls-19" cx="119.47" cy="137.39" rx="9.45" ry="5.12" transform="translate(-58.34 112.28) rotate(-41.02)"/><ellipse class="cls-19" cx="121.22" cy="141.18" rx="9.19" ry="5.26" transform="translate(-40.62 54.06) rotate(-21.38)"/><ellipse class="cls-19" cx="124.32" cy="145.52" rx="9.09" ry="5.32"/><ellipse class="cls-19" cx="121.22" cy="149.56" rx="5.26" ry="9.19" transform="translate(-59.74 208.06) rotate(-68.62)"/><ellipse class="cls-19" cx="119.47" cy="153.34" rx="5.12" ry="9.45" transform="matrix(0.66, -0.75, 0.75, 0.66, -72.14, 143.01)"/><ellipse class="cls-19" cx="116.75" cy="156.35" rx="4.97" ry="9.74" transform="translate(-61.88 83.94) rotate(-31.42)"/><ellipse class="cls-19" cx="113.33" cy="158.27" rx="4.86" ry="9.96" transform="translate(-35.34 35.78) rotate(-15.34)"/><ellipse class="cls-19" cx="112.03" cy="159.09" rx="4.82" ry="10.04"/><ellipse class="cls-19" cx="105.74" cy="158.27" rx="9.96" ry="4.86" transform="translate(-72.37 218.51) rotate(-74.66)"/><ellipse class="cls-19" cx="102.31" cy="156.35" rx="9.74" ry="4.97" transform="translate(-81.95 162.3) rotate(-58.58)"/><ellipse class="cls-19" cx="99.59" cy="153.34" rx="9.45" ry="5.12" transform="translate(-73.69 103.15) rotate(-41.02)"/><ellipse class="cls-19" cx="97.85" cy="149.56" rx="9.19" ry="5.26" transform="translate(-45.29 46.12) rotate(-21.38)"/><ellipse class="cls-19" cx="99.75" cy="145.52" rx="9.09" ry="5.32"/><ellipse class="cls-19" cx="97.85" cy="141.18" rx="5.26" ry="9.19" transform="translate(-66.78 180.98) rotate(-68.62)"/><ellipse class="cls-19" cx="99.59" cy="137.39" rx="5.12" ry="9.45" transform="translate(-66.93 122.53) rotate(-48.98)"/><ellipse class="cls-19" cx="102.31" cy="134.39" rx="4.97" ry="9.74" transform="translate(-52.56 73.19) rotate(-31.42)"/><ellipse class="cls-19" cx="105.74" cy="132.46" rx="4.86" ry="9.96" transform="translate(-28.78 32.85) rotate(-15.34)"/><ellipse class="cls-20" cx="112.03" cy="145.52" rx="10.95" ry="9.25"/><path class="cls-21" d="M167.64,281.53a1,1,0,0,0-.45-.61c-.8-.5-1.85-1.44-2.9-1.27l-.12,0a9.49,9.49,0,0,0-6.46-.12c-2.64.94-4.27,3.11-6.46,4.64.21-7.22-3.91-14.06-7.79-20.16-.69-1.08-2.5-.1-1.8,1,5.78,9.09,11.29,19.51,3.32,29-.47.55-.91,1.12-1.33,1.68a5.35,5.35,0,0,0-.5-1,15.5,15.5,0,0,0-5.46-4.73,5.7,5.7,0,0,0-5.11-3.09,1.36,1.36,0,0,0-.3,0,1,1,0,0,0-.83,1.8c.75.46,2.57,1.42,4.5,2.63a7.51,7.51,0,0,1,.33,3c-.1,1.24-.72,2.67-.38,3.91.48,1.72,2.74,2.49,4.42,3a24.71,24.71,0,0,0-2,14.63c.2,1.25,2.22.72,2-.52a23.27,23.27,0,0,1,2.33-14.6,4.36,4.36,0,0,0,1.12-1.9c2.35-3.51,5.68-6.3,6.84-10.47.15-.53.26-1.06.36-1.59,2.55-.14,5.32.45,7.76-.44a9.71,9.71,0,0,0,2.5-1.53c2-1.45,3.93-1.52,6.28-1.35C168.82,283.56,168.85,281.73,167.64,281.53Zm-28.06,14.26v-.1l0,0Zm-.9-2.56a1.28,1.28,0,0,0-.27,0,2.26,2.26,0,0,0,0-.26Zm15.64-8.33-.62,0,.64-.51A.91.91,0,0,0,154.32,284.9Zm3.77-.55a4.35,4.35,0,0,1,.41-.44l.62-.14A9.4,9.4,0,0,1,158.09,284.35Z" transform="translate(2.5 0.15)"/><ellipse class="cls-22" cx="144.43" cy="251.67" rx="3.74" ry="6.61"/><ellipse class="cls-22" cx="138.99" cy="251.96" rx="3.71" ry="6.66" transform="translate(-75.63 63.27) rotate(-20.1)"/><ellipse class="cls-22" cx="136.33" cy="253.23" rx="3.65" ry="6.77" transform="translate(-126.92 143.43) rotate(-39.23)"/><ellipse class="cls-22" cx="134.22" cy="255.21" rx="3.58" ry="6.91" transform="translate(-150.43 229.13) rotate(-57.04)"/><ellipse class="cls-22" cx="132.87" cy="257.7" rx="3.52" ry="7.01" transform="matrix(0.28, -0.96, 0.96, 0.28, -149.17, 313.53)"/><ellipse class="cls-22" cx="134.9" cy="260.61" rx="7.05" ry="3.5"/><ellipse class="cls-22" cx="132.87" cy="263.22" rx="7.01" ry="3.52" transform="translate(-65.67 47.68) rotate(-16.2)"/><ellipse class="cls-22" cx="134.22" cy="265.71" rx="6.91" ry="3.58" transform="translate(-120.46 115.95) rotate(-32.96)"/><ellipse class="cls-22" cx="136.33" cy="267.69" rx="6.77" ry="3.65" transform="translate(-154.75 204.17) rotate(-50.77)"/><ellipse class="cls-22" cx="138.99" cy="268.95" rx="6.66" ry="3.71" transform="translate(-158.85 307.18) rotate(-69.9)"/><ellipse class="cls-22" cx="144.43" cy="269.54" rx="3.74" ry="6.61"/><ellipse class="cls-22" cx="144.88" cy="268.95" rx="3.71" ry="6.66" transform="translate(-81.12 66.33) rotate(-20.1)"/><ellipse class="cls-22" cx="147.54" cy="267.69" rx="3.65" ry="6.77" transform="translate(-133.53 153.77) rotate(-39.23)"/><ellipse class="cls-22" cx="149.64" cy="265.71" rx="3.58" ry="6.91" transform="translate(-152.21 246.85) rotate(-57.04)"/><ellipse class="cls-22" cx="151" cy="263.22" rx="3.52" ry="7.01" transform="translate(-141.4 334.92) rotate(-73.8)"/><ellipse class="cls-22" cx="153.96" cy="260.61" rx="7.05" ry="3.5"/><ellipse class="cls-22" cx="151" cy="257.7" rx="7.01" ry="3.52" transform="translate(-63.41 52.52) rotate(-16.2)"/><ellipse class="cls-22" cx="149.64" cy="255.21" rx="6.91" ry="3.58" transform="translate(-112.26 122.65) rotate(-32.96)"/><ellipse class="cls-22" cx="147.54" cy="253.23" rx="6.77" ry="3.65" transform="translate(-139.43 207.54) rotate(-50.77)"/><ellipse class="cls-22" cx="144.88" cy="251.96" rx="6.66" ry="3.71" transform="translate(-139.03 301.56) rotate(-69.9)"/><ellipse class="cls-23" cx="144.43" cy="260.61" rx="8.5" ry="6.09"/><path class="cls-24" d="M23.69,237.48a.88.88,0,0,1,.43-.56c.78-.46,1.81-1.33,2.84-1.17l.11,0a9.71,9.71,0,0,1,6.3-.1c2.58.87,4.17,2.87,6.32,4.29-.21-6.68,3.81-13,7.59-18.65.68-1,2.44-.09,1.77.92-5.64,8.4-11,18-3.24,26.83q.67.78,1.29,1.56a5.71,5.71,0,0,1,.49-1,15.1,15.1,0,0,1,5.33-4.37,5.61,5.61,0,0,1,5-2.86,1.35,1.35,0,0,1,.29,0,.93.93,0,0,1,.81,1.66c-.74.43-2.51,1.32-4.39,2.44a6.75,6.75,0,0,0-.33,2.77c.1,1.15.71,2.47.37,3.62-.46,1.59-2.67,2.3-4.31,2.75a21.71,21.71,0,0,1,2,13.53c-.2,1.15-2.16.66-2-.48a20.53,20.53,0,0,0-2.28-13.51A4.12,4.12,0,0,1,47,253.51c-2.29-3.26-5.54-5.83-6.67-9.69a13.05,13.05,0,0,1-.35-1.47c-2.49-.13-5.19.42-7.57-.4a9.24,9.24,0,0,1-2.44-1.42c-1.93-1.34-3.84-1.4-6.14-1.25A.9.9,0,1,1,23.69,237.48Zm27.38,13.19v-.09l0,0A.1.1,0,0,1,51.07,250.67Zm.88-2.36.27,0v-.23ZM36.69,240.6l.6,0-.62-.47A.82.82,0,0,1,36.69,240.6ZM33,240.09c-.13-.15-.27-.28-.4-.41l-.61-.12A8.11,8.11,0,0,0,33,240.09Z" transform="translate(2.5 0.15)"/><ellipse class="cls-25" cx="51.28" cy="209.89" rx="3.65" ry="6.11"/><ellipse class="cls-25" cx="51.65" cy="210.14" rx="6.2" ry="3.6" transform="translate(-159.96 178.95) rotate(-67.86)"/><ellipse class="cls-25" cx="54.25" cy="211.32" rx="6.41" ry="3.48" transform="translate(-136.55 110.31) rotate(-47.98)"/><ellipse class="cls-25" cx="56.3" cy="213.14" rx="6.64" ry="3.36" transform="translate(-98.14 58.48) rotate(-30.59)"/><ellipse class="cls-25" cx="57.63" cy="215.45" rx="6.82" ry="3.27" transform="translate(-50.95 22.21) rotate(-14.9)"/><ellipse class="cls-25" cx="60.58" cy="218.15" rx="6.88" ry="3.24"/><ellipse class="cls-25" cx="57.63" cy="220.55" rx="3.27" ry="6.82" transform="translate(-167.83 219.7) rotate(-75.1)"/><ellipse class="cls-25" cx="56.3" cy="222.86" rx="3.36" ry="6.64" transform="translate(-161.69 158.05) rotate(-59.41)"/><ellipse class="cls-25" cx="54.25" cy="224.68" rx="3.48" ry="6.41" transform="translate(-133.96 94.23) rotate(-42.02)"/><ellipse class="cls-25" cx="51.65" cy="225.86" rx="3.6" ry="6.2" transform="translate(-78.81 36.27) rotate(-22.14)"/><ellipse class="cls-25" cx="51.28" cy="226.41" rx="3.65" ry="6.11"/><ellipse class="cls-25" cx="45.9" cy="225.86" rx="6.2" ry="3.6" transform="translate(-178.1 183.41) rotate(-67.86)"/><ellipse class="cls-25" cx="43.31" cy="224.68" rx="6.41" ry="3.48" transform="translate(-150.1 106.61) rotate(-47.98)"/><ellipse class="cls-25" cx="41.25" cy="222.86" rx="6.64" ry="3.36" transform="translate(-105.18 52.17) rotate(-30.59)"/><ellipse class="cls-25" cx="39.93" cy="220.55" rx="6.82" ry="3.27" transform="translate(-52.86 17.83) rotate(-14.9)"/><ellipse class="cls-25" cx="41.97" cy="218.15" rx="6.88" ry="3.24"/><ellipse class="cls-25" cx="39.93" cy="215.45" rx="3.27" ry="6.82" transform="translate(-176.04 198.8) rotate(-75.1)"/><ellipse class="cls-25" cx="41.25" cy="213.14" rx="3.36" ry="6.64" transform="translate(-160.72 140.32) rotate(-59.41)"/><ellipse class="cls-25" cx="43.31" cy="211.32" rx="3.48" ry="6.41" transform="translate(-127.82 83.47) rotate(-42.02)"/><ellipse class="cls-25" cx="45.9" cy="210.14" rx="3.6" ry="6.2" transform="translate(-73.31 32.94) rotate(-22.14)"/><ellipse class="cls-26" cx="51.28" cy="218.15" rx="8.3" ry="5.63"/><path class="cls-27" d="M256.13,282.06a1.11,1.11,0,0,1,.55-.66c1-.54,2.29-1.55,3.58-1.37l.15,0a13.18,13.18,0,0,1,8-.12c3.25,1,5.26,3.35,8,5-.26-7.79,4.81-15.16,9.6-21.74.85-1.17,3.08-.1,2.22,1.07-7.12,9.8-13.92,21-4.09,31.29.58.59,1.12,1.2,1.64,1.82a6.06,6.06,0,0,1,.61-1.11c1.46-2.08,4-3.69,6.73-5.1a7.18,7.18,0,0,1,6.3-3.33,2.1,2.1,0,0,1,.37,0c1.27-.39,2.32,1.25,1,1.94-.93.5-3.17,1.54-5.54,2.84a7.08,7.08,0,0,0-.41,3.23c.12,1.34.89,2.88.46,4.22-.58,1.86-3.37,2.68-5.45,3.2a23.59,23.59,0,0,1,2.48,15.78c-.24,1.34-2.73.77-2.48-.56a22.36,22.36,0,0,0-2.88-15.74,4.79,4.79,0,0,1-1.38-2.05c-2.89-3.8-7-6.79-8.42-11.29-.18-.57-.33-1.15-.45-1.71-3.14-.16-6.55.48-9.56-.48a12.3,12.3,0,0,1-3.08-1.65c-2.42-1.56-4.84-1.64-7.74-1.46C254.68,284.25,254.64,282.27,256.13,282.06Zm34.58,15.37v-.1l0,0Zm1.11-2.75a2,2,0,0,1,.34.05v-.28Zm-19.27-9,.76,0-.79-.56A.83.83,0,0,1,272.55,285.69Zm-4.64-.59q-.26-.25-.51-.48l-.77-.14A10.81,10.81,0,0,0,267.91,285.1Z" transform="translate(2.5 0.15)"/><ellipse class="cls-28" cx="290.31" cy="249.86" rx="4.61" ry="7.13"/><ellipse class="cls-28" cx="291.44" cy="250.18" rx="7.32" ry="4.48" transform="translate(-57.86 404.48) rotate(-64.3)"/><ellipse class="cls-28" cx="294.72" cy="251.55" rx="7.77" ry="4.23" transform="translate(-89.61 274) rotate(-43.78)"/><ellipse class="cls-28" cx="297.32" cy="253.68" rx="8.23" ry="3.99" transform="translate(-80.89 165.46) rotate(-27.4)"/><ellipse class="cls-28" cx="298.98" cy="256.36" rx="8.57" ry="3.83" transform="translate(-48.25 75.4) rotate(-13.23)"/><ellipse class="cls-28" cx="302.06" cy="259.49" rx="8.69" ry="3.78"/><ellipse class="cls-28" cx="298.98" cy="262.32" rx="3.83" ry="8.57" transform="translate(-22.31 493.46) rotate(-76.77)"/><ellipse class="cls-28" cx="297.32" cy="265" rx="3.99" ry="8.23" transform="translate(-72.29 407.14) rotate(-62.6)"/><ellipse class="cls-28" cx="294.72" cy="267.13" rx="4.23" ry="7.77" transform="translate(-99.57 295.24) rotate(-46.22)"/><ellipse class="cls-28" cx="291.44" cy="268.5" rx="4.48" ry="7.32" transform="translate(-85.1 153.07) rotate(-25.7)"/><ellipse class="cls-28" cx="290.31" cy="269.12" rx="4.61" ry="7.13"/><ellipse class="cls-28" cx="284.18" cy="268.5" rx="7.32" ry="4.48" transform="translate(-78.48 408.31) rotate(-64.3)"/><ellipse class="cls-28" cx="280.91" cy="267.13" rx="7.77" ry="4.23" transform="translate(-104.23 268.78) rotate(-43.78)"/><ellipse class="cls-28" cx="278.31" cy="265" rx="8.23" ry="3.99" transform="translate(-88.24 157.98) rotate(-27.4)"/><ellipse class="cls-28" cx="276.64" cy="262.32" rx="8.57" ry="3.83" transform="translate(-50.2 70.45) rotate(-13.23)"/><ellipse class="cls-28" cx="278.57" cy="259.49" rx="8.69" ry="3.78"/><ellipse class="cls-28" cx="276.64" cy="256.36" rx="3.83" ry="8.57" transform="translate(-33.74 467.12) rotate(-76.77)"/><ellipse class="cls-28" cx="278.31" cy="253.68" rx="3.99" ry="8.23" transform="translate(-72.49 384.15) rotate(-62.6)"/><ellipse class="cls-28" cx="280.91" cy="251.55" rx="4.23" ry="7.77" transform="translate(-92.57 280.47) rotate(-46.22)"/><ellipse class="cls-28" cx="284.18" cy="250.18" rx="4.48" ry="7.32" transform="translate(-77.87 148.11) rotate(-25.7)"/><ellipse class="cls-29" cx="290.31" cy="259.49" rx="10.47" ry="6.57"/></svg>