<svg id="Layer_1" data-name="Layer 1" xmlns="http://www.w3.org/2000/svg" viewBox="0 0 371.35 92.66"><defs><style>.cls-1{fill:#39b54a;stroke-width:6.19px;}.cls-1,.cls-2,.cls-3{stroke:#000;stroke-miterlimit:10;}.cls-2{fill:#e6e6e6;stroke-width:5.37px;}.cls-3,.cls-4{fill:#ed1c24;}.cls-3{stroke-width:4.38px;}</style></defs><title>greenfish</title><path class="cls-1" d="M458.66,111.57,358.7,138c-18.92-16.69-69.36-28.64-128.61-28.64-75.44,0-136.6,19.36-136.6,43.24s61.16,43.24,136.6,43.24c59.25,0,109.69-12,128.61-28.65l100,26.43Z" transform="translate(-90.4 -106.27)"/><ellipse class="cls-2" cx="63.82" cy="36.53" rx="18.38" ry="8.36"/><ellipse class="cls-3" cx="55.46" cy="36.96" rx="3.19" ry="2.74"/><path class="cls-4" d="M114.36,170.52a55.4,55.4,0,0,0,16.71-.33,119.69,119.69,0,0,0,14.78-3.61" transform="translate(-90.4 -106.27)"/><path d="M114.36,177.77c11.36,1.5,22.56-1.05,33.42-4.21,8.93-2.6,5.13-16.58-3.85-14-9.78,2.85-19.34,5-29.57,3.69-3.91-.51-7.2,3.7-7.24,7.24-.05,4.34,3.38,6.73,7.24,7.25Z" transform="translate(-90.4 -106.27)"/></svg>