<svg id="Layer_1" data-name="Layer 1" xmlns="http://www.w3.org/2000/svg" viewBox="0 0 263.36 197.71"><defs><style>.cls-1{fill:#4d4d4d;}.cls-1,.cls-2,.cls-3{stroke:#000;stroke-miterlimit:10;stroke-width:3px;}.cls-2{fill:#999;}.cls-3{fill:#65c8d0;}.cls-4{fill:#08f;}.cls-5{fill:#5f45ff;}.cls-6{fill:#000da2;}</style></defs><title>hangninglight</title><rect class="cls-1" x="129.29" y="1.5" width="4.78" height="100.8"/><ellipse class="cls-2" cx="131.68" cy="116.21" rx="22.11" ry="20.12"/><path class="cls-3" d="M284.66,220.23,181.1,155.69a79.9,79.9,0,0,1-42.08,0L35.46,220.23c-3.62,1.1-5.58,2.27-5.58,3.48,0,6.62,58.28,12,130.18,12s130.18-5.36,130.18-12C290.24,222.5,288.28,221.33,284.66,220.23Z" transform="translate(-28.38 -39.48)"/><path d="M63.64,215.83c8,.5,13,5.24,16.87,11.72,5.35,8.9,13.36,1.83,19.82-1.59,14.89-7.9,34.15-8.55,47.59,2.69,2.73,2.27,4.71,5.68,8,7.14,4.06,1.8,7.43.06,10.51-2.65,6.2-5.48,12.6-9.91,20.68-12.25a41.75,41.75,0,0,1,42.68,11.75c1.62,1.78,5.24,2.46,7.27.94,4.1-3.06,5.37-6.72,8-10.88a14,14,0,0,1,11.4-6.46c7.69-.34,7.73-12.34,0-12A26.77,26.77,0,0,0,240.59,210a25.84,25.84,0,0,0-5.5,6c-1.31,2-2.11,5.74-4.08,7.21l7.27.94a53.06,53.06,0,0,0-40.1-17,60.05,60.05,0,0,0-31.59,10.42c-1.74,1.21-3.44,2.51-5.06,3.86-1.07.9-2.78,3.23-4.17,3.43l4.63.6c-2.62-1.29-5-4.88-7.4-6.73a46.27,46.27,0,0,0-8.59-5.43,53.32,53.32,0,0,0-19.14-5.1,56.78,56.78,0,0,0-21.38,2.65,69.69,69.69,0,0,0-9.52,3.9c-1.7.84-3.35,1.78-5,2.73-1.09.65-2.18,1.29-3.26,2-1.93,1-2.2,1.25-.81.67l4.24,1.76c-1.67-1.47-2.77-4.71-4.27-6.53a31.69,31.69,0,0,0-23.23-11.47c-7.71-.49-7.68,11.51,0,12Z" transform="translate(-28.38 -39.48)"/><path class="cls-4" d="M86,204.75c7.72,0,7.73-12,0-12s-7.74,12,0,12Z" transform="translate(-28.38 -39.48)"/><path class="cls-4" d="M122.21,204.75c7.72,0,7.74-12,0-12s-7.73,12,0,12Z" transform="translate(-28.38 -39.48)"/><path class="cls-4" d="M193.53,204.35c7.72,0,7.73-12,0-12s-7.74,12,0,12Z" transform="translate(-28.38 -39.48)"/><path class="cls-4" d="M234.56,203.55c7.72,0,7.74-12,0-12s-7.73,12,0,12Z" transform="translate(-28.38 -39.48)"/><path class="cls-5" d="M160.86,216.7c7.72,0,7.73-12,0-12s-7.74,12,0,12Z" transform="translate(-28.38 -39.48)"/><path class="cls-5" d="M230.58,214.31c7.72,0,7.73-12,0-12s-7.74,12,0,12Z" transform="translate(-28.38 -39.48)"/><path class="cls-5" d="M92.33,213.12c7.72,0,7.73-12,0-12s-7.73,12,0,12Z" transform="translate(-28.38 -39.48)"/><path class="cls-6" d="M197.11,232.24c7.72,0,7.74-12,0-12s-7.73,12,0,12Z" transform="translate(-28.38 -39.48)"/><path class="cls-6" d="M264.84,230.25c7.72,0,7.73-12,0-12s-7.73,12,0,12Z" transform="translate(-28.38 -39.48)"/><path class="cls-6" d="M125.8,234.23c7.72,0,7.73-12,0-12s-7.74,12,0,12Z" transform="translate(-28.38 -39.48)"/><path class="cls-6" d="M60.06,228.65c7.72,0,7.73-12,0-12s-7.73,12,0,12Z" transform="translate(-28.38 -39.48)"/><path class="cls-6" d="M145.32,199.17c7.72,0,7.73-12,0-12s-7.74,12,0,12Z" transform="translate(-28.38 -39.48)"/><path class="cls-6" d="M173.61,198.77c7.72,0,7.73-12,0-12s-7.74,12,0,12Z" transform="translate(-28.38 -39.48)"/><path class="cls-6" d="M213.45,198.37c7.72,0,7.73-12,0-12s-7.74,12,0,12Z" transform="translate(-28.38 -39.48)"/><path class="cls-6" d="M105.88,196.38c7.72,0,7.73-12,0-12s-7.74,12,0,12Z" transform="translate(-28.38 -39.48)"/></svg>