<svg id="Layer_1" data-name="Layer 1" xmlns="http://www.w3.org/2000/svg" xmlns:xlink="http://www.w3.org/1999/xlink" viewBox="0 0 592.89 508.58"><defs><style>.cls-1{fill:aqua;stroke-width:2.1px;}.cls-1,.cls-10,.cls-11,.cls-12,.cls-13,.cls-14,.cls-15,.cls-16,.cls-17,.cls-18,.cls-19,.cls-2,.cls-20,.cls-3,.cls-5,.cls-6,.cls-7,.cls-8,.cls-9{stroke:#000;stroke-miterlimit:10;}.cls-2{fill:#009245;stroke-width:3.33px;}.cls-3{fill:#754c24;stroke-width:2.88px;}.cls-4{fill:url(#linear-gradient);}.cls-10,.cls-12,.cls-13,.cls-5,.cls-7{fill:#a67c52;}.cls-5{stroke-width:2.74px;}.cls-11,.cls-14,.cls-20,.cls-6,.cls-8,.cls-9{fill:#006837;}.cls-6{stroke-width:5.09px;}.cls-7{stroke-width:2.12px;}.cls-8{stroke-width:2.76px;}.cls-9{stroke-width:5.52px;}.cls-10{stroke-width:4.13px;}.cls-11{stroke-width:4.58px;}.cls-12{stroke-width:3.43px;}.cls-13{stroke-width:3.51px;}.cls-14{stroke-width:3.7px;}.cls-15,.cls-16,.cls-17,.cls-18,.cls-19{fill:#999;}.cls-15{stroke-width:3.54px;}.cls-16{stroke-width:1.83px;}.cls-17{stroke-width:1.39px;}.cls-18{stroke-width:4px;}.cls-19{stroke-width:2.34px;}.cls-20{stroke-width:4.41px;}</style><linearGradient id="linear-gradient" x1="36.6" y1="267.79" x2="179.63" y2="267.79" gradientTransform="translate(-69.93 -80.02) scale(1.1 1.38)" gradientUnits="userSpaceOnUse"><stop offset="0" stop-color="#009245"/><stop offset="0.04" stop-color="#007a39"/><stop offset="0.1" stop-color="#00592a"/><stop offset="0.18" stop-color="#003d1d"/><stop offset="0.26" stop-color="#002712"/><stop offset="0.35" stop-color="#00150a"/><stop offset="0.46" stop-color="#000904"/><stop offset="0.61" stop-color="#000201"/><stop offset="1"/></linearGradient></defs><title>headontrail</title><rect class="cls-1" x="90.06" y="5.83" width="500" height="143.41"/><rect class="cls-2" x="91.04" y="147.15" width="500" height="359.67"/><polygon class="cls-3" points="429.95 503.99 203.31 505 269.5 144 365.17 144.69 429.95 503.99"/><rect class="cls-4" x="-29.78" y="157.57" width="156.89" height="261.61" transform="translate(12.36 557.47) rotate(-144.61)"/><rect class="cls-5" x="227.08" y="197.85" width="54.9" height="120.08" rx="2.71"/><rect class="cls-6" x="181.25" y="2.54" width="168.03" height="214.69" rx="42.23"/><rect class="cls-7" x="91.04" y="294.29" width="27.84" height="141.26" rx="5.47"/><rect class="cls-8" x="90.06" y="100.71" width="50.44" height="209.7" rx="22.87"/><rect class="cls-9" x="325.28" y="1" width="173.59" height="244.38" rx="45.79" transform="translate(915.19 252.21) rotate(180)"/><rect class="cls-10" x="379.09" y="144.41" width="71.74" height="207.75" rx="10.65" transform="translate(920.96 502.4) rotate(180)"/><rect class="cls-11" x="379.09" y="99.77" width="119.78" height="244.38" rx="38.04" transform="translate(969 449.75) rotate(180)"/><rect class="cls-12" x="416.21" y="243.18" width="49.51" height="207.75" rx="8.85" transform="translate(972.98 699.94) rotate(180)"/><rect class="cls-13" x="448.11" y="293.25" width="51.89" height="207.75" rx="9.06" transform="translate(1039.15 800.07) rotate(180)"/><rect class="cls-14" x="409.2" y="149.84" width="90.8" height="209.7" rx="30.68" transform="translate(1000.24 515.2) rotate(180)"/><path class="cls-15" d="M115.42,425.91h19.21a11.79,11.79,0,0,1,11.79,11.79v.76a6.71,6.71,0,0,1-6.71,6.71H115.42a6.71,6.71,0,0,1-6.71-6.71v-5.84A6.71,6.71,0,0,1,115.42,425.91Z"/><path class="cls-16" d="M383.56,202.89h12.86a4.1,4.1,0,0,1,4.1,4.1v2.52A2.5,2.5,0,0,1,398,212H381.7a2.5,2.5,0,0,1-2.5-2.5v-2.26a4.35,4.35,0,0,1,4.35-4.35Z"/><path class="cls-16" d="M372.9,205.56h12.86a4.1,4.1,0,0,1,4.1,4.1v2.52a2.5,2.5,0,0,1-2.5,2.5H371a2.5,2.5,0,0,1-2.5-2.5v-2.26a4.35,4.35,0,0,1,4.35-4.35Z"/><path class="cls-17" d="M388,210.12h9.37a3.12,3.12,0,0,1,3.12,3.12v2.1a1.9,1.9,0,0,1-1.9,1.9h-12a1.9,1.9,0,0,1-1.9-1.9v-1.9a3.31,3.31,0,0,1,3.31-3.31Z"/><path class="cls-17" d="M227.12,349.33h9.37a3.12,3.12,0,0,1,3.12,3.12v2.1a1.9,1.9,0,0,1-1.9,1.9h-12a1.9,1.9,0,0,1-1.9-1.9v-1.9A3.31,3.31,0,0,1,227.12,349.33Z"/><path class="cls-17" d="M447.91,275.24h9.37a3.12,3.12,0,0,1,3.12,3.12v2.1a1.9,1.9,0,0,1-1.9,1.9h-12a1.9,1.9,0,0,1-1.9-1.9v-1.9a3.31,3.31,0,0,1,3.31-3.31Z"/><path class="cls-18" d="M477.41,392.35h7.38a13.32,13.32,0,0,1,13.32,13.32v3.69a7.58,7.58,0,0,1-7.58,7.58H468a7.58,7.58,0,0,1-7.58-7.58v0a17,17,0,0,1,17-17Z"/><path class="cls-19" d="M462,409.49h16.48a7.26,7.26,0,0,1,7.26,7.26v0a4.13,4.13,0,0,1-4.13,4.13H462a4.13,4.13,0,0,1-4.13-4.13v-3.13A4.13,4.13,0,0,1,462,409.49Z"/><path class="cls-20" d="M86.49,6.83H217.93a36.59,36.59,0,0,1,36.59,36.59v88a36.59,36.59,0,0,1-36.59,36.59H123.09a36.59,36.59,0,0,1-36.59-36.59V6.83A0,0,0,0,1,86.49,6.83Z"/><path class="cls-20" d="M394.45,6.83H448a20.76,20.76,0,0,1,20.76,20.76v103.7A36.77,36.77,0,0,1,432,168.06H333.6a32.9,32.9,0,0,1-32.9-32.9V100.58A93.75,93.75,0,0,1,394.45,6.83Z"/></svg>