<svg id="Layer_1" data-name="Layer 1" xmlns="http://www.w3.org/2000/svg" viewBox="0 0 384.5 396.19"><defs><style>.cls-1{fill:#b084b5;}.cls-10,.cls-2{fill:lime;}.cls-3{fill:#f6d0bf;}.cls-4{fill:#f2c1a9;}.cls-5{fill:#65c8d0;stroke-width:9px;}.cls-10,.cls-11,.cls-12,.cls-5,.cls-6,.cls-7,.cls-8,.cls-9{stroke:#000;stroke-miterlimit:10;}.cls-6{fill:#efddd4;}.cls-6,.cls-8{stroke-width:8px;}.cls-7{fill:#adcbce;stroke-width:7px;}.cls-8{fill:#b3b3b3;}.cls-9{fill:#ed1c24;stroke-width:3.84px;}.cls-10,.cls-11,.cls-12{stroke-width:8.14px;}.cls-11{fill:#ff0;}.cls-12{fill:#f0f;}</style></defs><title>hideaway</title><path class="cls-1" d="M356.4,317.79c1.78-50.94,5.57-118,58.4-143.5,24.49-11.85,54.7-10.3,80.9-6.46,25.55,3.73,53.7,13.15,66.43,37.56,15.59,29.89-2.78,64.6-16.78,91.12-5.4,10.24,10.13,19.35,15.55,9.09,15.24-28.89,31.07-61.22,22.42-94.72-8-30.83-36.47-49.61-65.82-57.06-16-4-32.77-5.86-49.21-6.4-15.75-.51-31.94.67-47.09,5.25-28.49,8.61-50.26,29.77-63.2,56.2-16.57,33.83-18.31,71.94-19.6,108.92-.41,11.58,17.59,11.57,18,0Z" transform="translate(-232.5 -147.31)"/><path class="cls-2" d="M326.28,323.85c-2-27.71-4.25-56.3,4.92-83,7.62-22.22,24.65-39,46.42-47.61,41.84-16.48,92.28-3.62,119.59,32.51a105.82,105.82,0,0,1,21.4,69.35c-.32,6.48,5.75,12,12,12,6.77,0,11.68-5.5,12-12,2.75-54.8-31.69-106.5-83-125.34-51.83-19-120-2-145.51,50.16-15.9,32.53-14.34,68.82-11.79,104,.46,6.46,5.18,12,12,12,6.13,0,12.47-5.5,12-12Z" transform="translate(-232.5 -147.31)"/><path class="cls-3" d="M367.17,368.73c16.45,16.3,43,12.85,63.95,10.23,23.79-3,46.41-11.54,65.49-26.21,5.13-3.95,7.87-10.33,4.31-16.42-3-5.05-11.25-8.28-16.42-4.31a114,114,0,0,1-52.81,22.84A205.56,205.56,0,0,1,403.43,357a45.68,45.68,0,0,1-11.31-1c-3.86-1-5.35-1.61-8-4.22-11-10.88-28,6.08-17,17Z" transform="translate(-232.5 -147.31)"/><path class="cls-4" d="M368,474.92c.92.09,4.22,2.48,6,3.73a63.76,63.76,0,0,0,8,5c7.54,3.77,15.54,5.4,23.85,6.35a244,244,0,0,0,47.27.9c30.05-2.49,59.23-13.47,77.11-38.87,3.73-5.31,1-13.35-4.3-16.42-6-3.51-12.68-1-16.42,4.3-14.17,20.14-40.74,26.54-64,27.44-13.53.53-28.15.71-41.53-1.66a39.72,39.72,0,0,1-16.62-6.92c-6.13-4.27-11.82-7.16-19.38-7.89-6.46-.61-12,6-12,12,0,7,5.52,11.39,12,12Z" transform="translate(-232.5 -147.31)"/><rect class="cls-5" x="4.5" y="143.69" width="156" height="248" rx="27"/><rect class="cls-6" x="224.5" y="245.69" width="156" height="146" rx="20.72"/><rect class="cls-7" x="224.5" y="99.69" width="156" height="146" rx="20.72"/><path d="M295.89,314.62l-13.54-.11-.13,15.65,13.53.11,0,4.23-32.36-.28,0-4.23,15.17.13.13-15.64-15.17-.14,0-4.17,32.35.28Z" transform="translate(-232.5 -147.31)"/><path d="M293,346.76a2.62,2.62,0,0,1,0-5.23,2.57,2.57,0,0,1,2.62,2.66A2.51,2.51,0,0,1,293,346.76Zm-29.72-5,23.23.2,0,4.22-23.23-.2Z" transform="translate(-232.5 -147.31)"/><path d="M297.11,373.39,269,373.15c-2.07,0-4.42,0-6,.14l0-3.8,4-.15v-.1a8.6,8.6,0,0,1-4.49-8c0-5.61,4.84-9.89,11.9-9.83,7.72,0,12.44,4.86,12.39,10.52,0,3.55-1.73,5.94-3.62,7V369l13.88.12ZM276.84,369a7.69,7.69,0,0,0,1.78-.18,6.21,6.21,0,0,0,4.95-6.05c0-4.37-3.78-7-8.92-7-4.7,0-8.61,2.23-8.65,6.79a6.37,6.37,0,0,0,5,6.24,7,7,0,0,0,1.82.2Z" transform="translate(-232.5 -147.31)"/><path d="M273.8,382.55c-5.72,0-8.1,3.67-8.14,7.9a15.33,15.33,0,0,0,1.15,6.44l-3,.69a18.78,18.78,0,0,1-1.38-7.74c.07-7.15,4.81-11.38,11.82-11.32s12.49,4.23,12.43,11c-.06,7.59-6.75,9.54-11,9.51a16.78,16.78,0,0,1-2-.16ZM276.71,395c2.69.07,6.88-1,6.92-5.8,0-4.27-3.88-6.18-6.81-6.54Z" transform="translate(-232.5 -147.31)"/><path d="M277.21,415.41l-3.12,0,.1-11.85,3.12,0Z" transform="translate(-232.5 -147.31)"/><path d="M262.51,433.09l2.93-.31v-.14a8.66,8.66,0,0,1-3.4-7.14c0-4.7,3.37-7.07,6.73-7.05,5.62.05,8.65,5.07,8.52,14.05h.48c1.92,0,5.38-.48,5.43-5.23a11.73,11.73,0,0,0-1.68-6.07l2.79-.93a14.38,14.38,0,0,1,2,7.65c-.06,7.1-4.92,8.79-9.58,8.75l-8.69-.08a34,34,0,0,0-5.57.34Zm11.87-.52c.13-4.61-.64-9.85-5.15-9.89a3.74,3.74,0,0,0-4.07,3.95,5.79,5.79,0,0,0,3.84,5.65,4.23,4.23,0,0,0,1.34.25Z" transform="translate(-232.5 -147.31)"/><path d="M285.65,444.86l-11.84,3c-2.6.65-5,1.25-7.41,1.66v.15c2.35.54,4.84,1.33,7.33,2.12l11.82,3.9,0,3.55-11.64,3.5c-2.8.84-5.25,1.49-7.61,2v.14a71.57,71.57,0,0,1,7.52,1.84l11.64,3.42,0,4.17-23.16-7.69,0-3.84,11.12-3.45a75.21,75.21,0,0,1,7.65-2v-.1a68.19,68.19,0,0,1-7.66-2.18l-11-3.83,0-3.84,23.29-6.81Z" transform="translate(-232.5 -147.31)"/><path d="M262,491l2.93-.31v-.15a8.68,8.68,0,0,1-3.4-7.13c0-4.71,3.38-7.08,6.74-7.05,5.61.05,8.64,5.07,8.52,14h.48c1.92,0,5.38-.48,5.42-5.24a11.57,11.57,0,0,0-1.68-6.06l2.79-.94a14.32,14.32,0,0,1,2,7.65c-.06,7.11-4.92,8.79-9.58,8.75l-8.69-.07a31.9,31.9,0,0,0-5.57.34Zm11.86-.53c.13-4.6-.64-9.84-5.15-9.88a3.74,3.74,0,0,0-4.07,3.95,5.8,5.8,0,0,0,3.84,5.65,4.24,4.24,0,0,0,1.35.25Z" transform="translate(-232.5 -147.31)"/><path d="M285.15,502.6l-13.77,5c-1.54.51-3.37,1.07-4.77,1.45v.09c1.39.45,3.16.94,4.84,1.53L285,515.37l0,4.46-16.5-6.48c-7.95-3.09-12-5.19-14.48-8.09a11.37,11.37,0,0,1-2.69-5.21l3.56-1a11.32,11.32,0,0,0,2,3.71,12.76,12.76,0,0,0,4.68,3.59,2.9,2.9,0,0,0,1,.35,3.7,3.7,0,0,0,1.11-.28L285.19,498Z" transform="translate(-232.5 -147.31)"/><rect class="cls-8" x="57.72" y="118.69" width="44.55" height="22" rx="6.28"/><rect class="cls-8" x="253.38" y="76.07" width="44.55" height="22" rx="6.28"/><rect class="cls-8" x="104.62" y="118.69" width="44.55" height="22" rx="6.28"/><rect class="cls-8" x="321.96" y="76.07" width="44.55" height="22" rx="6.28"/><rect class="cls-8" x="385.12" y="359.72" width="44.55" height="22" rx="6.28" transform="translate(545.62 -183.98) rotate(90)"/><rect class="cls-8" x="421.61" y="351.42" width="44.55" height="22" rx="6.28" transform="translate(573.8 -228.78) rotate(90)"/><rect class="cls-8" x="385.12" y="465.34" width="44.55" height="22" rx="6.28" transform="translate(651.23 -78.36) rotate(90)"/><rect class="cls-8" x="421.61" y="468.55" width="44.55" height="22" rx="6.28" transform="translate(690.93 -111.64) rotate(90)"/><rect class="cls-9" x="334" y="123.19" width="28.25" height="28.25" rx="10"/><rect class="cls-9" x="295.47" y="123.19" width="28.25" height="28.25" rx="10"/><rect class="cls-9" x="239.25" y="123.19" width="28.25" height="28.25" rx="10"/><rect class="cls-10" x="239.25" y="347.48" width="127.26" height="28.25" rx="14.12"/><rect class="cls-11" x="238.87" y="304.57" width="127.26" height="28.25" rx="14.12"/><rect class="cls-10" x="239.25" y="347.48" width="127.26" height="28.25" rx="14.12"/><rect class="cls-12" x="238.87" y="261.25" width="127.26" height="28.25" rx="14.12"/></svg>