<svg id="Layer_1" data-name="Layer 1" xmlns="http://www.w3.org/2000/svg" viewBox="0 0 182.32 314.44"><defs><style>.cls-1{fill:red;stroke-width:8.82px;}.cls-1,.cls-2,.cls-3{stroke:#000;stroke-miterlimit:10;}.cls-2{fill:#e6e6e6;}.cls-2,.cls-3{stroke-width:5px;}.cls-3{fill:#ccc;}</style></defs><title>ketchup</title><path class="cls-1" d="M189.06,196.58V107.5h-94v89.08a47.16,47.16,0,0,0-39.75,46.57v85.2a47.15,47.15,0,0,0,47.15,47.15h79.19a47.15,47.15,0,0,0,47.16-47.15v-85.2A47.17,47.17,0,0,0,189.06,196.58Z" transform="translate(-50.9 -65.47)"/><path class="cls-2" d="M91.85,82.72v21.92c0,8.15,22.48,14.75,50.21,14.75s50.2-6.6,50.2-14.75V82.72Z" transform="translate(-50.9 -65.47)"/><ellipse class="cls-2" cx="91.16" cy="17.25" rx="50.2" ry="14.75"/><path class="cls-3" d="M193.34,319.88V248.55a15.62,15.62,0,0,1-15.62-15.62H106.4a15.62,15.62,0,0,1-15.63,15.62v71.33A15.62,15.62,0,0,1,106.4,335.5h71.32A15.62,15.62,0,0,1,193.34,319.88Z" transform="translate(-50.9 -65.47)"/></svg>