<svg id="Layer_1" data-name="Layer 1" xmlns="http://www.w3.org/2000/svg" viewBox="0 0 505.19 505.19"><defs><style>.cls-1{fill:#f5ffd0;}.cls-1,.cls-10,.cls-11,.cls-12,.cls-13,.cls-14,.cls-2,.cls-3,.cls-4,.cls-5,.cls-6,.cls-7,.cls-8,.cls-9{stroke:#000;stroke-miterlimit:10;}.cls-1,.cls-14,.cls-2{stroke-width:3.36px;}.cls-2{fill:#8c6239;}.cls-3{fill:#a67c52;}.cls-12,.cls-3,.cls-4{stroke-width:3px;}.cls-4{fill:#5ce5ff;}.cls-5{fill:#ffdeb9;stroke-width:3.37px;}.cls-10,.cls-11,.cls-6,.cls-8,.cls-9{fill:#c69c6d;}.cls-6{stroke-width:4.47px;}.cls-7{fill:#65c8d0;stroke-width:4.67px;}.cls-8{stroke-width:5.7px;}.cls-9{stroke-width:2px;}.cls-10,.cls-13{stroke-width:3.45px;}.cls-11{stroke-width:1.36px;}.cls-12{fill:#009245;}.cls-13{fill:#ccc;}</style></defs><title>kitchenlights</title><rect class="cls-1" x="2.85" y="2.85" width="500" height="500"/><rect class="cls-2" x="278.73" y="84.48" width="148.75" height="148.75"/><rect class="cls-3" x="286.6" y="93.1" width="133" height="133"/><rect class="cls-4" x="292.85" y="99.35" width="60.25" height="60.25"/><rect class="cls-4" x="353.1" y="99.35" width="60.25" height="60.25"/><rect class="cls-4" x="292.85" y="158.85" width="60.25" height="60.25"/><rect class="cls-4" x="353.1" y="158.85" width="60.25" height="60.25"/><rect class="cls-5" x="2.85" y="259.35" width="500" height="52"/><rect class="cls-6" x="2.85" y="311.35" width="500" height="91.5"/><rect class="cls-7" x="2.85" y="402.85" width="500" height="100"/><rect class="cls-8" x="2.85" y="2.85" width="241.5" height="159"/><polygon class="cls-9" points="259.35 2.85 246.69 2.85 247.36 161.85 259.35 144.35 259.35 2.85"/><rect class="cls-10" x="11.35" y="13.6" width="100.5" height="139.75"/><rect class="cls-10" x="133.25" y="13.6" width="100.5" height="139.75"/><polygon class="cls-11" points="139.48 265.54 95.46 266.2 89.42 299.17 142.33 299.17 139.48 265.54"/><polygon class="cls-11" points="139.48 261.29 95.46 261.95 89.42 294.92 142.33 294.92 139.48 261.29"/><rect class="cls-12" x="109.25" y="270.35" width="24" height="12" rx="4.16"/><circle class="cls-13" cx="98.73" cy="129.48" r="5.37"/><circle class="cls-13" cx="147.7" cy="129.48" r="5.37"/><rect class="cls-14" x="2.85" y="174.35" width="254.15" height="18.5"/><rect class="cls-14" x="6.18" y="170.48" width="254.15" height="18.5"/></svg>