<svg id="Layer_1" data-name="Layer 1" xmlns="http://www.w3.org/2000/svg" viewBox="0 0 479.52 359.09"><defs><style>.cls-1,.cls-3{fill:#ccc;}.cls-1,.cls-11,.cls-2,.cls-3,.cls-4,.cls-5,.cls-6,.cls-7{stroke:#000;stroke-miterlimit:10;}.cls-1{stroke-width:4px;}.cls-11,.cls-2,.cls-4,.cls-5,.cls-7{fill:#fff;}.cls-2{stroke-width:3.78px;}.cls-3{stroke-width:3.61px;}.cls-4{stroke-width:0.22px;}.cls-5{stroke-width:2.96px;}.cls-6{fill:#999;stroke-width:3px;}.cls-7{stroke-width:0.62px;}.cls-8{fill:#e6e6e6;}.cls-9{font-size:60px;font-family:MyriadPro-Regular, Myriad Pro;}.cls-10{letter-spacing:-0.01em;}.cls-11{stroke-width:4.36px;}</style></defs><title>laptop_front</title><rect class="cls-1" x="50.62" y="2" width="378.28" height="254.51" rx="12.5"/><rect class="cls-2" x="59.37" y="11.87" width="362.15" height="237.26" rx="11.81"/><path class="cls-3" d="M482.42,371.62H30.13c-7.92,0-13.08-2.46-11.54-5.49l45.75-89.8c1.54-3,7.84-5.49,14.06-5.49H434.14c6.22,0,12.52,2.45,14.07,5.49L494,366.13C495.5,369.16,490.33,371.62,482.42,371.62Z" transform="translate(-16.51 -14.33)"/><path class="cls-4" d="M87.39,286.31H79.74c-2.76,0-4.51-1.05-3.91-2.34l1.85-3.92c.6-1.29,3.28-2.34,6-2.34h7.48c2.7,0,4.45,1.05,3.9,2.34L93.38,284C92.83,285.26,90.15,286.31,87.39,286.31Z" transform="translate(-16.51 -14.33)"/><path class="cls-5" d="M460.05,346.63H50.2c-6.15,0-10.16-2-9-4.5l30.36-62.49c1.21-2.49,6.38-4.51,11.54-4.51H427.47c5.16,0,10.32,2,11.52,4.51l30,62.49C470.22,344.62,466.2,346.63,460.05,346.63Z" transform="translate(-16.51 -14.33)"/><path class="cls-6" d="M291.72,369.82h-78c-1.49,0-2.66-.46-2.6-1l1.79-18.67c.06-.58,1.26-1,2.69-1h74.58c1.42,0,2.62.46,2.66,1l1.52,18.67C294.39,369.36,293.21,369.82,291.72,369.82Z" transform="translate(-16.51 -14.33)"/><path class="cls-4" d="M105.72,288.22H98c-2.78,0-4.59-1.05-4-2.34L95.63,282c.55-1.29,3.18-2.34,5.9-2.34h7.52c2.71,0,4.52,1.05,4,2.34l-1.46,3.92C111.13,287.17,108.49,288.22,105.72,288.22Z" transform="translate(-16.51 -14.33)"/><path d="M105.5,283.54c-.51,1.29-1.81,2-3.6,2-1.59,0-2.38-.69-1.89-2a3.69,3.69,0,0,1,3.59-2C105.29,281.62,106,282.33,105.5,283.54Zm-4.4.06c-.4,1,0,1.54,1,1.54a2.33,2.33,0,0,0,2.28-1.58c.37-.93.11-1.55-1-1.55A2.44,2.44,0,0,0,101.1,283.6Z" transform="translate(-16.51 -14.33)"/><path class="cls-4" d="M126.65,288.22H119c-2.77,0-4.64-1.05-4.16-2.34l1.43-3.92c.47-1.29,3.06-2.34,5.77-2.34h7.52c2.71,0,4.58,1.05,4.16,2.34l-1.25,3.92C132,287.17,129.43,288.22,126.65,288.22Z" transform="translate(-16.51 -14.33)"/><path d="M120.61,284.89a6.15,6.15,0,0,0,1.71.24c1.41,0,2-.43,2.08-.74.17-.53-.77-.76-1.82-.76H122l.14-.38h.6c.8,0,1.87-.2,2-.65s-.21-.57-1.21-.57a6.17,6.17,0,0,0-1.69.25l-.16-.37a8.13,8.13,0,0,1,2.2-.29c1.58,0,2.15.44,2,.9s-.74.73-1.79.89v0c1,.09,1.65.44,1.47,1s-1.4,1.14-3.34,1.14a6.72,6.72,0,0,1-2-.26Z" transform="translate(-16.51 -14.33)"/><path class="cls-4" d="M148.11,288.22h-7.69c-2.77,0-4.7-1.05-4.29-2.34l1.22-3.92c.4-1.29,2.92-2.34,5.64-2.34h7.51c2.72,0,4.64,1.05,4.3,2.34l-1,3.92C153.41,287.17,150.89,288.22,148.11,288.22Z" transform="translate(-16.51 -14.33)"/><path d="M141.45,285.48l.09-.32,1-.39c2.33-.92,3.4-1.41,3.58-2,.11-.38-.18-.74-1.38-.74a5.7,5.7,0,0,0-1.8.32l-.24-.36a7.34,7.34,0,0,1,2.39-.38c1.73,0,2.29.56,2.14,1.1-.2.7-1.44,1.27-3.37,2l-.73.28h3.64l-.13.43Z" transform="translate(-16.51 -14.33)"/><path class="cls-4" d="M169.75,288.22h-7.68c-2.78,0-4.76-1.05-4.43-2.34l1-3.92c.33-1.29,2.8-2.34,5.51-2.34h7.52c2.71,0,4.69,1.05,4.42,2.34l-.82,3.92C175,287.17,172.53,288.22,169.75,288.22Z" transform="translate(-16.51 -14.33)"/><path d="M162.94,285.48l.07-.32,1-.39c2.28-.92,3.32-1.41,3.47-2,.09-.38-.22-.74-1.42-.74a5.51,5.51,0,0,0-1.78.32L164,282a7.15,7.15,0,0,1,2.36-.38c1.73,0,2.33.56,2.2,1.1-.16.7-1.37,1.27-3.25,2l-.71.28h3.63l-.1.43Z" transform="translate(-16.51 -14.33)"/><path class="cls-4" d="M190.69,288.22H183c-2.77,0-4.81-1.05-4.55-2.34l.79-3.92c.26-1.29,2.67-2.34,5.38-2.34h7.52c2.71,0,4.75,1.05,4.55,2.34l-.61,3.92C195.88,287.17,193.47,288.22,190.69,288.22Z" transform="translate(-16.51 -14.33)"/><path d="M186.71,282.16h0l-1.47.35-.13-.39,1.83-.44h.93l-.68,3.8h-1.06Z" transform="translate(-16.51 -14.33)"/><path class="cls-4" d="M212.15,288.22h-7.69c-2.77,0-4.87-1.05-4.68-2.34l.57-3.92c.19-1.29,2.54-2.34,5.26-2.34h7.52c2.71,0,4.8,1.05,4.67,2.34l-.39,3.92C217.28,287.17,214.92,288.22,212.15,288.22Z" transform="translate(-16.51 -14.33)"/><path d="M205.72,285.11c.23,0,.51,0,.89,0a5.51,5.51,0,0,0,1.73-.37,2.12,2.12,0,0,0,1.2-1h0a4.25,4.25,0,0,1-1.95.41c-1.45,0-2.32-.52-2.23-1.17s1.28-1.34,2.92-1.34,2.58.63,2.46,1.6a2.38,2.38,0,0,1-1.6,1.78,7.32,7.32,0,0,1-2.42.5,9.64,9.64,0,0,1-1,0Zm.68-2.18c-.06.47.51.81,1.45.81a2.89,2.89,0,0,0,1.63-.4.28.28,0,0,0,.13-.19c.08-.65-.37-1.14-1.51-1.14C207.18,282,206.47,282.39,206.4,282.93Z" transform="translate(-16.51 -14.33)"/><path class="cls-4" d="M232.9,288.22h-7.68c-2.78,0-4.93-1.05-4.81-2.34l.36-3.92c.12-1.29,2.42-2.34,5.13-2.34h7.52c2.72,0,4.87,1.05,4.81,2.34l-.19,3.92C238,287.17,235.68,288.22,232.9,288.22Z" transform="translate(-16.51 -14.33)"/><path d="M231.09,284.7a5.05,5.05,0,0,0,0,.78h-1l0-.47h0a3.37,3.37,0,0,1-2,.53c-.94,0-2.06-.25-2-1.24l.13-1.65h1.09l-.12,1.56c0,.54.28.9,1.28.9a2.14,2.14,0,0,0,1.47-.46.47.47,0,0,0,.12-.27l.12-1.73h1.09Z" transform="translate(-16.51 -14.33)"/><path class="cls-4" d="M253.84,288.22h-7.69c-2.77,0-5-1.05-4.93-2.34l.15-3.92c0-1.29,2.29-2.34,5-2.34h7.52c2.71,0,4.92,1.05,4.92,2.34l0,3.92C258.86,287.17,256.62,288.22,253.84,288.22Z" transform="translate(-16.51 -14.33)"/><path d="M248.66,285.48,246,281.54h1.16l1.25,1.94a12.74,12.74,0,0,1,.87,1.47h0a12.65,12.65,0,0,1,1-1.47l1.43-1.94h1.15l-3,3.94Z" transform="translate(-16.51 -14.33)"/><path class="cls-4" d="M275.3,288.22h-7.69c-2.77,0-5-1.05-5.06-2.34l-.06-3.92c0-1.29,2.16-2.34,4.87-2.34h7.52c2.71,0,5,1.05,5.06,2.34l.24,3.92C280.26,287.17,278.08,288.22,275.3,288.22Z" transform="translate(-16.51 -14.33)"/><path d="M273.73,285.85a8.93,8.93,0,0,1-2.21.23c-2,0-3.81-.7-3.84-1.82s1.7-2.24,4.44-2.24c2.15,0,3.63.71,3.68,1.69s-1,1.39-2.14,1.39c-.5,0-1-.16-1-.52h0a2.59,2.59,0,0,1-1.73.52c-.72,0-1.35-.28-1.37-.74,0-.72,1.17-1.38,2.89-1.38a6.72,6.72,0,0,1,1.33.12l-.38,1.06c-.16.44,0,.64.41.65.63,0,1.32-.39,1.29-1.07,0-.85-1.15-1.45-3.06-1.45s-3.69.75-3.65,1.94c0,1,1.41,1.57,3.25,1.57a7.91,7.91,0,0,0,1.88-.2Zm-.8-2.52a4,4,0,0,0-.62,0c-1.09,0-1.95.48-1.93,1,0,.25.29.44.84.44a1.64,1.64,0,0,0,1.48-.79Z" transform="translate(-16.51 -14.33)"/><path class="cls-4" d="M296.38,288.22h-7.69c-2.77,0-5.09-1.05-5.18-2.34l-.28-3.92c-.09-1.29,2-2.34,4.75-2.34h7.52c2.71,0,5,1.05,5.18,2.34l.46,3.92C301.29,287.17,299.16,288.22,296.38,288.22Z" transform="translate(-16.51 -14.33)"/><path d="M290.27,281.47l.42,4.66H288.4l0-.32h1.43l-.35-4H288l0-.32Z" transform="translate(-16.51 -14.33)"/><path class="cls-4" d="M317.32,288.22h-7.69c-2.77,0-5.15-1.05-5.31-2.34l-.49-3.92c-.16-1.29,1.91-2.34,4.62-2.34H316c2.71,0,5.09,1.05,5.31,2.34l.67,3.92C322.17,287.17,320.09,288.22,317.32,288.22Z" transform="translate(-16.51 -14.33)"/><path d="M309.3,281.54h1.08l.27,1.9h0l.6-.42,2.33-1.48h1.33l-2.77,1.67,3.61,2.27H314.5l-3.05-1.94-.73.43.21,1.51h-1.08Z" transform="translate(-16.51 -14.33)"/><path class="cls-4" d="M338.78,288.22h-7.69c-2.77,0-5.21-1.05-5.44-2.34l-.71-3.92c-.23-1.29,1.78-2.34,4.5-2.34H337c2.72,0,5.15,1.05,5.44,2.34l.89,3.92C343.57,287.17,341.55,288.22,338.78,288.22Z" transform="translate(-16.51 -14.33)"/><path d="M330.39,281.54h1.08l.69,3.51h3.58l.09.43h-4.67Z" transform="translate(-16.51 -14.33)"/><path class="cls-4" d="M358.81,288.22h-7.68c-2.78,0-5.27-1.05-5.57-2.34l-.91-3.92c-.29-1.29,1.66-2.34,4.38-2.34h7.52c2.71,0,5.2,1.05,5.56,2.34l1.08,3.92C363.55,287.17,361.59,288.22,358.81,288.22Z" transform="translate(-16.51 -14.33)"/><path d="M354.05,285.48l-.26-1H350l-.08-.34,3-2.42h1.17l.6,2.36h1.13l.11.4h-1.14l.27,1Zm-.36-1.44-.32-1.27a4.34,4.34,0,0,1-.11-.59h0c-.19.22-.35.38-.53.56L351,284h2.65Z" transform="translate(-16.51 -14.33)"/><path class="cls-4" d="M379.75,288.22h-7.69c-2.77,0-5.32-1.05-5.69-2.34L365.25,282c-.36-1.29,1.54-2.34,4.25-2.34H377c2.71,0,5.26,1.05,5.69,2.34l1.29,3.92C384.43,287.17,382.53,288.22,379.75,288.22Z" transform="translate(-16.51 -14.33)"/><path d="M376.23,283.54c.41,1.29-.39,2-2.19,2a3.16,3.16,0,0,1-3.26-2c-.38-1.27.57-2,2.2-2S375.85,282.33,376.23,283.54Zm-4.36.06a2.11,2.11,0,0,0,2.11,1.54c1.12,0,1.47-.61,1.17-1.58A2.07,2.07,0,0,0,373,282C372.09,282,371.56,282.56,371.87,283.6Z" transform="translate(-16.51 -14.33)"/><path class="cls-4" d="M401.21,288.22h-7.69c-2.77,0-5.38-1.05-5.82-2.34L386.37,282c-.44-1.29,1.4-2.34,4.12-2.34H398c2.72,0,5.32,1.05,5.82,2.34l1.51,3.92C405.83,287.17,404,288.22,401.21,288.22Z" transform="translate(-16.51 -14.33)"/><path d="M393.15,285.48l-1.4-3.94h1.17l3.4,2c.78.46,1.42.88,2,1.28h0a11.34,11.34,0,0,1-.72-1.61l-.61-1.65h1l1.46,3.94h-1.09l-3.39-2a23.15,23.15,0,0,1-2-1.32h0c.24.5.43,1,.67,1.62l.6,1.69Z" transform="translate(-16.51 -14.33)"/><path class="cls-4" d="M101.83,298.48H93.94c-2.85,0-4.72-1-4.18-2.33l1.65-3.93c.54-1.29,3.24-2.33,6-2.33h7.72c2.79,0,4.65,1,4.17,2.33l-1.47,3.93C107.38,297.44,104.68,298.48,101.83,298.48Z" transform="translate(-16.51 -14.33)"/><path d="M97.56,294.5l-1.39,1.24H95l4.51-3.94h1.33l1.38,3.94H101l-.43-1.24Zm3-.4-.39-1.13a5.57,5.57,0,0,1-.16-.72h0q-.33.36-.72.72L98,294.1Z" transform="translate(-16.51 -14.33)"/><path class="cls-4" d="M123.32,298.48h-7.89c-2.85,0-4.78-1-4.3-2.33l1.43-3.93c.47-1.29,3.12-2.33,5.9-2.33h7.72c2.79,0,4.72,1,4.3,2.33l-1.25,3.93C128.81,297.44,126.17,298.48,123.32,298.48Z" transform="translate(-16.51 -14.33)"/><path d="M118.83,294.5l-1.32,1.24h-1.16l4.3-3.94H122l1.59,3.94h-1.19l-.5-1.24Zm3-.4-.45-1.13a3.74,3.74,0,0,1-.2-.72h0c-.2.24-.43.48-.67.72l-1.24,1.13Z" transform="translate(-16.51 -14.33)"/><path class="cls-4" d="M145.35,298.48h-7.9c-2.84,0-4.83-1-4.43-2.33l1.22-3.93c.4-1.29,3-2.33,5.78-2.33h7.72c2.78,0,4.77,1,4.42,2.33l-1,3.93C150.78,297.44,148.19,298.48,145.35,298.48Z" transform="translate(-16.51 -14.33)"/><path d="M140.64,294.5l-1.26,1.24h-1.15l4.07-3.94h1.33l1.82,3.94h-1.19l-.57-1.24Zm2.93-.4-.51-1.13a4,4,0,0,1-.24-.72h0q-.28.36-.63.72L141,294.1Z" transform="translate(-16.51 -14.33)"/><path class="cls-4" d="M167.56,298.48h-7.89c-2.85,0-4.89-1-4.56-2.33l1-3.93c.33-1.29,2.85-2.33,5.64-2.33h7.72c2.79,0,4.83,1,4.56,2.33l-.82,3.93C172.94,297.44,170.41,298.48,167.56,298.48Z" transform="translate(-16.51 -14.33)"/><path d="M162.63,294.5l-1.19,1.24h-1.15l3.85-3.94h1.34l2,3.94h-1.19l-.64-1.24Zm2.91-.4L165,293a4.32,4.32,0,0,1-.27-.72h0q-.27.36-.6.72L163,294.1Z" transform="translate(-16.51 -14.33)"/><path class="cls-4" d="M189.05,298.48h-7.89c-2.85,0-4.95-1-4.69-2.33l.79-3.93c.26-1.29,2.73-2.33,5.52-2.33h7.72c2.78,0,4.88,1,4.68,2.33l-.61,3.93C194.37,297.44,191.9,298.48,189.05,298.48Z" transform="translate(-16.51 -14.33)"/><path d="M183.91,294.5l-1.13,1.24h-1.15l3.64-3.94h1.33l2.25,3.94h-1.19L187,294.5Zm2.88-.4-.63-1.13a4.85,4.85,0,0,1-.32-.72h0a7,7,0,0,1-.56.72l-1,1.13Z" transform="translate(-16.51 -14.33)"/><path class="cls-4" d="M211.07,298.48h-7.89c-2.85,0-5-1-4.81-2.33l.57-3.93c.19-1.29,2.6-2.33,5.39-2.33h7.72c2.79,0,4.94,1,4.81,2.33l-.39,3.93C216.34,297.44,213.92,298.48,211.07,298.48Z" transform="translate(-16.51 -14.33)"/><path d="M205.71,294.5l-1.05,1.24h-1.15l3.42-3.94h1.33l2.46,3.94h-1.19l-.77-1.24Zm2.87-.4-.7-1.13a5.36,5.36,0,0,1-.36-.72h0c-.16.24-.33.48-.52.72l-1,1.13Z" transform="translate(-16.51 -14.33)"/><path class="cls-4" d="M232.38,298.48h-7.89c-2.85,0-5.06-1-4.94-2.33l.36-3.93c.12-1.29,2.47-2.33,5.26-2.33h7.72c2.79,0,5,1,4.94,2.33l-.19,3.93C237.58,297.44,235.23,298.48,232.38,298.48Z" transform="translate(-16.51 -14.33)"/><path d="M226.8,294.5l-1,1.24h-1.15l3.22-3.94h1.33l2.67,3.94h-1.19l-.84-1.24Zm2.85-.4-.76-1.13a4.84,4.84,0,0,1-.4-.72h0a7.65,7.65,0,0,1-.49.72l-.92,1.13Z" transform="translate(-16.51 -14.33)"/><path class="cls-4" d="M253.87,298.48H246c-2.85,0-5.12-1-5.07-2.33l.15-3.93c.05-1.29,2.35-2.33,5.14-2.33h7.72c2.79,0,5.05,1,5.06,2.33l0,3.93C259,297.44,256.72,298.48,253.87,298.48Z" transform="translate(-16.51 -14.33)"/><path d="M248.08,294.5l-.92,1.24H246l3-3.94h1.33l2.88,3.94H252l-.9-1.24Zm2.82-.4-.82-1.13a5.24,5.24,0,0,1-.43-.72h0a7,7,0,0,1-.44.72l-.86,1.13Z" transform="translate(-16.51 -14.33)"/><path class="cls-4" d="M275.89,298.48H268c-2.85,0-5.17-1-5.19-2.33l-.07-3.93c0-1.29,2.22-2.33,5-2.33h7.72c2.79,0,5.11,1,5.19,2.33l.25,3.93C281,297.44,278.74,298.48,275.89,298.48Z" transform="translate(-16.51 -14.33)"/><path d="M269.88,294.5l-.85,1.24h-1.15l2.78-3.94H272l3.1,3.94h-1.19l-1-1.24Zm2.81-.4L271.8,293a5.83,5.83,0,0,1-.47-.72h0a6.47,6.47,0,0,1-.4.72l-.8,1.13Z" transform="translate(-16.51 -14.33)"/><path class="cls-4" d="M297.53,298.48h-7.89c-2.85,0-5.23-1-5.32-2.33l-.28-3.93c-.09-1.29,2.09-2.33,4.88-2.33h7.72c2.79,0,5.17,1,5.32,2.33l.46,3.93C302.57,297.44,300.38,298.48,297.53,298.48Z" transform="translate(-16.51 -14.33)"/><path d="M291.31,294.5l-.79,1.24h-1.15l2.57-3.94h1.33l3.32,3.94H295.4l-1-1.24Zm2.78-.4-.95-1.13a8.19,8.19,0,0,1-.51-.72h0a6,6,0,0,1-.36.72l-.74,1.13Z" transform="translate(-16.51 -14.33)"/><path class="cls-4" d="M319,298.48h-7.89c-2.85,0-5.29-1-5.45-2.33l-.49-3.93c-.16-1.29,2-2.33,4.76-2.33h7.72c2.79,0,5.22,1,5.44,2.33l.67,3.93C324,297.44,321.87,298.48,319,298.48Z" transform="translate(-16.51 -14.33)"/><path d="M312.58,294.5l-.72,1.24h-1.15l2.36-3.94h1.33l3.53,3.94h-1.19l-1.11-1.24Zm2.76-.4-1-1.13a7.3,7.3,0,0,1-.55-.72h0a5.76,5.76,0,0,1-.33.72l-.68,1.13Z" transform="translate(-16.51 -14.33)"/><path class="cls-4" d="M341.05,298.48h-7.89c-2.85,0-5.35-1-5.58-2.33l-.71-3.93c-.23-1.29,1.84-2.33,4.63-2.33h7.72c2.79,0,5.28,1,5.57,2.33l.89,3.93C346,297.44,343.9,298.48,341.05,298.48Z" transform="translate(-16.51 -14.33)"/><path d="M334.39,294.5l-.65,1.24h-1.16l2.15-3.94h1.33l3.74,3.94h-1.19l-1.17-1.24Zm2.74-.4L336.06,293a6.72,6.72,0,0,1-.59-.72h0a5.42,5.42,0,0,1-.29.72l-.61,1.13Z" transform="translate(-16.51 -14.33)"/><path class="cls-4" d="M361.61,298.48h-7.89c-2.85,0-5.4-1-5.7-2.33l-.91-3.93c-.29-1.29,1.72-2.33,4.51-2.33h7.72c2.79,0,5.34,1,5.7,2.33l1.08,3.93C366.48,297.44,364.46,298.48,361.61,298.48Z" transform="translate(-16.51 -14.33)"/><path d="M354.75,294.5l-.59,1.24H353L355,291.8h1.33l4,3.94H359l-1.25-1.24Zm2.71-.4L356.33,293a9,9,0,0,1-.62-.72h0a4.11,4.11,0,0,1-.25.72l-.55,1.13Z" transform="translate(-16.51 -14.33)"/><path class="cls-4" d="M383.1,298.48h-7.89c-2.85,0-5.46-1-5.82-2.33l-1.12-3.93c-.37-1.29,1.59-2.33,4.38-2.33h7.72c2.78,0,5.39,1,5.82,2.33l1.29,3.93C387.91,297.44,386,298.48,383.1,298.48Z" transform="translate(-16.51 -14.33)"/><path d="M376,294.5l-.52,1.24h-1.15l1.73-3.94h1.33l4.16,3.94h-1.19l-1.31-1.24Zm2.7-.4L377.53,293c-.27-.26-.47-.49-.67-.72h0a5,5,0,0,1-.22.72l-.49,1.13Z" transform="translate(-16.51 -14.33)"/><path class="cls-4" d="M405.13,298.48h-7.89c-2.85,0-5.52-1-6-2.33L390,292.22c-.44-1.29,1.46-2.33,4.25-2.33h7.72c2.79,0,5.45,1,5.95,2.33l1.51,3.93C409.88,297.44,408,298.48,405.13,298.48Z" transform="translate(-16.51 -14.33)"/><path d="M397.83,294.5l-.45,1.24h-1.16l1.52-3.94h1.33l4.37,3.94h-1.19l-1.37-1.24Zm2.67-.4L399.25,293c-.28-.26-.5-.49-.71-.72h0a4.74,4.74,0,0,1-.18.72l-.43,1.13Z" transform="translate(-16.51 -14.33)"/><path class="cls-4" d="M97.68,309.2h-8.1c-2.92,0-4.86-1.05-4.31-2.34l1.64-3.92c.54-1.29,3.3-2.34,6.17-2.34H101c2.86,0,4.79,1,4.31,2.34l-1.47,3.92C103.37,308.15,100.61,309.2,97.68,309.2Z" transform="translate(-16.51 -14.33)"/><path d="M94.41,303H91.74l.18-.43h6.49l-.17.43H95.56l-1.4,3.5H93Z" transform="translate(-16.51 -14.33)"/><path class="cls-4" d="M119.75,309.2h-8.1c-2.93,0-4.92-1.05-4.44-2.34l1.43-3.92c.47-1.29,3.18-2.34,6-2.34h7.93c2.87,0,4.85,1,4.44,2.34l-1.26,3.92C125.38,308.15,122.67,309.2,119.75,309.2Z" transform="translate(-16.51 -14.33)"/><path d="M114.63,302.52h1.13l-.66,1.89h0L116,304l3.2-1.47h1.4l-3.75,1.67,2.68,2.26h-1.35l-2.25-1.93-1,.43-.52,1.5h-1.15Z" transform="translate(-16.51 -14.33)"/><path class="cls-4" d="M142.37,309.2h-8.11c-2.92,0-5-1.05-4.57-2.34l1.22-3.92c.4-1.29,3.05-2.34,5.91-2.34h7.94c2.86,0,4.91,1,4.56,2.34l-1,3.92C147.94,308.15,145.29,309.2,142.37,309.2Z" transform="translate(-16.51 -14.33)"/><path d="M140.82,304.61h-3.43L137,306h3.83l-.12.42h-5l1.17-3.93h4.73l-.12.42h-3.61l-.36,1.25h3.42Z" transform="translate(-16.51 -14.33)"/><path class="cls-4" d="M165.18,309.2h-8.11c-2.92,0-5-1.05-4.7-2.34l1-3.92c.33-1.29,2.92-2.34,5.79-2.34h7.93c2.86,0,5,1,4.69,2.34l-.82,3.92C170.69,308.15,168.1,309.2,165.18,309.2Z" transform="translate(-16.51 -14.33)"/><path d="M160.09,305.21l-1.21,1.24h-1.19l3.94-3.93H163l2.11,3.93h-1.23l-.66-1.24Zm3-.39-.6-1.14a3.67,3.67,0,0,1-.29-.71h0a9.3,9.3,0,0,1-.61.71l-1.13,1.14Z" transform="translate(-16.51 -14.33)"/><path class="cls-4" d="M187.24,309.2h-8.1c-2.93,0-5.09-1.05-4.83-2.34l.79-3.92c.26-1.29,2.79-2.34,5.66-2.34h7.93c2.86,0,5,1,4.82,2.34l-.61,3.92C192.7,308.15,190.17,309.2,187.24,309.2Z" transform="translate(-16.51 -14.33)"/><path d="M181,302.57c.5-.05,1.29-.08,2.08-.08a6.71,6.71,0,0,1,2.36.28c.43.15.66.39.61.7s-.69.71-1.64.86h0c.82.1,1.74.41,1.64,1-.06.34-.4.6-.88.79a9.46,9.46,0,0,1-3.13.37c-.79,0-1.39,0-1.76-.05Zm.83,1.61h1c1.2,0,2-.28,2-.66s-.67-.64-1.81-.64c-.52,0-.83,0-1,0Zm-.34,1.89.95,0c1.18,0,2.31-.19,2.41-.76s-.9-.76-2.14-.76h-.95Z" transform="translate(-16.51 -14.33)"/><path class="cls-4" d="M209.86,309.2h-8.1c-2.93,0-5.15-1.05-5-2.34l.58-3.92c.18-1.29,2.66-2.34,5.52-2.34h7.93c2.87,0,5.08,1,4.95,2.34l-.39,3.92C215.26,308.15,212.79,309.2,209.86,309.2Z" transform="translate(-16.51 -14.33)"/><path d="M204.34,305.21l-1.08,1.24h-1.18l3.5-3.93H207l2.54,3.93h-1.22l-.8-1.24Zm2.94-.39-.72-1.14a5.42,5.42,0,0,1-.37-.71h0c-.16.23-.34.47-.54.71l-1,1.14Z" transform="translate(-16.51 -14.33)"/><path class="cls-4" d="M231.74,309.2h-8.11c-2.92,0-5.2-1.05-5.08-2.34l.37-3.92c.12-1.29,2.53-2.34,5.4-2.34h7.93c2.86,0,5.14,1,5.08,2.34l-.19,3.92C237.08,308.15,234.66,309.2,231.74,309.2Z" transform="translate(-16.51 -14.33)"/><path d="M232.17,304.44c-.08,1.36-2,2.08-4.24,2.08s-3.92-.81-3.82-2,1.89-2.07,4.23-2.07S232.24,303.28,232.17,304.44Zm-6.85.07c-.06.84.91,1.59,2.71,1.59s2.88-.74,2.93-1.63-.81-1.6-2.7-1.6S225.39,303.64,225.32,304.51Z" transform="translate(-16.51 -14.33)"/><path class="cls-4" d="M253.8,309.2h-8.1c-2.93,0-5.26-1.05-5.21-2.34l.16-3.92c0-1.29,2.41-2.34,5.27-2.34h7.93c2.87,0,5.2,1,5.2,2.34l0,3.92C259.09,308.15,256.73,309.2,253.8,309.2Z" transform="translate(-16.51 -14.33)"/><path d="M251.13,303.09H247.9l-.35,1,.7,0a7.3,7.3,0,0,1,1.82.2c.67.17,1.21.5,1.2,1,0,.74-1.34,1.3-3.19,1.3a8.33,8.33,0,0,1-2.13-.24l.3-.39a7.47,7.47,0,0,0,1.82.21c1.09,0,2-.31,2-.82s-.73-.84-2.43-.84c-.49,0-.87,0-1.18,0l.59-1.82h4Z" transform="translate(-16.51 -14.33)"/><path class="cls-4" d="M276.42,309.2h-8.1c-2.93,0-5.32-1.05-5.34-2.34l-.06-3.92c0-1.29,2.28-2.34,5.14-2.34H276c2.86,0,5.25,1,5.33,2.34l.24,3.92C281.65,308.15,279.34,309.2,276.42,309.2Z" transform="translate(-16.51 -14.33)"/><path d="M268.74,302.57c.69-.05,1.51-.08,2.41-.08a9.85,9.85,0,0,1,3.57.49c.8.32,1.28.77,1.31,1.41s-.39,1.17-1.2,1.53a10.17,10.17,0,0,1-3.89.57c-.81,0-1.5,0-2.08-.05Zm1.25,3.48c.29,0,.71,0,1.16,0,2.44,0,3.74-.61,3.69-1.67s-1.23-1.52-3.63-1.52c-.58,0-1,0-1.32.05Z" transform="translate(-16.51 -14.33)"/><path class="cls-4" d="M298.64,309.2h-8.1c-2.93,0-5.37-1.05-5.46-2.34l-.28-3.92c-.09-1.29,2.15-2.34,5-2.34h7.93c2.86,0,5.31,1,5.46,2.34l.45,3.92C303.81,308.15,301.56,309.2,298.64,309.2Z" transform="translate(-16.51 -14.33)"/><path d="M290.6,302.57c.57-.05,1.39-.08,2.17-.08a7.34,7.34,0,0,1,2.57.32c.46.17.73.44.76.75,0,.52-.64.86-1.56,1v0a1.76,1.76,0,0,1,1.37.79,4.93,4.93,0,0,0,.79,1.08h-1.18a4.17,4.17,0,0,1-.68-.94c-.31-.54-.8-.75-1.84-.76h-1.07l.15,1.7h-1.15Zm1.29,1.79h1.17c1.21,0,2-.3,1.91-.75s-.89-.73-2.09-.73c-.54,0-.93,0-1.11,0Z" transform="translate(-16.51 -14.33)"/><path class="cls-4" d="M320.71,309.2H312.6c-2.92,0-5.42-1.05-5.58-2.34l-.49-3.92c-.16-1.29,2-2.34,4.89-2.34h7.93c2.87,0,5.37,1,5.59,2.34l.66,3.92C325.82,308.15,323.63,309.2,320.71,309.2Z" transform="translate(-16.51 -14.33)"/><path d="M316.81,303c-.24,0-.54,0-.86,0-1.78.14-2.65.73-2.76,1.35h0a3.81,3.81,0,0,1,2-.44c1.5,0,2.64.49,2.75,1.23s-.86,1.34-2.64,1.34-3.11-.63-3.24-1.62c-.11-.75.41-1.34,1.2-1.71a7.29,7.29,0,0,1,2.62-.56c.34,0,.63,0,.83,0Zm0,2.19c-.08-.54-.83-.87-1.88-.87a2.39,2.39,0,0,0-1.59.47.23.23,0,0,0-.1.22c.12.63.83,1.09,2,1.09C316.27,306.12,316.89,305.75,316.81,305.21Z" transform="translate(-16.51 -14.33)"/><path class="cls-4" d="M343.32,309.2h-8.1c-2.92,0-5.48-1.05-5.72-2.34l-.7-3.92c-.23-1.29,1.9-2.34,4.76-2.34h7.94c2.86,0,5.42,1,5.71,2.34l.88,3.92C348.38,308.15,346.25,309.2,343.32,309.2Z" transform="translate(-16.51 -14.33)"/><path d="M334.56,302.57c.49-.05,1.26-.08,2.06-.08a7.69,7.69,0,0,1,2.46.28c.49.15.81.39.88.7s-.42.71-1.31.86h0c.86.1,1.9.41,2,1,.07.34-.18.6-.58.79a8.19,8.19,0,0,1-3,.37c-.79,0-1.4,0-1.78-.05Zm1.45,1.61h1c1.2,0,1.85-.28,1.77-.66s-.91-.64-2.06-.64c-.52,0-.82,0-1,0Zm.38,1.89,1,0c1.18,0,2.23-.19,2.11-.76s-1.18-.76-2.43-.76h-.94Z" transform="translate(-16.51 -14.33)"/><path class="cls-4" d="M364.44,309.2h-8.1c-2.93,0-5.54-1.05-5.84-2.34l-.91-3.92c-.3-1.29,1.78-2.34,4.65-2.34h7.93c2.86,0,5.47,1,5.83,2.34l1.09,3.92C369.45,308.15,367.36,309.2,364.44,309.2Z" transform="translate(-16.51 -14.33)"/><path d="M363.33,304.44c.36,1.36-1.3,2.08-3.56,2.08s-4.18-.81-4.48-2,1.23-2.07,3.57-2.07S363,303.28,363.33,304.44Zm-6.82.07c.21.84,1.42,1.59,3.22,1.59s2.64-.74,2.41-1.63-1.33-1.6-3.22-1.6S356.3,303.64,356.51,304.51Z" transform="translate(-16.51 -14.33)"/><path class="cls-4" d="M386.51,309.2H378.4c-2.92,0-5.59-1.05-6-2.34l-1.12-3.92c-.37-1.29,1.66-2.34,4.52-2.34h7.93c2.87,0,5.53,1,6,2.34l1.3,3.92C391.46,308.15,389.43,309.2,386.51,309.2Z" transform="translate(-16.51 -14.33)"/><path d="M385.14,304.44c.43,1.36-1.19,2.08-3.45,2.08s-4.23-.81-4.58-2,1.11-2.07,3.46-2.07S384.77,303.28,385.14,304.44Zm-6.82.07c.26.84,1.51,1.59,3.31,1.59s2.6-.74,2.32-1.63-1.42-1.6-3.31-1.6S378.06,303.64,378.32,304.51Z" transform="translate(-16.51 -14.33)"/><path class="cls-4" d="M409.12,309.2H401c-2.92,0-5.65-1.05-6.09-2.34l-1.34-3.92c-.44-1.29,1.53-2.34,4.39-2.34h7.94c2.86,0,5.59,1,6.08,2.34l1.52,3.92C414,308.15,412.05,309.2,409.12,309.2Z" transform="translate(-16.51 -14.33)"/><path d="M407.5,304.44c.51,1.36-1.08,2.08-3.34,2.08s-4.27-.81-4.69-2,1-2.07,3.34-2.07S407.06,303.28,407.5,304.44Zm-6.82.07c.3.84,1.59,1.59,3.39,1.59s2.57-.74,2.23-1.63-1.5-1.6-3.39-1.6S400.37,303.64,400.68,304.51Z" transform="translate(-16.51 -14.33)"/><path class="cls-4" d="M91.77,319.91H83.46c-3,0-5-1.05-4.44-2.34l1.66-3.92c.55-1.29,3.37-2.34,6.31-2.34h8.15c2.94,0,4.93,1.05,4.44,2.34l-1.49,3.92C97.61,318.86,94.78,319.91,91.77,319.91Z" transform="translate(-16.51 -14.33)"/><path d="M87.2,315.93l-1.44,1.24H84.54l4.68-3.94h1.41l1.52,3.94H90.9l-.48-1.24Zm3.14-.4-.44-1.13a4.45,4.45,0,0,1-.18-.72h0c-.23.23-.48.47-.75.71l-1.34,1.14Z" transform="translate(-16.51 -14.33)"/><path class="cls-4" d="M114.42,319.91H106.1c-3,0-5-1.05-4.57-2.34l1.46-3.92c.47-1.29,3.24-2.34,6.18-2.34h8.15c2.94,0,5,1.05,4.56,2.34l-1.27,3.92C120.19,318.86,117.42,319.91,114.42,319.91Z" transform="translate(-16.51 -14.33)"/><path d="M110.29,313.23l-.58,1.65h4.37l.57-1.65h1.17l-1.33,3.94H113.3l.63-1.85h-4.38l-.65,1.85h-1.17l1.4-3.94Z" transform="translate(-16.51 -14.33)"/><path class="cls-4" d="M137.63,319.91h-8.32c-3,0-5.1-1.05-4.7-2.34l1.24-3.92c.41-1.29,3.12-2.34,6.06-2.34h8.14c2.94,0,5,1.05,4.7,2.34l-1.06,3.92C143.34,318.86,140.63,319.91,137.63,319.91Z" transform="translate(-16.51 -14.33)"/><path d="M138.93,315.44a14.18,14.18,0,0,1,.35-1.7h0c-.44.46-1,.95-1.56,1.49l-2.15,1.91h-.89l-.92-1.87a7.89,7.89,0,0,1-.59-1.53h0c-.17.49-.44,1.15-.69,1.74l-.75,1.69h-1.12l1.82-3.94h1.48l1,1.9a8.33,8.33,0,0,1,.53,1.33h0a16.57,16.57,0,0,1,1.33-1.33l2.16-1.9h1.48l-.54,3.94h-1.14Z" transform="translate(-16.51 -14.33)"/><path class="cls-4" d="M161,319.91h-8.31c-3,0-5.17-1.05-4.83-2.34l1-3.92c.33-1.29,3-2.34,5.93-2.34H163c2.94,0,5.1,1.05,4.82,2.34l-.83,3.92C166.69,318.86,164,319.91,161,319.91Z" transform="translate(-16.51 -14.33)"/><path d="M155,313.28c.52,0,1.33-.08,2.14-.08a6.9,6.9,0,0,1,2.41.29c.43.15.66.38.59.69s-.75.71-1.73.87h0c.84.09,1.78.4,1.64,1-.08.34-.45.6-.95.79a10.17,10.17,0,0,1-3.23.37c-.81,0-1.42,0-1.81-.05Zm.77,1.61h1.06c1.24,0,2-.28,2.11-.66s-.65-.64-1.82-.64a10.12,10.12,0,0,0-1,0Zm-.46,1.89c.23,0,.56,0,1,0,1.22,0,2.38-.19,2.51-.76s-.88-.76-2.16-.76h-1Z" transform="translate(-16.51 -14.33)"/><path class="cls-4" d="M183.68,319.91h-8.32c-3,0-5.22-1.05-5-2.34l.8-3.92c.27-1.29,2.87-2.34,5.81-2.34h8.14c2.94,0,5.16,1.05,5,2.34l-.63,3.92C189.28,318.86,186.68,319.91,183.68,319.91Z" transform="translate(-16.51 -14.33)"/><path d="M179.16,317.4l-2.85-4.24h.91l2.86,4.24Z" transform="translate(-16.51 -14.33)"/><path class="cls-4" d="M206.89,319.91h-8.32c-3,0-5.28-1.05-5.08-2.34l.59-3.92c.19-1.29,2.73-2.34,5.67-2.34h8.15c2.94,0,5.21,1.05,5.07,2.34l-.41,3.92C212.43,318.86,209.89,319.91,206.89,319.91Z" transform="translate(-16.51 -14.33)"/><path d="M198.7,317.88a6.45,6.45,0,0,0,1-1.39l1.31-.06a7.86,7.86,0,0,1-1.49,1.42Zm1-3.07c0-.22.38-.37.84-.37s.77.15.74.37-.36.36-.84.36S199.67,315,199.7,314.81Z" transform="translate(-16.51 -14.33)"/><path class="cls-4" d="M229.33,319.91H221c-3,0-5.34-1.05-5.21-2.34l.38-3.92c.12-1.29,2.61-2.34,5.55-2.34h8.14c2.94,0,5.27,1.05,5.21,2.34l-.2,3.92C234.82,318.86,232.33,319.91,229.33,319.91Z" transform="translate(-16.51 -14.33)"/><path d="M221.55,314.59a7.2,7.2,0,0,1,1.36-1.39l.75,0a6.44,6.44,0,0,0-.89,1.37Z" transform="translate(-16.51 -14.33)"/><path class="cls-4" d="M252,319.91h-8.32c-3,0-5.39-1.05-5.33-2.34l.17-3.92c.05-1.29,2.48-2.34,5.42-2.34h8.14c2.94,0,5.33,1.05,5.33,2.34v3.92C257.41,318.86,255,319.91,252,319.91Z" transform="translate(-16.51 -14.33)"/><path d="M252.07,315.44a11.32,11.32,0,0,1-.12-1.7h0a15.37,15.37,0,0,1-1.16,1.49l-1.63,1.91h-.89l-1.43-1.87a12.66,12.66,0,0,1-1-1.53h0c0,.49-.12,1.15-.22,1.74l-.29,1.69h-1.12l.75-3.94h1.48l1.5,1.9a11.84,11.84,0,0,1,.89,1.33h0a10.38,10.38,0,0,1,1-1.33l1.64-1.9h1.48l.54,3.94h-1.15Z" transform="translate(-16.51 -14.33)"/><path class="cls-4" d="M275.19,319.91h-8.32c-3,0-5.45-1.05-5.46-2.34l-.05-3.92c0-1.29,2.35-2.34,5.29-2.34h8.15c2.94,0,5.38,1.05,5.46,2.34l.22,3.92C280.56,318.86,278.19,319.91,275.19,319.91Z" transform="translate(-16.51 -14.33)"/><path d="M267.34,313.23h4.85l0,.43h-3.69l0,1.3H272l0,.42h-3.42l.05,1.79h-1.18Z" transform="translate(-16.51 -14.33)"/><path class="cls-4" d="M298,319.91h-8.32c-3,0-5.5-1.05-5.59-2.34l-.26-3.92c-.09-1.29,2.23-2.34,5.17-2.34h8.14c2.94,0,5.44,1.05,5.59,2.34l.44,3.92C303.3,318.86,301,319.91,298,319.91Z" transform="translate(-16.51 -14.33)"/><path d="M297.59,315.44a12.7,12.7,0,0,1-.3-1.7h-.05a14.71,14.71,0,0,1-1,1.49l-1.42,1.91h-.89l-1.63-1.87a13.86,13.86,0,0,1-1.18-1.53h0c0,.49,0,1.15,0,1.74l-.11,1.69h-1.12l.32-3.94h1.48l1.71,1.9a15.23,15.23,0,0,1,1,1.33h0a9.85,9.85,0,0,1,.83-1.33l1.43-1.9h1.48l1,3.94H298Z" transform="translate(-16.51 -14.33)"/><path class="cls-4" d="M320.63,319.91h-8.32c-3,0-5.56-1.05-5.71-2.34l-.47-3.92c-.16-1.29,2.1-2.34,5-2.34h8.14c2.94,0,5.5,1.05,5.71,2.34l.66,3.92C325.89,318.86,323.63,319.91,320.63,319.91Z" transform="translate(-16.51 -14.33)"/><path d="M320.18,317.74c-1.25-.14-2.47-.29-3.55-.45a3.82,3.82,0,0,0-.56-.06c-2.17,0-4.11-.72-4.28-2s1.49-2.08,3.92-2.08,4.17.83,4.34,2c.16,1-.82,1.65-2.3,1.88v0c.92.1,1.92.19,2.69.25Zm-1.36-2.56c-.12-.79-1.17-1.6-3.09-1.6s-2.82.79-2.69,1.65,1.27,1.58,3.1,1.58S319,316.08,318.82,315.18Z" transform="translate(-16.51 -14.33)"/><path class="cls-4" d="M343.84,319.91h-8.32c-3,0-5.61-1.05-5.84-2.34l-.69-3.92c-.23-1.29,2-2.34,4.91-2.34h8.15c2.94,0,5.55,1.05,5.84,2.34l.87,3.92C349,318.86,346.84,319.91,343.84,319.91Z" transform="translate(-16.51 -14.33)"/><path d="M337.13,317.17l-3-3.94h1.23l1.45,2c.36.49.7,1,.94,1.36h0a8.42,8.42,0,0,1,.48-1.37l.81-2h1.21l1.51,2a10.33,10.33,0,0,1,.91,1.35h0a11.93,11.93,0,0,1,.44-1.37l.78-2h1.18l-1.73,3.94h-1.22l-1.57-2.05a8.8,8.8,0,0,1-.85-1.29h0a6.57,6.57,0,0,1-.44,1.29l-.89,2.05Z" transform="translate(-16.51 -14.33)"/><path class="cls-4" d="M365.51,319.91h-8.32c-3,0-5.67-1.05-6-2.34l-.89-3.92c-.3-1.29,1.85-2.34,4.79-2.34h8.14c2.94,0,5.61,1.05,6,2.34l1.07,3.92C370.66,318.86,368.51,319.91,365.51,319.91Z" transform="translate(-16.51 -14.33)"/><path d="M361.42,315.32H357.9l.35,1.42h3.93l.11.43h-5.11l-.95-3.94h4.86l.11.43h-3.71l.31,1.24h3.51Z" transform="translate(-16.51 -14.33)"/><path class="cls-4" d="M388.15,319.91h-8.31c-3,0-5.73-1.05-6.1-2.34l-1.1-3.92c-.36-1.29,1.73-2.34,4.67-2.34h8.14c2.94,0,5.67,1.05,6.09,2.34l1.28,3.92C393.24,318.86,391.15,319.91,388.15,319.91Z" transform="translate(-16.51 -14.33)"/><path d="M378.53,313.28c.57,0,1.4-.08,2.2-.08a8.36,8.36,0,0,1,2.71.32,1.39,1.39,0,0,1,.94.75c.16.52-.49.86-1.4,1v0a2.43,2.43,0,0,1,1.57.79,7.64,7.64,0,0,0,1,1.09h-1.21a5.57,5.57,0,0,1-.89-.94,2.32,2.32,0,0,0-2.05-.77h-1.1l.51,1.71h-1.18Zm1.69,1.79h1.2c1.24,0,1.95-.29,1.81-.74s-1.07-.73-2.3-.74a8.74,8.74,0,0,0-1.14.05Z" transform="translate(-16.51 -14.33)"/><path class="cls-4" d="M411.36,319.91h-8.31c-3,0-5.79-1.05-6.22-2.34l-1.32-3.92c-.44-1.29,1.59-2.34,4.53-2.34h8.15c2.94,0,5.72,1.05,6.21,2.34l1.5,3.92C416.4,318.86,414.36,319.91,411.36,319.91Z" transform="translate(-16.51 -14.33)"/><path d="M403.21,313.66h-2.74l-.15-.43H407l.16.43h-2.76l1.25,3.51h-1.18Z" transform="translate(-16.51 -14.33)"/><path class="cls-4" d="M89.29,330.62H80.77c-3.08,0-5.14-1-4.6-2.33l1.65-3.93c.54-1.29,3.43-2.33,6.45-2.33h8.35c3,0,5.07,1,4.59,2.33l-1.47,3.93C95.26,329.58,92.37,330.62,89.29,330.62Z" transform="translate(-16.51 -14.33)"/><path class="cls-4" d="M112.51,330.62H104c-3.08,0-5.19-1-4.72-2.33l1.43-3.93c.48-1.29,3.31-2.33,6.32-2.33h8.36c3,0,5.13,1,4.71,2.33l-1.26,3.93C118.42,329.58,115.59,330.62,112.51,330.62Z" transform="translate(-16.51 -14.33)"/><path class="cls-4" d="M136.31,330.62h-8.52c-3.08,0-5.25-1-4.85-2.33l1.22-3.93c.4-1.29,3.17-2.33,6.19-2.33h8.36c3,0,5.18,1,4.84,2.33l-1,3.93C142.16,329.58,139.39,330.62,136.31,330.62Z" transform="translate(-16.51 -14.33)"/><path d="M130.45,323.73h1.21l-1.22,4.15h-1.22Z" transform="translate(-16.51 -14.33)"/><path d="M138.94,326.44c-.28,1.05-2.12,1.5-3.74,1.5-1.82,0-3-.56-2.79-1.45s1.89-1.5,3.73-1.5S139.18,325.58,138.94,326.44Zm-5.3,0c-.18.62.53,1.09,1.72,1.09s2.16-.46,2.34-1.1c.13-.48-.26-1.09-1.69-1.09S133.8,325.93,133.64,326.47Z" transform="translate(-16.51 -14.33)"/><path class="cls-4" d="M160.32,330.62h-8.53c-3.08,0-5.31-1-5-2.33l1-3.93c.33-1.29,3.05-2.33,6.06-2.33h8.36c3,0,5.24,1,5,2.33l-.82,3.93C166.11,329.58,163.39,330.62,160.32,330.62Z" transform="translate(-16.51 -14.33)"/><path d="M154.07,323.73h1.21l-1,4.15h-1.22Z" transform="translate(-16.51 -14.33)"/><path class="cls-7" d="M316.7,330.62H183.15c-5.66,0-9.87-1.92-9.41-4.3h0c.46-2.37,5.33-4.29,10.87-4.29H315.5c5.55,0,10.36,1.92,10.75,4.29h0C326.64,328.7,322.36,330.62,316.7,330.62Z" transform="translate(-16.51 -14.33)"/><path class="cls-4" d="M347.78,330.62h-8.53c-3.07,0-5.76-1-6-2.33l-.7-3.93c-.24-1.29,2-2.33,5-2.33H346c3,0,5.69,1,6,2.33l.89,3.93C353.12,329.58,350.86,330.62,347.78,330.62Z" transform="translate(-16.51 -14.33)"/><path d="M338.62,323.94h1.19l.38,1.9h0l.64-.42,2.53-1.48h1.49l-3,1.67,4.09,2.27h-1.42l-3.46-1.94-.8.44.3,1.5h-1.21Z" transform="translate(-16.51 -14.33)"/><path class="cls-4" d="M370,330.62h-8.53c-3.07,0-5.81-1-6.11-2.33l-.91-3.93c-.29-1.29,1.91-2.33,4.93-2.33h8.35c3,0,5.75,1,6.11,2.33l1.09,3.93C375.28,329.58,373.08,330.62,370,330.62Z" transform="translate(-16.51 -14.33)"/><path d="M366.57,327.88l-1.41-.87c-.57-.34-.93-.55-1.28-.78h0a9.07,9.07,0,0,1-.81.78l-.91.87h-1.38l2.35-2-3.2-1.95h1.38l1.45.92c.41.26.72.46,1,.67h0c.21-.23.39-.41.67-.67l1-.92h1.37l-2.32,1.92,3.42,2Z" transform="translate(-16.51 -14.33)"/><path class="cls-4" d="M393.22,330.62h-8.53c-3.07,0-5.87-1-6.23-2.33l-1.12-3.93c-.37-1.29,1.78-2.33,4.79-2.33h8.36c3,0,5.81,1,6.23,2.33l1.3,3.93C398.45,329.58,396.3,330.62,393.22,330.62Z" transform="translate(-16.51 -14.33)"/><path d="M390.38,326.49l-6,1.39-.12-.4,5.09-1.15h0l-5.77-1.15-.12-.4,6.81,1.39Z" transform="translate(-16.51 -14.33)"/><path class="cls-4" d="M417,330.62H408.5c-3.08,0-5.93-1-6.37-2.33l-1.34-3.93c-.44-1.29,1.65-2.33,4.67-2.33h8.36c3,0,5.86,1,6.36,2.33l1.51,3.93C422.19,329.58,420.1,330.62,417,330.62Z" transform="translate(-16.51 -14.33)"/><path d="M410.33,326.11l.13.38h-3.4l-.14-.38Z" transform="translate(-16.51 -14.33)"/><rect class="cls-8" x="122.82" y="45.17" width="241.78" height="65" rx="6.23"/><rect class="cls-8" x="133.96" y="51.17" width="224.85" height="52" rx="7.39"/><text class="cls-9" transform="translate(178.2 103.17)"><tspan class="cls-10">f</tspan><tspan x="16.74" y="0">oofle</tspan></text><rect class="cls-11" x="124.38" y="113.77" width="238.22" height="54.79" rx="15.77"/></svg>