<svg id="Layer_1" data-name="Layer 1" xmlns="http://www.w3.org/2000/svg" viewBox="0 0 259 509"><defs><style>.cls-1{fill:#fff;stroke:#000;stroke-miterlimit:10;stroke-width:9px;}.cls-2{font-size:60px;}.cls-2,.cls-9{font-family:MyriadPro-Regular, Myriad Pro;}.cls-3{letter-spacing:-0.01em;}.cls-4{letter-spacing:0em;}.cls-5{letter-spacing:-0.01em;}.cls-6{fill:#ed1c24;}.cls-7{letter-spacing:-0.02em;}.cls-8{fill:lime;}.cls-9{font-size:36px;}.cls-10{letter-spacing:-0.03em;}.cls-11{fill:blue;}.cls-12{letter-spacing:0.01em;}.cls-13{fill:#f7931e;}</style></defs><title>legend</title><rect class="cls-1" x="4.5" y="4.5" width="250" height="500"/><text class="cls-2" transform="translate(61.71 65.89)"><tspan class="cls-3">T</tspan><tspan x="29.4" y="0">hing</tspan></text><rect x="25.65" y="38.86" width="19.67" height="19.67"/><text class="cls-2" transform="translate(66.22 138.84)"><tspan class="cls-4">P</tspan><tspan x="31.62" y="0">la</tspan><tspan class="cls-5" x="74.7" y="0">c</tspan><tspan x="101.22" y="0">e</tspan></text><rect class="cls-6" x="21.96" y="115.5" width="36.07" height="12.3"/><text class="cls-2" transform="translate(69.91 208.1)"><tspan class="cls-7">P</tspan><tspan x="30.42" y="0">erson</tspan></text><circle class="cls-8" cx="39.48" cy="187.53" r="13.83"/><text class="cls-9" transform="translate(73.19 266.06)"><tspan class="cls-10">V</tspan><tspan x="18.9" y="0">egetable</tspan></text><polygon class="cls-11" points="45.32 232.06 48.89 243.83 58.91 236.35 54.68 247.91 67.32 247.57 56.88 254.5 67.32 261.43 54.68 261.09 58.91 272.65 48.89 265.17 45.32 276.94 41.75 265.17 31.72 272.65 35.96 261.09 23.32 261.43 33.76 254.5 23.32 247.57 35.96 247.91 31.72 236.35 41.75 243.83 45.32 232.06"/><text class="cls-9" transform="translate(83.02 333.68)">Emp<tspan class="cls-12" x="68.22" y="0">t</tspan><tspan x="80.46" y="0">y</tspan></text><polygon class="cls-13" points="45.32 299.52 17.73 338.2 72.91 338.2 45.32 299.52"/></svg>