<svg id="Layer_1" data-name="Layer 1" xmlns="http://www.w3.org/2000/svg" viewBox="0 0 501 501"><defs><style>.cls-1{fill:#ebfff0;}.cls-1,.cls-2{stroke:#000;stroke-miterlimit:10;}.cls-2{fill:#efedcd;}.cls-3{font-size:12px;font-family:MyriadPro-Regular, Myriad Pro;}.cls-4{letter-spacing:-0.01em;}.cls-5{letter-spacing:-0.05em;}.cls-6{letter-spacing:-0.08em;}.cls-7{letter-spacing:-0.01em;}.cls-8{letter-spacing:0.01em;}.cls-9{letter-spacing:-0.01em;}.cls-10{letter-spacing:-0.04em;}.cls-11{letter-spacing:-0.01em;}.cls-12{letter-spacing:-0.01em;}.cls-13{letter-spacing:-0.02em;}.cls-14{letter-spacing:-0.01em;}.cls-15{letter-spacing:-0.01em;}.cls-16{fill:#ed1e79;}.cls-16,.cls-17,.cls-18,.cls-19{opacity:0.29;}.cls-17{fill:lime;}.cls-18{fill:#29abe2;}.cls-19{fill:#ed1c24;}</style></defs><title>lilysdeskback</title><rect class="cls-1" x="0.5" y="0.5" width="500" height="500"/><rect class="cls-2" x="312.5" y="98.5" width="167" height="149" rx="11.25"/><text class="cls-3" transform="translate(317 116.02)">GO BUSINESS!<tspan x="0" y="28.8">OUR G</tspan><tspan class="cls-4" x="32.78" y="28.8">O</tspan><tspan x="40.88" y="28.8">ALS:</tspan><tspan x="0" y="57.6">-</tspan><tspan class="cls-5" x="3.68" y="57.6"> </tspan><tspan class="cls-6" x="5.68" y="57.6">Y</tspan><tspan x="11.26" y="57.6">ou</tspan><tspan x="0" y="72">- Hap</tspan><tspan class="cls-7" x="26.66" y="72">p</tspan><tspan x="33.41" y="72">y </tspan><tspan class="cls-8" x="41.6" y="72">N</tspan><tspan x="49.62" y="72">i</tspan><tspan class="cls-9" x="52.43" y="72">c</tspan><tspan x="57.73" y="72">e</tspan><tspan x="0" y="86.4">- Not mone</tspan><tspan class="cls-10" x="56.49" y="86.4">y</tspan><tspan x="61.68" y="86.4">, no si</tspan><tspan class="cls-11" x="90.06" y="86.4">r</tspan><tspan x="93.86" y="86.4">e</tspan><tspan class="cls-12" x="99.87" y="86.4">e</tspan><tspan x="105.74" y="86.4">.</tspan><tspan x="0" y="100.8">- </tspan><tspan class="cls-13" x="6.23" y="100.8">P</tspan><tspan x="12.31" y="100.8">ea</tspan><tspan class="cls-9" x="24.11" y="100.8">c</tspan><tspan x="29.41" y="100.8">e</tspan><tspan x="0" y="115.2">- Sun</tspan><tspan class="cls-14" x="25.42" y="115.2">n</tspan><tspan x="31.92" y="115.2">y d</tspan><tspan class="cls-15" x="46.88" y="115.2">a</tspan><tspan class="cls-9" x="52.57" y="115.2">y</tspan><tspan x="58.15" y="115.2">s</tspan></text><rect class="cls-16" x="420" y="103" width="24.5" height="141.5"/><rect class="cls-17" x="402" y="108" width="24.5" height="119.75"/><rect class="cls-18" x="386" y="121.25" width="24.5" height="119.75"/><rect class="cls-19" x="364.5" y="113.13" width="24.5" height="119.75"/></svg>