<svg id="Layer_1" data-name="Layer 1" xmlns="http://www.w3.org/2000/svg" xmlns:xlink="http://www.w3.org/1999/xlink" viewBox="0 0 501 501"><defs><style>.cls-1{fill:none;}.cls-2{fill:#ebfff0;}.cls-10,.cls-2,.cls-9{stroke:#000;stroke-miterlimit:10;}.cls-3{fill:#393939;}.cls-4{fill:#e6e6e6;}.cls-5{fill:#c7b299;}.cls-6{fill:#998675;}.cls-7{clip-path:url(#clip-path);}.cls-8{fill:#333;}.cls-9{fill:#fcee21;}.cls-10{fill:#efedcd;}.cls-11{font-size:12px;font-family:MyriadPro-Regular, Myriad Pro;}.cls-12{letter-spacing:-0.01em;}.cls-13{letter-spacing:-0.05em;}.cls-14{letter-spacing:-0.08em;}.cls-15{letter-spacing:-0.01em;}.cls-16{letter-spacing:0.01em;}.cls-17{letter-spacing:-0.01em;}.cls-18{letter-spacing:-0.04em;}.cls-19{letter-spacing:-0.01em;}.cls-20{letter-spacing:-0.01em;}.cls-21{letter-spacing:-0.02em;}.cls-22{letter-spacing:-0.01em;}.cls-23{letter-spacing:-0.01em;}.cls-24{fill:#ed1e79;}.cls-24,.cls-25,.cls-26,.cls-27{opacity:0.29;}.cls-25{fill:lime;}.cls-26{fill:#29abe2;}.cls-27{fill:#ed1c24;}</style><clipPath id="clip-path" transform="translate(0.5 0.5)"><rect class="cls-1" y="415.73" width="112.5" height="84.27"/></clipPath></defs><title>lilysdesk</title><rect class="cls-2" x="0.5" y="0.5" width="500" height="500"/><path class="cls-3" d="M.5,238h246A27.51,27.51,0,0,1,274,265.51v235a0,0,0,0,1,0,0H.5a0,0,0,0,1,0,0V238A0,0,0,0,1,.5,238Z"/><path class="cls-4" d="M.5,241H243.7a27.2,27.2,0,0,1,27.2,27.2V500.5a0,0,0,0,1,0,0H.5a0,0,0,0,1,0,0V241A0,0,0,0,1,.5,241Z"/><path class="cls-5" d="M.5,250.5H237.25A23.75,23.75,0,0,1,261,274.25V500.5a0,0,0,0,1,0,0H.5a0,0,0,0,1,0,0v-250A0,0,0,0,1,.5,250.5Z"/><polygon class="cls-6" points="55.5 500.5 86.17 500.5 113 426.03 55.5 426.03 55.5 500.5"/><g class="cls-7"><polygon class="cls-8" points="67.39 500.5 0.5 500.5 0.5 416.23 119 416.23 67.39 500.5"/><polygon class="cls-4" points="64 496.23 0.5 496.23 0.5 416.23 113 416.23 64 496.23"/></g><rect class="cls-9" x="45" y="292.5" width="21.5" height="21.5"/><rect class="cls-9" x="30" y="307" width="21.5" height="21.5"/><rect class="cls-9" x="12.5" y="278" width="21.5" height="21.5"/><rect class="cls-9" x="82.5" y="296.25" width="21.5" height="21.5"/><rect class="cls-9" x="6.5" y="370.75" width="21.5" height="21.5"/><rect class="cls-10" x="312.5" y="98.5" width="167" height="149" rx="11.25"/><text class="cls-11" transform="translate(317 116.02)">GO BUSINESS!<tspan x="0" y="28.8">OUR G</tspan><tspan class="cls-12" x="32.78" y="28.8">O</tspan><tspan x="40.88" y="28.8">ALS:</tspan><tspan x="0" y="57.6">-</tspan><tspan class="cls-13" x="3.68" y="57.6"> </tspan><tspan class="cls-14" x="5.68" y="57.6">Y</tspan><tspan x="11.26" y="57.6">ou</tspan><tspan x="0" y="72">- Hap</tspan><tspan class="cls-15" x="26.66" y="72">p</tspan><tspan x="33.41" y="72">y </tspan><tspan class="cls-16" x="41.6" y="72">N</tspan><tspan x="49.62" y="72">i</tspan><tspan class="cls-17" x="52.43" y="72">c</tspan><tspan x="57.73" y="72">e</tspan><tspan x="0" y="86.4">- Not mone</tspan><tspan class="cls-18" x="56.49" y="86.4">y</tspan><tspan x="61.68" y="86.4">, no si</tspan><tspan class="cls-19" x="90.06" y="86.4">r</tspan><tspan x="93.86" y="86.4">e</tspan><tspan class="cls-20" x="99.87" y="86.4">e</tspan><tspan x="105.74" y="86.4">.</tspan><tspan x="0" y="100.8">- </tspan><tspan class="cls-21" x="6.23" y="100.8">P</tspan><tspan x="12.31" y="100.8">ea</tspan><tspan class="cls-17" x="24.11" y="100.8">c</tspan><tspan x="29.41" y="100.8">e</tspan><tspan x="0" y="115.2">- Sun</tspan><tspan class="cls-22" x="25.42" y="115.2">n</tspan><tspan x="31.92" y="115.2">y d</tspan><tspan class="cls-23" x="46.88" y="115.2">a</tspan><tspan class="cls-17" x="52.57" y="115.2">y</tspan><tspan x="58.15" y="115.2">s</tspan></text><rect class="cls-24" x="420" y="103" width="24.5" height="141.5"/><rect class="cls-25" x="402" y="108" width="24.5" height="119.75"/><rect class="cls-26" x="386" y="121.25" width="24.5" height="119.75"/><rect class="cls-27" x="364.5" y="113.13" width="24.5" height="119.75"/></svg>