<svg id="Layer_1" data-name="Layer 1" xmlns="http://www.w3.org/2000/svg" xmlns:xlink="http://www.w3.org/1999/xlink" viewBox="0 0 501 501"><defs><style>.cls-1,.cls-2{fill:none;}.cls-2,.cls-9{stroke:#000;stroke-miterlimit:10;}.cls-3{fill:#393939;}.cls-4{fill:#e6e6e6;}.cls-5{fill:#c7b299;}.cls-6{fill:#998675;}.cls-7{clip-path:url(#clip-path);}.cls-8{fill:#333;}.cls-9{fill:#fcee21;}</style><clipPath id="clip-path" transform="translate(0.5 0.5)"><rect class="cls-1" y="415.73" width="112.5" height="84.27"/></clipPath></defs><title>lilysdeskfore</title><rect class="cls-2" x="0.5" y="0.5" width="500" height="500"/><path class="cls-3" d="M.5,238h246A27.51,27.51,0,0,1,274,265.51v235a0,0,0,0,1,0,0H.5a0,0,0,0,1,0,0V238A0,0,0,0,1,.5,238Z"/><path class="cls-4" d="M.5,241H243.7a27.2,27.2,0,0,1,27.2,27.2V500.5a0,0,0,0,1,0,0H.5a0,0,0,0,1,0,0V241A0,0,0,0,1,.5,241Z"/><path class="cls-5" d="M.5,250.5H237.25A23.75,23.75,0,0,1,261,274.25V500.5a0,0,0,0,1,0,0H.5a0,0,0,0,1,0,0v-250A0,0,0,0,1,.5,250.5Z"/><polygon class="cls-6" points="55.5 500.5 86.17 500.5 113 426.03 55.5 426.03 55.5 500.5"/><g class="cls-7"><polygon class="cls-8" points="67.39 500.5 0.5 500.5 0.5 416.23 119 416.23 67.39 500.5"/><polygon class="cls-4" points="64 496.23 0.5 496.23 0.5 416.23 113 416.23 64 496.23"/></g><rect class="cls-9" x="45" y="292.5" width="21.5" height="21.5"/><rect class="cls-9" x="30" y="307" width="21.5" height="21.5"/><rect class="cls-9" x="12.5" y="278" width="21.5" height="21.5"/><rect class="cls-9" x="82.5" y="296.25" width="21.5" height="21.5"/><rect class="cls-9" x="6.5" y="370.75" width="21.5" height="21.5"/></svg>