<svg id="Layer_1" data-name="Layer 1" xmlns="http://www.w3.org/2000/svg" viewBox="0 0 369.44 95.26"><defs><style>.cls-1{fill:blue;}.cls-1,.cls-2{stroke:#000;stroke-miterlimit:10;}.cls-2{fill:aqua;}</style></defs><title>mess01</title><path class="cls-1" d="M360,200.18c9-4,14.22-8.91,14.22-14.18,0-13.81-36.06-25-80.53-25-27.47,0-51.7,4.27-66.24,10.79-17-4.83-43.36-7.92-72.9-7.92-51.38,0-93,9.36-93,20.9,0,6.62,13.73,12.52,35.11,16.35-2.8,1.28-4.37,2.69-4.37,4.19,0,5,17.45,9.14,40.49,10a7.13,7.13,0,0,0-.73,3.08c0,14.05,44.49,25.44,99.38,25.44,7.94,0,15.66-.24,23-.69,17.39,7.31,46.38,12.1,79.21,12.1,53.19,0,96.31-12.57,96.31-28.07C430,214.35,400.39,203.52,360,200.18Z" transform="translate(-61.02 -160.5)"/><path d="M114.77,192.69c9-.6,17.58-3.06,26.21-5.53a134,134,0,0,1,30-5.4c1.92-.11,1.94-3.11,0-3a127.7,127.7,0,0,0-27.24,4.51c-9.56,2.63-19,5.75-28.94,6.42-1.92.12-1.93,3.12,0,3Z" transform="translate(-61.02 -160.5)"/><path d="M157.16,202.44c16.73-3.95,33.46-7.9,50.32-11.26,8.26-1.64,16.56-3.15,24.88-4.44,6.93-1.08,15.08-.92,21.42-4.22,1.71-.9.2-3.49-1.52-2.6-6.65,3.47-16.23,3.2-23.58,4.38-8,1.29-16,2.77-23.9,4.37-16.22,3.28-32.32,7.08-48.41,10.88-1.88.44-1.09,3.34.79,2.89Z" transform="translate(-61.02 -160.5)"/><path d="M233.68,201.93c16.91-3.15,33.81-6.38,50.74-9.45,8.54-1.55,16.92-1.62,25.54-2.26,7.78-.57,15.35-2.47,22.88-4.42,1.87-.48,1.08-3.37-.8-2.89-8.21,2.13-16.37,4.08-24.88,4.48a175,175,0,0,0-23.54,2.2c-16.93,3.07-33.83,6.3-50.74,9.45-1.89.35-1.09,3.25.8,2.89Z" transform="translate(-61.02 -160.5)"/><path d="M270.26,229a298,298,0,0,1,43.6-7.23c12.65-1.12,26.2.11,38.32-4.19,1.8-.64,1-3.54-.8-2.89-12.93,4.59-27.78,3.06-41.3,4.44a303.81,303.81,0,0,0-40.62,7c-1.87.45-1.08,3.34.8,2.89Z" transform="translate(-61.02 -160.5)"/><path d="M359.47,236.91c7-.36,13.34-3.09,20-4.94,7.67-2.1,14.93.16,22.57-1.11,1.9-.31,1.09-3.2-.8-2.89-7,1.17-13.9-1-21,.7s-13.52,4.87-20.82,5.24c-1.92.1-1.93,3.1,0,3Z" transform="translate(-61.02 -160.5)"/><ellipse class="cls-2" cx="142.1" cy="58.47" rx="12.5" ry="2.85"/><ellipse class="cls-2" cx="228.85" cy="12.83" rx="12.5" ry="2.85"/><ellipse class="cls-2" cx="271.42" cy="85.51" rx="12.5" ry="2.85"/></svg>