<svg id="Layer_1" data-name="Layer 1" xmlns="http://www.w3.org/2000/svg" viewBox="0 0 1960.3 84.07"><defs><style>.cls-1{fill:#958573;}.cls-2{fill:#e9e0d6;}</style></defs><path class="cls-1" d="M1436.67,528.25a7.45,7.45,0,0,1,1.77-8.2,10.82,10.82,0,0,1,9.25-2.61,36.49,36.49,0,0,0-1.56,10.71c-.34-4.39,3.56-8.36,8.21-10.22s10-2,15.08-2.21a17.55,17.55,0,0,0-5.28,15l12.12-7.56c5.7-3.55,12.5-7.29,19.27-5.65a20.69,20.69,0,0,0,.62,14.29,38.16,38.16,0,0,1,5.45-9,16.11,16.11,0,0,1,9.65-5.46,19.92,19.92,0,0,0,2.81,14.89c3.81-1.77,5.5-5.68,8.77-8.11,3.81-2.85,9.23-3.35,14.28-3.73-3.75,1.28-6.26,4.83-5.83,8.27,6.89-3.11,14-6.28,21.83-6.73s16.4,2.61,19.31,8.79a61.68,61.68,0,0,0-31-1.59,13.79,13.79,0,0,1,11,5.18A18,18,0,0,1,1556,545c-6.58-6.59-16.33-10.8-26.43-11.42a11.13,11.13,0,0,1,9.29,6.22c1.63,3.26,1.77,6.91,1.88,10.46-2.3-3.37-4.72-6.85-8.45-9.09s-9.18-2.9-12.74-.46c5.3,2.51,8.27,8.18,6.92,13.24A70.84,70.84,0,0,0,1510,543.7c-2.75-1.25-5.94-2.36-8.9-1.53a11.12,11.12,0,0,0-4.9,3.4,40.74,40.74,0,0,0-7.16,10.4l1.37-11.44a2.57,2.57,0,0,0-.49-2.3c-1-.9-2.71-.42-4,.18a41.79,41.79,0,0,0-16.06,13.16,46.94,46.94,0,0,0-.54-10.59,3.34,3.34,0,0,0-1-2.18c-1.74-1.4-4.43.34-5.89,2l-8.83,9.79c1.12-5-2.53-10.54-8.16-12.31a3.85,3.85,0,0,0-2-.2,3.64,3.64,0,0,0-1.64,1.1,40,40,0,0,0-8.84,13.33,10.64,10.64,0,0,1-4.67-9.24,11.14,11.14,0,0,1,6-8.67c-10.09.11-19.78,6-23.29,14.05a12.24,12.24,0,0,1,2-10.67c-3.88.44-7.83.9-11.38,2.32s-6.68,4-7.51,7.26a7.16,7.16,0,0,1-.32-9.25,10.34,10.34,0,0,1,10.16-3.15,7.36,7.36,0,0,0-4.27-3.38,29,29,0,0,1,14.61,2c.89-2.61-1.15-5.68-4.22-6.36a29.64,29.64,0,0,1,11.68.66l-1.29-4.56a2.36,2.36,0,0,1-.08-1.57c.57-1.34,3-1,4.19,0s1.75,2.53,3.12,3.35a24.54,24.54,0,0,1,2.36-9.71,29.74,29.74,0,0,1,5.86,8.32" transform="translate(20.38 -498.35)"/><path class="cls-2" d="M1437.63,528c-2.45-6.18,4.28-10.52,9.8-9.59l-.7-1.22a39.18,39.18,0,0,0-1.6,11h2c-.23-4.34,3.59-7.59,7.25-9.16,4.71-2,10-2.11,15.05-2.27l-.71-1.7a18.9,18.9,0,0,0-5.53,16,1,1,0,0,0,1.46.6c5-3.1,9.86-6.34,14.93-9.26,4.73-2.72,10.15-5.11,15.7-3.86l-.7-1.22a22.07,22.07,0,0,0,.62,14.82c.28.71,1.4,1.09,1.82.24,3.08-6.32,6.93-12.8,14.5-14l-1.22-1.23a21.35,21.35,0,0,0,2.91,15.66,1,1,0,0,0,1.36.36c3.86-1.89,5.67-5.94,9.08-8.34,3.85-2.71,8.93-3,13.47-3.36l-.27-2c-3.82,1.39-7,4.94-6.56,9.22a1,1,0,0,0,1.5.85c7.34-3.3,15.13-6.78,23.35-6.62,6.16.12,13.53,2.41,16.43,8.33l1.13-1.46a63.05,63.05,0,0,0-31.51-1.59c-1.1.22-.84,2,.27,1.95a12.87,12.87,0,0,1,9.69,4.21c2.64,2.89,3.65,6.81,3.81,10.63l1.7-.7c-7.2-7.13-17.1-11.05-27.13-11.71v2a10,10,0,0,1,7.92,4.81c2,3.24,2.14,7.18,2.26,10.87l1.85-.5c-2.66-3.89-5.57-8-10-10-3.89-1.86-8.86-2.3-12.61.14a1,1,0,0,0,0,1.71c4.48,2.2,7.73,7,6.47,12.12l1.66-.44a73.31,73.31,0,0,0-10.23-7.16c-3.55-2-7.53-4.34-11.61-5s-7.31,1.14-10,4.12a42.18,42.18,0,0,0-7,10.28l1.85.5.74-6.19a52.13,52.13,0,0,0,.69-5.95,2.88,2.88,0,0,0-2.13-3c-1.52-.38-3.1.33-4.44,1a43.15,43.15,0,0,0-15.85,13.24l1.85.51a49.66,49.66,0,0,0-.42-9.9,5.52,5.52,0,0,0-1.4-3.57,3.46,3.46,0,0,0-2.89-.74c-2.69.44-4.49,2.8-6.2,4.69l-7,7.8,1.66,1c1.22-6-3.17-11.81-8.86-13.54a4.13,4.13,0,0,0-4.33.88,32,32,0,0,0-3.85,4.37,40.52,40.52,0,0,0-5.53,9.67l1.46-.59a9.67,9.67,0,0,1-4.16-8.55,10.31,10.31,0,0,1,5.48-7.64,1,1,0,0,0-.51-1.85c-9.71.17-20.07,5.36-24.15,14.54l1.81.24a11.6,11.6,0,0,1,1.94-9.91,1,1,0,0,0-.86-1.49c-7.07.8-17.56,2.07-19.84,10.31l1.66-.44a6.23,6.23,0,0,1,.24-8.47,9.45,9.45,0,0,1,8.63-2.27,1,1,0,0,0,1.12-1.46,8.73,8.73,0,0,0-4.86-3.84l-.27,2a28.91,28.91,0,0,1,14.34,2,1,1,0,0,0,1.22-.7c1-3.48-1.61-6.74-4.91-7.58v1.92a29.16,29.16,0,0,1,11.16.66,1,1,0,0,0,1.22-1.22l-1.1-3.88c-.14-.5-.58-1.45,0-1.82.31-.21,1-.05,1.32,0,1.87.52,2.72,2.94,4.31,4a1,1,0,0,0,1.5-.85A24.09,24.09,0,0,1,1431,520l-1.56.2a30.07,30.07,0,0,1,5.7,8.12c.55,1.15,2.27.15,1.72-1a31.81,31.81,0,0,0-6-8.53,1,1,0,0,0-1.57.21,26.71,26.71,0,0,0-2.49,10.21l1.49-.86c-1.3-.87-1.92-2.4-3.13-3.36a4.65,4.65,0,0,0-3.63-.94,2.45,2.45,0,0,0-2.14,2.41,9.65,9.65,0,0,0,.6,2.63l.9,3.19,1.22-1.22a31.6,31.6,0,0,0-12.21-.67c-1,.13-.88,1.69,0,1.92,2.27.57,4.26,2.68,3.53,5.14l1.22-.7a30.11,30.11,0,0,0-14.87-2,1,1,0,0,0-.26,2,6.64,6.64,0,0,1,3.68,2.92l1.12-1.46c-3.85-.86-8.42.16-11,3.28a8.28,8.28,0,0,0,.22,10.79,1,1,0,0,0,1.66-.44c.89-3.22,3.85-5.37,6.81-6.57,3.53-1.44,7.37-1.86,11.12-2.29l-.86-1.49a13.49,13.49,0,0,0-2.13,11.44,1,1,0,0,0,1.81.23c3.81-8.56,13.36-13.39,22.44-13.55l-.5-1.85a12.31,12.31,0,0,0-6.46,9.35c-.38,4.12,1.92,7.9,5.15,10.27.57.42,1.24-.07,1.46-.6a38.53,38.53,0,0,1,4.31-7.83,39.2,39.2,0,0,1,2.93-3.64c.48-.53,1-1.07,1.48-1.56a2.26,2.26,0,0,1,2.55-.5c4.6,1.36,8.46,6.16,7.47,11.09-.19.9.94,1.76,1.66,1l5.39-6c1.61-1.79,3.19-4.09,5.28-5.35.79-.48,2-1,2.76-.27s.79,2.67.91,3.72a48.8,48.8,0,0,1,.21,8.2c-.07,1.07,1.32,1.22,1.85.5a40.44,40.44,0,0,1,12.93-11.37,16.79,16.79,0,0,1,3.9-1.85c.67-.16,1.62-.31,1.86.55a6.76,6.76,0,0,1-.18,2.32L1488.08,556c-.12,1,1.44,1.36,1.85.5a40.38,40.38,0,0,1,6.25-9.38,15,15,0,0,1,3.93-3.44,8.05,8.05,0,0,1,5.93-.38,43.31,43.31,0,0,1,10.23,4.77,69.72,69.72,0,0,1,9.45,6.63,1,1,0,0,0,1.66-.44c1.46-5.92-2.09-11.76-7.38-14.36v1.71c3.34-2.17,7.88-1.65,11.26.2,3.73,2,6.23,5.57,8.57,9a1,1,0,0,0,1.85-.5c-.13-4.26-.35-8.86-2.91-12.46a12.11,12.11,0,0,0-9.25-5.21c-1.28-.06-1.27,1.9,0,2a40.4,40.4,0,0,1,25.72,11.12,1,1,0,0,0,1.7-.7c-.19-4.36-1.39-8.74-4.4-12a14.8,14.8,0,0,0-11.09-4.79l.26,1.95a61.06,61.06,0,0,1,30.45,1.6,1,1,0,0,0,1.12-1.46c-3.1-6.33-10.8-9-17.41-9.29-8.84-.42-17.22,3.32-25.09,6.87l1.49.86c-.32-3.37,2-6.19,5.1-7.31,1-.35.93-2-.26-1.95-4.67.35-9.73.7-13.83,3.21-3.79,2.32-5.69,6.79-9.72,8.76l1.36.36a19.27,19.27,0,0,1-2.71-14.13,1,1,0,0,0-1.22-1.22c-8.08,1.25-12.4,8.13-15.7,14.89l1.82.24a20.26,20.26,0,0,1-.62-13.77,1,1,0,0,0-.69-1.22c-5.65-1.27-11.15.71-16.07,3.4-5.51,3-10.76,6.58-16.09,9.91l1.46.59a16.76,16.76,0,0,1,5-14.05,1,1,0,0,0-.7-1.7c-5.65.18-11.65.34-16.81,2.9-4,2-7.73,5.78-7.48,10.52a1,1,0,0,0,2,0,37.31,37.31,0,0,1,1.53-10.44,1,1,0,0,0-.69-1.23,12,12,0,0,0-10,2.62,8.52,8.52,0,0,0-2.29,9.41c.46,1.18,2.39.67,1.91-.52Z" transform="translate(20.38 -498.35)"/><path class="cls-1" d="M1660.91,511.87a7.44,7.44,0,0,1,1.77-8.19,10.76,10.76,0,0,1,9.25-2.61,36.47,36.47,0,0,0-1.56,10.7c-.34-4.38,3.56-8.36,8.21-10.21s10-2.05,15.08-2.21a17.54,17.54,0,0,0-5.28,15l12.12-7.56c5.7-3.55,12.5-7.29,19.27-5.65a20.69,20.69,0,0,0,.62,14.29,38.37,38.37,0,0,1,5.45-9,16.16,16.16,0,0,1,9.65-5.46,19.9,19.9,0,0,0,2.81,14.89c3.81-1.77,5.5-5.67,8.77-8.11,3.81-2.85,9.23-3.35,14.28-3.72-3.75,1.28-6.26,4.82-5.83,8.26,6.9-3.11,14-6.28,21.83-6.72s16.4,2.6,19.31,8.79a61.68,61.68,0,0,0-31-1.6,13.76,13.76,0,0,1,11,5.19,17.94,17.94,0,0,1,3.52,10.65c-6.58-6.6-16.32-10.81-26.43-11.42a11.12,11.12,0,0,1,9.29,6.21c1.63,3.26,1.77,6.91,1.88,10.46-2.3-3.37-4.72-6.84-8.45-9.09s-9.18-2.9-12.74-.46c5.3,2.51,8.27,8.18,6.92,13.24a71.67,71.67,0,0,0-16.38-10.27c-2.76-1.24-6-2.36-8.91-1.52a11.1,11.1,0,0,0-4.9,3.39,40.79,40.79,0,0,0-7.16,10.41l1.37-11.44a2.59,2.59,0,0,0-.49-2.31c-1-.9-2.71-.41-4,.18a42,42,0,0,0-16.06,13.16,47,47,0,0,0-.54-10.59,3.32,3.32,0,0,0-1-2.17c-1.74-1.41-4.43.34-5.89,2l-8.83,9.8c1.12-5-2.53-10.55-8.16-12.32a3.75,3.75,0,0,0-2-.19,3.55,3.55,0,0,0-1.64,1.09,40.16,40.16,0,0,0-8.84,13.33,10.63,10.63,0,0,1-4.67-9.24,11.13,11.13,0,0,1,6-8.66c-10.1.1-19.79,5.94-23.3,14a12.26,12.26,0,0,1,2-10.68c-3.88.44-7.83.9-11.38,2.32s-6.68,4-7.51,7.27a7.16,7.16,0,0,1-.32-9.25,10.32,10.32,0,0,1,10.16-3.15,7.38,7.38,0,0,0-4.27-3.39,29.23,29.23,0,0,1,14.61,2c.89-2.61-1.15-5.68-4.22-6.36a29.64,29.64,0,0,1,11.68.67l-1.29-4.56a2.43,2.43,0,0,1-.08-1.57c.57-1.35,3-1.06,4.19,0s1.75,2.52,3.12,3.34a24.58,24.58,0,0,1,2.36-9.71,29.74,29.74,0,0,1,5.86,8.32" transform="translate(20.38 -498.35)"/><path class="cls-2" d="M1661.87,511.61c-2.45-6.17,4.28-10.51,9.8-9.59l-.7-1.22a39.18,39.18,0,0,0-1.6,11h2c-.23-4.33,3.59-7.59,7.25-9.15,4.71-2,10-2.12,15.05-2.28l-.71-1.69a18.88,18.88,0,0,0-5.53,16,1,1,0,0,0,1.46.59c5-3.09,9.86-6.33,14.93-9.25,4.73-2.72,10.15-5.11,15.7-3.86l-.69-1.22a22,22,0,0,0,.61,14.82c.29.71,1.4,1.09,1.82.24,3.08-6.33,6.93-12.81,14.5-14l-1.22-1.22a21.37,21.37,0,0,0,2.91,15.66,1,1,0,0,0,1.36.35c3.86-1.89,5.67-5.93,9.08-8.34,3.85-2.71,8.93-3,13.47-3.36l-.26-1.95c-3.83,1.39-7,4.95-6.57,9.22a1,1,0,0,0,1.5.86c7.34-3.31,15.13-6.78,23.35-6.62,6.16.12,13.53,2.4,16.43,8.33l1.13-1.46a63.17,63.17,0,0,0-31.51-1.6,1,1,0,0,0,.27,1.95,12.87,12.87,0,0,1,9.69,4.21c2.64,2.89,3.65,6.81,3.81,10.64l1.7-.71c-7.2-7.12-17.1-11.05-27.13-11.71v2a10.06,10.06,0,0,1,7.92,4.82c2,3.23,2.14,7.17,2.26,10.86l1.85-.5c-2.66-3.89-5.57-8-9.94-10-3.9-1.86-8.87-2.3-12.62.14a1,1,0,0,0,0,1.72c4.48,2.2,7.73,7,6.47,12.12l1.66-.44a72.47,72.47,0,0,0-10.23-7.16c-3.55-2.05-7.53-4.35-11.61-5s-7.31,1.15-10,4.12a42.23,42.23,0,0,0-7,10.29l1.86.5.73-6.2a51.87,51.87,0,0,0,.69-5.95,2.86,2.86,0,0,0-2.13-3c-1.52-.38-3.1.33-4.44,1a43.06,43.06,0,0,0-15.85,13.24l1.85.5a49.56,49.56,0,0,0-.42-9.89,5.54,5.54,0,0,0-1.4-3.58,3.45,3.45,0,0,0-2.89-.73c-2.69.44-4.49,2.79-6.2,4.69l-7,7.79,1.66,1c1.22-6-3.17-11.81-8.86-13.53a4.11,4.11,0,0,0-4.33.88,32.55,32.55,0,0,0-3.85,4.36,40.77,40.77,0,0,0-5.53,9.68l1.46-.6a9.65,9.65,0,0,1-4.16-8.55,10.3,10.3,0,0,1,5.48-7.63,1,1,0,0,0-.5-1.86c-9.72.18-20.08,5.36-24.16,14.54l1.82.24a11.54,11.54,0,0,1,1.93-9.9,1,1,0,0,0-.86-1.5c-7.07.8-17.56,2.08-19.84,10.31l1.66-.44a6.23,6.23,0,0,1,.24-8.47,9.44,9.44,0,0,1,8.63-2.26,1,1,0,0,0,1.12-1.46,8.68,8.68,0,0,0-4.86-3.84l-.27,2a28.91,28.91,0,0,1,14.34,2,1,1,0,0,0,1.22-.69c1-3.48-1.61-6.75-4.91-7.59V516a29.36,29.36,0,0,1,11.16.67,1,1,0,0,0,1.22-1.23l-1.1-3.87c-.14-.51-.58-1.46,0-1.82.31-.22,1-.06,1.32,0,1.87.51,2.72,2.93,4.31,4a1,1,0,0,0,1.5-.86,24.09,24.09,0,0,1,2.22-9.21l-1.56.2a30.23,30.23,0,0,1,5.7,8.12c.55,1.16,2.27.15,1.72-1a31.61,31.61,0,0,0-6-8.52,1,1,0,0,0-1.57.2,26.75,26.75,0,0,0-2.49,10.21l1.49-.86c-1.3-.86-1.91-2.4-3.13-3.36a4.65,4.65,0,0,0-3.63-.94,2.46,2.46,0,0,0-2.14,2.42,9.58,9.58,0,0,0,.6,2.62l.9,3.19,1.22-1.22a32,32,0,0,0-12.21-.67c-1,.14-.88,1.69,0,1.92,2.27.57,4.26,2.69,3.53,5.14l1.22-.69a30.1,30.1,0,0,0-14.87-2,1,1,0,0,0-.26,2,6.62,6.62,0,0,1,3.68,2.93l1.12-1.46c-3.85-.87-8.41.16-11,3.28a8.27,8.27,0,0,0,.22,10.78,1,1,0,0,0,1.66-.44c.9-3.21,3.85-5.36,6.82-6.57,3.52-1.43,7.36-1.86,11.11-2.28l-.86-1.5a13.49,13.49,0,0,0-2.13,11.44c.2.76,1.45,1,1.81.24,3.81-8.56,13.36-13.4,22.45-13.56l-.51-1.85a12.27,12.27,0,0,0-6.45,9.35c-.39,4.12,1.91,7.9,5.14,10.27.57.42,1.24-.06,1.46-.59a38.6,38.6,0,0,1,4.31-7.84,39.2,39.2,0,0,1,2.93-3.64c.48-.52,1-1.06,1.48-1.55a2.25,2.25,0,0,1,2.55-.51c4.6,1.37,8.46,6.16,7.47,11.09-.19.91.94,1.76,1.66,1l5.39-6c1.61-1.79,3.19-4.1,5.28-5.36.79-.47,2-1,2.76-.26s.79,2.67.91,3.72a48.71,48.71,0,0,1,.21,8.19c-.07,1.08,1.32,1.23,1.85.5A40.4,40.4,0,0,1,1708,528.33a16.39,16.39,0,0,1,3.9-1.85c.67-.17,1.62-.32,1.86.54a6.81,6.81,0,0,1-.18,2.33l-1.22,10.25c-.12,1,1.44,1.36,1.85.5a40.44,40.44,0,0,1,6.25-9.39,15,15,0,0,1,3.93-3.44,8.15,8.15,0,0,1,5.93-.38,42.77,42.77,0,0,1,10.23,4.78,68,68,0,0,1,9.45,6.63,1,1,0,0,0,1.66-.44c1.46-5.93-2.09-11.77-7.38-14.37v1.72c3.34-2.18,7.88-1.65,11.26.19,3.73,2,6.23,5.58,8.57,9a1,1,0,0,0,1.85-.5c-.13-4.25-.35-8.85-2.91-12.45a12.11,12.11,0,0,0-9.25-5.22c-1.28-.06-1.27,1.91,0,2a40.42,40.42,0,0,1,25.72,11.13,1,1,0,0,0,1.7-.7c-.19-4.37-1.39-8.75-4.39-12a14.8,14.8,0,0,0-11.1-4.79l.26,1.95a60.84,60.84,0,0,1,30.45,1.6,1,1,0,0,0,1.12-1.46c-3.1-6.34-10.8-9-17.41-9.3-8.84-.41-17.22,3.33-25.09,6.87l1.49.86c-.32-3.36,2-6.19,5.1-7.3,1-.36.93-2-.26-2-4.67.35-9.73.71-13.83,3.21-3.79,2.33-5.69,6.79-9.72,8.77l1.36.35a19.26,19.26,0,0,1-2.71-14.12,1,1,0,0,0-1.22-1.23c-8.08,1.25-12.4,8.13-15.7,14.89l1.82.24a20.25,20.25,0,0,1-.62-13.77,1,1,0,0,0-.69-1.22c-5.65-1.27-11.15.72-16.07,3.41-5.51,3-10.76,6.58-16.09,9.9l1.46.6a16.78,16.78,0,0,1,5-14.06,1,1,0,0,0-.7-1.7c-5.65.18-11.65.34-16.81,2.9-4,2-7.72,5.79-7.48,10.52a1,1,0,0,0,2,0,37.31,37.31,0,0,1,1.53-10.44,1,1,0,0,0-.69-1.22,11.9,11.9,0,0,0-10,2.62,8.51,8.51,0,0,0-2.29,9.41c.46,1.17,2.39.66,1.91-.53Z" transform="translate(20.38 -498.35)"/><path class="cls-1" d="M1803.21,540a7.45,7.45,0,0,1,1.77-8.2,10.76,10.76,0,0,1,9.25-2.61,36.47,36.47,0,0,0-1.56,10.7c-.34-4.38,3.56-8.35,8.21-10.21s9.94-2,15.07-2.21a17.54,17.54,0,0,0-5.27,15l12.12-7.56c5.69-3.55,12.49-7.29,19.27-5.65a20.72,20.72,0,0,0,.62,14.3,38.22,38.22,0,0,1,5.45-9,16.21,16.21,0,0,1,9.65-5.46A19.9,19.9,0,0,0,1880.6,544c3.8-1.76,5.5-5.67,8.77-8.11,3.81-2.85,9.23-3.35,14.28-3.72-3.75,1.28-6.26,4.83-5.84,8.26,6.9-3.11,14.06-6.28,21.84-6.72s16.39,2.6,19.31,8.79a61.71,61.71,0,0,0-31-1.6,13.81,13.81,0,0,1,11,5.19,17.86,17.86,0,0,1,3.51,10.65c-6.58-6.6-16.32-10.8-26.42-11.42a11.1,11.1,0,0,1,9.28,6.21c1.64,3.27,1.78,6.91,1.89,10.46-2.31-3.36-4.72-6.84-8.45-9.08s-9.18-2.91-12.75-.47c5.31,2.51,8.27,8.19,6.93,13.24a71.36,71.36,0,0,0-16.39-10.26c-2.75-1.25-5.94-2.37-8.9-1.53a11.1,11.1,0,0,0-4.9,3.39,41,41,0,0,0-7.16,10.41l1.36-11.44a2.57,2.57,0,0,0-.48-2.31c-1-.9-2.71-.41-4,.18a42,42,0,0,0-16.06,13.16,47,47,0,0,0-.54-10.59,3.32,3.32,0,0,0-1-2.17c-1.74-1.41-4.43.34-5.89,2l-8.83,9.79c1.12-5-2.53-10.55-8.16-12.31a3.69,3.69,0,0,0-2-.2,3.6,3.6,0,0,0-1.63,1.09,40,40,0,0,0-8.84,13.33,10.6,10.6,0,0,1-4.67-9.23,11.14,11.14,0,0,1,6-8.67c-10.1.1-19.78,6-23.3,14.05a12.27,12.27,0,0,1,2-10.67c-3.89.44-7.84.89-11.38,2.31s-6.68,4-7.51,7.27a7.16,7.16,0,0,1-.32-9.25,10.32,10.32,0,0,1,10.16-3.15,7.33,7.33,0,0,0-4.27-3.38,29,29,0,0,1,14.6,2c.9-2.62-1.14-5.68-4.21-6.37a29.84,29.84,0,0,1,11.68.67l-1.29-4.56a2.36,2.36,0,0,1-.08-1.57c.57-1.35,3-1.06,4.19,0s1.75,2.52,3.12,3.34a24.41,24.41,0,0,1,2.36-9.71,29.74,29.74,0,0,1,5.86,8.32" transform="translate(20.38 -498.35)"/><path class="cls-2" d="M1804.17,539.71c-2.45-6.17,4.28-10.51,9.8-9.58l-.7-1.23a39.18,39.18,0,0,0-1.6,11h2c-.23-4.33,3.58-7.58,7.25-9.15,4.7-2,10-2.12,15-2.28l-.7-1.69a18.82,18.82,0,0,0-5.53,16,1,1,0,0,0,1.46.59c5-3.09,9.86-6.33,14.93-9.25,4.72-2.72,10.15-5.11,15.7-3.86l-.7-1.22a22,22,0,0,0,.62,14.82c.28.71,1.4,1.09,1.81.24,3.09-6.33,6.93-12.81,14.51-14l-1.22-1.22a21.37,21.37,0,0,0,2.91,15.66,1,1,0,0,0,1.36.35c3.86-1.89,5.66-5.93,9.08-8.34,3.85-2.71,8.93-3,13.47-3.36l-.27-1.95c-3.83,1.39-7,4.95-6.56,9.22a1,1,0,0,0,1.5.86c7.34-3.31,15.13-6.78,23.35-6.62,6.16.12,13.53,2.4,16.43,8.33l1.12-1.46a63.13,63.13,0,0,0-31.5-1.6,1,1,0,0,0,.26,2,12.81,12.81,0,0,1,9.7,4.21c2.64,2.88,3.64,6.81,3.81,10.63l1.7-.71c-7.2-7.12-17.1-11-27.13-11.71v2a10.07,10.07,0,0,1,7.92,4.82c2,3.23,2.14,7.17,2.25,10.86l1.86-.5c-2.66-3.88-5.57-8-9.95-10-3.89-1.86-8.86-2.3-12.61.14a1,1,0,0,0,0,1.72c4.48,2.2,7.73,7,6.47,12.12l1.66-.44a72.47,72.47,0,0,0-10.23-7.16c-3.55-2.05-7.53-4.35-11.62-5s-7.3,1.14-10,4.12a42.23,42.23,0,0,0-7,10.28l1.85.5.74-6.2a54.2,54.2,0,0,0,.69-6,2.87,2.87,0,0,0-2.13-3c-1.52-.38-3.1.33-4.44,1a43.06,43.06,0,0,0-15.85,13.24l1.85.5a48.83,48.83,0,0,0-.43-9.89,5.43,5.43,0,0,0-1.39-3.57,3.43,3.43,0,0,0-2.89-.74c-2.69.44-4.49,2.79-6.2,4.69l-7,7.8,1.66,1c1.22-6-3.17-11.81-8.86-13.53a4.11,4.11,0,0,0-4.33.88,32.63,32.63,0,0,0-3.86,4.36,41.08,41.08,0,0,0-5.52,9.68l1.46-.59a9.67,9.67,0,0,1-4.16-8.56,10.31,10.31,0,0,1,5.47-7.63,1,1,0,0,0-.5-1.85c-9.71.17-20.07,5.36-24.15,14.54l1.81.23a11.6,11.6,0,0,1,1.93-9.9,1,1,0,0,0-.85-1.5c-7.08.8-17.56,2.08-19.85,10.31l1.66-.43a6.24,6.24,0,0,1,.24-8.48,9.5,9.5,0,0,1,8.64-2.26,1,1,0,0,0,1.12-1.46,8.68,8.68,0,0,0-4.86-3.84l-.27,2a28.92,28.92,0,0,1,14.34,2,1,1,0,0,0,1.22-.69c1-3.48-1.61-6.75-4.91-7.59v1.92a29.3,29.3,0,0,1,11.15.67,1,1,0,0,0,1.23-1.22l-1.1-3.88c-.14-.5-.58-1.46,0-1.82.31-.22,1-.06,1.32,0,1.87.52,2.72,2.93,4.31,4a1,1,0,0,0,1.49-.86,24.29,24.29,0,0,1,2.23-9.21L1796,532a29.92,29.92,0,0,1,5.7,8.12c.55,1.15,2.27.14,1.72-1a31.58,31.58,0,0,0-6-8.52,1,1,0,0,0-1.56.2,26.75,26.75,0,0,0-2.49,10.21l1.49-.86c-1.31-.86-1.92-2.4-3.13-3.36a4.67,4.67,0,0,0-3.64-.93,2.45,2.45,0,0,0-2.13,2.41,9.58,9.58,0,0,0,.6,2.62l.9,3.19,1.22-1.22a32,32,0,0,0-12.21-.67c-1,.14-.89,1.7,0,1.92,2.26.58,4.26,2.69,3.52,5.14l1.23-.69a30.24,30.24,0,0,0-14.87-2,1,1,0,0,0-.26,1.95,6.64,6.64,0,0,1,3.67,2.93l1.13-1.46c-3.85-.87-8.42.16-11,3.28A8.27,8.27,0,0,0,1760,564a1,1,0,0,0,1.66-.44c.89-3.21,3.85-5.36,6.81-6.57,3.52-1.43,7.37-1.85,11.12-2.28l-.86-1.5a13.46,13.46,0,0,0-2.13,11.44c.2.76,1.45,1,1.81.24,3.81-8.56,13.36-13.4,22.44-13.56l-.5-1.85a12.28,12.28,0,0,0-6.46,9.35c-.38,4.12,1.92,7.9,5.15,10.27.57.42,1.24-.06,1.46-.59a38.7,38.7,0,0,1,4.3-7.83,39.76,39.76,0,0,1,2.94-3.65c.48-.52,1-1.06,1.48-1.55a2.24,2.24,0,0,1,2.54-.51c4.6,1.37,8.47,6.16,7.47,11.09-.18.91,1,1.76,1.67,1l5.39-6c1.61-1.79,3.18-4.1,5.28-5.36.79-.47,2-1,2.76-.26s.79,2.67.91,3.72a47.68,47.68,0,0,1,.2,8.19c-.06,1.08,1.33,1.23,1.86.5a40.4,40.4,0,0,1,12.93-11.36,16.39,16.39,0,0,1,3.9-1.85c.67-.17,1.62-.31,1.86.54a6.81,6.81,0,0,1-.18,2.33l-1.23,10.25c-.11,1,1.44,1.36,1.86.5a40.38,40.38,0,0,1,6.25-9.38,14.67,14.67,0,0,1,3.93-3.44,8.11,8.11,0,0,1,5.93-.39,43,43,0,0,1,10.23,4.78,69.46,69.46,0,0,1,9.45,6.63,1,1,0,0,0,1.66-.44c1.46-5.93-2.09-11.77-7.38-14.37v1.72c3.34-2.18,7.88-1.65,11.26.19,3.73,2,6.22,5.58,8.57,9a1,1,0,0,0,1.85-.51c-.13-4.25-.36-8.85-2.92-12.45a12.12,12.12,0,0,0-9.24-5.22c-1.29-.06-1.27,1.91,0,2a40.42,40.42,0,0,1,25.72,11.13,1,1,0,0,0,1.7-.7c-.19-4.37-1.39-8.75-4.4-12a14.77,14.77,0,0,0-11.1-4.79l.27,2a61,61,0,0,1,30.45,1.6,1,1,0,0,0,1.12-1.46c-3.1-6.34-10.8-9-17.41-9.3-8.84-.41-17.22,3.33-25.1,6.87l1.5.86c-.33-3.36,2-6.19,5.1-7.3,1-.36.93-2-.26-1.95-4.67.34-9.73.7-13.83,3.21-3.79,2.32-5.69,6.78-9.73,8.76l1.36.35a19.3,19.3,0,0,1-2.7-14.12,1,1,0,0,0-1.23-1.22c-8.07,1.24-12.4,8.12-15.69,14.88l1.81.24a20.28,20.28,0,0,1-.61-13.76,1,1,0,0,0-.69-1.23c-5.65-1.27-11.15.72-16.07,3.41-5.51,3-10.76,6.58-16.1,9.9l1.46.6a16.82,16.82,0,0,1,5-14.06,1,1,0,0,0-.71-1.69c-5.64.17-11.64.33-16.8,2.89-4,2-7.73,5.79-7.48,10.52a1,1,0,0,0,2,0,37.31,37.31,0,0,1,1.53-10.44,1,1,0,0,0-.7-1.22,11.91,11.91,0,0,0-10,2.62,8.54,8.54,0,0,0-2.29,9.41c.47,1.18,2.39.66,1.92-.53Z" transform="translate(20.38 -498.35)"/><path class="cls-1" d="M24.91,540.84a7.45,7.45,0,0,1,1.77-8.2A10.76,10.76,0,0,1,35.93,530a36.49,36.49,0,0,0-1.56,10.71c-.34-4.39,3.56-8.36,8.21-10.22s10-2,15.08-2.21a17.54,17.54,0,0,0-5.28,15l12.12-7.56c5.7-3.55,12.5-7.29,19.27-5.65a20.72,20.72,0,0,0,.62,14.3,38.43,38.43,0,0,1,5.45-9A16.14,16.14,0,0,1,99.49,530a19.92,19.92,0,0,0,2.81,14.89c3.81-1.77,5.5-5.68,8.77-8.12,3.81-2.85,9.23-3.35,14.28-3.72-3.75,1.28-6.26,4.83-5.83,8.26,6.9-3.1,14-6.28,21.83-6.72s16.4,2.6,19.31,8.79a61.68,61.68,0,0,0-31-1.6,13.79,13.79,0,0,1,11,5.19,17.94,17.94,0,0,1,3.52,10.65c-6.58-6.59-16.32-10.8-26.43-11.42a11.12,11.12,0,0,1,9.29,6.21c1.63,3.27,1.77,6.92,1.88,10.47-2.3-3.37-4.72-6.85-8.45-9.09s-9.18-2.9-12.74-.47c5.3,2.51,8.27,8.19,6.92,13.24a71.29,71.29,0,0,0-16.38-10.26c-2.76-1.25-6-2.37-8.91-1.53a11.1,11.1,0,0,0-4.9,3.39,41,41,0,0,0-7.16,10.41l1.37-11.44a2.6,2.6,0,0,0-.49-2.31c-1-.9-2.71-.41-4,.18a42,42,0,0,0-16.06,13.16,46.88,46.88,0,0,0-.54-10.58,3.34,3.34,0,0,0-1-2.18c-1.74-1.41-4.43.34-5.89,2l-8.83,9.79c1.12-5-2.53-10.55-8.16-12.31a3.75,3.75,0,0,0-2-.2,3.64,3.64,0,0,0-1.64,1.1,40,40,0,0,0-8.84,13.32,10.63,10.63,0,0,1-4.67-9.23,11.13,11.13,0,0,1,6-8.67c-10.1.11-19.79,6-23.3,14.05a12.24,12.24,0,0,1,2-10.67c-3.88.44-7.83.89-11.38,2.32s-6.68,4-7.51,7.26a7.16,7.16,0,0,1-.32-9.25,10.32,10.32,0,0,1,10.16-3.15A7.33,7.33,0,0,0-12,548.33a29,29,0,0,1,14.61,2c.89-2.61-1.15-5.68-4.22-6.37a29.83,29.83,0,0,1,11.68.67l-1.29-4.56a2.43,2.43,0,0,1-.08-1.57c.57-1.35,3-1.06,4.19,0S14.64,541,16,541.83a24.58,24.58,0,0,1,2.36-9.71,29.88,29.88,0,0,1,5.86,8.32" transform="translate(20.38 -498.35)"/><path class="cls-2" d="M25.87,540.57c-2.45-6.17,4.28-10.51,9.8-9.58l-.7-1.23a39.2,39.2,0,0,0-1.6,11h2c-.23-4.34,3.59-7.59,7.25-9.16,4.71-2,10-2.12,15-2.28L57,527.61a18.89,18.89,0,0,0-5.53,16,1,1,0,0,0,1.46.59c5-3.09,9.86-6.33,14.93-9.25,4.73-2.72,10.15-5.11,15.7-3.86l-.69-1.22a22,22,0,0,0,.61,14.82c.29.71,1.4,1.09,1.82.24,3.08-6.33,6.93-12.81,14.5-14l-1.22-1.22a21.36,21.36,0,0,0,2.91,15.66,1,1,0,0,0,1.36.35c3.86-1.88,5.67-5.93,9.08-8.33,3.85-2.72,8.93-3,13.47-3.36l-.26-2c-3.83,1.39-7,4.95-6.57,9.22a1,1,0,0,0,1.5.86c7.34-3.3,15.13-6.78,23.35-6.62,6.16.12,13.53,2.4,16.43,8.33l1.13-1.46a63.17,63.17,0,0,0-31.51-1.6,1,1,0,0,0,.27,2,12.8,12.8,0,0,1,9.69,4.21c2.64,2.89,3.65,6.81,3.81,10.63l1.7-.7c-7.2-7.13-17.1-11-27.13-11.71v2a10.06,10.06,0,0,1,7.92,4.82c2,3.23,2.14,7.17,2.26,10.87l1.85-.51c-2.66-3.88-5.57-8-9.94-10.05-3.9-1.86-8.87-2.29-12.62.14a1,1,0,0,0,0,1.72c4.48,2.2,7.73,7,6.47,12.12l1.66-.44a72.47,72.47,0,0,0-10.23-7.16c-3.55-2.05-7.53-4.35-11.61-5s-7.31,1.14-10,4.12a42,42,0,0,0-7,10.28l1.86.5.73-6.2a52,52,0,0,0,.69-5.94,2.88,2.88,0,0,0-2.13-3c-1.52-.38-3.1.33-4.44,1a43.06,43.06,0,0,0-15.85,13.24l1.85.5a49.56,49.56,0,0,0-.42-9.89,5.5,5.5,0,0,0-1.4-3.57,3.42,3.42,0,0,0-2.89-.74c-2.69.44-4.49,2.79-6.2,4.69l-7,7.8,1.66,1c1.22-6-3.17-11.81-8.86-13.53a4.13,4.13,0,0,0-4.33.88,32.55,32.55,0,0,0-3.85,4.36,40.77,40.77,0,0,0-5.53,9.68l1.46-.59a9.67,9.67,0,0,1-4.16-8.56A10.3,10.3,0,0,1,23.09,552a1,1,0,0,0-.5-1.85c-9.72.17-20.08,5.36-24.16,14.54l1.82.23A11.54,11.54,0,0,1,2.18,555a1,1,0,0,0-.86-1.5c-7.07.81-17.56,2.08-19.84,10.32l1.66-.44a6.24,6.24,0,0,1,.24-8.48A9.47,9.47,0,0,1-8,552.67a1,1,0,0,0,1.12-1.46,8.68,8.68,0,0,0-4.86-3.84l-.27,2a28.91,28.91,0,0,1,14.34,2,1,1,0,0,0,1.22-.69C4.61,547.12,2,543.85-1.35,543v1.92a29.36,29.36,0,0,1,11.16.67A1,1,0,0,0,11,544.38l-1.1-3.88c-.14-.5-.58-1.46,0-1.82a2,2,0,0,1,1.32,0c1.87.52,2.72,2.93,4.31,4a1,1,0,0,0,1.5-.86,24,24,0,0,1,2.22-9.2l-1.56.2a29.92,29.92,0,0,1,5.7,8.12c.55,1.15,2.27.14,1.72-1a31.77,31.77,0,0,0-6-8.52,1,1,0,0,0-1.57.2A26.8,26.8,0,0,0,15,541.83l1.49-.86c-1.3-.86-1.91-2.39-3.13-3.36a4.68,4.68,0,0,0-3.63-.93,2.45,2.45,0,0,0-2.14,2.41,9.58,9.58,0,0,0,.6,2.62l.9,3.2,1.22-1.23A32,32,0,0,0-1.88,543c-1,.14-.88,1.7,0,1.92,2.27.58,4.26,2.69,3.53,5.14l1.22-.69a30.21,30.21,0,0,0-14.87-2,1,1,0,0,0-.26,2,6.57,6.57,0,0,1,3.68,2.92l1.12-1.46c-3.85-.86-8.41.16-11,3.28a8.27,8.27,0,0,0,.22,10.78,1,1,0,0,0,1.66-.44c.9-3.21,3.85-5.36,6.82-6.57,3.52-1.43,7.36-1.85,11.11-2.28L.46,554a13.47,13.47,0,0,0-2.13,11.43c.2.76,1.45,1,1.81.24C4,557.14,13.5,552.31,22.59,552.14l-.51-1.85a12.27,12.27,0,0,0-6.45,9.35c-.39,4.12,1.91,7.9,5.14,10.27.57.42,1.24-.06,1.46-.59a38.26,38.26,0,0,1,4.31-7.83,36.73,36.73,0,0,1,2.93-3.64c.48-.53,1-1.07,1.48-1.56a2.25,2.25,0,0,1,2.55-.5c4.6,1.36,8.46,6.15,7.47,11.09-.19.9.94,1.75,1.66,1l5.39-6c1.61-1.79,3.19-4.1,5.28-5.35.79-.48,2-1,2.76-.27s.79,2.67.91,3.72a48.71,48.71,0,0,1,.21,8.19c-.07,1.08,1.32,1.23,1.85.5A40.4,40.4,0,0,1,72,557.29a16.79,16.79,0,0,1,3.9-1.85c.67-.17,1.62-.31,1.86.54a6.81,6.81,0,0,1-.18,2.33l-1.22,10.25c-.12,1,1.44,1.36,1.85.5a40.38,40.38,0,0,1,6.25-9.38,14.83,14.83,0,0,1,3.93-3.44,8.05,8.05,0,0,1,5.93-.38,42.36,42.36,0,0,1,10.23,4.77,68.84,68.84,0,0,1,9.45,6.63,1,1,0,0,0,1.66-.44c1.46-5.93-2.09-11.77-7.38-14.37v1.72c3.34-2.18,7.88-1.65,11.26.19,3.73,2,6.23,5.58,8.57,9a1,1,0,0,0,1.85-.5c-.13-4.26-.35-8.86-2.91-12.46a12.09,12.09,0,0,0-9.25-5.21c-1.28-.07-1.27,1.9,0,2a40.42,40.42,0,0,1,25.72,11.13,1,1,0,0,0,1.7-.7c-.19-4.37-1.39-8.75-4.39-12a14.84,14.84,0,0,0-11.1-4.79l.26,2a61,61,0,0,1,30.45,1.6,1,1,0,0,0,1.12-1.46c-3.1-6.34-10.8-9-17.41-9.3-8.84-.41-17.22,3.33-25.09,6.87l1.49.86c-.32-3.36,2-6.19,5.1-7.3,1-.36.93-2-.26-2-4.67.34-9.73.7-13.83,3.21-3.79,2.32-5.69,6.78-9.72,8.76l1.36.35a19.25,19.25,0,0,1-2.71-14.12A1,1,0,0,0,99.23,529c-8.08,1.24-12.4,8.12-15.7,14.88l1.82.24a20.23,20.23,0,0,1-.62-13.76,1,1,0,0,0-.69-1.23c-5.65-1.27-11.15.72-16.07,3.41-5.51,3-10.76,6.58-16.09,9.91l1.46.59a16.78,16.78,0,0,1,5-14.06,1,1,0,0,0-.7-1.69c-5.65.17-11.65.33-16.81,2.89-4,2-7.72,5.79-7.48,10.53a1,1,0,0,0,2,0,37.32,37.32,0,0,1,1.53-10.45,1,1,0,0,0-.69-1.22,11.9,11.9,0,0,0-10,2.62A8.52,8.52,0,0,0,24,541.1c.46,1.18,2.39.66,1.91-.53Z" transform="translate(20.38 -498.35)"/><path class="cls-1" d="M256,548.62a7.43,7.43,0,0,1,1.77-8.19,10.79,10.79,0,0,1,9.25-2.62,36.88,36.88,0,0,0-1.57,10.71c-.33-4.38,3.56-8.36,8.22-10.21s9.94-2,15.07-2.21a17.53,17.53,0,0,0-5.28,15l12.13-7.56c5.69-3.55,12.49-7.29,19.27-5.65a20.68,20.68,0,0,0,.61,14.29,38.2,38.2,0,0,1,5.46-9,16.13,16.13,0,0,1,9.65-5.46,19.86,19.86,0,0,0,2.8,14.89c3.81-1.77,5.51-5.67,8.77-8.11,3.82-2.85,9.24-3.35,14.28-3.72-3.75,1.27-6.25,4.82-5.83,8.26,6.9-3.11,14.06-6.28,21.84-6.72s16.39,2.6,19.31,8.79a61.61,61.61,0,0,0-31-1.6,13.75,13.75,0,0,1,11,5.19,17.8,17.8,0,0,1,3.52,10.64c-6.58-6.59-16.32-10.8-26.43-11.42a11.11,11.11,0,0,1,9.29,6.22c1.64,3.26,1.77,6.91,1.89,10.46-2.31-3.37-4.72-6.84-8.46-9.09s-9.18-2.9-12.74-.46c5.3,2.51,8.27,8.18,6.93,13.24a71.74,71.74,0,0,0-16.39-10.27c-2.75-1.25-5.94-2.36-8.9-1.53a11.2,11.2,0,0,0-4.9,3.4,40.62,40.62,0,0,0-7.16,10.41l1.36-11.45a2.57,2.57,0,0,0-.48-2.3c-1-.9-2.71-.42-4,.18a41.79,41.79,0,0,0-16.06,13.16,46.4,46.4,0,0,0-.55-10.59,3.3,3.3,0,0,0-1-2.18c-1.73-1.4-4.42.34-5.88,2l-8.83,9.8c1.12-5-2.53-10.55-8.16-12.32a3.89,3.89,0,0,0-2-.2,3.61,3.61,0,0,0-1.63,1.1,40.19,40.19,0,0,0-8.85,13.33,10.6,10.6,0,0,1-4.66-9.24,11.11,11.11,0,0,1,6-8.66c-10.1.1-19.78,5.94-23.3,14a12.28,12.28,0,0,1,2-10.67c-3.88.44-7.83.9-11.37,2.32s-6.69,4-7.51,7.27a7.18,7.18,0,0,1-.33-9.25,10.35,10.35,0,0,1,10.17-3.15,7.44,7.44,0,0,0-4.27-3.39,29.21,29.21,0,0,1,14.6,2c.89-2.61-1.14-5.68-4.22-6.36a29.45,29.45,0,0,1,11.68.67l-1.28-4.56a2.39,2.39,0,0,1-.08-1.58c.57-1.34,3-1,4.19,0s1.74,2.52,3.12,3.34a24.41,24.41,0,0,1,2.36-9.71,29.94,29.94,0,0,1,5.86,8.32" transform="translate(20.38 -498.35)"/><path class="cls-2" d="M256.91,548.36c-2.46-6.17,4.27-10.51,9.79-9.59l-.69-1.22a39.18,39.18,0,0,0-1.6,11h2c-.23-4.33,3.58-7.59,7.24-9.16,4.71-2,10-2.11,15.05-2.27l-.7-1.7a18.87,18.87,0,0,0-5.54,16,1,1,0,0,0,1.47.6c5-3.1,9.86-6.33,14.93-9.25,4.72-2.73,10.14-5.11,15.69-3.86l-.69-1.23a22.1,22.1,0,0,0,.61,14.83c.29.7,1.41,1.08,1.82.23,3.09-6.32,6.93-12.8,14.51-14l-1.22-1.22a21.38,21.38,0,0,0,2.9,15.65,1,1,0,0,0,1.36.36c3.86-1.89,5.67-5.93,9.09-8.34,3.85-2.71,8.92-3,13.46-3.36l-.26-2c-3.83,1.39-7,5-6.56,9.22a1,1,0,0,0,1.49.86c7.35-3.31,15.13-6.79,23.36-6.63,6.16.12,13.53,2.41,16.43,8.34L392,550.2a63,63,0,0,0-31.5-1.6,1,1,0,0,0,.26,1.95,12.84,12.84,0,0,1,9.69,4.21c2.64,2.89,3.65,6.81,3.82,10.63l1.69-.7c-7.19-7.13-17.09-11.05-27.13-11.71v2a10.09,10.09,0,0,1,7.93,4.81c2,3.24,2.13,7.18,2.25,10.87l1.85-.5c-2.66-3.89-5.56-8-9.94-10-3.9-1.86-8.86-2.3-12.61.14a1,1,0,0,0,0,1.72c4.48,2.19,7.73,7,6.47,12.12l1.66-.44a72.06,72.06,0,0,0-10.24-7.17c-3.54-2-7.52-4.34-11.61-5s-7.31,1.14-10.05,4.12a42.33,42.33,0,0,0-7,10.28l1.85.51.74-6.2a52.1,52.1,0,0,0,.68-5.95,2.85,2.85,0,0,0-2.12-3c-1.52-.39-3.11.33-4.44,1a43.18,43.18,0,0,0-15.85,13.25l1.85.5a48.93,48.93,0,0,0-.43-9.9c-.19-1.29-.36-2.65-1.39-3.57a3.51,3.51,0,0,0-2.89-.74c-2.69.44-4.5,2.8-6.2,4.69l-7,7.8,1.66,1c1.21-6-3.17-11.81-8.86-13.54a4.15,4.15,0,0,0-4.34.88,34,34,0,0,0-3.85,4.37,41.08,41.08,0,0,0-5.52,9.68l1.46-.6a9.63,9.63,0,0,1-4.16-8.55,10.29,10.29,0,0,1,5.47-7.64,1,1,0,0,0-.5-1.85c-9.72.17-20.07,5.36-24.16,14.54l1.82.24a11.6,11.6,0,0,1,1.93-9.91,1,1,0,0,0-.86-1.49c-7.07.8-17.55,2.07-19.84,10.31l1.66-.44a6.23,6.23,0,0,1,.24-8.47,9.47,9.47,0,0,1,8.64-2.27,1,1,0,0,0,1.12-1.46,8.79,8.79,0,0,0-4.87-3.84l-.26,2a28.94,28.94,0,0,1,14.34,2,1,1,0,0,0,1.22-.69c1-3.48-1.61-6.75-4.91-7.59v1.92a28.9,28.9,0,0,1,11.15.67,1,1,0,0,0,1.22-1.23L241,548.29c-.14-.51-.58-1.46-.05-1.82.31-.22,1-.06,1.32,0,1.86.52,2.71,2.94,4.3,4a1,1,0,0,0,1.5-.86,24.1,24.1,0,0,1,2.23-9.21l-1.56.2a30.23,30.23,0,0,1,5.7,8.12c.55,1.16,2.26.15,1.72-1a31.87,31.87,0,0,0-6-8.52,1,1,0,0,0-1.56.2,26.54,26.54,0,0,0-2.5,10.21l1.5-.86c-1.31-.86-1.92-2.4-3.14-3.36a4.65,4.65,0,0,0-3.63-.94,2.45,2.45,0,0,0-2.13,2.42,9.56,9.56,0,0,0,.59,2.62l.91,3.19,1.22-1.22a31.8,31.8,0,0,0-12.21-.67c-1,.14-.89,1.69,0,1.92,2.26.57,4.26,2.68,3.52,5.14l1.22-.7a30.18,30.18,0,0,0-14.86-2,1,1,0,0,0-.26,2,6.59,6.59,0,0,1,3.67,2.93l1.12-1.46c-3.85-.87-8.41.15-11,3.27a8.28,8.28,0,0,0,.22,10.79,1,1,0,0,0,1.66-.44c.89-3.21,3.85-5.36,6.81-6.57,3.52-1.44,7.37-1.86,11.11-2.28l-.86-1.5a13.53,13.53,0,0,0-2.13,11.44c.21.76,1.46,1,1.82.24,3.81-8.57,13.36-13.4,22.44-13.56l-.5-1.85a12.26,12.26,0,0,0-6.46,9.35c-.38,4.12,1.91,7.9,5.14,10.27.58.42,1.25-.07,1.46-.6a38.53,38.53,0,0,1,4.31-7.83,40.91,40.91,0,0,1,2.93-3.64c.48-.53,1-1.07,1.49-1.55a2.23,2.23,0,0,1,2.54-.51c4.6,1.37,8.46,6.16,7.47,11.09-.18.91.95,1.76,1.66,1l5.4-6c1.61-1.79,3.18-4.09,5.28-5.35.79-.48,2-1,2.75-.26s.79,2.67.91,3.72a46.69,46.69,0,0,1,.21,8.19c-.06,1.07,1.33,1.23,1.85.5A40.55,40.55,0,0,1,303,565.08a16.39,16.39,0,0,1,3.9-1.85c.66-.17,1.62-.32,1.86.54a7.35,7.35,0,0,1-.18,2.33l-1.23,10.25c-.11,1,1.44,1.35,1.85.5a40.58,40.58,0,0,1,6.26-9.39,14.85,14.85,0,0,1,3.93-3.44,8.1,8.1,0,0,1,5.93-.38,43.24,43.24,0,0,1,10.22,4.77A69.72,69.72,0,0,1,345,575a1,1,0,0,0,1.66-.44c1.47-5.92-2.08-11.76-7.38-14.36V562c3.35-2.18,7.88-1.65,11.27.19,3.73,2,6.22,5.58,8.57,9a1,1,0,0,0,1.85-.5c-.14-4.25-.36-8.86-2.92-12.45a12.06,12.06,0,0,0-9.25-5.22c-1.28-.06-1.26,1.91,0,2a40.42,40.42,0,0,1,25.73,11.13,1,1,0,0,0,1.7-.71c-.19-4.36-1.39-8.74-4.4-12a14.82,14.82,0,0,0-11.1-4.8l.27,2a60.9,60.9,0,0,1,30.44,1.59,1,1,0,0,0,1.13-1.46c-3.11-6.33-10.8-9-17.42-9.29-8.83-.41-17.22,3.33-25.09,6.87l1.5.86c-.33-3.37,2-6.19,5.1-7.3,1-.36.93-2-.27-2-4.67.35-9.72.71-13.82,3.21-3.8,2.32-5.7,6.79-9.73,8.76l1.36.36A19.32,19.32,0,0,1,331.48,538a1,1,0,0,0-1.22-1.22c-8.07,1.25-12.4,8.13-15.7,14.89l1.82.24a20.31,20.31,0,0,1-.61-13.77,1,1,0,0,0-.7-1.22c-5.64-1.27-11.14.71-16.06,3.4-5.52,3-10.77,6.59-16.1,9.91l1.46.59a16.78,16.78,0,0,1,5-14.05,1,1,0,0,0-.71-1.7c-5.64.18-11.64.34-16.81,2.9-4,2-7.72,5.79-7.47,10.52a1,1,0,0,0,2,0,36.94,36.94,0,0,1,1.53-10.44,1,1,0,0,0-.7-1.22,11.91,11.91,0,0,0-10,2.62,8.53,8.53,0,0,0-2.29,9.41c.47,1.17,2.39.66,1.92-.53Z" transform="translate(20.38 -498.35)"/><path class="cls-1" d="M482,548.62a7.43,7.43,0,0,1,1.77-8.19,10.79,10.79,0,0,1,9.25-2.62,36.53,36.53,0,0,0-1.56,10.71c-.34-4.38,3.56-8.36,8.21-10.21s9.94-2,15.08-2.21a17.51,17.51,0,0,0-5.28,15l12.12-7.56c5.69-3.55,12.49-7.29,19.27-5.65a20.69,20.69,0,0,0,.62,14.29,38.16,38.16,0,0,1,5.45-9,16.16,16.16,0,0,1,9.65-5.46,19.91,19.91,0,0,0,2.81,14.89c3.8-1.77,5.5-5.67,8.77-8.11,3.81-2.85,9.23-3.35,14.28-3.72-3.75,1.27-6.26,4.82-5.84,8.26,6.9-3.11,14.06-6.28,21.84-6.72s16.39,2.6,19.31,8.79a61.6,61.6,0,0,0-31-1.6,13.77,13.77,0,0,1,11,5.19,17.86,17.86,0,0,1,3.51,10.64c-6.58-6.59-16.32-10.8-26.42-11.42a11.11,11.11,0,0,1,9.28,6.22c1.64,3.26,1.78,6.91,1.89,10.46-2.31-3.37-4.72-6.84-8.45-9.09s-9.18-2.9-12.75-.46c5.31,2.51,8.27,8.18,6.93,13.24a71.74,71.74,0,0,0-16.39-10.27c-2.75-1.25-5.94-2.36-8.9-1.53a11.2,11.2,0,0,0-4.9,3.4,40.62,40.62,0,0,0-7.16,10.41l1.36-11.45a2.54,2.54,0,0,0-.48-2.3c-1-.9-2.71-.42-4,.18a41.79,41.79,0,0,0-16.06,13.16,47,47,0,0,0-.54-10.59,3.34,3.34,0,0,0-1-2.18c-1.74-1.4-4.43.34-5.89,2l-8.83,9.8c1.12-5-2.53-10.55-8.16-12.32a3.89,3.89,0,0,0-2-.2,3.61,3.61,0,0,0-1.63,1.1,40,40,0,0,0-8.84,13.33,10.61,10.61,0,0,1-4.67-9.24,11.13,11.13,0,0,1,6-8.66c-10.09.1-19.78,5.94-23.3,14a12.28,12.28,0,0,1,2-10.67c-3.89.44-7.84.9-11.38,2.32s-6.68,4-7.51,7.27a7.16,7.16,0,0,1-.32-9.25,10.32,10.32,0,0,1,10.16-3.15,7.38,7.38,0,0,0-4.27-3.39,29.18,29.18,0,0,1,14.6,2c.9-2.61-1.14-5.68-4.21-6.36a29.47,29.47,0,0,1,11.68.67l-1.29-4.56a2.39,2.39,0,0,1-.08-1.58c.57-1.34,3-1,4.19,0s1.75,2.52,3.12,3.34a24.41,24.41,0,0,1,2.36-9.71,29.74,29.74,0,0,1,5.86,8.32" transform="translate(20.38 -498.35)"/><path class="cls-2" d="M482.93,548.36c-2.45-6.17,4.28-10.51,9.8-9.59l-.7-1.22a39.18,39.18,0,0,0-1.6,11h2c-.23-4.33,3.58-7.59,7.25-9.16,4.7-2,10-2.11,15.05-2.27l-.71-1.7a18.84,18.84,0,0,0-5.53,16,1,1,0,0,0,1.46.6c5-3.1,9.86-6.33,14.93-9.25,4.72-2.73,10.15-5.11,15.7-3.86l-.7-1.23a22,22,0,0,0,.62,14.83c.28.7,1.4,1.08,1.81.23,3.09-6.32,6.93-12.8,14.51-14l-1.22-1.22a21.33,21.33,0,0,0,2.91,15.65,1,1,0,0,0,1.36.36c3.86-1.89,5.66-5.93,9.08-8.34,3.85-2.71,8.93-3,13.47-3.36l-.27-2c-3.83,1.39-7,5-6.56,9.22a1,1,0,0,0,1.5.86c7.34-3.31,15.13-6.79,23.35-6.63,6.16.12,13.53,2.41,16.43,8.34L618,550.2a63.06,63.06,0,0,0-31.51-1.6,1,1,0,0,0,.26,1.95,12.88,12.88,0,0,1,9.7,4.21c2.64,2.89,3.64,6.81,3.81,10.63l1.7-.7c-7.2-7.13-17.1-11.05-27.13-11.71v2a10.09,10.09,0,0,1,7.92,4.81c2,3.24,2.14,7.18,2.25,10.87l1.86-.5c-2.66-3.89-5.57-8-10-10-3.89-1.86-8.86-2.3-12.61.14a1,1,0,0,0,0,1.72c4.48,2.19,7.73,7,6.47,12.12l1.66-.44a72.54,72.54,0,0,0-10.23-7.17c-3.55-2-7.53-4.34-11.62-5s-7.3,1.14-10.05,4.12a42.61,42.61,0,0,0-7,10.28l1.85.51.74-6.2a54.48,54.48,0,0,0,.69-5.95,2.86,2.86,0,0,0-2.13-3c-1.52-.39-3.1.33-4.44,1a43.18,43.18,0,0,0-15.85,13.25l1.85.5a48.93,48.93,0,0,0-.43-9.9,5.45,5.45,0,0,0-1.39-3.57,3.5,3.5,0,0,0-2.89-.74c-2.69.44-4.49,2.8-6.2,4.69l-7,7.8,1.66,1c1.22-6-3.17-11.81-8.86-13.54a4.13,4.13,0,0,0-4.33.88,33.34,33.34,0,0,0-3.86,4.37,41.08,41.08,0,0,0-5.52,9.68l1.46-.6a9.66,9.66,0,0,1-4.16-8.55,10.34,10.34,0,0,1,5.47-7.64,1,1,0,0,0-.5-1.85c-9.71.17-20.07,5.36-24.15,14.54l1.81.24a11.63,11.63,0,0,1,1.93-9.91,1,1,0,0,0-.85-1.49c-7.08.8-17.56,2.07-19.85,10.31l1.66-.44a6.23,6.23,0,0,1,.24-8.47,9.47,9.47,0,0,1,8.64-2.27,1,1,0,0,0,1.12-1.46,8.77,8.77,0,0,0-4.86-3.84l-.27,2a28.92,28.92,0,0,1,14.34,2,1,1,0,0,0,1.22-.69c1-3.48-1.61-6.75-4.91-7.59v1.92a28.9,28.9,0,0,1,11.15.67,1,1,0,0,0,1.23-1.23l-1.1-3.87c-.14-.51-.58-1.46-.05-1.82.31-.22,1-.06,1.32,0,1.87.52,2.72,2.94,4.31,4a1,1,0,0,0,1.49-.86,24.29,24.29,0,0,1,2.23-9.21l-1.56.2a30.23,30.23,0,0,1,5.7,8.12c.55,1.16,2.27.15,1.72-1a31.42,31.42,0,0,0-6-8.52,1,1,0,0,0-1.56.2,26.71,26.71,0,0,0-2.49,10.21l1.49-.86c-1.31-.86-1.92-2.4-3.13-3.36a4.67,4.67,0,0,0-3.64-.94,2.45,2.45,0,0,0-2.13,2.42,9.58,9.58,0,0,0,.6,2.62l.9,3.19,1.22-1.22a31.79,31.79,0,0,0-12.21-.67c-1,.14-.88,1.69,0,1.92,2.26.57,4.26,2.68,3.52,5.14l1.23-.7a30.24,30.24,0,0,0-14.87-2,1,1,0,0,0-.26,2,6.59,6.59,0,0,1,3.67,2.93l1.13-1.46c-3.85-.87-8.42.15-11,3.27a8.28,8.28,0,0,0,.22,10.79,1,1,0,0,0,1.66-.44c.89-3.21,3.85-5.36,6.81-6.57,3.52-1.44,7.37-1.86,11.12-2.28l-.86-1.5a13.46,13.46,0,0,0-2.13,11.44c.2.76,1.45,1,1.81.24,3.81-8.57,13.36-13.4,22.44-13.56l-.5-1.85a12.28,12.28,0,0,0-6.46,9.35c-.38,4.12,1.92,7.9,5.15,10.27.57.42,1.24-.07,1.46-.6a39,39,0,0,1,4.3-7.83,41,41,0,0,1,2.94-3.64c.48-.53,1-1.07,1.48-1.55a2.24,2.24,0,0,1,2.54-.51c4.6,1.37,8.47,6.16,7.47,11.09-.18.91,1,1.76,1.67,1l5.39-6c1.61-1.79,3.18-4.09,5.28-5.35.79-.48,2-1,2.76-.26s.79,2.67.91,3.72a47.68,47.68,0,0,1,.2,8.19c-.06,1.07,1.33,1.23,1.86.5A40.4,40.4,0,0,1,529,565.08a16.39,16.39,0,0,1,3.9-1.85c.67-.17,1.62-.32,1.86.54a6.81,6.81,0,0,1-.18,2.33l-1.23,10.25c-.11,1,1.44,1.35,1.86.5a40.23,40.23,0,0,1,6.25-9.39,14.85,14.85,0,0,1,3.93-3.44,8.1,8.1,0,0,1,5.93-.38,43.31,43.31,0,0,1,10.23,4.77A70.35,70.35,0,0,1,571,575a1,1,0,0,0,1.66-.44c1.46-5.92-2.09-11.76-7.38-14.36V562c3.34-2.18,7.88-1.65,11.26.19,3.73,2,6.22,5.58,8.57,9a1,1,0,0,0,1.85-.5c-.13-4.25-.36-8.86-2.92-12.45a12.06,12.06,0,0,0-9.24-5.22c-1.29-.06-1.27,1.91,0,2a40.42,40.42,0,0,1,25.72,11.13,1,1,0,0,0,1.7-.71c-.19-4.36-1.39-8.74-4.4-12a14.82,14.82,0,0,0-11.1-4.8l.27,2a61,61,0,0,1,30.45,1.59,1,1,0,0,0,1.12-1.46c-3.1-6.33-10.8-9-17.41-9.29-8.84-.41-17.22,3.33-25.1,6.87l1.5.86c-.32-3.37,2-6.19,5.1-7.3,1-.36.93-2-.26-2-4.67.35-9.73.71-13.83,3.21-3.79,2.32-5.69,6.79-9.73,8.76l1.36.36a19.31,19.31,0,0,1-2.7-14.13,1,1,0,0,0-1.23-1.22c-8.07,1.25-12.4,8.13-15.69,14.89l1.81.24a20.31,20.31,0,0,1-.61-13.77,1,1,0,0,0-.69-1.22c-5.65-1.27-11.15.71-16.07,3.4-5.51,3-10.76,6.59-16.1,9.91l1.46.59a16.81,16.81,0,0,1,5-14.05,1,1,0,0,0-.7-1.7c-5.65.18-11.65.34-16.81,2.9-4,2-7.73,5.79-7.48,10.52a1,1,0,0,0,2,0A37.31,37.31,0,0,1,494,538.08a1,1,0,0,0-.7-1.22,11.91,11.91,0,0,0-9.95,2.62,8.53,8.53,0,0,0-2.29,9.41c.47,1.17,2.39.66,1.92-.53Z" transform="translate(20.38 -498.35)"/><path class="cls-1" d="M673.66,553.18a7.43,7.43,0,0,1,1.77-8.19,10.76,10.76,0,0,1,9.25-2.61,36.81,36.81,0,0,0-1.57,10.7c-.33-4.38,3.56-8.36,8.22-10.21s9.94-2,15.07-2.21a17.54,17.54,0,0,0-5.28,15l12.13-7.56c5.69-3.55,12.49-7.29,19.27-5.65a20.68,20.68,0,0,0,.61,14.29,38.2,38.2,0,0,1,5.46-9,16.13,16.13,0,0,1,9.65-5.46,19.91,19.91,0,0,0,2.8,14.89c3.81-1.77,5.51-5.67,8.77-8.11,3.82-2.85,9.24-3.35,14.28-3.72-3.75,1.27-6.25,4.82-5.83,8.26,6.9-3.11,14.06-6.28,21.84-6.72s16.39,2.6,19.31,8.79a61.72,61.72,0,0,0-31-1.6,13.75,13.75,0,0,1,11,5.19A17.81,17.81,0,0,1,792.93,570c-6.58-6.6-16.32-10.81-26.43-11.42a11.09,11.09,0,0,1,9.29,6.21c1.64,3.26,1.77,6.91,1.89,10.46-2.31-3.37-4.72-6.84-8.46-9.09s-9.17-2.9-12.74-.46c5.31,2.51,8.27,8.18,6.93,13.24A71.74,71.74,0,0,0,747,568.63c-2.75-1.25-5.94-2.36-8.9-1.52a11.1,11.1,0,0,0-4.9,3.39,40.79,40.79,0,0,0-7.16,10.41l1.36-11.44a2.58,2.58,0,0,0-.48-2.31c-1-.9-2.71-.42-4,.18a41.88,41.88,0,0,0-16.06,13.16,46.4,46.4,0,0,0-.55-10.59,3.27,3.27,0,0,0-1-2.17c-1.73-1.41-4.42.33-5.88,2l-8.83,9.8c1.12-5-2.53-10.55-8.16-12.32a3.78,3.78,0,0,0-2-.19,3.52,3.52,0,0,0-1.63,1.09A40.19,40.19,0,0,0,670,581.4a10.6,10.6,0,0,1-4.66-9.24,11.12,11.12,0,0,1,6-8.66c-10.1.1-19.78,5.94-23.3,14a12.29,12.29,0,0,1,2-10.68c-3.88.44-7.83.9-11.37,2.32s-6.69,4-7.51,7.27a7.18,7.18,0,0,1-.33-9.25A10.35,10.35,0,0,1,641,564.06a7.44,7.44,0,0,0-4.27-3.39,29.21,29.21,0,0,1,14.6,2c.89-2.61-1.14-5.68-4.22-6.36a29.45,29.45,0,0,1,11.68.67l-1.28-4.56a2.36,2.36,0,0,1-.08-1.57c.57-1.35,3-1.06,4.19,0s1.74,2.52,3.12,3.34a24.41,24.41,0,0,1,2.36-9.71,29.74,29.74,0,0,1,5.86,8.32" transform="translate(20.38 -498.35)"/><path class="cls-2" d="M674.62,552.92c-2.46-6.17,4.27-10.51,9.79-9.59l-.69-1.22a39.18,39.18,0,0,0-1.6,11h2c-.23-4.33,3.58-7.59,7.24-9.15,4.71-2,10-2.12,15-2.28l-.7-1.7a18.84,18.84,0,0,0-5.53,16,1,1,0,0,0,1.46.6c5-3.1,9.86-6.33,14.93-9.25,4.72-2.73,10.14-5.11,15.69-3.86l-.69-1.22a22.07,22.07,0,0,0,.61,14.82c.29.71,1.41,1.08,1.82.23,3.09-6.32,6.93-12.8,14.51-14l-1.22-1.22a21.38,21.38,0,0,0,2.9,15.65,1,1,0,0,0,1.36.36c3.86-1.89,5.67-5.93,9.09-8.34,3.85-2.71,8.92-3,13.46-3.36l-.26-2c-3.83,1.39-7,5-6.56,9.22a1,1,0,0,0,1.49.86c7.35-3.31,15.13-6.79,23.36-6.63,6.16.13,13.53,2.41,16.43,8.34l1.12-1.46a63.14,63.14,0,0,0-31.5-1.6,1,1,0,0,0,.26,2,12.84,12.84,0,0,1,9.69,4.21c2.64,2.89,3.65,6.81,3.82,10.64l1.69-.71c-7.19-7.13-17.09-11-27.13-11.71v2a10.08,10.08,0,0,1,7.93,4.82c2,3.23,2.13,7.17,2.25,10.86l1.85-.5c-2.66-3.89-5.56-8-9.94-10.05-3.9-1.86-8.86-2.3-12.61.14a1,1,0,0,0,0,1.72c4.48,2.2,7.73,7,6.47,12.12l1.66-.44A71.19,71.19,0,0,0,753.87,571c-3.54-2-7.52-4.35-11.61-5s-7.31,1.15-10,4.12a42.61,42.61,0,0,0-7,10.28l1.85.51.74-6.2a51.84,51.84,0,0,0,.68-6,2.85,2.85,0,0,0-2.12-3c-1.52-.38-3.11.33-4.44,1A43.06,43.06,0,0,0,706.06,580l1.85.5a49,49,0,0,0-.43-9.9c-.19-1.29-.36-2.65-1.39-3.57a3.47,3.47,0,0,0-2.89-.73c-2.69.44-4.5,2.79-6.2,4.69l-7,7.79,1.66,1c1.21-6-3.17-11.81-8.86-13.54a4.15,4.15,0,0,0-4.34.88,34,34,0,0,0-3.85,4.37,41.08,41.08,0,0,0-5.52,9.68l1.46-.6a9.66,9.66,0,0,1-4.16-8.55,10.26,10.26,0,0,1,5.47-7.63,1,1,0,0,0-.5-1.86c-9.72.17-20.07,5.36-24.16,14.54l1.82.24a11.57,11.57,0,0,1,1.93-9.9,1,1,0,0,0-.86-1.5c-7.07.8-17.55,2.07-19.84,10.31l1.66-.44a6.23,6.23,0,0,1,.24-8.47,9.47,9.47,0,0,1,8.64-2.27,1,1,0,0,0,1.12-1.46,8.79,8.79,0,0,0-4.87-3.84l-.26,2a28.94,28.94,0,0,1,14.34,2,1,1,0,0,0,1.22-.69c1-3.48-1.61-6.75-4.91-7.59v1.92a29.1,29.1,0,0,1,11.15.67,1,1,0,0,0,1.22-1.23l-1.09-3.87c-.14-.51-.58-1.46,0-1.82.31-.22,1-.06,1.32,0,1.86.51,2.72,2.93,4.31,4a1,1,0,0,0,1.49-.86A24.1,24.1,0,0,1,668,545l-1.56.2a30.23,30.23,0,0,1,5.7,8.12c.55,1.16,2.26.15,1.72-1a31.87,31.87,0,0,0-6-8.52,1,1,0,0,0-1.56.2,26.76,26.76,0,0,0-2.5,10.21l1.5-.86c-1.31-.86-1.92-2.4-3.14-3.36a4.65,4.65,0,0,0-3.63-.94,2.46,2.46,0,0,0-2.13,2.42,9.56,9.56,0,0,0,.59,2.62l.91,3.19,1.22-1.22a31.8,31.8,0,0,0-12.21-.67c-1,.14-.89,1.69,0,1.92,2.26.57,4.26,2.68,3.52,5.14l1.23-.7a30.24,30.24,0,0,0-14.87-2,1,1,0,0,0-.26,2,6.64,6.64,0,0,1,3.67,2.93l1.12-1.46c-3.85-.87-8.41.16-11,3.27a8.28,8.28,0,0,0,.22,10.79,1,1,0,0,0,1.66-.44c.89-3.21,3.85-5.36,6.81-6.57,3.52-1.43,7.37-1.86,11.11-2.28l-.86-1.5a13.53,13.53,0,0,0-2.13,11.44c.21.76,1.46,1.05,1.82.24,3.81-8.56,13.36-13.4,22.44-13.56l-.5-1.85a12.26,12.26,0,0,0-6.46,9.35c-.38,4.12,1.91,7.9,5.14,10.27a1,1,0,0,0,1.46-.59,38.6,38.6,0,0,1,4.31-7.84,40.91,40.91,0,0,1,2.93-3.64c.48-.53,1-1.07,1.49-1.55a2.23,2.23,0,0,1,2.54-.51c4.6,1.37,8.46,6.16,7.47,11.09-.18.91.95,1.76,1.66,1l5.4-6c1.61-1.78,3.18-4.09,5.28-5.35.79-.47,2-1,2.75-.26s.79,2.67.91,3.72a46.69,46.69,0,0,1,.21,8.19c-.06,1.07,1.33,1.23,1.85.5a40.55,40.55,0,0,1,12.94-11.36,16.39,16.39,0,0,1,3.9-1.85c.67-.17,1.62-.32,1.86.54a7.35,7.35,0,0,1-.18,2.33l-1.23,10.25a1,1,0,0,0,1.85.5,40.58,40.58,0,0,1,6.26-9.39,14.85,14.85,0,0,1,3.93-3.44,8.1,8.1,0,0,1,5.93-.38A43.24,43.24,0,0,1,753.25,573a69.72,69.72,0,0,1,9.45,6.63,1,1,0,0,0,1.66-.43c1.47-5.93-2.08-11.77-7.38-14.37v1.72c3.35-2.18,7.88-1.65,11.27.19,3.73,2,6.22,5.58,8.57,9a1,1,0,0,0,1.85-.5c-.14-4.25-.36-8.85-2.92-12.45a12.06,12.06,0,0,0-9.25-5.22c-1.28-.06-1.26,1.91,0,2a40.42,40.42,0,0,1,25.73,11.13,1,1,0,0,0,1.7-.7c-.19-4.37-1.39-8.75-4.4-12a14.82,14.82,0,0,0-11.1-4.8l.27,2a60.9,60.9,0,0,1,30.44,1.59,1,1,0,0,0,1.13-1.46c-3.11-6.33-10.8-9-17.42-9.29-8.83-.41-17.22,3.33-25.09,6.87l1.5.86c-.33-3.36,2-6.19,5.1-7.3,1-.36.93-2-.27-2-4.67.35-9.72.71-13.82,3.21-3.8,2.33-5.7,6.79-9.73,8.76l1.36.36a19.3,19.3,0,0,1-2.71-14.12,1,1,0,0,0-1.22-1.23c-8.07,1.25-12.4,8.13-15.7,14.89l1.82.24a20.31,20.31,0,0,1-.61-13.77,1,1,0,0,0-.7-1.22c-5.64-1.27-11.14.71-16.06,3.41-5.52,3-10.77,6.58-16.1,9.9l1.46.6a16.79,16.79,0,0,1,5-14.06,1,1,0,0,0-.71-1.7c-5.64.18-11.64.34-16.81,2.9-4,2-7.72,5.79-7.47,10.52a1,1,0,0,0,2,0,36.94,36.94,0,0,1,1.53-10.44,1,1,0,0,0-.7-1.22A11.91,11.91,0,0,0,675,544a8.53,8.53,0,0,0-2.29,9.41c.47,1.17,2.39.66,1.92-.53Z" transform="translate(20.38 -498.35)"/></svg>