<?xml version="1.0" encoding="utf-8"?>
<!-- Generator: Adobe Illustrator 23.0.3, SVG Export Plug-In . SVG Version: 6.00 Build 0)  -->
<svg version="1.1" xmlns="http://www.w3.org/2000/svg" xmlns:xlink="http://www.w3.org/1999/xlink" x="0px" y="0px"
	 viewBox="0 0 1366 768" style="enable-background:new 0 0 1366 768;" xml:space="preserve">
<style type="text/css">
	.st0{fill:#08F2F2;}
	.st1{fill:#00FF00;}
	.st2{fill:#8D918D;}
	.st3{fill:#754C24;stroke:#000000;stroke-width:4;stroke-miterlimit:10;}
	.st4{fill:#009245;stroke:#000000;stroke-width:4;stroke-miterlimit:10;}
</style>
<g id="Layer_1">
	<g>
		<rect x="-44" y="-26" class="st0" width="1446" height="578"/>
		<path d="M1400-24v574H-42V-24H1400 M1404-28H-46v582h1450V-28L1404-28z"/>
	</g>
	<g>
		<rect x="-73" y="533" class="st1" width="1525" height="265"/>
		<path d="M1450,535v261H-71V535H1450 M1454,531H-75v269h1529V531L1454,531z"/>
	</g>
	<g>
		<rect x="-119" y="653" class="st2" width="1602" height="201"/>
		<path d="M1481,655v197H-117V655H1481 M1485,651H-121v205h1606V651L1485,651z"/>
	</g>
</g>
<g id="Trees">
	<rect x="1056" y="497" class="st3" width="18" height="57"/>
	<path class="st4" d="M988.51,503c-3.33,0-6.42-2.39-8.14-6.31s-1.82-8.78-0.27-12.82l76.49-198.98c1.65-4.28,4.88-6.96,8.41-6.96
		s6.77,2.68,8.41,6.96l76.49,198.98c1.55,4.04,1.45,8.91-0.27,12.82s-4.81,6.31-8.14,6.31H988.51z"/>
	<rect x="258" y="497" class="st3" width="18" height="57"/>
	<path class="st4" d="M190.51,503c-3.33,0-6.42-2.39-8.14-6.31c-1.72-3.91-1.82-8.78-0.27-12.82l76.49-198.98
		c1.65-4.28,4.88-6.96,8.41-6.96s6.76,2.68,8.41,6.96l76.49,198.98c1.55,4.04,1.45,8.91-0.27,12.82c-1.72,3.91-4.81,6.31-8.14,6.31
		H190.51z"/>
</g>
</svg>
