<svg id="Layer_1" data-name="Layer 1" xmlns="http://www.w3.org/2000/svg" viewBox="0 0 194.71 67.57"><defs><style>.cls-1{fill:#c69c6d;}.cls-1,.cls-2{stroke:#000;stroke-miterlimit:10;}.cls-2{fill:#e6e6e6;stroke-width:0.93px;}.cls-3{font-size:24px;font-family:ComicSansMS-Bold, Comic Sans MS;font-weight:700;}</style></defs><title>pricebread</title><rect class="cls-1" x="0.5" y="0.5" width="191.46" height="58.54" rx="10.67"/><path class="cls-2" d="M219.55,55.28c-7.58,0-13.72-5.81-13.72-13a12.28,12.28,0,0,1,.57-3.65H56.55a12.27,12.27,0,0,1,.56,3.65c0,7.16-6.13,13-13.71,13A14.28,14.28,0,0,1,39,54.59V82a9.94,9.94,0,0,0,10.21,9.65H212A9.94,9.94,0,0,0,222.24,82V55A14,14,0,0,1,219.55,55.28Z" transform="translate(-34.4 -35.11)"/><text class="cls-3" transform="translate(8.73 44.78)">Bread: $4.99</text></svg>