<svg id="Layer_1" data-name="Layer 1" xmlns="http://www.w3.org/2000/svg" viewBox="0 0 206.22 165.64"><defs><style>.cls-1,.cls-3{fill:#ed1c24;}.cls-1,.cls-2{stroke:#000;stroke-miterlimit:10;stroke-width:6.22px;}.cls-2{fill:#e6e6e6;}</style></defs><title>redfish</title><path class="cls-1" d="M293.49,113.44l-54.75,48.73c-10.36-30.79-38-52.81-70.44-52.81-41.31,0-74.81,35.69-74.81,79.71s33.5,79.72,74.81,79.72c32.46,0,60.08-22,70.44-52.81l54.75,48.72Z" transform="translate(-90.38 -106.25)"/><ellipse class="cls-2" cx="39.64" cy="64.75" rx="13.34" ry="15.41"/><ellipse class="cls-1" cx="33.53" cy="65.55" rx="3.49" ry="5.05"/><path class="cls-3" d="M104.92,222.53c1.75,1.36,3.71.86,5.45-.55a27.93,27.93,0,0,0,4.82-5.9" transform="translate(-90.38 -106.25)"/><path d="M102.25,227.1c7.51,4.89,13.68-2.77,17.51-8.35,1.61-2.36.44-5.87-1.9-7.24a5.39,5.39,0,0,0-7.23,1.9,31,31,0,0,1-2.61,3.51,9.8,9.8,0,0,0-.9.93c-.54.46-.72.56-.57.29,1.78.47,2.12.41,1-.17a5.29,5.29,0,0,0-5.34,9.13Z" transform="translate(-90.38 -106.25)"/></svg>