<svg id="Layer_1" data-name="Layer 1" xmlns="http://www.w3.org/2000/svg" viewBox="0 0 231.64 119.76"><defs><style>.cls-1{fill:#666;stroke-width:3.19px;}.cls-1,.cls-2{stroke:#000;}.cls-1,.cls-2,.cls-3,.cls-4{stroke-miterlimit:10;}.cls-2{fill:#b3b3b3;stroke-width:3px;}.cls-3{fill:#fff;stroke:#666;stroke-width:2px;}.cls-4{stroke:#b3b3b3;stroke-width:1.92px;}</style></defs><title>register</title><rect class="cls-1" x="1.6" y="6.36" width="184.03" height="111.81" rx="20.7"/><path class="cls-2" d="M286.76,203.19h-150a18,18,0,0,1-18-18.05L76.28,104.58a18,18,0,0,1,18-18h150a18.05,18.05,0,0,1,18.06,18l42.43,80.56A18.05,18.05,0,0,1,286.76,203.19Z" transform="translate(-74.68 -85.03)"/><rect class="cls-3" x="41.54" y="49.56" width="20.54" height="20.54" rx="2.52"/><rect class="cls-3" x="66.54" y="49.56" width="20.54" height="20.54" rx="2.52"/><rect class="cls-3" x="98.49" y="49.56" width="20.54" height="20.54" rx="2.52"/><rect class="cls-3" x="127.5" y="49.56" width="20.54" height="20.54" rx="2.52"/><rect class="cls-3" x="160.29" y="49.56" width="20.54" height="20.54" rx="2.52"/><rect class="cls-3" x="66.54" y="81.65" width="20.54" height="20.54"/><rect class="cls-3" x="94.93" y="81.65" width="20.54" height="20.54"/><rect class="cls-3" x="127.5" y="81.65" width="20.54" height="20.54"/><rect class="cls-3" x="159.66" y="81.65" width="20.54" height="20.54"/><rect class="cls-3" x="193.14" y="81.65" width="20.54" height="20.54"/><rect class="cls-4" x="21.04" y="6.36" width="154.28" height="34.72"/></svg>