<svg id="Layer_1" data-name="Layer 1" xmlns="http://www.w3.org/2000/svg" viewBox="0 0 404.96 438.44"><defs><style>.cls-1{fill:#666;}.cls-1,.cls-2,.cls-3,.cls-4,.cls-5,.cls-6{stroke:#000;stroke-miterlimit:10;}.cls-1,.cls-2,.cls-3{stroke-width:9px;}.cls-2{fill:#999;}.cls-3,.cls-4{fill:red;}.cls-4,.cls-5{stroke-width:12.73px;}.cls-5,.cls-6{fill:#f2f2f2;}.cls-6{stroke-width:17.1px;}</style></defs><title>remote</title><path class="cls-1" d="M373.79,438.24,250.27,500.31c-11.49,5.77-28.32-.12-37.58-13.16L-.14,187.74c-9.27-13-7.46-28.29,4-34.06L127.41,91.61c11.49-5.77,28.32.12,37.59,13.15L377.82,404.18C387.09,417.22,385.28,432.47,373.79,438.24Z" transform="translate(10.56 -68.58)"/><path class="cls-2" d="M380,421.93,256.43,484c-11.49,5.78-28.32-.11-37.59-13.15L6,171.43c-9.27-13-7.47-28.29,4-34.06L133.56,75.3c11.49-5.77,28.32.11,37.59,13.15L384,387.87C393.24,400.9,391.44,416.15,380,421.93Z" transform="translate(10.56 -68.58)"/><ellipse class="cls-3" cx="150.18" cy="123.91" rx="19.36" ry="25.29" transform="translate(-31.4 86.76) rotate(-48.82)"/><ellipse class="cls-4" cx="222.07" cy="317.74" rx="40.2" ry="24.37" transform="translate(-90.33 34.75) rotate(-21.47)"/><path class="cls-5" d="M70.13,187.53l-14.2,7.14c-4.47,2.24-11,0-14.62-5.12L29.85,173.44c-3.6-5.07-2.9-11,1.57-13.25l14.2-7.14c4.47-2.24,11,0,14.62,5.12l11.45,16.11C75.3,179.35,74.6,185.28,70.13,187.53Z" transform="translate(10.56 -68.58)"/><path class="cls-5" d="M118.51,163.22l-14.2,7.13c-4.47,2.25-11,0-14.62-5.11L78.24,149.13c-3.61-5.08-2.9-11,1.56-13.25L94,128.74c4.46-2.24,11,0,14.61,5.12L120.08,150C123.68,155,123,161,118.51,163.22Z" transform="translate(10.56 -68.58)"/><path class="cls-5" d="M106.93,239.3l-14.2,7.14c-4.47,2.24-11-.05-14.62-5.12L66.66,225.21c-3.61-5.07-2.91-11,1.56-13.25l14.2-7.13c4.47-2.25,11,0,14.62,5.11l11.45,16.12C112.1,231.13,111.4,237.06,106.93,239.3Z" transform="translate(10.56 -68.58)"/><path class="cls-5" d="M155.31,215l-14.2,7.14c-4.47,2.24-11,0-14.62-5.12L115,200.9c-3.6-5.07-2.9-11,1.57-13.25l14.2-7.13c4.47-2.25,11,0,14.61,5.11l11.46,16.11C160.48,206.81,159.78,212.75,155.31,215Z" transform="translate(10.56 -68.58)"/><path class="cls-5" d="M206.34,189.35l-14.2,7.14c-4.47,2.24-11-.05-14.62-5.12l-11.45-16.11c-3.61-5.07-2.91-11,1.56-13.25l14.2-7.13c4.47-2.25,11,0,14.62,5.11L207.9,176.1C211.51,181.17,210.81,187.11,206.34,189.35Z" transform="translate(10.56 -68.58)"/><path class="cls-5" d="M147.68,296.64l-14.2,7.13c-4.47,2.25-11,0-14.62-5.11l-11.45-16.12c-3.61-5.07-2.9-11,1.56-13.24l14.21-7.14c4.46-2.24,11,0,14.61,5.12l11.46,16.11C152.85,288.46,152.15,294.39,147.68,296.64Z" transform="translate(10.56 -68.58)"/><path class="cls-5" d="M196.07,272.33l-14.21,7.13c-4.46,2.25-11,0-14.61-5.11l-11.46-16.12c-3.6-5.07-2.9-11,1.57-13.24l14.2-7.14c4.47-2.25,11,0,14.62,5.11l11.45,16.12C201.24,264.15,200.53,270.08,196.07,272.33Z" transform="translate(10.56 -68.58)"/><path class="cls-5" d="M247.09,246.69l-14.2,7.13c-4.47,2.25-11,0-14.62-5.11l-11.45-16.12c-3.61-5.07-2.9-11,1.56-13.24l14.21-7.14c4.47-2.25,11,0,14.61,5.12l11.46,16.11C252.26,238.51,251.56,244.44,247.09,246.69Z" transform="translate(10.56 -68.58)"/><path class="cls-6" d="M255.33,406.72l-33.09,16.62c-6,3-14.79-.06-19.64-6.87l-7-9.81c-4.84-6.81-3.9-14.78,2.1-17.79l33.09-16.63c6-3,14.79.06,19.64,6.87l7,9.81C262.27,395.73,261.33,403.7,255.33,406.72Z" transform="translate(10.56 -68.58)"/><path class="cls-6" d="M332.94,367.72l-33.09,16.62c-6,3-14.79-.06-19.63-6.87l-7-9.81c-4.84-6.81-3.9-14.78,2.11-17.79l33.08-16.63c6-3,14.8.06,19.64,6.87l7,9.81C339.88,356.73,338.94,364.7,332.94,367.72Z" transform="translate(10.56 -68.58)"/></svg>