<svg id="Layer_1" data-name="Layer 1" xmlns="http://www.w3.org/2000/svg" xmlns:xlink="http://www.w3.org/1999/xlink" viewBox="0 0 506.35 503.19"><defs><style>.cls-1{fill:aqua;stroke-width:0.61px;}.cls-1,.cls-11,.cls-12,.cls-2,.cls-3,.cls-4,.cls-5,.cls-6,.cls-7,.cls-8,.cls-9{stroke:#000;stroke-miterlimit:10;}.cls-2{fill:#42210b;}.cls-12,.cls-2,.cls-3,.cls-4,.cls-7{stroke-width:2.9px;}.cls-3{fill:#009245;}.cls-4{fill:#603813;}.cls-5,.cls-8{fill:#006837;}.cls-5{stroke-width:3.48px;}.cls-6{fill:#8c6239;stroke-width:2.28px;}.cls-7{fill:#a67c52;}.cls-8{stroke-width:3.88px;}.cls-9{fill:#4d4d4d;stroke-width:2.3px;}.cls-10{fill:url(#linear-gradient);}.cls-11{fill:gray;stroke-width:0.76px;}.cls-12{fill:#ff0;}</style><linearGradient id="linear-gradient" x1="317.87" y1="286.82" x2="317.87" y2="124.33" gradientUnits="userSpaceOnUse"><stop offset="0" stop-color="#4d4d4d"/><stop offset="0.05" stop-color="#3b3b3b"/><stop offset="0.14" stop-color="#252525"/><stop offset="0.23" stop-color="#141414"/><stop offset="0.36" stop-color="#090909"/><stop offset="0.53" stop-color="#020202"/><stop offset="1"/></linearGradient></defs><title>road</title><rect class="cls-1" x="2.8" y="1.74" width="85.5" height="53.5"/><rect class="cls-2" x="2.8" y="147.98" width="143.88" height="143.88"/><rect class="cls-3" x="2.8" y="281.18" width="500" height="220.56"/><rect class="cls-4" x="144.23" y="1.74" width="360.67" height="286.82"/><rect class="cls-5" x="71.11" y="1.74" width="105.69" height="159.49" rx="28.87"/><rect class="cls-6" x="74.65" y="118.28" width="43.68" height="104.28" rx="5.89"/><rect class="cls-6" x="1.14" y="161.23" width="43.68" height="104.28" rx="5.89"/><rect class="cls-7" x="98.54" y="108.61" width="43.68" height="168.48" rx="7.48"/><rect class="cls-8" x="2.8" y="3.79" width="105.69" height="198.18" rx="32.18"/><rect class="cls-7" x="32.05" y="120.08" width="43.68" height="168.48" rx="7.48"/><polygon class="cls-9" points="501.77 323.62 477.44 284.33 171.15 284.33 265.97 498.96 265.97 501.74 502.8 501.74 502.8 323.62 501.77 323.62"/><path class="cls-10" d="M480.37,286.82c.27-3.55.42-7.14.42-10.75,0-83.81-72.94-151.74-162.92-151.74S155,192.26,155,276.07c0,3.61.15,7.2.41,10.75Z" transform="translate(2.8 1.74)"/><path class="cls-11" d="M223.13,164.29q-6.58-8.1-13.16-16.22c-1.36-1.65.24-5.08,3.7-7.47q3.63-2.5,7.39-4.82c3.57-2.21,7.44-2.36,8.54-.53L240.46,153c1.11,1.84-.49,4.69-3.47,6.54q-3.17,1.95-6.23,4.07C227.87,165.56,224.5,166,223.13,164.29Z" transform="translate(2.8 1.74)"/><path class="cls-11" d="M241.05,152.63l-10.78-17.75c-1.13-1.82.93-4.95,4.68-6.82,2.63-1.3,5.3-2.55,8-3.72,3.84-1.69,7.7-1.32,8.54.63q4.14,9.45,8.3,18.89c.84,1.95-1.14,4.55-4.35,6q-3.41,1.5-6.73,3.15C245.56,154.53,242.17,154.45,241.05,152.63Z" transform="translate(2.8 1.74)"/><path class="cls-11" d="M259.78,143.86q-4.15-9.45-8.3-18.89c-.87-1.94,1.58-4.76,5.56-6.12q4.17-1.42,8.41-2.67c4-1.17,7.81-.33,8.38,1.7l5.7,19.7c.57,2-1.74,4.36-5.12,5.35-2.38.69-4.74,1.45-7.09,2.25C264,146.32,260.65,145.8,259.78,143.86Z" transform="translate(2.8 1.74)"/><path class="cls-11" d="M279.53,137.58l-5.7-19.7c-.6-2,2.21-4.51,6.33-5.36q4.33-.9,8.7-1.61c4.16-.67,7.79.62,8.09,2.7l3,20.19c.29,2.08-2.31,4.1-5.79,4.66-2.45.4-4.9.86-7.34,1.36C283.38,140.54,280.13,139.61,279.53,137.58Z" transform="translate(2.8 1.74)"/><path class="cls-11" d="M300.62,133.72q-1.46-10.11-2.92-20.2c-.32-2.08,2.82-4.18,7-4.51q4.42-.36,8.85-.51c4.21-.16,7.64,1.57,7.64,3.66l.18,20.34c0,2.1-2.86,3.78-6.38,3.91q-3.74.14-7.47.43C304,137.12,300.93,135.8,300.62,133.72Z" transform="translate(2.8 1.74)"/><path class="cls-11" d="M321.39,132.5l-.18-20.34c0-2.09,3.35-3.8,7.57-3.63q4.43.18,8.84.55c4.2.35,7.36,2.47,7.09,4.54l-2.55,20.16c-.28,2.08-3.34,3.4-6.86,3.1-2.48-.2-5-.36-7.46-.45C324.32,136.28,321.43,134.6,321.39,132.5Z" transform="translate(2.8 1.74)"/><path class="cls-11" d="M166.48,286.42l-20.8-.11c-2.14,0-3.88-4.54-3.62-10q.28-5.73.83-11.26c.53-5.27,2.87-9.07,5-8.68l20.51,3.6c2.11.4,3.29,4.16,2.87,8.56q-.47,4.67-.69,9.5C170.34,282.58,168.62,286.41,166.48,286.42Z" transform="translate(2.8 1.74)"/><path class="cls-11" d="M168.49,259.16,148,255.45c-2.11-.36-3.22-4.8-2.24-9.73q1-5.17,2.32-10.17c1.22-4.75,4-7.85,6.06-7.13l19.74,6.87c2,.73,2.7,4.41,1.69,8.37-.72,2.81-1.37,5.66-1.94,8.58C172.81,256.35,170.6,259.53,168.49,259.16Z" transform="translate(2.8 1.74)"/><path class="cls-11" d="M173.88,235.29l-19.74-6.87c-2-.69-2.56-5-.94-9.41q1.7-4.65,3.61-9.1c1.82-4.24,5-6.71,6.92-5.7l18.6,9.7c1.91,1,2.08,4.58.56,8.13-1.07,2.5-2.09,5.06-3,7.68C178.51,233.42,175.92,236,173.88,235.29Z" transform="translate(2.8 1.74)"/><path class="cls-11" d="M182.33,213.91l-18.6-9.7c-1.92-1-1.88-5.1.3-9q2.28-4.11,4.77-8c2.36-3.73,5.83-5.58,7.58-4.32L193.48,195c1.76,1.27,1.45,4.7-.51,7.82q-2.08,3.32-4,6.79C187.14,212.91,184.25,214.89,182.33,213.91Z" transform="translate(2.8 1.74)"/><path class="cls-11" d="M193.89,194.45l-17-12.26c-1.77-1.25-1.16-5.16,1.52-8.56q2.82-3.57,5.81-6.95c2.84-3.21,6.53-4.45,8.09-3l15.23,14.41c1.56,1.49.79,4.76-1.58,7.45q-2.52,2.85-4.89,5.86C198.78,194.28,195.65,195.7,193.89,194.45Z" transform="translate(2.8 1.74)"/><path class="cls-11" d="M207.49,178.13l-15.23-14.41c-1.58-1.47-.46-5.16,2.64-8.05,2.18-2,4.4-4,6.67-5.88,3.25-2.71,7.07-3.39,8.4-1.72q6.59,8.12,13.16,16.22c1.34,1.69.14,4.76-2.56,7q-2.88,2.4-5.62,5C212.36,178.7,209.07,179.6,207.49,178.13Z" transform="translate(2.8 1.74)"/><path class="cls-11" d="M448.72,195q8.22-6,16.46-12.07c1.68-1.26,5.1.6,7.46,4.34q2.48,3.92,4.75,8c2.17,3.91,2.27,8,.42,9l-17.91,9.6c-1.85,1-4.69-1-6.51-4.3-1.29-2.32-2.63-4.59-4-6.79C447.39,199.64,447,196.22,448.72,195Z" transform="translate(2.8 1.74)"/><path class="cls-11" d="M460.22,214.51,478.17,205c1.83-1,4.95,1.5,6.75,5.76q1.89,4.47,3.55,9.13c1.59,4.44,1.11,8.73-.85,9.4l-19,6.69c-2,.67-4.48-1.92-5.82-5.63q-1.41-3.94-3-7.72C458.25,219.07,458.38,215.5,460.22,214.51Z" transform="translate(2.8 1.74)"/><path class="cls-11" d="M468.6,236l19-6.69c1.94-.71,4.68,2.43,5.87,7.19q1.26,5,2.26,10.19c.95,4.94-.12,9.38-2.14,9.72L473.93,260c-2,.35-4.16-2.85-5-7q-.85-4.38-1.92-8.61C466,240.37,466.65,236.69,468.6,236Z" transform="translate(2.8 1.74)"/><path class="cls-11" d="M473.93,260l19.68-3.56c2-.38,4.28,3.42,4.79,8.68q.56,5.54.81,11.26c.26,5.44-1.41,10-3.46,10l-19.89.1c-2.05,0-3.7-3.84-3.93-8.4-.15-3.22-.39-6.39-.7-9.5C470.79,264.1,471.9,260.34,473.93,260Z" transform="translate(2.8 1.74)"/><path class="cls-11" d="M342.16,133.78l2.55-20.16c.24-2.07,3.83-3.36,8-2.68q4.37.7,8.7,1.61c4.12.86,7,3.34,6.42,5.35q-2.62,9.82-5.23,19.66c-.55,2-3.77,2.95-7.22,2.23q-3.64-.75-7.34-1.35C344.55,137.88,341.91,135.86,342.16,133.78Z" transform="translate(2.8 1.74)"/><path class="cls-11" d="M363.24,137.72l5.31-19.63c.53-2,4.27-2.84,8.3-1.65q4.23,1.26,8.4,2.71c4,1.38,6.44,4.21,5.62,6.13q-4,9.39-7.9,18.79c-.83,1.92-4.14,2.43-7.46,1.28q-3.52-1.23-7.09-2.28C365.05,142.07,362.71,139.75,363.24,137.72Z" transform="translate(2.8 1.74)"/><path class="cls-11" d="M383,144.07q3.94-9.4,7.9-18.79c.79-1.93,4.61-2.28,8.44-.58,2.68,1.19,5.34,2.45,8,3.77,3.75,1.88,5.83,5,4.75,6.82l-10.35,17.62c-1.07,1.8-4.43,1.86-7.56.29-2.21-1.11-4.46-2.17-6.72-3.17C384.18,148.6,382.17,146,383,144.07Z" transform="translate(2.8 1.74)"/><path class="cls-11" d="M401.67,152.91,412,135.29c1.05-1.81,4.88-1.65,8.44.55q3.75,2.32,7.39,4.83c3.45,2.39,5.09,5.81,3.78,7.46L419,164.24c-1.31,1.65-4.63,1.24-7.53-.75-2-1.42-4.12-2.77-6.24-4.07C402.27,157.57,400.62,154.73,401.67,152.91Z" transform="translate(2.8 1.74)"/><path class="cls-11" d="M419.56,164.65l12.68-16.06c1.29-1.66,5.05-1,8.28,1.78q3.39,2.85,6.63,5.92c3.09,2.9,4.24,6.59,2.72,8l-14.71,14.23c-1.53,1.45-4.76.53-7.35-1.9q-2.74-2.58-5.61-5C419.5,169.38,418.27,166.31,419.56,164.65Z" transform="translate(2.8 1.74)"/><path class="cls-11" d="M435.16,178.56l14.71-14.23c1.49-1.48,5.13-.2,7.95,3q3,3.39,5.77,7c2.66,3.41,3.29,7.32,1.59,8.55q-8.24,6-16.46,12.07c-1.71,1.23-4.78-.22-7-3.07-1.57-2-3.2-4-4.87-5.89C434.46,183.29,433.65,180,435.16,178.56Z" transform="translate(2.8 1.74)"/><polygon class="cls-12" points="367.23 338.77 356.94 338.77 335.07 288.71 345.61 288.73 367.23 338.77"/><polygon class="cls-12" points="403.38 418.07 393.09 418.07 371.22 368 381.76 368.03 403.38 418.07"/><polygon class="cls-12" points="448.38 501.74 438.09 501.74 416.22 451.68 426.75 451.7 448.38 501.74"/></svg>