<svg id="Layer_1" data-name="Layer 1" xmlns="http://www.w3.org/2000/svg" viewBox="0 0 2435.53 1378.21"><defs><style>.cls-1{fill:#a2fdff;}.cls-1,.cls-10,.cls-11,.cls-12,.cls-13,.cls-14,.cls-15,.cls-16,.cls-17,.cls-18,.cls-19,.cls-2,.cls-20,.cls-21,.cls-22,.cls-23,.cls-3,.cls-4,.cls-5,.cls-6,.cls-7,.cls-8,.cls-9{stroke:#000;stroke-miterlimit:10;}.cls-1,.cls-2,.cls-3,.cls-4,.cls-5,.cls-7{stroke-width:5.21px;}.cls-2{fill:#006837;}.cls-10,.cls-11,.cls-12,.cls-13,.cls-14,.cls-15,.cls-16,.cls-17,.cls-18,.cls-19,.cls-2,.cls-20,.cls-21,.cls-22,.cls-23,.cls-3,.cls-4,.cls-5,.cls-6,.cls-7,.cls-8,.cls-9{opacity:0;}.cls-3{fill:#009245;}.cls-4{fill:#5a5a5a;}.cls-5{fill:#868686;}.cls-6{fill:#b3b3b3;stroke-width:4.52px;}.cls-7{fill:#754c24;}.cls-10,.cls-11,.cls-12,.cls-13,.cls-14,.cls-16,.cls-17,.cls-18,.cls-19,.cls-21,.cls-22,.cls-23,.cls-8,.cls-9{fill:#c69c6d;}.cls-8{stroke-width:3.34px;}.cls-9{stroke-width:2.29px;}.cls-10{stroke-width:2.05px;}.cls-11{stroke-width:1.72px;}.cls-12{stroke-width:1.35px;}.cls-13{stroke-width:0.98px;}.cls-14{stroke-width:3.25px;}.cls-15,.cls-20{fill:#a67c52;}.cls-15{stroke-width:4.06px;}.cls-16{stroke-width:3.16px;}.cls-17{stroke-width:3.07px;}.cls-18{stroke-width:2.56px;}.cls-19{stroke-width:2.05px;}.cls-20{stroke-width:3.03px;}.cls-21{stroke-width:1.54px;}.cls-22{stroke-width:4.49px;}.cls-23{stroke-width:3.95px;}</style></defs><rect class="cls-1" x="289.6" y="2.6" width="1920" height="1082.77"/><ellipse class="cls-2" cx="382.6" cy="976.07" rx="380" ry="136.69"/><ellipse class="cls-2" cx="1308.47" cy="883.6" rx="386.64" ry="171.35"/><ellipse class="cls-3" cx="996.91" cy="1072.79" rx="804.3" ry="302.82"/><polygon class="cls-4" points="1924.03 1234.27 1471.94 1251.61 1351.94 606.43 1924.03 606.43 1924.03 1234.27"/><polygon class="cls-5" points="1702.61 1242.27 2296.41 1242.27 2296.41 649.12 1592.41 649.12 1702.61 1242.27"/><path class="cls-6" d="M2037.36,599.34c13.26-4,21-8.66,21-13.73,0-12.18-44.51-22.33-103.6-24.64,5.75-2.28,8.94-4.78,8.94-7.41,0-10.62-52-19.23-116.15-19.23-41.07,0-77.15,3.53-97.81,8.86-49.2-5.53-112.49-8.86-181.57-8.86-122.66,0-227.12,10.49-266.7,25.17q-3.81,0-7.65,0c-127.83,0-231.46,21-231.46,46.82s103.63,46.82,231.46,46.82q3.78,0,7.53,0c31.19,10.49,125.3,18.11,236.55,18.11,39.41,0,76.67-1,109.74-2.66,46.79,3.06,99.94,4.79,156.31,4.79,187.64,0,339.75-19.18,339.75-42.85C2143.67,618.21,2102.82,607.15,2037.36,599.34Z" transform="translate(289.6 2.6)"/><polygon class="cls-7" points="1919.94 890.5 1630.96 888.99 1713.44 862.21 1971.46 862.21 1919.94 890.5"/><polygon class="cls-7" points="1836.27 940.61 1506.38 929.61 1588.86 902.82 1890.94 912.27 1836.27 940.61"/><polygon class="cls-7" points="1729.05 991.83 1346.27 968.94 1434.42 947.61 1778.83 967.83 1729.05 991.83"/><polygon class="cls-7" points="1620.28 1042.97 1154.94 1010.63 1246.55 993.49 1671.81 1014.68 1620.28 1042.97"/><polygon class="cls-7" points="1341.27 1132.27 897.27 1045.01 999.94 1028.94 1471.94 1094.27 1341.27 1132.27"/><polygon class="cls-7" points="899.94 1226.27 639.94 1066.47 750.61 1056.94 1057.94 1198.27 899.94 1226.27"/><polygon class="cls-7" points="2000.6 846.12 1753.77 844.83 1836.25 818.05 2031.94 825.38 2000.6 846.12"/><polygon class="cls-7" points="2057.61 806.61 1860.61 805.16 1927.6 776.87 2096.94 778.94 2057.61 806.61"/><polygon class="cls-7" points="2111.94 764.61 1948.27 765.28 1995.27 741.29 2137.27 746.27 2111.94 764.61"/><polygon class="cls-7" points="2152.42 730.68 2009.46 729.93 2045.94 712.94 2169.5 715.18 2152.42 730.68"/><polygon class="cls-7" points="2182.27 701.94 2075.02 697.72 2098.94 685.08 2199.27 685.08 2182.27 701.94"/><polygon class="cls-7" points="2209.61 675.93 2125.94 669.68 2147.09 655.98 2224.61 661.61 2209.61 675.93"/><path class="cls-8" d="M535.49,1047.64l-4.26-7.53C596.31,1010.28,669,954.8,653,789.14l9.36-.73c7.3,75.76-2.61,134.4-30.3,179.26C611.11,1001.64,580.42,1027.05,535.49,1047.64Z" transform="translate(289.6 2.6)"/><path class="cls-9" d="M1043.93,970.16l-2.34-6.42c35.72-25.44,75.6-72.77,66.84-214.08l5.14-.62c4,64.62-1.43,114.64-16.63,152.91C1085.44,930.92,1068.59,952.6,1043.93,970.16Z" transform="translate(289.6 2.6)"/><path class="cls-10" d="M1286.6,906.33l-2.13-5.64c32.54-22.36,68.87-63.94,60.89-188.1L1350,712c3.65,56.78-1.31,100.73-15.15,134.36C1324.41,871.85,1309.07,890.9,1286.6,906.33Z" transform="translate(289.6 2.6)"/><path class="cls-11" d="M1493.23,835.64l-1.7-5c25.88-19.94,54.76-57,48.42-167.78l3.72-.49c2.9,50.65-1,89.85-12,119.84C1523.29,804.88,1511.09,821.87,1493.23,835.64Z" transform="translate(289.6 2.6)"/><path class="cls-12" d="M1635.72,767.36l-1.3-4c19.89-15.92,42.09-45.53,37.21-134l2.86-.39c2.23,40.44-.8,71.73-9.26,95.68C1658.83,742.81,1649.45,756.37,1635.72,767.36Z" transform="translate(289.6 2.6)"/><path class="cls-13" d="M1805.08,682.48l-.9-3.08c13.69-12.21,29-34.91,25.62-102.69l2-.3c1.54,31-.55,55-6.37,73.35C1821,663.66,1814.53,674.05,1805.08,682.48Z" transform="translate(289.6 2.6)"/><path class="cls-14" d="M56.72,1274.49l-4.27-7.13c65.08-28.24,137.74-80.75,121.78-237.57l9.36-.69c7.3,71.72-2.61,127.22-30.29,169.69C132.34,1230.94,101.65,1255,56.72,1274.49Z" transform="translate(289.6 2.6)"/><path class="cls-15" d="M-4.15,1082.77l-.11-12.26c476.53-4.32,901.68-60.07,1263.63-165.68,289.61-84.5,530.72-201.14,678.93-328.42l7.84,9.35c-70.63,60.65-161.62,118.86-270.45,173-120.43,59.91-259.37,113-413,157.83-170.6,49.78-358.62,89-558.85,116.71C482.68,1063.87,244.47,1080.51-4.15,1082.77Z" transform="translate(289.6 2.6)"/><path class="cls-14" d="M656.89,1218.85l-4.26-7.13c65.08-28.23,137.74-80.75,121.78-237.56l9.36-.69c7.3,71.71-2.61,127.22-30.3,169.68C732.51,1175.31,701.82,1199.36,656.89,1218.85Z" transform="translate(289.6 2.6)"/><path class="cls-16" d="M1131.59,1113.06l-4.26-6.74c65.08-26.7,137.74-76.37,121.78-224.67l9.36-.65c7.3,67.82-2.61,120.31-30.3,160.47C1207.21,1071.88,1176.52,1094.63,1131.59,1113.06Z" transform="translate(289.6 2.6)"/><path class="cls-17" d="M1396.06,1017.85l-4.27-6.38c65.09-25.26,137.74-72.24,121.78-212.52l9.36-.62c7.3,64.16-2.61,113.81-30.29,151.8C1471.68,978.89,1441,1000.41,1396.06,1017.85Z" transform="translate(289.6 2.6)"/><path class="cls-18" d="M1584.75,929.59l-3.39-5.55c51.75-22,109.52-62.82,96.83-184.82l7.45-.54c5.8,55.8-2.08,99-24.09,132C1644.88,895.71,1620.48,914.43,1584.75,929.59Z" transform="translate(289.6 2.6)"/><path class="cls-19" d="M1734,829.59l-2.61-4.62c39.78-18.31,84.18-52.36,74.42-154l5.72-.45c4.46,46.5-1.59,82.48-18.51,110C1780.18,801.36,1761.43,817,1734,829.59Z" transform="translate(289.6 2.6)"/><path class="cls-20" d="M-15.09,822.77l-.11-6.84c475-2.42,898.86-33.55,1259.68-92.53,288.7-47.19,529.06-112.32,676.8-183.4l7.81,5.22c-70.41,33.87-161.11,66.38-269.6,96.61-120,33.47-258.56,63.12-411.67,88.15-170.06,27.8-357.49,49.72-557.09,65.17C470.22,812.22,232.75,821.51-15.09,822.77Z" transform="translate(289.6 2.6)"/><path class="cls-21" d="M1853.61,738.68l-1.79-3.8c27.38-15.08,58-43.12,51.23-126.84l3.94-.37c3.07,38.29-1.1,67.92-12.74,90.59C1885.43,715.43,1872.52,728.27,1853.61,738.68Z" transform="translate(289.6 2.6)"/><path class="cls-14" d="M-79.11,1068.38l-4.26-7.13C-18.29,1033,54.37,980.5,38.41,823.69l9.36-.69c7.3,71.71-2.61,127.22-30.3,169.68C-3.49,1024.84-34.18,1048.89-79.11,1068.38Z" transform="translate(289.6 2.6)"/><path class="cls-22" d="M26.24,1274.49l-.1-15.2c469.1-5.37,887.62-74.5,1243.94-205.48,285.09-104.8,522.44-249.45,668.34-407.3l7.72,11.59C1876.61,733.33,1787,805.51,1679.9,872.66c-118.55,74.31-255.33,140.17-406.52,195.75-167.94,61.74-353,110.43-550.14,144.74C505.49,1251.05,271,1271.69,26.24,1274.49Z" transform="translate(289.6 2.6)"/><path class="cls-23" d="M-46.4,1031.52h0c0-3.12,2-5.67,4.63-5.69,488-4.26,923.52-55.42,1294.46-152.08,295.83-77.08,542.45-183.29,695.06-299.27a4.06,4.06,0,0,1,5.57.54l.77.82c2.33,2.48,2,7-.6,9-71.85,54.25-163.58,106.32-272.78,154.84-123.82,55-266.67,103.77-424.57,144.91-175.39,45.7-368.7,81.75-574.55,107.15-226,27.89-469.36,43.15-723.28,45.37C-44.26,1037.1-46.37,1034.62-46.4,1031.52Z" transform="translate(289.6 2.6)"/></svg>