<svg id="Layer_1" data-name="Layer 1" xmlns="http://www.w3.org/2000/svg" viewBox="0 0 501 243.97"><defs><style>.cls-1,.cls-9{fill:#fff;}.cls-1{stroke:#000;}.cls-1,.cls-2,.cls-3,.cls-4,.cls-5,.cls-6,.cls-7,.cls-8{stroke-miterlimit:10;}.cls-2{fill:#fbb03b;stroke-width:0.61px;}.cls-2,.cls-3,.cls-4,.cls-5,.cls-6,.cls-7,.cls-8{stroke:#fff;}.cls-3{fill:#ccc;stroke-width:0.72px;}.cls-4{fill:#f7931e;stroke-width:0.71px;}.cls-5{fill:#838bc5;stroke-width:0.79px;}.cls-6{font-size:61px;fill:red;font-family:ShowcardGothic-Reg, Showcard Gothic;}.cls-7{fill:#736357;stroke-width:0.7px;}.cls-8{fill:#ba9bc9;stroke-width:0.45px;}.cls-10{fill:#2e3192;}</style></defs><title>scarystuff5</title><rect class="cls-1" x="0.5" y="0.5" width="500" height="242.97"/><rect class="cls-2" x="316.73" y="0.82" width="183.77" height="91.16"/><rect class="cls-3" x="0.5" y="69.5" width="132.46" height="173.97"/><rect class="cls-4" x="132.96" y="120.11" width="183.77" height="123.36"/><rect class="cls-5" x="316.73" y="91.98" width="183.77" height="151.49"/><text class="cls-6" transform="translate(24.07 222.8)">SCARY STUFF: 5</text><rect class="cls-7" x="132.96" y="0.5" width="183.77" height="119.61"/><path d="M436.7,131.65c2.44-11.34,8.92-21.63,18.91-27.8,4.25-2.62,10.62-5.46,15.15-1.91,4.8,3.76,5.63,11.3,6.66,16.83,1.77,9.48,16.23,5.46,14.46-4-1.68-9-4.19-18.34-11.66-24.38S462.71,84.29,454,87.92c-16.27,6.78-28.09,22.74-31.76,39.74-2,9.41,12.43,13.44,14.47,4Z" transform="translate(0.5 0.5)"/><path d="M457.87,132.94c9.66,0,9.67-15,0-15s-9.66,15,0,15Z" transform="translate(0.5 0.5)"/><path d="M416.83,126.59c-2.25-9-4.65-18.7-8.93-27-4-7.82-11.36-11.39-19.46-13.75-8.51-2.48-17-3.26-24.59,2a24.47,24.47,0,0,0-10.61,20.73c.3,9.63,15.3,9.68,15,0a9.53,9.53,0,0,1,5.51-9.23c4.41-2,10.85.63,15,2.31,5,2,6.41,5.71,8.12,10.54,2.12,6,3.92,12.15,5.47,18.34,2.35,9.36,16.82,5.39,14.46-4Z" transform="translate(0.5 0.5)"/><path d="M387.38,127.61c9.65,0,9.67-15,0-15s-9.67,15,0,15Z" transform="translate(0.5 0.5)"/><rect class="cls-8" x="0.5" y="0.5" width="132.46" height="69"/><path d="M265.41,55.27c9.65,0,9.67-15,0-15s-9.67,15,0,15Z" transform="translate(0.5 0.5)"/><path d="M315.41,54.45c9.65,0,9.67-15,0-15s-9.67,15,0,15Z" transform="translate(0.5 0.5)"/><path d="M253.34,82.25l2.37-27c.4-4.51.78-9,1.19-13.53.29-3.12.52-6.49,2.53-9,3.9-5,11.94-6.7,17.71-7.91,8.26-1.73,16.8-1.78,25.2-1.31a186.8,186.8,0,0,1,24,2.51c6.25,1.17,7.77,10.43,9,15.79,1.76,7.68,2,15.63,1.68,23.47-.15,4-.45,8.09-.82,12.12-.16,1.72-.34,3.44-.52,5.16-.12,1.15-.24,2.29-.37,3.43q-.66,2.89,2.62-1.83l5.78.75c-2.44-1.15-4.66-5.35-6.42-7.47L330,68.62c-2.6-3.12-8-2.66-10.61,0a103.68,103.68,0,0,0-11.6,13.92L319.54,81a30.28,30.28,0,0,1-6.49-11.45,7.58,7.58,0,0,0-12.53-3.31L285.39,81.35l12.53,3.31L292.7,69c-2.12-6.35-10-7.14-13.71-1.79L264.54,88.1l11.78-1.51A55.39,55.39,0,0,1,268.19,72c-1.7-4.52-6.49-7-11-4.48A49,49,0,0,0,239.27,85c-5,8.27,7.94,15.82,12.95,7.57a33.64,33.64,0,0,1,12.52-12l-11-4.48a78.19,78.19,0,0,0,12,21.17c3.21,4.1,9.34,2,11.78-1.52L292,74.79,278.24,73l5.22,15.65c1.76,5.28,8.38,7.46,12.53,3.31l15.13-15.09-12.53-3.31a47.66,47.66,0,0,0,10.34,18.07c3.48,3.85,9.17,2.22,11.78-1.51A81.59,81.59,0,0,1,330,79.22H319.36l9.08,10.91c2.88,3.46,5.58,7.87,10.43,8.53,10.5,1.42,11.2-10.7,11.93-17.92,1.82-17.82,2.53-36.57-4.38-53.47-3.3-8.08-7.77-14.36-16.85-15.93a233.44,233.44,0,0,0-28.15-3c-16.71-.83-38,.34-51.08,12.16-7.81,7-8.09,17.21-9,27l-3,34.77c-.84,9.62,14.16,9.56,15,0Z" transform="translate(0.5 0.5)"/><path class="cls-9" d="M114.15,136.67c-2-12.73-10.11-22.7-17.48-32.81C88,92,80.5,79.35,72.22,67.22c-13.95-20.44-31-39.92-54.95-48.4a1.51,1.51,0,0,0-1.85,1.05C12.1,38.28,20.2,56.09,33,69.05A112.68,112.68,0,0,0,55,85.79c3,1.83,6.51,4.68,10.23,4.14,5.08-.74,10.66-4.36,15.32-6.41,1.77-.77.24-3.36-1.51-2.59l-7.19,3.15c-1.72.76-4.88,2.63-6.6,2.83C61.41,87.36,56,83,53,81A102.5,102.5,0,0,1,34.58,66.34C22.87,54.27,15.24,37.69,18.31,20.66l-1.84,1.05c24.4,8.64,41.26,29.23,55.21,50.06,7.49,11.19,14.48,22.71,22.4,33.6,7.21,9.9,15.25,19.62,17.18,32.1.29,1.9,3.18,1.1,2.89-.8Z" transform="translate(0.5 0.5)"/><path class="cls-9" d="M63.75,92a317.13,317.13,0,0,0,23.76,39.48q3.19,4.52,6.55,8.92c1,1.26,2,3,3.59,3.6,2.2.8,4.87-.32,7-.85,4.13-1,8.17-2.32,12.17-3.76,1.81-.65,1-3.55-.79-2.89-2.86,1-5.74,2-8.66,2.81-4.06,1.16-7.12,2.68-10.68-.42-2.17-1.88-3.81-5.08-5.49-7.42q-3-4.12-5.77-8.34A319.42,319.42,0,0,1,66.34,90.46c-.87-1.73-3.46-.21-2.59,1.51Z" transform="translate(0.5 0.5)"/><path class="cls-10" d="M333.85,167c46.44,1,92.9,0,139.34-.54a1.5,1.5,0,0,0,0-3c-46.44.56-92.9,1.5-139.34.54-1.93,0-1.93,3,0,3Z" transform="translate(0.5 0.5)"/><path class="cls-10" d="M363.35,157q56.92,2.86,113.94,1.82c1.93,0,1.93-3,0-3q-57,1-113.94-1.82c-1.93-.1-1.93,2.9,0,3Z" transform="translate(0.5 0.5)"/><path class="cls-10" d="M174.36,128.81c16.32,2.64,32.58.17,48.93-.88a349.38,349.38,0,0,1,50.64.46c1.93.16,1.92-2.84,0-3a348.71,348.71,0,0,0-48.7-.58c-16.67,1-33.42,3.8-50.08,1.11-1.88-.31-2.7,2.58-.79,2.89Z" transform="translate(0.5 0.5)"/><path class="cls-10" d="M159.36,155.79a199.05,199.05,0,0,0,60.23.14c1.9-.29,1.1-3.18-.8-2.9a193.69,193.69,0,0,1-58.63-.14c-1.89-.29-2.7,2.6-.8,2.9Z" transform="translate(0.5 0.5)"/><path class="cls-10" d="M127.37,97.54c11.54-1,23.54-1.24,34.91-3.53,1.89-.38,1.09-3.27-.79-2.89-11.09,2.23-22.86,2.41-34.12,3.42-1.91.17-1.93,3.17,0,3Z" transform="translate(0.5 0.5)"/><path class="cls-10" d="M188.27,78.19c-.48-9.34-1.14-18.69-1.42-28-.16-5.14.2-10.25,3.9-14.19s8.89-5.49,14.09-5.43,13,1.19,14.93,6.73c1.44,4.19,1.55,8.88,1.59,13.26.07,8.54-.65,17,1.54,25.34L224,74a261.27,261.27,0,0,1-35.54,3c-1.93,0-1.94,3,0,3a268,268,0,0,0,36.33-3.15,1.51,1.51,0,0,0,1-1.84c-3.06-11.7,0-23.83-2.39-35.6-.75-3.73-2-7-5.42-8.92-4.25-2.43-10.14-3.25-14.95-3-8.55.51-16.72,5.63-18.68,14.35-1.2,5.36-.36,11.13-.09,16.55l1,19.72c.09,1.92,3.09,1.93,3,0Z" transform="translate(0.5 0.5)"/><path class="cls-10" d="M192.21,24.86a10.88,10.88,0,0,1-3.11-3.76c-.87-1.72-3.45-.2-2.59,1.52A13,13,0,0,0,190.09,27a1.55,1.55,0,0,0,2.12,0,1.51,1.51,0,0,0,0-2.12Z" transform="translate(0.5 0.5)"/><path class="cls-10" d="M197.83,23.91,197,19.4a1.51,1.51,0,0,0-1.84-1,1.54,1.54,0,0,0-1.05,1.85l.8,4.51a1.51,1.51,0,0,0,1.84,1.05,1.54,1.54,0,0,0,1.05-1.85Z" transform="translate(0.5 0.5)"/><path class="cls-10" d="M206.41,24.67l2.73-4.59a1.5,1.5,0,0,0-2.59-1.51l-2.73,4.59a1.5,1.5,0,0,0,2.59,1.51Z" transform="translate(0.5 0.5)"/><path class="cls-10" d="M218.72,24.68a27,27,0,0,1,4.17-4.7c1.43-1.3-.7-3.42-2.12-2.12a30.48,30.48,0,0,0-4.64,5.31c-1.11,1.59,1.49,3.09,2.59,1.51Z" transform="translate(0.5 0.5)"/><path class="cls-10" d="M89,45.87c9.08-12.15,25.29-13,39.17-12.06s28.79,4.86,36,17.93c.93,1.69,3.52.18,2.59-1.51-7.73-14-23.59-18.45-38.57-19.42-15.17-1-31.95.42-41.76,13.54-1.16,1.55,1.45,3,2.59,1.52Z" transform="translate(0.5 0.5)"/><path class="cls-10" d="M88.07,46.28C99,55.8,115.36,59.45,129.41,60.9c13.8,1.43,28.4-1.53,38-12.17,1.29-1.43-.83-3.56-2.12-2.12-9.14,10.1-22.84,12.64-35.9,11.29s-29-4.85-39.22-13.74c-1.45-1.27-3.58.84-2.12,2.12Z" transform="translate(0.5 0.5)"/><path class="cls-10" d="M123.73,45.71a14.62,14.62,0,0,0,9.92,7c3.31.62,8.8.33,10.24-3.39,1.56-4-2.32-7.07-5.66-8.22a18.58,18.58,0,0,0-14.68,1.36c-1.71.89-.19,3.48,1.52,2.59a15.6,15.6,0,0,1,7.83-1.9,14.69,14.69,0,0,1,4,.66c2.07.65,6.77,3.52,1.92,5.83-4.43,2.11-10.36-1.86-12.5-5.45a1.5,1.5,0,0,0-2.59,1.51Z" transform="translate(0.5 0.5)"/></svg>