<svg id="Layer_1" data-name="Layer 1" xmlns="http://www.w3.org/2000/svg" viewBox="0 0 501 243.97"><defs><style>.cls-1,.cls-6{fill:#fff;}.cls-1{stroke:#000;}.cls-1,.cls-2,.cls-3,.cls-4,.cls-5{stroke-miterlimit:10;}.cls-2{fill:#c7b299;stroke-width:0.85px;}.cls-2,.cls-3,.cls-4,.cls-5{stroke:#fff;}.cls-3{fill:#998675;}.cls-4{fill:#c69c6d;}.cls-5{font-size:61px;fill:red;font-family:ShowcardGothic-Reg, Showcard Gothic;}.cls-7{fill:#2e3192;}</style></defs><title>scarystuff3</title><rect class="cls-1" x="0.5" y="0.5" width="500" height="242.97"/><rect class="cls-2" x="0.5" y="0.5" width="132.46" height="242.97"/><rect class="cls-3" x="132.96" y="0.5" width="183.77" height="242.97"/><rect class="cls-4" x="316.73" y="0.5" width="183.77" height="242.97"/><text class="cls-5" transform="translate(24.07 222.8)">SCARY STUFF: 3</text><path d="M244.67,99.28c2.44-11.35,8.92-21.63,18.91-27.8,4.25-2.62,10.62-5.46,15.15-1.91,4.8,3.76,5.63,11.29,6.66,16.82,1.77,9.48,16.23,5.47,14.47-4-1.69-9-4.2-18.35-11.67-24.38S270.68,51.91,262,55.55c-16.27,6.78-28.09,22.74-31.76,39.74-2,9.41,12.43,13.43,14.47,4Z" transform="translate(0.5 0.5)"/><path d="M265.84,100.56c9.66,0,9.67-15,0-15s-9.66,15,0,15Z" transform="translate(0.5 0.5)"/><path d="M224.81,94.22c-2.26-9-4.66-18.7-8.94-27-4-7.81-11.36-11.39-19.46-13.74-8.51-2.48-17-3.26-24.59,2a24.44,24.44,0,0,0-10.61,20.73c.3,9.63,15.3,9.67,15,0A9.52,9.52,0,0,1,181.72,67c4.41-2,10.85.62,15,2.31,5,2,6.41,5.7,8.12,10.54,2.12,6,3.92,12.14,5.47,18.34,2.35,9.35,16.82,5.39,14.47-4Z" transform="translate(0.5 0.5)"/><path d="M195.35,95.24c9.65,0,9.67-15,0-15s-9.67,15,0,15Z" transform="translate(0.5 0.5)"/><path d="M40,143.09c9.65,0,9.67-15,0-15s-9.67,15,0,15Z" transform="translate(0.5 0.5)"/><path d="M90,142.27c9.65,0,9.67-15,0-15s-9.67,15,0,15Z" transform="translate(0.5 0.5)"/><path d="M27.93,170.08,30.3,143c.4-4.51.78-9,1.19-13.52.29-3.13.52-6.49,2.53-9.06,3.9-5,11.94-6.7,17.71-7.9,8.26-1.73,16.8-1.78,25.2-1.32a186.82,186.82,0,0,1,23.95,2.52c6.25,1.16,7.77,10.43,9,15.79,1.76,7.68,2,15.62,1.68,23.47-.15,4-.45,8.08-.82,12.11-.16,1.72-.34,3.45-.52,5.17-.12,1.14-.24,2.28-.37,3.42q-.66,2.91,2.62-1.83l5.78.76c-2.44-1.16-4.66-5.36-6.42-7.48l-7.26-8.72c-2.6-3.12-8-2.66-10.61,0a103.77,103.77,0,0,0-11.6,13.93l11.78-1.52a30.28,30.28,0,0,1-6.49-11.45,7.57,7.57,0,0,0-12.53-3.31L60,169.18l12.53,3.31-5.22-15.65c-2.12-6.36-10-7.15-13.7-1.79L39.13,175.93l11.78-1.52a55.49,55.49,0,0,1-8.13-14.55c-1.7-4.52-6.49-7-11-4.49a49.09,49.09,0,0,0-17.9,17.42c-5,8.27,7.94,15.82,13,7.57a33.54,33.54,0,0,1,12.52-12l-11-4.49a78.24,78.24,0,0,0,12,21.18c3.21,4.1,9.34,2,11.78-1.52l14.45-20.88-13.71-1.79,5.22,15.64c1.76,5.28,8.38,7.46,12.53,3.31L85.71,164.7l-12.53-3.31a47.73,47.73,0,0,0,10.34,18.07c3.48,3.85,9.17,2.21,11.78-1.52a81.5,81.5,0,0,1,9.26-10.89H94L103,178c2.88,3.46,5.58,7.87,10.43,8.53,10.5,1.42,11.2-10.7,11.93-17.91,1.82-17.82,2.53-36.57-4.38-53.48-3.3-8.07-7.77-14.36-16.85-15.93a235.48,235.48,0,0,0-28.15-3c-16.71-.82-38,.35-51.08,12.17-7.8,7-8.09,17.21-8.95,27l-3.05,34.78c-.84,9.61,14.16,9.56,15,0Z" transform="translate(0.5 0.5)"/><path class="cls-6" d="M188.09,148.24c-2-12.73-10.12-22.71-17.48-32.82-8.65-11.88-16.18-24.51-24.45-36.64-14-20.44-31-39.92-55-48.4a1.51,1.51,0,0,0-1.85,1.05C86,49.84,94.13,67.66,107,80.61A112.4,112.4,0,0,0,128.9,97.36c3,1.82,6.5,4.67,10.23,4.13,5.08-.73,10.66-4.36,15.32-6.4,1.76-.78.24-3.36-1.52-2.59l-7.18,3.15c-1.72.75-4.89,2.62-6.6,2.83-3.8.44-9.19-3.93-12.26-5.9A102.41,102.41,0,0,1,108.51,77.9C96.8,65.84,89.18,49.25,92.25,32.23L90.4,33.28c24.41,8.63,41.26,29.22,55.22,50.06,7.49,11.18,14.47,22.7,22.4,33.59,7.2,9.91,15.24,19.63,17.17,32.11.3,1.9,3.19,1.09,2.9-.8Z" transform="translate(0.5 0.5)"/><path class="cls-6" d="M137.69,103.53A316.77,316.77,0,0,0,161.45,143q3.2,4.51,6.55,8.92c1,1.26,2,3,3.58,3.6,2.2.79,4.88-.32,7-.86,4.12-1,8.16-2.32,12.17-3.76,1.8-.64,1-3.54-.8-2.89-2.86,1-5.73,2-8.65,2.82-4.07,1.15-7.13,2.68-10.69-.43-2.16-1.88-3.81-5.07-5.48-7.41q-3-4.12-5.78-8.35A319.34,319.34,0,0,1,140.28,102c-.88-1.72-3.47-.21-2.59,1.51Z" transform="translate(0.5 0.5)"/><path class="cls-7" d="M333.85,167c46.44,1,92.9,0,139.34-.54a1.5,1.5,0,0,0,0-3c-46.44.56-92.9,1.5-139.34.54-1.93,0-1.93,3,0,3Z" transform="translate(0.5 0.5)"/><path class="cls-7" d="M363.35,157q56.92,2.86,113.94,1.82c1.93,0,1.93-3,0-3q-57,1-113.94-1.82c-1.93-.1-1.93,2.9,0,3Z" transform="translate(0.5 0.5)"/><path class="cls-7" d="M385.05,142.18c16.32,2.64,32.58.17,48.93-.88a348,348,0,0,1,50.64.46c1.93.16,1.92-2.84,0-3a348.71,348.71,0,0,0-48.7-.58c-16.67,1-33.42,3.8-50.08,1.1-1.89-.3-2.7,2.59-.79,2.9Z" transform="translate(0.5 0.5)"/><path class="cls-7" d="M413.79,124.28a199.05,199.05,0,0,0,60.23.14c1.9-.29,1.09-3.18-.8-2.89a194,194,0,0,1-58.63-.15c-1.89-.29-2.7,2.6-.8,2.9Z" transform="translate(0.5 0.5)"/><path class="cls-7" d="M434.23,110.84c11.54-1,23.54-1.23,34.91-3.52,1.89-.38,1.09-3.27-.8-2.89-11.09,2.23-22.85,2.41-34.11,3.41-1.91.17-1.93,3.17,0,3Z" transform="translate(0.5 0.5)"/><path class="cls-7" d="M444,100.74c-.47-9.34-1.13-18.7-1.42-28-.15-5.15.21-10.26,3.9-14.19s8.9-5.49,14.09-5.43,13,1.19,14.93,6.73C476.9,64,477,68.69,477,73.07c.08,8.53-.65,17,1.54,25.33l1.05-1.84a262.72,262.72,0,0,1-35.54,3c-1.93,0-1.93,3,0,3a266.39,266.39,0,0,0,36.34-3.14,1.51,1.51,0,0,0,1.05-1.84c-3.07-11.7,0-23.83-2.4-35.61-.74-3.73-2-7-5.41-8.92-4.25-2.42-10.14-3.25-14.95-3-8.55.51-16.73,5.62-18.68,14.35-1.2,5.35-.37,11.13-.09,16.55l1,19.72c.1,1.92,3.1,1.93,3,0Z" transform="translate(0.5 0.5)"/><path class="cls-7" d="M448.45,46.81a10.85,10.85,0,0,1-3.1-3.76c-.87-1.72-3.46-.2-2.59,1.52a12.87,12.87,0,0,0,3.57,4.36,1.55,1.55,0,0,0,2.12,0,1.51,1.51,0,0,0,0-2.12Z" transform="translate(0.5 0.5)"/><path class="cls-7" d="M454.07,45.86l-.8-4.51a1.51,1.51,0,0,0-1.84-1.05,1.54,1.54,0,0,0-1.05,1.85l.8,4.51A1.51,1.51,0,0,0,453,47.71a1.54,1.54,0,0,0,1.05-1.85Z" transform="translate(0.5 0.5)"/><path class="cls-7" d="M462.66,46.62,465.39,42a1.5,1.5,0,0,0-2.59-1.51l-2.73,4.59a1.5,1.5,0,0,0,2.59,1.51Z" transform="translate(0.5 0.5)"/><path class="cls-7" d="M475,46.63a27.41,27.41,0,0,1,4.17-4.7c1.43-1.3-.69-3.42-2.12-2.12a30.48,30.48,0,0,0-4.64,5.31c-1.1,1.59,1.5,3.09,2.59,1.51Z" transform="translate(0.5 0.5)"/><path class="cls-7" d="M339.92,72.2c9.08-12.14,25.28-13,39.17-12.06s28.78,4.87,36,17.94c.94,1.69,3.53.18,2.59-1.52-7.72-14-23.58-18.44-38.56-19.42-15.18-1-31.95.43-41.76,13.55-1.16,1.55,1.45,3,2.59,1.51Z" transform="translate(0.5 0.5)"/><path class="cls-7" d="M339,72.61c10.91,9.52,27.29,13.18,41.34,14.63,13.8,1.43,28.4-1.53,38-12.17,1.29-1.43-.83-3.56-2.13-2.12-9.13,10.1-22.83,12.63-35.89,11.29s-29-4.85-39.22-13.75c-1.45-1.26-3.58.85-2.12,2.12Z" transform="translate(0.5 0.5)"/><path class="cls-7" d="M374.69,72.05a14.65,14.65,0,0,0,9.92,7c3.31.62,8.79.33,10.24-3.39,1.56-4-2.33-7.07-5.67-8.22a18.47,18.47,0,0,0-14.67,1.36c-1.71.89-.2,3.48,1.51,2.59a15.66,15.66,0,0,1,7.84-1.9,14.75,14.75,0,0,1,4,.66c2.07.65,6.77,3.52,1.92,5.83-4.44,2.1-10.36-1.86-12.5-5.46a1.5,1.5,0,0,0-2.59,1.52Z" transform="translate(0.5 0.5)"/></svg>