<svg id="Layer_1" data-name="Layer 1" xmlns="http://www.w3.org/2000/svg" viewBox="0 0 501 243.97"><defs><style>.cls-1,.cls-5{fill:#fff;}.cls-1{stroke:#000;}.cls-1,.cls-2,.cls-3,.cls-4{stroke-miterlimit:10;}.cls-2,.cls-3{fill:#009245;}.cls-2,.cls-3,.cls-4{stroke:#fff;}.cls-2{stroke-width:0.85px;}.cls-4{font-size:61px;fill:red;font-family:ShowcardGothic-Reg, Showcard Gothic;}</style></defs><title>scarystuff6</title><rect class="cls-1" x="0.5" y="0.5" width="500" height="242.97"/><rect class="cls-2" x="0.5" y="0.5" width="132.46" height="242.97"/><rect class="cls-3" x="132.96" y="0.5" width="183.77" height="242.97"/><rect class="cls-3" x="316.73" y="0.5" width="183.77" height="242.97"/><text class="cls-4" transform="translate(16.11 222.8)">SCARY STUFF: 6</text><path d="M111,94.26C113.48,82.92,120,72.63,130,66.46c4.25-2.62,10.62-5.45,15.15-1.9,4.8,3.76,5.63,11.29,6.66,16.82,1.77,9.48,16.22,5.46,14.46-4-1.68-9-4.19-18.34-11.66-24.37s-17.51-6.12-26.23-2.49c-16.27,6.79-28.09,22.74-31.76,39.75-2,9.41,12.43,13.43,14.46,4Z" transform="translate(0.5 0.5)"/><path d="M132.21,95.55c9.65,0,9.67-15,0-15s-9.66,15,0,15Z" transform="translate(0.5 0.5)"/><path d="M91.17,89.2c-2.25-9-4.65-18.69-8.93-27-4-7.81-11.36-11.39-19.46-13.75-8.51-2.47-17-3.25-24.59,2A24.44,24.44,0,0,0,27.58,71.24c.3,9.63,15.3,9.67,15,0A9.53,9.53,0,0,1,48.09,62c4.41-2,10.85.63,15,2.31,5,2,6.41,5.71,8.12,10.54,2.12,6,3.92,12.15,5.47,18.34,2.35,9.36,16.82,5.39,14.46-4Z" transform="translate(0.5 0.5)"/><path d="M61.72,90.22c9.65,0,9.67-15,0-15s-9.67,15,0,15Z" transform="translate(0.5 0.5)"/><path d="M232.62,107.84c9.65,0,9.67-15,0-15s-9.66,15,0,15Z" transform="translate(0.5 0.5)"/><path d="M282.62,107c9.65,0,9.67-15,0-15s-9.66,15,0,15Z" transform="translate(0.5 0.5)"/><path d="M220.55,134.83l2.38-27c.39-4.51.77-9,1.18-13.53.29-3.12.52-6.49,2.54-9.05,3.9-5,11.93-6.7,17.7-7.91,8.26-1.73,16.81-1.78,25.2-1.32A188.44,188.44,0,0,1,293.5,78.5c6.26,1.17,7.77,10.43,9,15.79,1.75,7.68,2,15.63,1.67,23.47-.15,4-.45,8.08-.82,12.11-.16,1.73-.33,3.45-.52,5.17-.12,1.14-.24,2.28-.37,3.43-.44,1.93.43,1.32,2.63-1.83l5.78.75c-2.45-1.15-4.67-5.35-6.43-7.47l-7.26-8.72c-2.6-3.12-7.94-2.66-10.61,0A103.61,103.61,0,0,0,275,135.12l11.77-1.52a30.41,30.41,0,0,1-6.49-11.45,7.58,7.58,0,0,0-12.53-3.31L252.6,133.93l12.54,3.31-5.22-15.65c-2.12-6.35-10-7.14-13.71-1.79l-14.45,20.88,11.78-1.52a55.2,55.2,0,0,1-8.14-14.55c-1.7-4.52-6.49-7-11-4.48a49,49,0,0,0-17.91,17.42c-5,8.27,7.94,15.81,13,7.57a33.59,33.59,0,0,1,12.53-12l-11-4.48a78.19,78.19,0,0,0,12,21.17c3.22,4.1,9.34,2,11.78-1.52l14.45-20.88-13.71-1.79,5.22,15.65c1.76,5.27,8.38,7.45,12.54,3.31l15.13-15.09-12.54-3.31a47.68,47.68,0,0,0,10.35,18.07c3.47,3.85,9.16,2.21,11.78-1.52a80.69,80.69,0,0,1,9.25-10.89H286.57l9.08,10.91c2.88,3.46,5.58,7.87,10.43,8.52,10.5,1.42,11.2-10.7,11.93-17.91,1.82-17.82,2.53-36.57-4.37-53.48-3.3-8.07-7.78-14.35-16.86-15.93a235,235,0,0,0-28.15-3c-16.71-.83-38,.34-51.07,12.16-7.81,7-8.1,17.21-8.95,27l-3.06,34.77c-.84,9.62,14.16,9.56,15,0Z" transform="translate(0.5 0.5)"/><path class="cls-5" d="M451.29,144.64c-2-12.73-10.11-22.71-17.48-32.82-8.64-11.88-16.17-24.51-24.45-36.64-13.95-20.44-31-39.92-54.95-48.4a1.51,1.51,0,0,0-1.85,1c-3.32,18.41,4.78,36.23,17.61,49.19a112.44,112.44,0,0,0,21.94,16.74c3,1.82,6.5,4.67,10.22,4.13,5.08-.73,10.66-4.36,15.32-6.4,1.77-.78.24-3.36-1.51-2.59L409,92.05c-1.72.75-4.88,2.62-6.6,2.83-3.8.44-9.18-3.93-12.25-5.9A102.06,102.06,0,0,1,371.72,74.3C360,62.24,352.38,45.65,355.45,28.63l-1.84,1.05c24.4,8.63,41.26,29.22,55.21,50.06,7.49,11.18,14.48,22.7,22.4,33.59,7.21,9.91,15.25,19.63,17.18,32.11.29,1.9,3.19,1.09,2.89-.8Z" transform="translate(0.5 0.5)"/><path class="cls-5" d="M400.89,99.93a318,318,0,0,0,23.76,39.49q3.19,4.52,6.56,8.92c1,1.26,2,3,3.58,3.6,2.2.79,4.87-.32,7-.85,4.13-1.05,8.17-2.33,12.17-3.77,1.81-.64,1-3.54-.79-2.89-2.86,1-5.74,2-8.66,2.82-4.06,1.15-7.12,2.68-10.68-.43-2.17-1.88-3.81-5.07-5.49-7.41q-3-4.12-5.77-8.35a319.42,319.42,0,0,1-19.06-32.64c-.87-1.72-3.46-.2-2.59,1.51Z" transform="translate(0.5 0.5)"/></svg>