<svg id="Layer_1" data-name="Layer 1" xmlns="http://www.w3.org/2000/svg" viewBox="0 0 501 243.97"><defs><style>.cls-1,.cls-9{fill:#fff;}.cls-1{stroke:#000;}.cls-1,.cls-2,.cls-3,.cls-4,.cls-5,.cls-6,.cls-7,.cls-8{stroke-miterlimit:10;}.cls-2{fill:#8cc63f;stroke-width:0.61px;}.cls-2,.cls-3,.cls-4,.cls-5,.cls-6,.cls-7,.cls-8{stroke:#fff;}.cls-3{fill:#c7b299;stroke-width:0.72px;}.cls-4{fill:#998675;stroke-width:0.71px;}.cls-5{fill:#c69c6d;stroke-width:0.79px;}.cls-6{font-size:61px;fill:red;font-family:ShowcardGothic-Reg, Showcard Gothic;}.cls-7{fill:#22b573;stroke-width:0.7px;}.cls-8{fill:#00a99d;stroke-width:0.45px;}.cls-10{fill:#2e3192;}</style></defs><title>scarystuff4</title><rect class="cls-1" x="0.5" y="0.5" width="500" height="242.97"/><rect class="cls-2" x="316.73" y="0.82" width="183.77" height="91.16"/><rect class="cls-3" x="0.5" y="69.5" width="132.46" height="173.97"/><rect class="cls-4" x="132.96" y="120.11" width="183.77" height="123.36"/><rect class="cls-5" x="316.73" y="91.98" width="183.77" height="151.49"/><text class="cls-6" transform="translate(24.07 222.8)">SCARY STUFF: 4</text><rect class="cls-7" x="132.96" y="0.5" width="183.77" height="119.61"/><path d="M408,80.54c2.45-11.34,8.92-21.63,18.92-27.8,4.24-2.62,10.61-5.46,15.14-1.91,4.8,3.76,5.63,11.3,6.66,16.83,1.77,9.48,16.23,5.46,14.47-4-1.69-9-4.2-18.34-11.67-24.37S434,33.18,425.3,36.81C409,43.59,397.21,59.55,393.54,76.55,391.51,86,406,90,408,80.54Z" transform="translate(0.5 0.5)"/><path d="M429.19,81.83c9.65,0,9.66-15,0-15s-9.67,15,0,15Z" transform="translate(0.5 0.5)"/><path d="M388.15,75.48c-2.26-9-4.66-18.7-8.94-27-4-7.82-11.36-11.39-19.46-13.75-8.51-2.47-17-3.26-24.59,2a24.47,24.47,0,0,0-10.61,20.73c.3,9.63,15.3,9.68,15,0a9.53,9.53,0,0,1,5.51-9.23c4.41-2,10.85.63,15,2.31,5,2,6.41,5.71,8.12,10.54,2.12,6,3.92,12.15,5.47,18.34,2.35,9.36,16.82,5.39,14.47-4Z" transform="translate(0.5 0.5)"/><path d="M358.69,76.5c9.66,0,9.67-15,0-15s-9.66,15,0,15Z" transform="translate(0.5 0.5)"/><rect class="cls-8" x="0.5" y="0.5" width="132.46" height="69"/><path d="M50,85.14c9.66,0,9.67-15,0-15s-9.66,15,0,15Z" transform="translate(0.5 0.5)"/><path d="M100,84.32c9.66,0,9.67-15,0-15s-9.66,15,0,15Z" transform="translate(0.5 0.5)"/><path d="M38,112.13l2.38-27c.39-4.51.77-9,1.19-13.52.28-3.13.51-6.49,2.53-9.06,3.9-5,11.93-6.7,17.7-7.9C70,52.87,78.57,52.82,87,53.28a186.63,186.63,0,0,1,24,2.52c6.26,1.16,7.77,10.43,9,15.78,1.76,7.68,2,15.63,1.67,23.48-.14,4-.45,8.08-.82,12.11-.16,1.72-.33,3.45-.51,5.17-.12,1.14-.25,2.28-.38,3.42-.44,1.94.43,1.33,2.63-1.83l5.78.76c-2.44-1.16-4.66-5.36-6.43-7.48l-7.26-8.72c-2.6-3.12-7.94-2.66-10.61,0a103.7,103.7,0,0,0-11.59,13.93l11.78-1.52a30.15,30.15,0,0,1-6.49-11.45,7.58,7.58,0,0,0-12.54-3.31L70,111.23l12.54,3.31L77.33,98.89c-2.12-6.36-10-7.15-13.71-1.79L49.17,118,61,116.46a55.52,55.52,0,0,1-8.14-14.55c-1.7-4.52-6.49-7-11-4.49a49,49,0,0,0-17.91,17.42c-5,8.27,7.94,15.82,13,7.57a33.39,33.39,0,0,1,12.52-12l-11-4.49a78.24,78.24,0,0,0,12,21.18c3.22,4.09,9.35,2,11.78-1.52l14.45-20.88-13.71-1.79,5.22,15.64c1.76,5.28,8.38,7.46,12.54,3.31l15.13-15.08-12.54-3.31a47.76,47.76,0,0,0,10.35,18.07c3.47,3.84,9.16,2.21,11.78-1.52a80.69,80.69,0,0,1,9.25-10.89H104l9.08,10.9c2.88,3.46,5.58,7.87,10.43,8.53,10.5,1.42,11.2-10.7,11.93-17.91,1.82-17.82,2.53-36.57-4.37-53.48-3.3-8.07-7.78-14.36-16.86-15.93a235,235,0,0,0-28.15-3c-16.71-.83-38,.35-51.07,12.17-7.81,7-8.1,17.2-8.95,26.95L23,112.13c-.84,9.61,14.17,9.56,15,0Z" transform="translate(0.5 0.5)"/><path class="cls-9" d="M348.09,149.48c-2-12.73-10.12-22.7-17.48-32.82C322,104.79,314.43,92.15,306.16,80c-14-20.44-31-39.92-55-48.4a1.51,1.51,0,0,0-1.85,1.05C246,51.09,254.13,68.9,267,81.86A112.74,112.74,0,0,0,288.9,98.6c3,1.83,6.5,4.68,10.23,4.14,5.08-.74,10.66-4.36,15.32-6.41,1.76-.77.24-3.36-1.52-2.59l-7.18,3.15c-1.72.76-4.89,2.63-6.6,2.83-3.8.45-9.19-3.93-12.26-5.9a102.36,102.36,0,0,1-18.38-14.67C256.8,67.08,249.18,50.5,252.25,33.47l-1.85,1.05c24.41,8.63,41.26,29.22,55.22,50.06,7.49,11.19,14.47,22.71,22.4,33.6,7.2,9.9,15.24,19.62,17.17,32.1.3,1.9,3.19,1.09,2.9-.8Z" transform="translate(0.5 0.5)"/><path class="cls-9" d="M297.69,104.78a316.65,316.65,0,0,0,23.76,39.48q3.19,4.52,6.55,8.92c1,1.26,2,3,3.58,3.6,2.2.79,4.88-.32,7-.85,4.12-1,8.16-2.33,12.17-3.76,1.8-.65,1-3.55-.8-2.9-2.86,1-5.73,2-8.65,2.82-4.07,1.16-7.13,2.68-10.69-.42-2.16-1.89-3.81-5.08-5.48-7.42q-3-4.12-5.78-8.34a318.41,318.41,0,0,1-19.05-32.65c-.88-1.72-3.47-.2-2.59,1.52Z" transform="translate(0.5 0.5)"/><path class="cls-10" d="M333.85,167c46.44,1,92.9,0,139.34-.54a1.5,1.5,0,0,0,0-3c-46.44.56-92.9,1.5-139.34.54-1.93,0-1.93,3,0,3Z" transform="translate(0.5 0.5)"/><path class="cls-10" d="M363.35,157q56.92,2.86,113.94,1.82c1.93,0,1.93-3,0-3q-57,1-113.94-1.82c-1.93-.1-1.93,2.9,0,3Z" transform="translate(0.5 0.5)"/><path class="cls-10" d="M385.05,142.18c16.32,2.64,32.58.17,48.93-.88a348,348,0,0,1,50.64.46c1.93.16,1.92-2.84,0-3a348.71,348.71,0,0,0-48.7-.58c-16.67,1-33.42,3.8-50.08,1.1-1.89-.3-2.7,2.59-.79,2.9Z" transform="translate(0.5 0.5)"/><path class="cls-10" d="M413.79,124.28a199.05,199.05,0,0,0,60.23.14c1.9-.29,1.09-3.18-.8-2.89a194,194,0,0,1-58.63-.15c-1.89-.29-2.7,2.6-.8,2.9Z" transform="translate(0.5 0.5)"/><path class="cls-10" d="M434.23,110.84c11.54-1,23.54-1.23,34.91-3.52,1.89-.38,1.09-3.27-.8-2.89-11.09,2.23-22.85,2.41-34.11,3.41-1.91.17-1.93,3.17,0,3Z" transform="translate(0.5 0.5)"/><path class="cls-10" d="M188.27,78.19c-.48-9.34-1.14-18.69-1.42-28-.16-5.14.2-10.25,3.9-14.19s8.89-5.49,14.09-5.43,13,1.19,14.93,6.73c1.44,4.19,1.55,8.88,1.59,13.26.07,8.54-.65,17,1.54,25.34L224,74a261.27,261.27,0,0,1-35.54,3c-1.93,0-1.94,3,0,3a268,268,0,0,0,36.33-3.15,1.51,1.51,0,0,0,1-1.84c-3.06-11.7,0-23.83-2.39-35.6-.75-3.73-2-7-5.42-8.92-4.25-2.43-10.14-3.25-14.95-3-8.55.51-16.72,5.63-18.68,14.35-1.2,5.36-.36,11.13-.09,16.55l1,19.72c.09,1.92,3.09,1.93,3,0Z" transform="translate(0.5 0.5)"/><path class="cls-10" d="M192.21,24.86a10.88,10.88,0,0,1-3.11-3.76c-.87-1.72-3.45-.2-2.59,1.52A13,13,0,0,0,190.09,27a1.55,1.55,0,0,0,2.12,0,1.51,1.51,0,0,0,0-2.12Z" transform="translate(0.5 0.5)"/><path class="cls-10" d="M197.83,23.91,197,19.4a1.51,1.51,0,0,0-1.84-1,1.54,1.54,0,0,0-1.05,1.85l.8,4.51a1.51,1.51,0,0,0,1.84,1.05,1.54,1.54,0,0,0,1.05-1.85Z" transform="translate(0.5 0.5)"/><path class="cls-10" d="M206.41,24.67l2.73-4.59a1.5,1.5,0,0,0-2.59-1.51l-2.73,4.59a1.5,1.5,0,0,0,2.59,1.51Z" transform="translate(0.5 0.5)"/><path class="cls-10" d="M218.72,24.68a27,27,0,0,1,4.17-4.7c1.43-1.3-.7-3.42-2.12-2.12a30.48,30.48,0,0,0-4.64,5.31c-1.11,1.59,1.49,3.09,2.59,1.51Z" transform="translate(0.5 0.5)"/><path class="cls-10" d="M175.8,138c9.08-12.14,25.29-13,39.17-12.06s28.79,4.87,36,17.93c.93,1.7,3.52.18,2.59-1.51-7.73-14-23.59-18.44-38.57-19.42-15.17-1-31.95.42-41.76,13.55-1.15,1.54,1.45,3,2.59,1.51Z" transform="translate(0.5 0.5)"/><path class="cls-10" d="M174.91,138.39c10.91,9.52,27.29,13.17,41.34,14.63,13.8,1.42,28.4-1.54,38-12.18,1.29-1.42-.83-3.55-2.12-2.12-9.13,10.1-22.84,12.64-35.9,11.3s-29-4.86-39.22-13.75c-1.45-1.27-3.58.85-2.12,2.12Z" transform="translate(0.5 0.5)"/><path class="cls-10" d="M210.57,137.82a14.66,14.66,0,0,0,9.92,7c3.31.61,8.8.33,10.24-3.4,1.56-4-2.32-7.06-5.66-8.22a18.58,18.58,0,0,0-14.68,1.36c-1.71.9-.19,3.49,1.52,2.59a15.81,15.81,0,0,1,7.83-1.9,15.08,15.08,0,0,1,4,.66c2.07.65,6.77,3.53,1.92,5.83-4.43,2.11-10.36-1.85-12.5-5.45a1.5,1.5,0,0,0-2.59,1.51Z" transform="translate(0.5 0.5)"/></svg>