<svg id="Layer_1" data-name="Layer 1" xmlns="http://www.w3.org/2000/svg" viewBox="0 0 504.04 502.52"><defs><style>.cls-1{fill:#5e8b00;}.cls-1,.cls-10,.cls-12,.cls-13,.cls-14,.cls-3,.cls-5,.cls-6,.cls-7,.cls-8,.cls-9{stroke:#000;stroke-miterlimit:10;}.cls-2,.cls-3{fill:#ffdba2;}.cls-3{stroke-width:4px;}.cls-4{font-size:31px;font-family:ComicSansMS-Bold, Comic Sans MS;font-weight:700;}.cls-5{fill:#c69c6d;stroke-width:4.04px;}.cls-14,.cls-6{fill:#39b54a;}.cls-6,.cls-7{stroke-width:3px;}.cls-7,.cls-8,.cls-9{fill:#c7b299;}.cls-8{stroke-width:2.58px;}.cls-10{fill:#8bb2ff;stroke-width:0.57px;}.cls-11{fill:#d3ffa2;}.cls-12{fill:none;stroke-width:0.84px;}.cls-13{fill:#b3b3b3;stroke-width:0.36px;}.cls-14{stroke-width:2px;}</style></defs><title>shoppingcartline</title><rect class="cls-1" x="2.02" y="0.5" width="500" height="500"/><rect class="cls-2" x="23.56" y="53.57" width="229.08" height="111.16" rx="15.54" transform="translate(-23.51 44.75) rotate(-16.69)"/><path d="M58.07,192.65a17.06,17.06,0,0,1-19.63-11.83l-23-76.7A17,17,0,0,1,26.88,82.91L216.55,26.05a17,17,0,0,1,21.21,11.42l23,76.71a17.05,17.05,0,0,1-11.42,21.21L59.66,192.25C59.13,192.41,58.6,192.54,58.07,192.65ZM218.73,28.59c-.44.09-.89.2-1.32.33L27.74,85.78a14.05,14.05,0,0,0-9.42,17.48l23,76.7a14.06,14.06,0,0,0,17.48,9.42l189.66-56.86A14.05,14.05,0,0,0,257.88,115l-23-76.71a14,14,0,0,0-16.15-9.74Z" transform="translate(2.02 0.5)"/><path d="M45.21,119.62a9.66,9.66,0,0,1-6.27-.5,4.12,4.12,0,0,1-2.47-2.86,2.24,2.24,0,0,1,.26-1.66,2,2,0,0,1,1.44-.93,2.09,2.09,0,0,1,2.23,1c.8,1.1,2.2,1.46,4.19,1.06a11.64,11.64,0,0,0,4.72-2.09c1.5-1.09,2.17-2.09,2-3a2.41,2.41,0,0,0-2-2.16,15.7,15.7,0,0,0-4.51.37,12.19,12.19,0,0,1-4.79,0c-2-.46-3.13-1.46-3.41-3-.35-1.93.33-3.91,2-5.92a10.71,10.71,0,0,1,6.23-3.74,12.49,12.49,0,0,1,3.72-.05c1.89.2,2.9.66,3,1.39a2,2,0,0,1-.26,1.47,2,2,0,0,1-1.4,1,11.65,11.65,0,0,1-2.14.12,10.29,10.29,0,0,0-2.16.12,8,8,0,0,0-3.46,1.64c-1.06.85-1.52,1.64-1.38,2.36a1.09,1.09,0,0,0,.73.82,4.05,4.05,0,0,0,1.72.19l3.83-.54a9.11,9.11,0,0,1,5.58.82,6.22,6.22,0,0,1,3.09,4.51q.75,3.82-3.21,6.67A18.77,18.77,0,0,1,45.21,119.62Z" transform="translate(2.02 0.5)"/><path d="M76.28,113c-.78.12-1.75-.64-2.91-2.29a25.19,25.19,0,0,1-2.15-3.77c-.71.25-1.89.6-3.53,1a35,35,0,0,0-3.51,1.1q-.36,1.77-1.4,5.38a2.07,2.07,0,0,1-1.6,1.43,2.26,2.26,0,0,1-1.58-.26,1.86,1.86,0,0,1-.94-1.29c-.1-.51.29-2.36,1.15-5.57a1.75,1.75,0,0,1-.35-.83c-.05-.48.35-1,1.22-1.4q1.38-4.07,3.19-8.5,2.59-6.36,3.45-6.53c1.09-.22,2,.29,2.58,1.54.41,1,1,2.54,1.88,4.58q1.75,4.09,4.16,9.34a16.8,16.8,0,0,0,1.14,1.81,5.72,5.72,0,0,1,.92,1.81,1.93,1.93,0,0,1-.36,1.57A2.09,2.09,0,0,1,76.28,113ZM67.72,98.84c-.51,1.48-1.21,3.49-2.12,6a14.26,14.26,0,0,1,2-.65c1.09-.29,1.78-.48,2.06-.58Q69,101.8,67.72,98.84Z" transform="translate(2.02 0.5)"/><path d="M95.24,108.15a24.7,24.7,0,0,1-5.15,2.46,34.54,34.54,0,0,1-5.4,1.66q-3.63.72-4.27-2.47c0,.17-.18-1.42-.64-4.76q-.89-6.53-2.46-14.42a2,2,0,0,1,.3-1.56A2.08,2.08,0,0,1,79,88.17a2,2,0,0,1,1.6.3,2,2,0,0,1,.88,1.32Q83,97.71,84,104.45c.07.81.21,2,.44,3.7a35.49,35.49,0,0,0,8.68-3.52,2.48,2.48,0,0,1,.64-.23,1.91,1.91,0,0,1,1.65.38,2.14,2.14,0,0,1,.79,1.26A2,2,0,0,1,95.24,108.15Z" transform="translate(2.02 0.5)"/><path d="M109.31,86.16a2.65,2.65,0,0,1-.64,0,18.11,18.11,0,0,0-4.81.27,17.55,17.55,0,0,0-2.35.66A24.45,24.45,0,0,0,98.9,88.2q.39,2,1,5.89.81-.23,5.69-1.7c1.86-.57,3-.9,3.54-1a2.24,2.24,0,0,1,1.61.26,2,2,0,0,1,.92,1.35,1.91,1.91,0,0,1-1.49,2.38c-.78.22-1.94.55-3.49,1-1.37.43-3.45,1-6.24,1.84.18,1.27.35,2.29.5,3.06.39,1.94.72,3,1,3.24a4.27,4.27,0,0,0,1.91-.18l2.77-.59q1.84-.42,2.76-.6a5.64,5.64,0,0,0,.86-.26,6.38,6.38,0,0,1,.85-.26,2.3,2.3,0,0,1,1.56.2,1.88,1.88,0,0,1,1,1.4,1.91,1.91,0,0,1-1.34,2.34,43.77,43.77,0,0,1-6.11,1.5c-3.23.64-5.42.63-6.57,0s-2.22-2.72-2.86-5.91q-.39-2-.89-6t-.9-6a13,13,0,0,0-.45-1.5,11.19,11.19,0,0,1-.46-1.51c-.29-1.5.25-2.39,1.63-2.67a2.16,2.16,0,0,1,1.28.13,32.79,32.79,0,0,1,3.15-1.29,21,21,0,0,1,2.89-.8,17.44,17.44,0,0,1,6.15-.33A1.94,1.94,0,0,1,111,83.71a2,2,0,0,1-.26,1.47A2,2,0,0,1,109.31,86.16Z" transform="translate(2.02 0.5)"/><path d="M119.36,105a2.22,2.22,0,0,1-1.86-.62,2.74,2.74,0,0,1-1-1.5,1.69,1.69,0,0,1,.35-1.41,2,2,0,0,1,3.12-.17,2.77,2.77,0,0,1,1,1.48,1.69,1.69,0,0,1-.35,1.41A2,2,0,0,1,119.36,105Zm-1-5.4a1.93,1.93,0,0,1-1.48-.25,1.77,1.77,0,0,1-.8-1.19c-.07-.39-.2-1-.38-1.73s-.3-1.33-.38-1.72q-.41-2.06-1.18-6.15t-1.19-6.16a1.82,1.82,0,0,1,.29-1.42,2,2,0,0,1,1.26-.8,1.91,1.91,0,0,1,1.47.26,1.76,1.76,0,0,1,.81,1.2l3.13,15.75a1.76,1.76,0,0,1-.28,1.42A1.94,1.94,0,0,1,118.33,99.57Z" transform="translate(2.02 0.5)"/><path d="M148,79a2.52,2.52,0,0,1-.78,0,15.48,15.48,0,0,0-4.8.31c-.61.12-1.3.3-2.07.53s-1.62.53-2.55.88c.4,1.9.72,3.53,1,4.9a16.08,16.08,0,0,1,3.63-1.29,41.34,41.34,0,0,1,4.86-.71,2.05,2.05,0,0,1,2,3.2,2.11,2.11,0,0,1-1.37.88c-.51.1-1.29.21-2.34.34s-1.82.24-2.34.34a17.79,17.79,0,0,0-3.6,1.43l1.85,9.3a1.89,1.89,0,0,1-.39,1.58,2.45,2.45,0,0,1-1.44.89,1.88,1.88,0,0,1-1.51-.3,2.1,2.1,0,0,1-.82-1.34l-3.38-17c-.08-.39-.19-1-.33-1.76s-.24-1.37-.32-1.76a2,2,0,0,1,.3-1.57A2,2,0,0,1,135,77a2.14,2.14,0,0,1,1,0c1.11-.42,2.13-.78,3.07-1.06a25.09,25.09,0,0,1,2.57-.66,17.66,17.66,0,0,1,4.4-.15c2.27.16,3.48.62,3.63,1.4a2,2,0,0,1-.31,1.57A2,2,0,0,1,148,79Z" transform="translate(2.02 0.5)"/><path d="M166.33,95.56a11.63,11.63,0,0,1-8-1,8.77,8.77,0,0,1-4.69-6.33A15.13,15.13,0,0,1,155,78.35a11,11,0,0,1,8-6.45c3.45-.68,6.2-.41,8.23.83s3.37,3.46,4,6.63a15.72,15.72,0,0,1-1.09,9.73A10.48,10.48,0,0,1,166.33,95.56ZM163.8,75.93a7,7,0,0,0-5,4.33,11.16,11.16,0,0,0-.89,7.09A5,5,0,0,0,160.59,91a7.34,7.34,0,0,0,4.94.56,6.54,6.54,0,0,0,4.81-4.29,11.73,11.73,0,0,0,.69-7q-.63-3.12-2.26-4.06T163.8,75.93Z" transform="translate(2.02 0.5)"/><path d="M190.61,90.74a11.66,11.66,0,0,1-8-1,8.76,8.76,0,0,1-4.68-6.33,15.13,15.13,0,0,1,1.33-9.84,11,11,0,0,1,8-6.45q5.17-1,8.24.83c2,1.25,3.37,3.45,4,6.63a15.72,15.72,0,0,1-1.1,9.73A10.46,10.46,0,0,1,190.61,90.74ZM188.08,71.1a7.05,7.05,0,0,0-5,4.34,11.23,11.23,0,0,0-.89,7.09,5,5,0,0,0,2.71,3.63,7.38,7.38,0,0,0,4.95.56,6.56,6.56,0,0,0,4.81-4.29,11.66,11.66,0,0,0,.68-7.05q-.62-3.12-2.26-4.06C192,70.73,190.35,70.65,188.08,71.1Z" transform="translate(2.02 0.5)"/><path d="M207.25,86.65a2.09,2.09,0,0,1-1.59-.31,2,2,0,0,1-.88-1.3c-.19-1-.44-2.48-.74-4.48s-.55-3.49-.75-4.48-.56-2.75-1-4.93-.83-3.84-1.05-4.94a2.82,2.82,0,0,1,2-2.92,9.53,9.53,0,0,1,2.65.43q2.52.65,3,.69a19.45,19.45,0,0,1,8.29,2.89,10.8,10.8,0,0,1,5.21,7,10.1,10.1,0,0,1-.29,5.14,10.36,10.36,0,0,1-2.7,4.47,12.92,12.92,0,0,1-6.62,3,11.56,11.56,0,0,1-2.56.19A8.78,8.78,0,0,1,207.25,86.65Zm5.31-16.92a51.49,51.49,0,0,0-6.74-1.62l2.92,14.69a4.34,4.34,0,0,0,1.44.3,7.39,7.39,0,0,0,1.7-.15,9.13,9.13,0,0,0,4.43-1.8A6.15,6.15,0,0,0,218,78.43a6.43,6.43,0,0,0,.18-3.19C217.64,72.79,215.79,71,212.56,69.73Z" transform="translate(2.02 0.5)"/><path d="M228.72,83.25a2.2,2.2,0,0,1-1.85-.62,2.71,2.71,0,0,1-1-1.5,1.67,1.67,0,0,1,.36-1.41,2.1,2.1,0,0,1,1.27-.79,2.17,2.17,0,0,1,1.84.62,2.77,2.77,0,0,1,1,1.48,1.69,1.69,0,0,1-.35,1.41A2,2,0,0,1,228.72,83.25Zm-1-5.4a1.93,1.93,0,0,1-1.48-.25,1.77,1.77,0,0,1-.8-1.19c-.07-.39-.2-1-.38-1.73s-.3-1.33-.38-1.72q-.41-2.05-1.18-6.15c-.52-2.74-.91-4.79-1.19-6.16a1.82,1.82,0,0,1,.29-1.42,2,2,0,0,1,1.26-.8,1.91,1.91,0,0,1,1.47.26,1.8,1.8,0,0,1,.82,1.2l3.12,15.75a1.76,1.76,0,0,1-.28,1.42A1.91,1.91,0,0,1,227.69,77.85Z" transform="translate(2.02 0.5)"/><path d="M58.29,154.85a4.32,4.32,0,0,1-2.43-.89,19.09,19.09,0,0,1-2.21,1.47,5.82,5.82,0,0,1-1.7.68,7.12,7.12,0,0,1-5.75-.85c-1.44-1-2.42-2.83-2.92-5.37a8.35,8.35,0,0,1,1.42-6.65,9,9,0,0,1,5.82-3.8,8.68,8.68,0,0,1,3.43.14c1.62.34,2.51.93,2.68,1.78a1.37,1.37,0,0,1-.16,1,10.56,10.56,0,0,0,.06,1.52q.11.91.33,2.1a15,15,0,0,0,1.21,4c0,.08.37.55,1,1.4a7.41,7.41,0,0,1,.86,1.32,1.67,1.67,0,0,1-.34,1.41A2.1,2.1,0,0,1,58.29,154.85Zm-5.67-9.29a7.51,7.51,0,0,1-.15-1.1c0-.42-.06-.89-.07-1.41a3,3,0,0,0-.57-.11,1.34,1.34,0,0,0-.41,0,4.82,4.82,0,0,0-3.22,2.28,5.81,5.81,0,0,0,.52,6.81,2.51,2.51,0,0,0,2.34.58,5.11,5.11,0,0,0,1.68-.65,5.4,5.4,0,0,0,1.37-1.21A47.8,47.8,0,0,1,52.62,145.56Z" transform="translate(2.02 0.5)"/><path d="M66.35,150.14c.37,1.88-.12,3-1.49,3.22a2,2,0,0,1-1.58-.27,2,2,0,0,1-.87-1.34l-4.08-20.53a1.83,1.83,0,0,1,.35-1.54,2.21,2.21,0,0,1,1.37-.79,2,2,0,0,1,1.54.24,1.82,1.82,0,0,1,.84,1.27Z" transform="translate(2.02 0.5)"/><path d="M74.68,148.48c.37,1.88-.12,3-1.49,3.23a2,2,0,0,1-1.58-.27,2,2,0,0,1-.87-1.34l-4.08-20.54A1.82,1.82,0,0,1,67,128a2.24,2.24,0,0,1,1.37-.8,2.12,2.12,0,0,1,1.54.24,1.84,1.84,0,0,1,.84,1.28Z" transform="translate(2.02 0.5)"/><path d="M96.08,130.65c1.3-.38,2.24-.63,2.81-.74,1.85-.37,2.9.08,3.16,1.35s-.61,2.12-2.59,2.45c-.62.11-1.56.34-2.81.7.17,1.06.43,2.4.77,4,.5,2.32.79,3.65.85,4a22.45,22.45,0,0,1,.52,4.37,1.87,1.87,0,0,1-1.65,2,2.15,2.15,0,0,1-1.55-.25,1.74,1.74,0,0,1-.89-1.23,2.46,2.46,0,0,1,0-.37,24,24,0,0,0-.44-4.07l-1.47-7.42c-.18,0-.5.15-1,.31A6.61,6.61,0,0,1,91,136a2.25,2.25,0,0,1-1.61-.23,1.85,1.85,0,0,1-.87-1.3,1.8,1.8,0,0,1,1.09-2.1,12.55,12.55,0,0,1,2.55-.77c0-.18-.07-.75-.14-1.72a9.45,9.45,0,0,1,.82-5.28q1.32-2.37,4.88-3.07c1.81-.36,2.85.11,3.1,1.4s-.45,2.1-2.14,2.43a3,3,0,0,0-2.36,1.79,6.89,6.89,0,0,0-.23,3.08Z" transform="translate(2.02 0.5)"/><path d="M113.8,143.89a6.69,6.69,0,0,1-5.1-.95,7.67,7.67,0,0,1-3.36-5.05,9.26,9.26,0,0,1,.63-6.21,7.57,7.57,0,0,1,5.68-4.28,5.68,5.68,0,0,1,5.19,1.44,8.84,8.84,0,0,1,2.63,5,9.63,9.63,0,0,1-.67,6.24A6.74,6.74,0,0,1,113.8,143.89Zm-1.56-12.53a3.28,3.28,0,0,0-2.55,2.24,6.12,6.12,0,0,0-.24,3.47A3.64,3.64,0,0,0,111,139.6a2.7,2.7,0,0,0,2,.39,3.27,3.27,0,0,0,2.07-1.32,4,4,0,0,0,.61-3C115.19,132.45,114,131,112.24,131.36Z" transform="translate(2.02 0.5)"/><path d="M129.79,140.72a6.78,6.78,0,0,1-5.1-.95,7.72,7.72,0,0,1-3.36-5.06,9.27,9.27,0,0,1,.63-6.21,7.55,7.55,0,0,1,5.68-4.27,5.65,5.65,0,0,1,5.19,1.44,8.81,8.81,0,0,1,2.63,5,9.67,9.67,0,0,1-.67,6.25A6.76,6.76,0,0,1,129.79,140.72Zm-1.56-12.53a3.26,3.26,0,0,0-2.55,2.23,6.13,6.13,0,0,0-.24,3.47,3.66,3.66,0,0,0,1.55,2.54,2.74,2.74,0,0,0,2,.38,3.27,3.27,0,0,0,2.07-1.32,4,4,0,0,0,.61-3Q130.93,127.67,128.23,128.19Z" transform="translate(2.02 0.5)"/><path d="M147.39,120.8q-.81-5.1-.93-7.08a1.83,1.83,0,0,1,1.59-2.14,1.85,1.85,0,0,1,1.52.29,2,2,0,0,1,.81,1.29q.44,2.18,1,6.54c.35,2.91.67,5.1,1,6.54a46.72,46.72,0,0,0,1.75,7,3.35,3.35,0,0,1,.13.43,1.75,1.75,0,0,1-.33,1.47,2,2,0,0,1-1.27.81,1.77,1.77,0,0,1-1.83-.66,6,6,0,0,1-1.93,1.21,14.12,14.12,0,0,1-2.21.64,7.78,7.78,0,0,1-5.94-1,7.49,7.49,0,0,1-3.34-5.08,9.34,9.34,0,0,1,1-6.9,8.53,8.53,0,0,1,7.45-3.78A4.55,4.55,0,0,1,147.39,120.8Zm.63,4.74a3.47,3.47,0,0,0-1.55-1.15,3.77,3.77,0,0,0-2-.09,4.26,4.26,0,0,0-3,1.93,5.84,5.84,0,0,0-.34,4,3.75,3.75,0,0,0,1.74,2.52,3.92,3.92,0,0,0,3,.59,4.56,4.56,0,0,0,1.69-.61,8.26,8.26,0,0,0,1.17-1.22,4.39,4.39,0,0,0,.4-.56Q148.94,130.26,148,125.54Z" transform="translate(2.02 0.5)"/><path d="M159.58,134.91a2.2,2.2,0,0,1-1.85-.62,2.71,2.71,0,0,1-1-1.5,1.67,1.67,0,0,1,.36-1.41,2.06,2.06,0,0,1,1.27-.79,2.17,2.17,0,0,1,1.84.62,2.73,2.73,0,0,1,1,1.48,1.71,1.71,0,0,1-.35,1.41A2,2,0,0,1,159.58,134.91Zm-1-5.4a1.94,1.94,0,0,1-1.48-.25,1.77,1.77,0,0,1-.8-1.2c-.07-.38-.2-1-.38-1.72s-.3-1.34-.38-1.72q-.4-2.06-1.18-6.16c-.52-2.73-.91-4.78-1.19-6.15a1.82,1.82,0,0,1,.29-1.42,2.07,2.07,0,0,1,2.74-.54,1.8,1.8,0,0,1,.81,1.2l3.12,15.75a1.76,1.76,0,0,1-.28,1.42A1.91,1.91,0,0,1,158.55,129.51Z" transform="translate(2.02 0.5)"/><rect class="cls-3" x="284.99" y="47.87" width="194.82" height="97.19" rx="14.33"/><text class="cls-4" transform="translate(295.75 84.31)">HOT CATS<tspan x="0" y="37.2">50c each</tspan></text><rect class="cls-5" x="2.02" y="243.47" width="500" height="257.03"/><rect class="cls-6" x="2.02" y="188" width="175.57" height="98.1" rx="15.97"/><rect class="cls-7" x="214.05" y="129.34" width="70.93" height="123.3"/><rect class="cls-8" x="220.27" y="133.94" width="58.14" height="111.13"/><rect class="cls-7" x="307.39" y="127.85" width="70.93" height="123.3"/><rect class="cls-8" x="313.61" y="132.46" width="58.14" height="111.13"/><rect class="cls-7" x="397.72" y="127.85" width="70.93" height="123.3"/><rect class="cls-8" x="403.94" y="132.46" width="58.14" height="111.13"/><rect class="cls-9" x="220.27" y="163.79" width="58.14" height="1.99"/><rect class="cls-9" x="220.45" y="197.26" width="58.14" height="1.99"/><rect class="cls-9" x="313.79" y="163.79" width="58.14" height="1.99"/><rect class="cls-9" x="313.61" y="198.25" width="58.14" height="1.99"/><rect class="cls-9" x="404.12" y="164.79" width="58.14" height="1.99"/><rect class="cls-9" x="403.94" y="199.25" width="58.14" height="1.99"/><rect class="cls-10" x="224.3" y="139.68" width="7.06" height="25.16"/><rect class="cls-10" x="231.31" y="139.68" width="7.06" height="25.16"/><rect class="cls-10" x="238.36" y="139.68" width="7.06" height="25.16"/><rect class="cls-10" x="245.99" y="139.68" width="7.06" height="25.16"/><rect class="cls-10" x="256.96" y="139.68" width="7.06" height="25.16"/><rect class="cls-10" x="265.49" y="139.68" width="7.06" height="25.16"/><path class="cls-11" d="M234.05,196l-11.93,1.46a3.94,3.94,0,0,1-4.3-3.26,64.57,64.57,0,0,1,.84-22.6,4.08,4.08,0,0,1,4.14-3.27l10.57,1.3a5.11,5.11,0,0,1,4,3.55,54.83,54.83,0,0,1,.84,19.25C238,194.18,236,195.77,234.05,196Z" transform="translate(2.02 0.5)"/><path class="cls-12" d="M234.05,196l-11.93,1.46a3.94,3.94,0,0,1-4.3-3.26,64.57,64.57,0,0,1,.84-22.6,4.08,4.08,0,0,1,4.14-3.27l10.57,1.3a5.11,5.11,0,0,1,4,3.55,54.83,54.83,0,0,1,.84,19.25C238,194.18,236,195.77,234.05,196Z" transform="translate(2.02 0.5)"/><path class="cls-11" d="M244.32,196l-11.93,1.46a3.93,3.93,0,0,1-4.3-3.26,64.57,64.57,0,0,1,.84-22.6,4.08,4.08,0,0,1,4.14-3.27l10.57,1.3a5.11,5.11,0,0,1,4,3.55,54.83,54.83,0,0,1,.84,19.25C248.24,194.18,246.31,195.77,244.32,196Z" transform="translate(2.02 0.5)"/><path class="cls-12" d="M244.32,196l-11.93,1.46a3.93,3.93,0,0,1-4.3-3.26,64.57,64.57,0,0,1,.84-22.6,4.08,4.08,0,0,1,4.14-3.27l10.57,1.3a5.11,5.11,0,0,1,4,3.55,54.83,54.83,0,0,1,.84,19.25C248.24,194.18,246.31,195.77,244.32,196Z" transform="translate(2.02 0.5)"/><path class="cls-11" d="M254.91,196,243,197.49a3.93,3.93,0,0,1-4.3-3.26,64.34,64.34,0,0,1,.84-22.6,4.08,4.08,0,0,1,4.14-3.27l10.57,1.3a5.11,5.11,0,0,1,4,3.55,54.83,54.83,0,0,1,.84,19.25C258.83,194.18,256.9,195.77,254.91,196Z" transform="translate(2.02 0.5)"/><path class="cls-12" d="M254.91,196,243,197.49a3.93,3.93,0,0,1-4.3-3.26,64.34,64.34,0,0,1,.84-22.6,4.08,4.08,0,0,1,4.14-3.27l10.57,1.3a5.11,5.11,0,0,1,4,3.55,54.83,54.83,0,0,1,.84,19.25C258.83,194.18,256.9,195.77,254.91,196Z" transform="translate(2.02 0.5)"/><path class="cls-11" d="M258.44,196l-11.93,1.46a3.93,3.93,0,0,1-4.3-3.26,64.34,64.34,0,0,1,.84-22.6,4.07,4.07,0,0,1,4.13-3.27l10.58,1.3a5.11,5.11,0,0,1,4,3.55,54.83,54.83,0,0,1,.84,19.25C262.36,194.18,260.42,195.77,258.44,196Z" transform="translate(2.02 0.5)"/><path class="cls-12" d="M258.44,196l-11.93,1.46a3.93,3.93,0,0,1-4.3-3.26,64.34,64.34,0,0,1,.84-22.6,4.07,4.07,0,0,1,4.13-3.27l10.58,1.3a5.11,5.11,0,0,1,4,3.55,54.83,54.83,0,0,1,.84,19.25C262.36,194.18,260.42,195.77,258.44,196Z" transform="translate(2.02 0.5)"/><path class="cls-11" d="M268,198,256,199.48a3.92,3.92,0,0,1-4.3-3.26,64.34,64.34,0,0,1,.84-22.6,4.07,4.07,0,0,1,4.13-3.27l10.58,1.3a5.14,5.14,0,0,1,4,3.55,54.83,54.83,0,0,1,.84,19.25C271.89,196.17,270,197.76,268,198Z" transform="translate(2.02 0.5)"/><path class="cls-12" d="M268,198,256,199.48a3.92,3.92,0,0,1-4.3-3.26,64.34,64.34,0,0,1,.84-22.6,4.07,4.07,0,0,1,4.13-3.27l10.58,1.3a5.14,5.14,0,0,1,4,3.55,54.83,54.83,0,0,1,.84,19.25C271.89,196.17,270,197.76,268,198Z" transform="translate(2.02 0.5)"/><path class="cls-11" d="M271.16,198l-11.93,1.46a3.93,3.93,0,0,1-4.3-3.26,64.57,64.57,0,0,1,.84-22.6,4.08,4.08,0,0,1,4.14-3.27l10.58,1.3a5.11,5.11,0,0,1,4,3.55,54.83,54.83,0,0,1,.84,19.25C275.08,196.17,273.15,197.76,271.16,198Z" transform="translate(2.02 0.5)"/><path class="cls-12" d="M271.16,198l-11.93,1.46a3.93,3.93,0,0,1-4.3-3.26,64.57,64.57,0,0,1,.84-22.6,4.08,4.08,0,0,1,4.14-3.27l10.58,1.3a5.11,5.11,0,0,1,4,3.55,54.83,54.83,0,0,1,.84,19.25C275.08,196.17,273.15,197.76,271.16,198Z" transform="translate(2.02 0.5)"/><rect class="cls-13" x="315.49" y="137.37" width="18.42" height="26.84" rx="3.94"/><rect class="cls-13" x="324.7" y="137.37" width="18.42" height="26.84" rx="3.94"/><rect class="cls-13" x="331.93" y="137.37" width="18.42" height="26.84" rx="3.94"/><rect class="cls-13" x="342.68" y="137.37" width="18.42" height="26.84" rx="3.94"/><rect class="cls-13" x="350.35" y="137.37" width="18.42" height="26.84" rx="3.94"/><polygon class="cls-14" points="320.32 183.77 313.79 188.89 316.28 197.17 324.36 197.17 326.85 188.89 320.32 183.77"/><polygon class="cls-14" points="326.85 184.28 320.32 189.4 322.81 197.69 330.89 197.69 333.38 189.4 326.85 184.28"/><polygon class="cls-14" points="333.38 184.52 326.85 189.64 329.35 197.92 337.42 197.92 339.91 189.64 333.38 184.52"/><polygon class="cls-14" points="345.36 184.28 338.83 189.4 341.33 197.69 349.4 197.69 351.89 189.4 345.36 184.28"/><polygon class="cls-14" points="361.1 184.52 354.57 189.64 357.07 197.92 365.14 197.92 367.63 189.64 361.1 184.52"/></svg>