<svg id="Layer_1" data-name="Layer 1" xmlns="http://www.w3.org/2000/svg" viewBox="0 0 504.35 377.53"><defs><style>.cls-1,.cls-3{fill:#fff;}.cls-1,.cls-5,.cls-6{stroke:#000;stroke-miterlimit:10;}.cls-1{stroke-width:0.25px;}.cls-2{fill:#b3b3b3;}.cls-4{fill:none;}.cls-5{fill:#754c24;}.cls-5,.cls-6{stroke-width:1.97px;}.cls-6{fill:#009245;}</style></defs><title>sleddingfront</title><path class="cls-1" d="M497.56,82.4c-4.05,1.58-6.05,6.1-9.25,9.06-8.76,8.08-23.65,2.78-33.95,8.73-7.59,4.4-11.5,14.32-19.88,16.9-6.68,2-13.69-1.35-20.64-2-13.71-1.2-25.71,8.31-37.94,14.67-27.33,14.22-60.23,13.56-88.13,26.59-15.26,7.13-28.85,18.28-45.18,22.33-7.84,1.94-16,2.15-24,3.61s-15.81,4.22-23.52,6.95c-19.57,6.93-39.16,13.87-58.08,22.4-11.57,5.21-23,11.06-35.47,13.46-7.94,1.53-16.15,1.62-23.94,3.78a59.42,59.42,0,0,0-9.32,3.53h0l-.64.3h0A12.51,12.51,0,0,0,61,233c-4.06,1.58-6.06,6.1-9.26,9.06-8.76,8.08-23.65,2.78-33.95,8.74C12.3,254,8.73,260.09,4,264.18V364.5H504V269.76h.23V82.11A12.45,12.45,0,0,0,497.56,82.4Z" transform="translate(0 12.9)"/><path class="cls-2" d="M122,224.87h6.63a0,0,0,0,1,0,0V240a0,0,0,0,1,0,0H126a7.49,7.49,0,0,1-7.49-7.49v-4.23A3.42,3.42,0,0,1,122,224.87Z" transform="translate(356.01 121.77) rotate(90)"/><path class="cls-3" d="M124.17,241.32h4.26a2.71,2.71,0,0,1,2.71,2.71v6.5a0,0,0,0,1,0,0H117a0,0,0,0,1,0,0v-2A7.17,7.17,0,0,1,124.17,241.32Z"/><path class="cls-2" d="M149.69,215.18h1.54a0,0,0,0,1,0,0v5.57a0,0,0,0,1,0,0h-.28a2.3,2.3,0,0,1-2.3-2.3v-2.21A1.05,1.05,0,0,1,149.69,215.18Z" transform="translate(367.89 80.94) rotate(90)"/><path class="cls-3" d="M149.72,229.83h2.16a.83.83,0,0,1,.83.83v1.54a0,0,0,0,1,0,0h-5.2a0,0,0,0,1,0,0V232A2.21,2.21,0,0,1,149.72,229.83Z"/><path class="cls-2" d="M334.3,143.62h6.63a0,0,0,0,1,0,0v15.14a0,0,0,0,1,0,0h-2.56a7.49,7.49,0,0,1-7.49-7.49V147A3.42,3.42,0,0,1,334.3,143.62Z" transform="translate(487.1 -171.81) rotate(90)"/><path class="cls-3" d="M336.5,160.07h4.26a2.71,2.71,0,0,1,2.71,2.71v6.5a0,0,0,0,1,0,0H329.33a0,0,0,0,1,0,0v-2A7.17,7.17,0,0,1,336.5,160.07Z"/><path class="cls-2" d="M394.49,125.1h2.85a0,0,0,0,1,0,0v8.07a0,0,0,0,1,0,0h-.86a3.67,3.67,0,0,1-3.67-3.67v-2.72A1.68,1.68,0,0,1,394.49,125.1Z" transform="translate(524.22 -253.04) rotate(90)"/><path class="cls-3" d="M395.09,140.23h2.69a1.33,1.33,0,0,1,1.33,1.33v2.83a0,0,0,0,1,0,0h-7.54a0,0,0,0,1,0,0v-.64A3.52,3.52,0,0,1,395.09,140.23Z"/><path class="cls-2" d="M267.72,172.25h1.16a0,0,0,0,1,0,0v5a0,0,0,0,1,0,0h-.11a1.93,1.93,0,0,1-1.93-1.93v-2.14A.88.88,0,0,1,267.72,172.25Z" transform="translate(442.58 -80.23) rotate(90)"/><path class="cls-3" d="M267.56,186.81h2.08a.7.7,0,0,1,.7.7v1.17a0,0,0,0,1,0,0h-4.63a0,0,0,0,1,0,0v0A1.85,1.85,0,0,1,267.56,186.81Z"/><path class="cls-2" d="M219.16,190.58h1.39a0,0,0,0,1,0,0v8.07a0,0,0,0,1,0,0h0a2.56,2.56,0,0,1-2.56-2.56v-4.34A1.17,1.17,0,0,1,219.16,190.58Z" transform="translate(413.89 -11.76) rotate(90)"/><path class="cls-3" d="M218.12,206.49h4.31a.89.89,0,0,1,.89.89v1.46a0,0,0,0,1,0,0h-7.54a0,0,0,0,1,0,0v0A2.35,2.35,0,0,1,218.12,206.49Z"/><rect class="cls-4" width="500" height="377.4"/><rect class="cls-5" x="103.19" y="213.53" width="8.86" height="28.06"/><path class="cls-6" d="M70,203.58a4.61,4.61,0,0,1-4-3.1,8.5,8.5,0,0,1-.13-6.31l37.66-98c.81-2.1,2.4-3.42,4.14-3.42s3.33,1.32,4.14,3.42l37.66,98a8.59,8.59,0,0,1-.13,6.31,4.61,4.61,0,0,1-4,3.1Z" transform="translate(0 12.9)"/></svg>