<svg id="Layer_1" data-name="Layer 1" xmlns="http://www.w3.org/2000/svg" viewBox="0 0 500 377.4"><defs><style>.cls-1,.cls-11,.cls-13,.cls-3,.cls-5,.cls-9{fill:#754c24;}.cls-1,.cls-10,.cls-11,.cls-12,.cls-13,.cls-14,.cls-2,.cls-3,.cls-4,.cls-5,.cls-6,.cls-9{stroke:#000;stroke-miterlimit:10;}.cls-1,.cls-2{stroke-width:0.59px;}.cls-10,.cls-12,.cls-14,.cls-2,.cls-4,.cls-6{fill:#009245;}.cls-3,.cls-4{stroke-width:1.97px;}.cls-5,.cls-6{stroke-width:1.64px;}.cls-7{fill:#b3b3b3;}.cls-8{fill:#fff;}.cls-10,.cls-9{stroke-width:0.82px;}.cls-11,.cls-12{stroke-width:0.27px;}.cls-13,.cls-14{stroke-width:0.37px;}.cls-15{fill:none;}</style></defs><title>sleddingback</title><rect class="cls-1" x="274.62" y="172.76" width="2.64" height="8.36"/><path class="cls-2" d="M264.73,160.73a1.37,1.37,0,0,1-1.19-.92,2.5,2.5,0,0,1,0-1.88l11.21-29.17a1.26,1.26,0,0,1,2.47,0l11.21,29.17a2.54,2.54,0,0,1,0,1.88,1.38,1.38,0,0,1-1.19.92Z" transform="translate(0 12.9)"/><rect class="cls-3" x="172.95" y="184.28" width="8.86" height="28.06"/><path class="cls-4" d="M139.72,174.33a4.6,4.6,0,0,1-4-3.11,8.54,8.54,0,0,1-.14-6.31l37.66-98c.81-2.11,2.41-3.43,4.14-3.43s3.33,1.32,4.14,3.43l37.66,98a8.49,8.49,0,0,1-.13,6.31,4.62,4.62,0,0,1-4,3.11Z" transform="translate(0 12.9)"/><rect class="cls-5" x="341.31" y="130.74" width="7.4" height="23.43"/><path class="cls-6" d="M313.56,120.3a3.83,3.83,0,0,1-3.34-2.59,7.11,7.11,0,0,1-.11-5.27l31.44-81.79a3.52,3.52,0,0,1,6.91,0l31.44,81.79a7.11,7.11,0,0,1-.11,5.27,3.83,3.83,0,0,1-3.34,2.59Z" transform="translate(0 12.9)"/><rect class="cls-3" x="387.15" y="116.32" width="8.86" height="28.06"/><path class="cls-4" d="M353.92,106.37a4.63,4.63,0,0,1-4-3.1,8.52,8.52,0,0,1-.13-6.32L387.44-1c.81-2.11,2.4-3.43,4.14-3.43s3.33,1.32,4.14,3.43l37.66,98a8.62,8.62,0,0,1-.13,6.32,4.63,4.63,0,0,1-4,3.1Z" transform="translate(0 12.9)"/><path class="cls-7" d="M213.64,176.56h6.63a0,0,0,0,1,0,0V191.7a0,0,0,0,1,0,0H217.7a7.49,7.49,0,0,1-7.49-7.49V180A3.42,3.42,0,0,1,213.64,176.56Z" transform="translate(399.37 -18.2) rotate(90)"/><path class="cls-8" d="M215.84,193h4.26a2.71,2.71,0,0,1,2.71,2.71v6.5a0,0,0,0,1,0,0H208.67a0,0,0,0,1,0,0v-2A7.17,7.17,0,0,1,215.84,193Z"/><rect class="cls-9" x="241.22" y="180.77" width="3.69" height="11.67"/><path class="cls-10" d="M227.4,169.1a1.93,1.93,0,0,1-1.67-1.3,3.54,3.54,0,0,1,0-2.62l15.66-40.74a1.75,1.75,0,0,1,3.44,0l15.67,40.74a3.59,3.59,0,0,1-.06,2.62,1.91,1.91,0,0,1-1.67,1.3Z" transform="translate(0 12.9)"/><rect class="cls-1" x="290.23" y="160" width="2.64" height="8.36"/><path class="cls-2" d="M280.34,148a1.39,1.39,0,0,1-1.2-.93,2.59,2.59,0,0,1,0-1.88L290.32,116a1.25,1.25,0,0,1,2.46,0L304,145.17a2.54,2.54,0,0,1,0,1.88,1.39,1.39,0,0,1-1.2.93Z" transform="translate(0 12.9)"/><rect class="cls-11" x="285.58" y="163.99" width="1.18" height="4.02"/><path class="cls-12" d="M281.15,151.51a.64.64,0,0,1-.54-.45,1.27,1.27,0,0,1,0-.9l5-14a.64.64,0,0,1,.55-.49.65.65,0,0,1,.55.49l5,14a1.32,1.32,0,0,1,0,.9.61.61,0,0,1-.53.45Z" transform="translate(0 12.9)"/><rect class="cls-13" x="93.58" y="234.6" width="1.65" height="5.22"/><path class="cls-14" d="M87.39,222.24a.87.87,0,0,1-.74-.57,1.6,1.6,0,0,1,0-1.18l7-18.24a.9.9,0,0,1,.78-.64.89.89,0,0,1,.77.64l7,18.24a1.6,1.6,0,0,1,0,1.18.85.85,0,0,1-.74.57Z" transform="translate(0 12.9)"/><path class="cls-7" d="M430.3,107.33h6.63a0,0,0,0,1,0,0v15.14a0,0,0,0,1,0,0h-2.56a7.49,7.49,0,0,1-7.49-7.49v-4.23A3.42,3.42,0,0,1,430.3,107.33Z" transform="translate(546.81 -304.1) rotate(90)"/><path class="cls-8" d="M432.5,123.78h4.26a2.71,2.71,0,0,1,2.71,2.71V133a0,0,0,0,1,0,0H425.33a0,0,0,0,1,0,0v-2A7.17,7.17,0,0,1,432.5,123.78Z"/><path class="cls-7" d="M145.54,199.07h6.63a0,0,0,0,1,0,0v15.14a0,0,0,0,1,0,0H149.6a7.49,7.49,0,0,1-7.49-7.49v-4.23A3.42,3.42,0,0,1,145.54,199.07Z" transform="translate(353.78 72.4) rotate(90)"/><path class="cls-8" d="M147.74,215.52H152a2.71,2.71,0,0,1,2.71,2.71v6.5a0,0,0,0,1,0,0H140.57a0,0,0,0,1,0,0v-2A7.17,7.17,0,0,1,147.74,215.52Z"/><path class="cls-7" d="M122,224.87h6.63a0,0,0,0,1,0,0V240a0,0,0,0,1,0,0H126a7.49,7.49,0,0,1-7.49-7.49v-4.23A3.42,3.42,0,0,1,122,224.87Z" transform="translate(356.01 121.77) rotate(90)"/><path class="cls-8" d="M124.17,241.32h4.26a2.71,2.71,0,0,1,2.71,2.71v6.5a0,0,0,0,1,0,0H117a0,0,0,0,1,0,0v-2A7.17,7.17,0,0,1,124.17,241.32Z"/><path class="cls-7" d="M149.69,215.18h1.54a0,0,0,0,1,0,0v5.57a0,0,0,0,1,0,0h-.28a2.3,2.3,0,0,1-2.3-2.3v-2.21A1.05,1.05,0,0,1,149.69,215.18Z" transform="translate(367.89 80.94) rotate(90)"/><path class="cls-8" d="M149.72,229.83h2.16a.83.83,0,0,1,.83.83v1.54a0,0,0,0,1,0,0h-5.2a0,0,0,0,1,0,0V232A2.21,2.21,0,0,1,149.72,229.83Z"/><path class="cls-7" d="M334.3,143.62h6.63a0,0,0,0,1,0,0v15.14a0,0,0,0,1,0,0h-2.56a7.49,7.49,0,0,1-7.49-7.49V147A3.42,3.42,0,0,1,334.3,143.62Z" transform="translate(487.1 -171.81) rotate(90)"/><path class="cls-8" d="M336.5,160.07h4.26a2.71,2.71,0,0,1,2.71,2.71v6.5a0,0,0,0,1,0,0H329.33a0,0,0,0,1,0,0v-2A7.17,7.17,0,0,1,336.5,160.07Z"/><path class="cls-7" d="M394.49,125.1h2.85a0,0,0,0,1,0,0v8.07a0,0,0,0,1,0,0h-.86a3.67,3.67,0,0,1-3.67-3.67v-2.72A1.68,1.68,0,0,1,394.49,125.1Z" transform="translate(524.22 -253.04) rotate(90)"/><path class="cls-8" d="M395.09,140.23h2.69a1.33,1.33,0,0,1,1.33,1.33v2.83a0,0,0,0,1,0,0h-7.54a0,0,0,0,1,0,0v-.64A3.52,3.52,0,0,1,395.09,140.23Z"/><path class="cls-7" d="M267.72,172.25h1.16a0,0,0,0,1,0,0v5a0,0,0,0,1,0,0h-.11a1.93,1.93,0,0,1-1.93-1.93v-2.14A.88.88,0,0,1,267.72,172.25Z" transform="translate(442.58 -80.23) rotate(90)"/><path class="cls-8" d="M267.56,186.81h2.08a.7.7,0,0,1,.7.7v1.17a0,0,0,0,1,0,0h-4.63a0,0,0,0,1,0,0v0A1.85,1.85,0,0,1,267.56,186.81Z"/><path class="cls-7" d="M219.16,190.58h1.39a0,0,0,0,1,0,0v8.07a0,0,0,0,1,0,0h0a2.56,2.56,0,0,1-2.56-2.56v-4.34A1.17,1.17,0,0,1,219.16,190.58Z" transform="translate(413.89 -11.76) rotate(90)"/><path class="cls-8" d="M218.12,206.49h4.31a.89.89,0,0,1,.89.89v1.46a0,0,0,0,1,0,0h-7.54a0,0,0,0,1,0,0v0A2.35,2.35,0,0,1,218.12,206.49Z"/><rect class="cls-15" width="500" height="377.4"/></svg>