<svg id="Layer_1" data-name="Layer 1" xmlns="http://www.w3.org/2000/svg" viewBox="0 0 172.15 178.21"><defs><style>.cls-1{fill:#ff4564;stroke:#000;stroke-miterlimit:10;stroke-width:8px;}</style></defs><title>smallheart</title><path class="cls-1" d="M282,129.25c0-29.11-22.11-52.71-49.39-52.71A47.29,47.29,0,0,0,201.4,88.43a9.24,9.24,0,0,1-10.65,1,46.76,46.76,0,0,0-23.5-6.34c-27.27,0-49.38,23.59-49.38,52.7,0,23.44,14.34,43.3,34.16,50.15a9.13,9.13,0,0,1,1.63.73c15.25,8.87,30.63,24.34,42.81,44.65q3.09,5.15,5.71,10.37A9.08,9.08,0,0,0,219,240.15q1.65-5.82,3.79-11.69c8.43-23.05,21.11-41.83,34.84-53.67a8.07,8.07,0,0,1,.93-.7C272.65,164.8,282,148.19,282,129.25Z" transform="translate(-113.87 -72.54)"/></svg>