<svg id="Layer_1" data-name="Layer 1" xmlns="http://www.w3.org/2000/svg" xmlns:xlink="http://www.w3.org/1999/xlink" viewBox="0 0 126 126"><defs><style>.cls-1,.cls-2,.cls-3,.cls-4,.cls-5{stroke:#000;stroke-miterlimit:10;}.cls-1{fill:url(#radial-gradient);}.cls-2,.cls-3,.cls-4,.cls-5{stroke-width:0.31px;}.cls-2{fill:url(#radial-gradient-2);}.cls-3{fill:url(#radial-gradient-3);}.cls-4{fill:url(#radial-gradient-4);}.cls-5{fill:url(#radial-gradient-5);}</style><radialGradient id="radial-gradient" cx="63" cy="63" r="62.5" gradientUnits="userSpaceOnUse"><stop offset="0" stop-color="#fff" stop-opacity="0.2"/><stop offset="1" stop-color="aqua" stop-opacity="0.1"/></radialGradient><radialGradient id="radial-gradient-2" cx="198.52" cy="139.37" r="27.35" gradientTransform="matrix(0.32, -0.07, 0.06, 0.28, 96.84, 67.11)" xlink:href="#radial-gradient"/><radialGradient id="radial-gradient-3" cx="219.48" cy="139.67" r="24.73" gradientTransform="matrix(0.32, -0.07, 0.06, 0.28, 96.84, 67.11)" xlink:href="#radial-gradient"/><radialGradient id="radial-gradient-4" cx="189.67" cy="202.9" r="27.3" gradientTransform="matrix(0.32, -0.07, 0.06, 0.28, 96.84, 67.11)" xlink:href="#radial-gradient"/><radialGradient id="radial-gradient-5" cx="216.37" cy="196.4" r="22.84" gradientTransform="matrix(0.32, -0.07, 0.06, 0.28, 96.84, 67.11)" xlink:href="#radial-gradient"/></defs><title>smallbubble</title><circle class="cls-1" cx="63" cy="63" r="62.5"/><path class="cls-2" d="M174,101.42q-3.56,1.2-7.2,2.8a52.52,52.52,0,0,0-5.42-20.29,54.32,54.32,0,0,1,6.5.06A47.59,47.59,0,0,1,174,101.42Z" transform="translate(-58.98 -41.65)"/><path class="cls-3" d="M181.08,99.44a69,69,0,0,0-7,2A47.59,47.59,0,0,0,167.92,84a58.62,58.62,0,0,1,6.69.86A43,43,0,0,1,181.08,99.44Z" transform="translate(-58.98 -41.65)"/><path class="cls-4" d="M172.9,117c-2.92,1.64-5.92,3.41-9,5.28a41.14,41.14,0,0,0,3-18.1q3.65-1.6,7.2-2.8A36.11,36.11,0,0,1,172.9,117Z" transform="translate(-58.98 -41.65)"/><path class="cls-5" d="M181.43,112.47c-2.77,1.4-5.6,2.92-8.53,4.57A36.11,36.11,0,0,0,174,101.42a69,69,0,0,1,7-2A31.44,31.44,0,0,1,181.43,112.47Z" transform="translate(-58.98 -41.65)"/></svg>