<svg id="Layer_1" data-name="Layer 1" xmlns="http://www.w3.org/2000/svg" viewBox="0 0 943.02 1178.32"><defs><style>.cls-1,.cls-2{fill:#e6e6e6;}.cls-1,.cls-10,.cls-11,.cls-2,.cls-3,.cls-8,.cls-9{stroke:#000;}.cls-1,.cls-10,.cls-11,.cls-2,.cls-3,.cls-5,.cls-6,.cls-8,.cls-9{stroke-miterlimit:10;}.cls-1{stroke-width:11.02px;}.cls-2{stroke-width:9.15px;}.cls-3{stroke-width:10.07px;}.cls-4{fill:#eeffa2;}.cls-5{stroke:#fff;stroke-width:1.42px;}.cls-6{fill:none;stroke:#f2f2f2;stroke-width:4.26px;}.cls-7{fill:lime;}.cls-11,.cls-8{fill:#c7b299;}.cls-8{stroke-width:11.13px;}.cls-10,.cls-9{fill:#333;}.cls-9{stroke-width:9.78px;}.cls-10{stroke-width:9.78px;}.cls-11{stroke-width:9.51px;}.cls-12{fill:#f2f2f2;}</style></defs><title>smartwatch</title><rect class="cls-1" x="908.73" y="311.8" width="101.47" height="40.94" rx="19.05" transform="translate(1249.31 -640.64) rotate(90)"/><rect class="cls-2" x="4.58" y="79.57" width="906" height="1039" rx="96"/><rect class="cls-3" x="47.08" y="111.07" width="823" height="976" rx="90.92"/><rect class="cls-4" x="596.81" y="133.75" width="15.14" height="27.21"/><rect class="cls-5" x="618.05" y="119.32" width="15.14" height="41.65"/><rect class="cls-4" x="575.58" y="145.82" width="15.14" height="15.14"/><path class="cls-6" d="M819.84,133.46h-64.6a8.16,8.16,0,0,0-8.16,8.16V147h-7.52v17h7.52v5.33a8.16,8.16,0,0,0,8.16,8.16h64.6a8.16,8.16,0,0,0,8.16-8.16V141.62A8.16,8.16,0,0,0,819.84,133.46Z" transform="translate(-42.42 -13.43)"/><rect class="cls-7" x="762.86" y="125.71" width="15.14" height="33.6"/><rect class="cls-7" x="743.3" y="125.71" width="15.14" height="33.6"/><rect class="cls-8" x="117.58" y="5.57" width="682" height="74" rx="24.94"/><rect class="cls-9" x="79.58" y="54.63" width="70" height="40.94" rx="15.82"/><rect class="cls-10" x="759.58" y="54.63" width="70" height="40.94" rx="15.82"/><rect class="cls-11" x="156" y="1133" width="682" height="54" rx="21.3" transform="translate(951.58 2306.57) rotate(180)"/><rect class="cls-9" x="806" y="1117" width="70" height="40.94" rx="15.82" transform="translate(1639.58 2261.51) rotate(180)"/><rect class="cls-10" x="126" y="1117" width="70" height="40.94" rx="15.82" transform="translate(279.58 2261.51) rotate(180)"/><path class="cls-12" d="M209.79,141.1h-.12l-7.44,3.54-1.5-6.84,10.32-4.8h7.56v39h-8.82Z" transform="translate(-42.42 -13.43)"/><path class="cls-12" d="M231.93,147.82a5.23,5.23,0,0,1,5.4-5.52c3.18,0,5.28,2.22,5.34,5.52a5.37,5.37,0,1,1-10.74,0Zm0,19.38a5.26,5.26,0,0,1,5.4-5.52c3.18,0,5.28,2.28,5.34,5.52a5.37,5.37,0,1,1-10.74,0Z" transform="translate(-42.42 -13.43)"/><path class="cls-12" d="M247.05,172v-5.52l5-4.56c8.52-7.62,12.66-12,12.78-16.56,0-3.18-1.92-5.7-6.42-5.7a14.13,14.13,0,0,0-8.34,3.24l-2.58-6.54a21.59,21.59,0,0,1,12.78-4c8.82,0,13.68,5.16,13.68,12.24,0,6.54-4.74,11.76-10.38,16.8l-3.6,3v.12h14.7V172Z" transform="translate(-42.42 -13.43)"/><path class="cls-12" d="M308.31,133v5.76L292.23,172h-9.66l16.08-31.38v-.12H280.77V133Z" transform="translate(-42.42 -13.43)"/></svg>