<svg id="Layer_1" data-name="Layer 1" xmlns="http://www.w3.org/2000/svg" viewBox="0 0 595 1151"><defs><style>.cls-1{fill:#ccc;}.cls-1,.cls-2,.cls-3{stroke:#000;stroke-width:8px;}.cls-1,.cls-2,.cls-3,.cls-5{stroke-miterlimit:10;}.cls-2{fill:#666;}.cls-4{fill:#eeffa2;}.cls-5{fill:none;stroke:#f2f2f2;stroke-width:3px;}.cls-6{fill:lime;}.cls-7{fill:#b3b3b3;}</style></defs><title>smartphone</title><path class="cls-1" d="M729.5,18h-492A47.5,47.5,0,0,0,190,65.5v1048a47.5,47.5,0,0,0,47.5,47.5h492a47.5,47.5,0,0,0,47.5-47.5V65.5A47.5,47.5,0,0,0,729.5,18Z" transform="translate(-186 -14)"/><rect class="cls-2" x="41.5" y="1028" width="512" height="68"/><polygon class="cls-1" points="126.5 1062 110 1090.58 77 1090.58 60.5 1062 77 1033.42 110 1033.42 126.5 1062"/><polygon class="cls-1" points="530.77 1062 514.27 1090.58 481.27 1090.58 464.77 1062 481.27 1033.42 514.27 1033.42 530.77 1062"/><rect class="cls-3" x="30.5" y="51" width="534" height="949"/><rect class="cls-2" x="412.5" y="15" width="138" height="23" rx="11"/><rect class="cls-2" x="45.5" y="15" width="138" height="23" rx="11"/><rect class="cls-4" x="445.54" y="70.17" width="10.67" height="19.17"/><rect class="cls-4" x="460.5" y="60" width="10.67" height="29.33"/><rect class="cls-4" x="430.58" y="78.67" width="10.67" height="10.67"/><path class="cls-5" d="M730.75,74h-45.5a5.74,5.74,0,0,0-5.75,5.75V83.5h-5.29v12h5.29v3.75a5.74,5.74,0,0,0,5.75,5.75h45.5a5.74,5.74,0,0,0,5.75-5.75V79.75A5.74,5.74,0,0,0,730.75,74Z" transform="translate(-186 -14)"/><rect class="cls-6" x="534.5" y="64" width="10.67" height="23.67"/><rect class="cls-6" x="520.72" y="64" width="10.67" height="23.67"/><rect class="cls-6" x="506.94" y="64" width="10.67" height="23.67"/><path class="cls-7" d="M243.46,79.5h-.1l-5.75,3.1-.87-3.41L244,75.33h3.82V108.4h-4.33Z" transform="translate(-186 -14)"/><path class="cls-7" d="M281.83,91.51c0,11.24-4.17,17.45-11.5,17.45-6.46,0-10.84-6-10.94-17,0-11.1,4.78-17.2,11.5-17.2C277.86,74.77,281.83,81,281.83,91.51Zm-18,.51c0,8.6,2.64,13.48,6.71,13.48,4.58,0,6.77-5.34,6.77-13.79,0-8.14-2.08-13.48-6.71-13.48C266.72,78.23,263.87,83,263.87,92Z" transform="translate(-186 -14)"/><path class="cls-7" d="M286.31,87.84a3,3,0,1,1,6.06,0,3,3,0,1,1-6.06,0Zm0,18a3,3,0,1,1,6.06,0,3,3,0,1,1-6.06,0Z" transform="translate(-186 -14)"/><path class="cls-7" d="M296.49,108.4v-2.75l3.51-3.41c8.45-8,12.26-12.31,12.31-17.3,0-3.35-1.62-6.46-6.56-6.46a11.26,11.26,0,0,0-7,2.8l-1.43-3.16a14.54,14.54,0,0,1,9.37-3.35c7.12,0,10.12,4.88,10.12,9.61,0,6.11-4.43,11.05-11.4,17.76l-2.64,2.45v.1h14.86v3.71Z" transform="translate(-186 -14)"/><path class="cls-7" d="M342.34,79.09H329.72l-1.27,8.5a17.86,17.86,0,0,1,2.69-.2,14,14,0,0,1,7.13,1.78A9.42,9.42,0,0,1,343,97.66c0,6.47-5.14,11.3-12.31,11.3a16.29,16.29,0,0,1-8.25-2l1.12-3.41a14.88,14.88,0,0,0,7.07,1.83c4.23,0,7.84-2.75,7.84-7.18-.05-4.27-2.9-7.32-9.51-7.32a34.69,34.69,0,0,0-4.58.35l2.13-15.87h15.83Z" transform="translate(-186 -14)"/></svg>