<svg id="Layer_1" data-name="Layer 1" xmlns="http://www.w3.org/2000/svg" viewBox="0 0 338.34 271.23"><path d="M147.2,343.47c63.25-38.42,104.29-103.67,167.61-142,18.13-11,37.15-21,51.84-36.64,2.62-2.79-1.58-7-4.21-4.21-13.37,14.22-30.43,23.64-47,33.53A318.81,318.81,0,0,0,271.9,225.3c-27.69,23.6-51.95,50.85-78.75,75.4-15.21,13.94-31.29,26.9-49,37.63-3.27,2-.28,7.13,3,5.14Z" transform="translate(-142.78 -157.53)"/><path d="M363.63,162.69c-2.6,7.7-8.16,14.29-11.91,21.48a186,186,0,0,0-9,20.39C337.12,219.47,333,234.87,328,250c-5.2,15.7-13,30.52-17.58,46.4-2.35,8.19-3.7,16.67-6.75,24.66-3.13,8.19-7.74,15.76-12.09,23.34-9.67,16.82-19.51,33.55-31.06,49.17-2.28,3.08,2.89,6.05,5.14,3,10.43-14.1,19.48-29.11,28.24-44.28,4.26-7.36,8.71-14.68,12.37-22.36a113.25,113.25,0,0,0,7.55-22.72c4-16.81,11.62-32,17.38-48.23,5.44-15.29,9.62-31,15-46.32a190.92,190.92,0,0,1,10.73-25.47c4-7.69,9.72-14.63,12.51-22.89,1.23-3.64-4.52-5.2-5.74-1.59Z" transform="translate(-142.78 -157.53)"/><path d="M364.35,162.8a205.18,205.18,0,0,0-5.82,49.48c.19,17.59.59,35.18,1.05,52.77.9,34.59,2.41,69.19,6,103.62,2,19.41,4.65,38.74,8.12,57.94.68,3.76,6.42,2.16,5.74-1.59-12.12-67-13.55-135.2-14.76-203.09-.17-9.28-.43-18.6.24-27.87.72-10.06,2.94-19.88,5.21-29.68.87-3.73-4.87-5.32-5.74-1.58Z" transform="translate(-142.78 -157.53)"/><path d="M363.31,164.93c15.84,31.48,33.11,62.63,46.33,95.32,12.43,30.74,22.34,62.46,37.52,92,8.69,16.92,18.53,33.2,28.37,49.46,2,3.27,7.13.28,5.14-3-17.74-29.33-34.24-58.74-46.59-90.8-6-15.51-11.49-31.2-17.65-46.65s-13.35-30.53-20.85-45.44q-13.56-27-27.13-53.91c-1.72-3.43-6.86-.42-5.14,3Z" transform="translate(-142.78 -157.53)"/><path d="M362,157.77c-15.28,6.42-31.74,8.77-48,11.53-16.74,2.84-33.48,5.77-50.25,8.48-35.19,5.69-70.68,8.9-106.18,12-3.79.33-3.83,6.29,0,5.95,35.38-3.08,70.75-6.27,105.84-11.89,17.1-2.73,34.16-5.73,51.24-8.63,16.54-2.81,33.34-5.15,48.91-11.69,3.48-1.46,1.95-7.22-1.58-5.74Z" transform="translate(-142.78 -157.53)"/><path d="M302.27,178.11c7.87,4.59,5.16,14,.75,20-2.27,3.09,2.89,6.06,5.14,3,6.45-8.78,7.72-22-2.89-28.16-3.32-1.93-6.32,3.22-3,5.14Z" transform="translate(-142.78 -157.53)"/><path d="M306.37,205.64c6.72-1.08,14.26-2.31,20.69.67,6.25,2.9,9.3,9.18,10.31,15.7.58,3.78,6.32,2.17,5.74-1.58-1.21-7.83-5.41-15.4-12.66-19.11-8-4.09-17.15-2.79-25.67-1.42-3.77.61-2.17,6.34,1.59,5.74Z" transform="translate(-142.78 -157.53)"/><path d="M343.2,221.46c2.24-4.35,8.12-12.74,13.79-7.68,2.85,2.54,7.08-1.66,4.21-4.21a12.08,12.08,0,0,0-13-2c-4.78,2-7.83,6.44-10.12,10.89-1.76,3.4,3.38,6.41,5.14,3Z" transform="translate(-142.78 -157.53)"/><path d="M365.77,219.58c3.06-7.49,18.09-10.64,23.39-4,2.39,3,6.58-1.25,4.21-4.21-4.17-5.2-11.43-5.53-17.55-4.68-7.17,1-13,4.51-15.79,11.34-1.45,3.55,4.31,5.09,5.74,1.59Z" transform="translate(-142.78 -157.53)"/><path d="M234.69,186.67a22.64,22.64,0,0,1,25.07,20.42c1.18,12.47-1.92,26.58-11.15,35.46-2.77,2.66,1.44,6.87,4.21,4.21C264,236,268.19,217.57,265.1,202.62c-2.84-13.74-16.59-23.33-30.41-21.91-3.77.39-3.81,6.35,0,6Z" transform="translate(-142.78 -157.53)"/><path d="M252.72,248.31c13.75-6.23,33.32-9.45,46.89-.94,15.24,9.56,13,29.72,10.92,45-.51,3.79,5.45,3.75,6,0,2.36-17.63,3.51-39.45-13.87-50.14-15.6-9.6-37.1-6.21-52.89.94-3.48,1.58-.46,6.71,3,5.14Z" transform="translate(-142.78 -157.53)"/><path d="M314.9,294.36c7.48-2.6,10.22-10.25,16.87-13.71,9.41-4.91,22.45-.53,30.48,5.08,3.15,2.2,6.13-3,3-5.14a41.39,41.39,0,0,0-29.82-7.27,20.28,20.28,0,0,0-11.32,5.82c-3.43,3.31-6.09,7.84-10.8,9.48-3.6,1.25-2.05,7,1.58,5.74Z" transform="translate(-142.78 -157.53)"/><path d="M364.36,295.38c3.57-1.83,6.18-4.61,8.88-7.52A33.52,33.52,0,0,1,386,279c9.12-3.52,21.28-5.93,30.65-2.44,3.59,1.34,5.14-4.41,1.58-5.74-9.94-3.71-22.51-1.45-32.31,1.9a40.51,40.51,0,0,0-12.51,6.69c-4.24,3.42-7.12,8.27-12.06,10.8-3.41,1.75-.4,6.89,3,5.14Z" transform="translate(-142.78 -157.53)"/><path d="M165.78,195.68c20.21,6.11,32.23,25.07,36.75,44.76,2.42,10.54,3.74,22.35,2.6,33.17-1.19,11.29-8.25,20.17-15.24,28.63-2.42,2.93,1.77,7.17,4.21,4.21,7.2-8.71,14.64-17.94,16.56-29.41,2.05-12.26.37-26.15-2.39-38.19-5-21.76-18.72-42.2-40.91-48.91-3.68-1.11-5.25,4.64-1.58,5.74Z" transform="translate(-142.78 -157.53)"/><path d="M181.71,317.29c9.84-2.92,17.72-10.49,27.69-12.85,6.2-1.46,12.69-.26,18.88.71a101.39,101.39,0,0,1,16.45,3.6c11.72,3.87,20,12.94,26.78,22.93,7.33,10.85,10.28,23.45,7.66,36.36-.77,3.74,5,5.34,5.74,1.59a52.58,52.58,0,0,0-6.31-37.9c-6.39-10.67-15.36-21.46-26.91-26.64a73.48,73.48,0,0,0-17.66-5c-6.6-1.15-13.57-2.59-20.29-2.23-12.76.68-21.81,10.19-33.61,13.69-3.66,1.08-2.1,6.83,1.58,5.74Z" transform="translate(-142.78 -157.53)"/><path d="M285.1,369.93c13.29-8.81,26.42-15.48,42.78-14.56a57.92,57.92,0,0,1,38.6,17.7c2.65,2.77,6.86-1.44,4.21-4.21a64.1,64.1,0,0,0-41.38-19.35c-17.91-1.42-32.65,5.62-47.22,15.28-3.17,2.11-.2,7.27,3,5.14Z" transform="translate(-142.78 -157.53)"/><path d="M373.77,394.59c6.15-4.5,9.41-11.52,14.9-16.71a51.87,51.87,0,0,1,20-11.61c16.84-5.32,34.9-2.11,50.4,5.72,3.41,1.73,6.43-3.41,3-5.14-16-8.07-34.41-11.73-52-7.18a59.54,59.54,0,0,0-21.5,10.5,51.51,51.51,0,0,0-8.81,8.65c-2.89,3.63-5.18,7.84-9,10.63-3.06,2.24-.09,7.41,3,5.14Z" transform="translate(-142.78 -157.53)"/></svg>