<svg id="Layer_1" data-name="Layer 1" xmlns="http://www.w3.org/2000/svg" viewBox="0 0 593 513.05"><defs><style>.cls-1{fill:#36425d;}.cls-1,.cls-2,.cls-3{stroke:#000;stroke-miterlimit:10;stroke-width:4px;}.cls-2{fill:#868263;}.cls-3{fill:none;}.cls-4{fill:#f4ffe6;}</style></defs><title>stage</title><rect class="cls-1" x="36.5" y="2" width="515.6" height="418.4"/><path class="cls-2" d="M508.77,327.07c-6.68,0,6-3.53,0,0-.63.37.86,0,0,0S456,405.17,274.5,409.37C64,414.25-2.77,327.07-2.77,327.07h0c-21.39,0-38.73,20.83-38.73,46.52v84.74c0,25.69,17.34,46.52,38.73,46.52H508.77c21.39,0,38.73-20.83,38.73-46.52V373.59c0-25.69-17.34-46.52-38.73-46.52Z" transform="translate(43.5 6.2)"/><line class="cls-3" x1="40.73" y1="333.27" x2="552.27" y2="333.27"/><ellipse class="cls-4" cx="259.75" cy="172.7" rx="187.75" ry="156"/></svg>