<svg id="Layer_1" data-name="Layer 1" xmlns="http://www.w3.org/2000/svg" xmlns:xlink="http://www.w3.org/1999/xlink" viewBox="0 0 434.01 545.86"><defs><style>.cls-1{fill:none;}.cls-2{fill:#f4e5d0;stroke:#000;stroke-miterlimit:10;stroke-width:4px;}.cls-3{clip-path:url(#clip-path);}.cls-4{clip-path:url(#clip-path-2);}.cls-5{fill:#b000b0;}.cls-6{clip-path:url(#clip-path-3);}</style><clipPath id="clip-path" transform="translate(-37.35 -26.13)"><rect class="cls-1" x="186.92" y="238.46" width="237.03" height="150.66" transform="translate(-41.59 46.72) rotate(-8.19)"/></clipPath><clipPath id="clip-path-2" transform="translate(-37.35 -26.13)"><rect class="cls-1" x="276.93" y="214.97" width="115.62" height="356.5" transform="translate(822.35 563.22) rotate(149.63)"/></clipPath><clipPath id="clip-path-3" transform="translate(-37.35 -26.13)"><rect class="cls-1" x="296.95" y="217.59" width="102.19" height="346.85" transform="translate(846.04 552.37) rotate(149.63)"/></clipPath></defs><title>stevehandpaper</title><rect class="cls-2" x="61.67" y="43.67" width="237.85" height="326.69" transform="translate(-65 1.71) rotate(-8.19)"/><g class="cls-3"><g class="cls-4"><path class="cls-5" d="M265.53,256.41c16-9.37,41.12,3.78,56.13,29.38L464.21,529l-29,17h0l-29,17L236.57,273.38l29-17Z" transform="translate(-37.35 -26.13)"/><g class="cls-6"><path d="M229.93,273.71l33.31-19.51c18.67-10.95,46.35,2.75,63,31.18L471.36,533l-66.61,39ZM457.58,529.36l-140-238.89c-13.35-22.77-35.9-35.41-49.24-27.59l-24.62,14.43,164.64,280.9Z" transform="translate(-37.35 -26.13)"/></g></g></g></svg>