<svg id="Layer_1" data-name="Layer 1" xmlns="http://www.w3.org/2000/svg" xmlns:xlink="http://www.w3.org/1999/xlink" viewBox="0 0 50.85 103"><defs><style>.cls-1{fill:none;}.cls-2{fill:#ccc;stroke-width:0.77px;}.cls-2,.cls-3{stroke:#000;stroke-miterlimit:10;}.cls-3{stroke-width:0.66px;}.cls-4{clip-path:url(#clip-path);}.cls-5{fill:#b000b0;}.cls-6{clip-path:url(#clip-path-2);}.cls-7{fill:#e6e6e6;}</style><clipPath id="clip-path" transform="translate(-213.4 -194.98)"><rect class="cls-1" x="234.14" y="198.37" width="34.44" height="106.21"/></clipPath><clipPath id="clip-path-2" transform="translate(-213.4 -194.98)"><rect class="cls-1" x="232.39" y="198.37" width="30.44" height="103.33"/></clipPath></defs><title>stevearmphone</title><rect class="cls-2" x="0.38" y="84.87" width="50.08" height="13.65" rx="4.57"/><rect class="cls-3" x="3.87" y="85.82" width="43.1" height="11.75" rx="3.93"/><g class="cls-4"><path class="cls-5" d="M248.54,297.06c-5.52,0-10-7.16-10-16v-84h20v100Z" transform="translate(-213.4 -194.98)"/><g class="cls-6"><path d="M260.3,298H248.8c-6.45,0-11.5-7.69-11.5-17.51V195h23Zm-20-100v82.49c0,7.86,3.89,14.51,8.5,14.51h8.5V198Z" transform="translate(-213.4 -194.98)"/></g></g><path class="cls-7" d="M222.84,289.35a19.6,19.6,0,0,0,.32-6.66c-.06-.47-.81-.47-.75,0a19,19,0,0,1-.29,6.46c-.11.47.61.67.72.2Z" transform="translate(-213.4 -194.98)"/><path class="cls-7" d="M226.83,289.84a3,3,0,0,0,.13-2.38c-.31-1-1.36-2.8-.08-3.6.4-.26,0-.91-.38-.65-2.45,1.55.68,4.34-.32,6.25-.22.42.43.8.65.38Z" transform="translate(-213.4 -194.98)"/><path class="cls-7" d="M230.73,289.69a18.82,18.82,0,0,0-.35-5.85c-.1-.47-.83-.27-.72.2a18.47,18.47,0,0,1,.32,5.65c0,.48.7.47.75,0Z" transform="translate(-213.4 -194.98)"/><path class="cls-7" d="M234.89,290.06a.38.38,0,0,0,0-.75.38.38,0,0,0,0,.75Z" transform="translate(-213.4 -194.98)"/><path class="cls-7" d="M234.84,287.13a8.37,8.37,0,0,1-.4-3.18c0-.48-.72-.48-.75,0a9.22,9.22,0,0,0,.42,3.38c.15.46.88.26.73-.2Z" transform="translate(-213.4 -194.98)"/><path class="cls-7" d="M237.34,289.65a.38.38,0,0,0,0-.75.38.38,0,0,0,0,.75Z" transform="translate(-213.4 -194.98)"/><path class="cls-7" d="M237.66,286.74l-.85-2.45c-.16-.46-.88-.26-.72.2l.84,2.45c.16.45.88.25.73-.2Z" transform="translate(-213.4 -194.98)"/></svg>