<svg id="Layer_1" data-name="Layer 1" xmlns="http://www.w3.org/2000/svg" xmlns:xlink="http://www.w3.org/1999/xlink" viewBox="0 0 72.31 161.27"><defs><style>.cls-1{fill:none;}.cls-2{clip-path:url(#clip-path);}.cls-3{fill:#b000b0;}.cls-4{clip-path:url(#clip-path-3);}</style><clipPath id="clip-path" transform="translate(3.8 21.9)"><path class="cls-1" d="M.06,16.46q5.28-24,10.58-48c95.25,26.09,93.12,168-9.11,188.42l-6.11-54.23C41.71,94.6,44.08,29.64.06,16.46Z"/></clipPath><clipPath id="clip-path-3" transform="translate(3.8 21.9)"><path class="cls-1" d="M-.48,18.91Q4.19-2.32,8.87-23.54C93.2-.25,93.44,122.53,7.86,146.05Q3.21,122.59-1.45,99.13C38.64,89.18,39.8,31.1-.48,18.91Z"/></clipPath></defs><title>stevebentarm</title><g id="armleft-2" data-name="armleft"><g class="cls-2"><path class="cls-3" d="M11.75,121.29c-2.15-8.4,5.37-18.5,12.41-26.34C48.46,69.38,40.54,20.36-.47,9.8l5-28.15C82.09.41,86.48,107.47,16.72,136Z" transform="translate(3.8 21.9)"/><g class="cls-4"><path d="M15.61,139.37l-5.31-17.1C8.09,112.42,16.08,101.48,23.38,93,46.75,67.7,38,19.37-3.8,10.87L-.11-21.9C85.57-6,91.26,110.48,15.61,139.37ZM1.36,7.71C43,19.38,51.1,69.47,26.48,96.29c-6.54,7.51-13.32,17-11.12,23.85l4.92,12.18c63.13-30,58.22-129.06-14-148.39Q3.84-4.18,1.36,7.71Z" transform="translate(3.8 21.9)"/></g></g></g></svg>