<svg id="Layer_1" data-name="Layer 1" xmlns="http://www.w3.org/2000/svg" xmlns:xlink="http://www.w3.org/1999/xlink" viewBox="0 0 74.83 69.68"><defs><style>.cls-1{fill:none;}.cls-2{fill:#f2f2f2;stroke-width:0.88px;}.cls-2,.cls-3,.cls-5{stroke:#000;stroke-miterlimit:10;}.cls-3{fill:#29abe2;stroke-width:0.67px;}.cls-4{clip-path:url(#clip-path);}.cls-5{fill:#b000b0;stroke-width:3.01px;}</style><clipPath id="clip-path" transform="translate(-184.05 -221.83)"><rect class="cls-1" x="187.25" y="221.81" width="71.75" height="69.86" transform="translate(446.25 513.47) rotate(180)"/></clipPath></defs><title>stevearmwater</title><polygon class="cls-2" points="69.93 46.57 69.05 65.18 41.88 67.1 43.05 42.2 69.93 46.57"/><ellipse class="cls-2" cx="226.52" cy="276.48" rx="12.3" ry="3.28" transform="translate(-244.38 267.89) rotate(-87.3)"/><polygon class="cls-3" points="69.88 47.51 69.1 64.19 51.22 66.22 52.27 43.91 69.88 47.51"/><ellipse class="cls-3" cx="235.79" cy="276.89" rx="11.02" ry="2.15" transform="translate(-235.95 277.55) rotate(-87.3)"/><g class="cls-4"><path class="cls-5" d="M257.38,236.66a13.33,13.33,0,0,0-13.33-13.33H185.56V243h50.49v35.09A11.92,11.92,0,0,0,248,290h9.2V243h.21Z" transform="translate(-184.05 -221.83)"/></g></svg>