<svg id="mouth" xmlns="http://www.w3.org/2000/svg" xmlns:xlink="http://www.w3.org/1999/xlink" viewBox="0 0 164.44 84.73"><defs><style>.cls-1{stroke-miterlimit:10;stroke-width:3px;fill:url(#linear-gradient);stroke:url(#linear-gradient-2);}</style><linearGradient id="linear-gradient" x1="-17.39" y1="-29.44" x2="138.83" y2="-29.44" gradientTransform="translate(-20.99 63.55)" gradientUnits="userSpaceOnUse"><stop offset="0" stop-color="#8bc1b0"/><stop offset="1" stop-color="#ce5dcc"/></linearGradient><linearGradient id="linear-gradient-2" x1="10.56" y1="20.73" x2="110.89" y2="-79.61" gradientTransform="translate(-20.99 63.55)" gradientUnits="userSpaceOnUse"><stop offset="0" stop-color="#fff"/><stop offset="1"/></linearGradient></defs><title>stevevotetext</title><rect class="cls-1" x="-38.38" y="14.89" width="156.22" height="38.44" transform="translate(53.74 -1.58) rotate(16.41)"/><path d="M-13.32,12.27c-1.6-.25-2-.16-3.49,1.67-1.07,1.34-6.52,8.11-8.49,10.64l-.76-.23c-.26-4.1-.66-10.07-1-13.87-.14-1.89-.46-2.24-1.83-2.79l.19-.64,5.85,1.72-.19.64c-1.76-.31-1.93-.07-1.86.88.08,1.85.41,6.93.74,11.18,2.09-2.61,4.72-5.92,6.65-8.5.9-1.19.69-1.48-1.13-2.26l.19-.65,5.29,1.56Z" transform="translate(42.49 8.26)"/><path d="M-4.77,13.73a7.73,7.73,0,0,1,5.23,9.8c-1.46,4.95-5.73,7-10,5.8a7.82,7.82,0,0,1-5.38-9.95A8,8,0,0,1-4.77,13.73Zm-.71.72c-2.58-.76-5.56.71-6.83,5s.16,8.13,3.43,9.09c2.78.82,5.49-.64,6.8-5.08C-.66,18.65-2.46,15.34-5.48,14.45Z" transform="translate(42.49 8.26)"/><path d="M15.78,24.06a9.11,9.11,0,0,0-.17-2.12c-.19-.73-.37-1-1.63-1.34l-2.31-.67L8.37,31.14C7.84,32.93,8,33.24,10.1,34l-.19.65-6.7-2,.19-.65c2.18.49,2.43.32,3-1.5l3.3-11.21-2.1-.62c-1.26-.37-1.67-.34-2.27.23A11.36,11.36,0,0,0,4,20.59l-.7-.2c.56-1.36,1.12-2.77,1.57-4l.53.15c.18.66.44.71,1.09.9l9.12,2.68a1.22,1.22,0,0,0,1.33-.18l.55.16c-.32,1.08-.72,2.77-1,4.14Z" transform="translate(42.49 8.26)"/><path d="M28.05,36c-.32.56-1.64,2.75-2.07,3.37L14.79,36.11l.19-.65c2.19.47,2.41.31,3-1.58l2.67-9.09c.61-2.05.39-2.24-1.29-2.91l.19-.65,7,2.08c2.17.64,3.07.88,3.36.94-.15.58-.57,2.33-.83,3.58l-.73-.09a8.24,8.24,0,0,0-.17-1.95c-.15-.87-.63-1.19-2-1.59L24,23.55c-.71-.21-.78-.15-1,.52l-1.49,5.08,2.55.76c1.73.51,1.94.19,2.68-1.29l.72.21-1.4,4.74-.71-.21c.18-1.74.07-2-1.59-2.52l-2.53-.74-1.35,4.58c-.48,1.61,0,1.9,1.13,2.26l2.15.63c1.4.41,1.69.28,2.37-.17a10.54,10.54,0,0,0,1.87-1.76Z" transform="translate(42.49 8.26)"/><path d="M45.31,32.63c.06-1.63-.15-3.32-2.31-4a2.39,2.39,0,0,0-3.16,1.8c-.47,1.59.31,2.69,1.93,4.25C44.11,37,45,38.37,44.35,40.56,43.64,43,41,44.2,38,43.33a10.26,10.26,0,0,1-3.3-1.8,32.78,32.78,0,0,1,.4-3.64l.77,0c0,1.68.43,4,2.82,4.68a2.63,2.63,0,0,0,3.45-1.86C42.69,39,42,38,40.26,36.27c-2-2-3.07-3.52-2.43-5.67S40.7,27.12,43.74,28a15.48,15.48,0,0,1,2.91,1.33c-.15.86-.33,1.8-.59,3.35Z" transform="translate(42.49 8.26)"/><path d="M60.61,37.26a8.62,8.62,0,0,0-.18-2.13c-.18-.73-.36-1-1.63-1.33l-2.3-.68L53.2,44.34c-.53,1.79-.42,2.1,1.72,2.88l-.19.65-6.7-2,.19-.64c2.19.49,2.44.32,3-1.5l3.3-11.22-2.09-.61c-1.27-.38-1.68-.35-2.27.23a11.3,11.3,0,0,0-1.31,1.64l-.69-.2c.55-1.37,1.12-2.78,1.56-4.05l.53.16c.19.66.45.71,1.09.9l9.12,2.68a1.21,1.21,0,0,0,1.33-.18l.55.16c-.32,1.08-.71,2.77-1,4.14Z" transform="translate(42.49 8.26)"/><path d="M72.87,49.23c-.31.56-1.63,2.75-2.07,3.37L59.61,49.3l.19-.64c2.19.47,2.41.31,3-1.58L65.45,38c.6-2.05.38-2.24-1.3-2.91l.19-.65,7,2.08c2.16.63,3.07.88,3.35.93-.15.59-.56,2.34-.83,3.59l-.72-.09A8.13,8.13,0,0,0,73,39c-.14-.87-.63-1.19-2-1.6l-2.19-.64c-.71-.21-.78-.15-1,.51l-1.5,5.09,2.56.76c1.72.5,1.94.19,2.68-1.29l.71.21-1.4,4.74-.71-.21c.19-1.75.07-2-1.59-2.52l-2.53-.74-1.35,4.58c-.47,1.61,0,1.9,1.14,2.26l2.14.63c1.4.41,1.7.27,2.38-.18a9.77,9.77,0,0,0,1.86-1.75Z" transform="translate(42.49 8.26)"/><path d="M91.69,43.19c-1.61-.25-2.06-.16-3.5,1.67C87.13,46.2,81.68,53,79.71,55.5L79,55.27c-.27-4.1-.66-10.07-1-13.87-.15-1.89-.47-2.24-1.83-2.79l.19-.65,5.85,1.73-.19.64c-1.76-.32-1.94-.07-1.86.88.08,1.85.41,6.93.73,11.18,2.1-2.61,4.72-5.92,6.66-8.5.9-1.19.68-1.48-1.14-2.26l.19-.65,5.3,1.56Z" transform="translate(42.49 8.26)"/><path d="M101.4,57.63c-.32.56-1.64,2.75-2.07,3.37L88.14,57.7l.19-.64c2.19.47,2.41.31,3-1.58L94,46.39c.61-2,.39-2.24-1.29-2.91l.19-.65,7,2.08c2.17.63,3.07.88,3.35.93-.14.59-.56,2.34-.83,3.59l-.72-.09a7.64,7.64,0,0,0-.18-2c-.14-.87-.62-1.19-2-1.6l-2.19-.64c-.71-.21-.78-.15-1,.51l-1.5,5.09,2.56.75c1.73.51,1.94.2,2.68-1.28l.71.21-1.39,4.74L98.7,55c.19-1.75.08-2-1.58-2.52l-2.53-.74-1.35,4.58c-.48,1.61,0,1.9,1.13,2.26l2.14.63c1.41.41,1.7.27,2.38-.18a10.11,10.11,0,0,0,1.87-1.75Z" transform="translate(42.49 8.26)"/><path d="M105,63a1.44,1.44,0,0,1-1-1.89,1.45,1.45,0,0,1,1.84-1.06,1.49,1.49,0,0,1,1,1.9A1.47,1.47,0,0,1,105,63Zm4.57-15.62c.62.18,1.27.52,1.11,1.17a7.62,7.62,0,0,1-.34.88c-.68,1.73-2.36,5.74-3.35,8.42l-.9-.26c.6-2.8,1.37-7,1.74-8.87.06-.31.14-.74.21-1C108.2,47.17,108.92,47.21,109.56,47.4Z" transform="translate(42.49 8.26)"/></svg>