<svg id="Layer_1" data-name="Layer 1" xmlns="http://www.w3.org/2000/svg" xmlns:xlink="http://www.w3.org/1999/xlink" viewBox="0 0 650.9 634.46"><defs><style>.cls-1,.cls-3,.cls-4,.cls-5,.cls-6,.cls-7{stroke:#000;stroke-miterlimit:10;}.cls-1{fill:url(#linear-gradient);}.cls-2{fill:url(#radial-gradient);}.cls-3,.cls-4,.cls-5,.cls-6,.cls-7{stroke-width:5px;}.cls-3{fill:url(#linear-gradient-2);}.cls-4{fill:url(#linear-gradient-3);}.cls-5{fill:url(#linear-gradient-4);}.cls-6{fill:url(#linear-gradient-5);}.cls-7{fill:url(#linear-gradient-6);}</style><linearGradient id="linear-gradient" x1="264.4" y1="381.96" x2="264.4" y2="131.96" gradientUnits="userSpaceOnUse"><stop offset="0" stop-color="#fff"/><stop offset="0" stop-color="#ff6abd"/><stop offset="1" stop-color="#ffdbbf"/><stop offset="1" stop-color="red"/></linearGradient><radialGradient id="radial-gradient" cx="335.15" cy="294.48" r="305.3" gradientUnits="userSpaceOnUse"><stop offset="0" stop-color="#fff"/><stop offset="0" stop-color="#fffdfe"/><stop offset="0" stop-color="#fffbfe"/><stop offset="0.11" stop-color="#ffe7ea" stop-opacity="0.92"/><stop offset="0.33" stop-color="#ffb5b6" stop-opacity="0.72"/><stop offset="0.65" stop-color="#ff6362" stop-opacity="0.39"/><stop offset="1" stop-color="#ff0300" stop-opacity="0"/></radialGradient><linearGradient id="linear-gradient-2" x1="97.86" y1="275.17" x2="97.86" y2="178.94" gradientUnits="userSpaceOnUse"><stop offset="0" stop-color="#fff"/><stop offset="0" stop-color="#f6f6f6"/><stop offset="0" stop-color="#c8c8c8"/><stop offset="0" stop-color="#9d9d9d"/><stop offset="0" stop-color="#777"/><stop offset="0" stop-color="#575757"/><stop offset="0" stop-color="#3b3b3b"/><stop offset="0" stop-color="#252525"/><stop offset="0" stop-color="#141414"/><stop offset="0" stop-color="#090909"/><stop offset="0" stop-color="#020202"/><stop offset="0"/><stop offset="0.11" stop-color="#141414"/><stop offset="0.33" stop-color="#484848"/><stop offset="0.65" stop-color="#9d9d9d"/><stop offset="1" stop-color="#fff"/></linearGradient><linearGradient id="linear-gradient-3" x1="253" y1="275.17" x2="253" y2="160.29" xlink:href="#linear-gradient-2"/><linearGradient id="linear-gradient-4" x1="440.48" y1="275" x2="440.48" y2="189.1" xlink:href="#linear-gradient-2"/><linearGradient id="linear-gradient-5" x1="340.36" y1="275" x2="340.36" y2="169.63" xlink:href="#linear-gradient-2"/><linearGradient id="linear-gradient-6" x1="266.15" y1="631.96" x2="266.15" y2="409.96" gradientUnits="userSpaceOnUse"><stop offset="0" stop-color="#fff"/><stop offset="0" stop-color="#f6f6f6"/><stop offset="0" stop-color="#c8c8c8"/><stop offset="0" stop-color="#9d9d9d"/><stop offset="0" stop-color="#777"/><stop offset="0" stop-color="#575757"/><stop offset="0" stop-color="#3b3b3b"/><stop offset="0" stop-color="#252525"/><stop offset="0" stop-color="#141414"/><stop offset="0" stop-color="#090909"/><stop offset="0" stop-color="#020202"/><stop offset="0"/><stop offset="0.16" stop-color="#140808"/><stop offset="0.47" stop-color="#481b1d"/><stop offset="0.92" stop-color="#9b3b3e"/><stop offset="1" stop-color="#aa4044"/></linearGradient></defs><title>sunset</title><rect class="cls-1" x="14.4" y="131.96" width="500" height="250"/><ellipse class="cls-2" cx="335.15" cy="294.48" rx="315.75" ry="294.48"/><path class="cls-3" d="M88.57,181.79-4.6,244.9c-13.51,9.15-7,30.27,9.29,30.27H191c16.32,0,22.79-21.12,9.28-30.27l-93.17-63.11A16.55,16.55,0,0,0,88.57,181.79Z" transform="translate(14.4 131.96)"/><path class="cls-4" d="M241.5,164.39,145.36,242.9c-13.24,10.82-5.59,32.27,11.51,32.27H349.13c17.1,0,24.75-21.45,11.51-32.27L264.5,164.39A18.2,18.2,0,0,0,241.5,164.39Z" transform="translate(14.4 131.96)"/><path class="cls-5" d="M432.44,191.34,341.51,246c-13.55,8.16-7.77,29,8,29H531.41c15.81,0,21.59-20.82,8-29l-90.93-54.68A15.58,15.58,0,0,0,432.44,191.34Z" transform="translate(14.4 131.96)"/><path class="cls-6" d="M330,173.07,235.2,243.7c-13.4,10-6.34,31.3,10.38,31.3H435.13c16.72,0,23.78-21.31,10.38-31.3l-94.77-70.63A17.37,17.37,0,0,0,330,173.07Z" transform="translate(14.4 131.96)"/><rect class="cls-7" x="14.4" y="409.96" width="503.5" height="222"/></svg>