<svg id="Layer_1" data-name="Layer 1" xmlns="http://www.w3.org/2000/svg" xmlns:xlink="http://www.w3.org/1999/xlink" viewBox="0 0 492.25 327.9"><defs><style>.cls-1,.cls-2,.cls-3,.cls-4,.cls-5{stroke:#000;stroke-miterlimit:10;}.cls-1,.cls-3,.cls-4,.cls-5{stroke-width:7px;}.cls-1{fill:url(#linear-gradient);}.cls-2{fill:#999;stroke-width:6px;}.cls-3{fill:#ed1c24;}.cls-4{fill:lime;}.cls-5{fill:#ff0;}.cls-6{font-size:60px;font-family:GillSans-UltraBold, Gill Sans Ultra Bold;font-weight:700;}.cls-7{letter-spacing:-0.02em;}.cls-8{letter-spacing:-0.06em;}</style><linearGradient id="linear-gradient" x1="246.12" y1="3.5" x2="246.12" y2="324.4" gradientUnits="userSpaceOnUse"><stop offset="0" stop-color="#fff"/><stop offset="0.41" stop-color="#fdfdfd"/><stop offset="0.56" stop-color="#f6f6f6"/><stop offset="0.67" stop-color="#ebebeb"/><stop offset="0.75" stop-color="#dadada"/><stop offset="0.83" stop-color="#c4c4c4"/><stop offset="0.89" stop-color="#a8a8a8"/><stop offset="0.95" stop-color="#898989"/><stop offset="1" stop-color="#656565"/></linearGradient></defs><title>taskboard</title><rect class="cls-1" x="3.5" y="3.5" width="485.25" height="320.9" rx="15.98"/><rect class="cls-2" x="3.5" y="301.35" width="485.25" height="23.05" rx="11.52"/><rect class="cls-3" x="71.21" y="296.95" width="83.61" height="13.52"/><polygon class="cls-3" points="82.69 310.38 54.82 312.88 54.82 293.82 82.69 296.85 82.69 310.38"/><rect class="cls-4" x="205.21" y="304.08" width="83.61" height="13.52"/><polygon class="cls-4" points="216.69 317.5 188.82 320 188.82 300.95 216.69 303.98 216.69 317.5"/><rect class="cls-5" x="332.71" y="297.68" width="83.61" height="13.52"/><polygon class="cls-5" points="344.19 311.11 316.32 313.61 316.32 294.55 344.19 297.58 344.19 311.11"/><text class="cls-6" transform="translate(32.8 65.83)"><tspan class="cls-7">T</tspan><tspan x="40.99" y="0">O DO</tspan><tspan class="cls-8" x="216.53" y="0">:</tspan></text></svg>