<svg id="Layer_1" data-name="Layer 1" xmlns="http://www.w3.org/2000/svg" viewBox="0 0 224.01 165.52"><defs><style>.cls-1,.cls-3,.cls-4{fill:#4d4d4d;}.cls-1,.cls-2,.cls-3{stroke:#4d4d4d;}.cls-1,.cls-2,.cls-3,.cls-4,.cls-6{stroke-miterlimit:10;}.cls-1,.cls-2{stroke-width:0.84px;}.cls-2{fill:#c69c6d;}.cls-3{stroke-width:0.37px;}.cls-4,.cls-6{stroke:#000;}.cls-4{stroke-width:0.99px;}.cls-5{fill:#333;}.cls-6{fill:#ccc;stroke-width:0.94px;}.cls-7{fill:red;}</style></defs><title>tv_front</title><rect class="cls-1" x="196.25" y="75.28" width="2.14" height="41.37"/><polygon class="cls-2" points="223.12 102 27.29 123.47 1.49 96.47 197.32 75 223.12 102"/><path class="cls-3" d="M234.53,213.94l-70.73,7.75A12.94,12.94,0,0,1,153,217.77l-.28-.29a4.82,4.82,0,0,1,3-8.12l71-7.78A12.44,12.44,0,0,1,237,205.36l.45.46A4.82,4.82,0,0,1,234.53,213.94Z" transform="translate(-88 -109.16)"/><path class="cls-4" d="M256.18,190.54l-126.1,20.27c-5,.8-9.06-3.19-9.06-8.91V141.84c0-5.72,4-11,9.06-11.81l126.1-20.27c5-.81,9.06,3.18,9.06,8.9v60.06C265.24,184.44,261.18,189.73,256.18,190.54Z" transform="translate(-88 -109.16)"/><polygon class="cls-5" points="112.3 101.03 101.94 102.48 101.94 58.85 112.3 57.39 112.3 101.03"/><path class="cls-6" d="M253.12,189.2,134.33,208.3c-4.71.75-8.53-3-8.53-8.39V143.33c0-5.39,3.82-10.37,8.53-11.13l118.79-19.09c4.71-.76,8.53,3,8.53,8.39v56.57C261.65,183.46,257.83,188.44,253.12,189.2Z" transform="translate(-88 -109.16)"/><rect class="cls-7" x="34.41" y="90.39" width="2.79" height="5.58"/><polygon class="cls-2" points="223.12 143.61 27.29 165.08 1.49 138.07 197.32 116.61 223.12 143.61"/><rect class="cls-1" x="27.29" y="123.47" width="2.14" height="41.37"/><rect class="cls-1" x="0.42" y="95.92" width="2.14" height="41.37"/><rect class="cls-1" x="220.97" y="102.79" width="2.14" height="41.37"/></svg>