<svg id="Layer_1" data-name="Layer 1" xmlns="http://www.w3.org/2000/svg" viewBox="0 0 273.24 115.4"><defs><style>.cls-1,.cls-2,.cls-3,.cls-4{stroke:#000;stroke-miterlimit:10;}.cls-1{stroke-width:7px;}.cls-2,.cls-3,.cls-4{fill:gray;}.cls-2{stroke-width:3.7px;}.cls-3{stroke-width:3.23px;}.cls-4{stroke-width:2.29px;}.cls-5{fill:#f2f2f2;}</style></defs><title>watch</title><rect class="cls-1" x="83.15" y="3.5" width="108.4" height="108.4" rx="15.98"/><rect class="cls-2" x="193.9" y="12.62" width="36.38" height="90.16" rx="8.44"/><rect class="cls-2" x="44.42" y="12.62" width="36.38" height="90.16" rx="8.44"/><rect class="cls-3" x="230.28" y="12.62" width="27.82" height="90.16" rx="7.38"/><rect class="cls-3" x="16.6" y="12.62" width="27.82" height="90.16" rx="7.38"/><rect class="cls-4" x="258.19" y="12.62" width="13.91" height="90.16" rx="5.22"/><rect class="cls-4" x="1.14" y="12.62" width="13.91" height="90.16" rx="5.22"/><path class="cls-5" d="M158.22,196.58v.13l3.94,7.31-4.33,1.1-4.92-9.18v-4.85h42v5.49Z" transform="translate(-40.67 -96.43)"/><path class="cls-5" d="M168.82,175.31a3.82,3.82,0,0,1-4.07-3.88c0-2.26,1.68-3.75,4.07-3.81a3.85,3.85,0,1,1,0,7.69Zm22.83,0a3.83,3.83,0,0,1-4.08-3.88c0-2.26,1.69-3.75,4.08-3.81a3.85,3.85,0,1,1,0,7.69Z" transform="translate(-40.67 -96.43)"/><path class="cls-5" d="M195,162.38h-3.5l-4.33-4.46c-10.22-10.74-15.65-15.58-22-15.65-4.27,0-8.22,2.07-8.22,8.34a14.3,14.3,0,0,0,3.56,8.93l-4,1.81a18.43,18.43,0,0,1-4.27-11.9c0-9,6.21-12.87,12.22-12.87,7.76,0,14,5.63,22.57,14.48l3.11,3.37h.13V135.54H195Z" transform="translate(-40.67 -96.43)"/><path class="cls-5" d="M188.42,127.85a19,19,0,0,0,2.65-9.31c0-7.31-4.66-9.57-8.15-9.5-5.89.06-8.41,5.36-8.41,10.86v3.17h-4.27V119.9c0-4.14-2.13-9.38-7.11-9.38-3.36,0-6.34,2.14-6.34,7.38a15.45,15.45,0,0,0,2.78,8.4l-4.13,1.49a20,20,0,0,1-3.24-11c0-8.28,4.92-12,10-12,4.33,0,8,2.58,9.89,7.76h.13c1-5.18,4.91-9.38,10.8-9.38,6.72,0,12.61,5.24,12.61,15.33a21.35,21.35,0,0,1-2.85,10.93Z" transform="translate(-40.67 -96.43)"/></svg>