<svg id="Layer_1" data-name="Layer 1" xmlns="http://www.w3.org/2000/svg" viewBox="0 0 2032.46 1196.27"><defs><style>.cls-1{fill:#150b34;}.cls-1,.cls-2{stroke:#646470;}.cls-1,.cls-2,.cls-3{stroke-miterlimit:10;}.cls-2{fill:#999;stroke-width:6px;}.cls-3{stroke:#000;}.cls-4{fill:#af9c87;}.cls-5{fill:#646470;}.cls-6{fill:#947b5f;}.cls-7{fill:#957552;}.cls-8{fill:#795a37;}</style></defs><rect class="cls-1" x="448" y="680.27" width="300" height="262.05"/><polygon class="cls-2" points="727.4 791.73 3 1188.22 3 1193.27 1923 1193.27 1923 791.73 727.4 791.73"/><rect class="cls-3" x="3" y="113.27" width="1920" height="678.45"/><path class="cls-4" d="M450.69-10.2l-7.7,20a266.18,266.18,0,0,0,57.53,171.87c10.65,13.33,23,26.34,27.12,42.88s-4.1,37.77-21,40.24l88.65,91.46c18.36,18.94,37.9,46.89,23.58,69-4.89,7.55-13.41,13.34-14.62,22.26-1.63,12,10.57,20.69,20.34,27.91,63.4,46.85,70.24,137.11,102.82,208.9,3.09,6.81,6.58,13.68,12.2,18.61,6.63,5.83,15.5,8.34,24.16,10.07,62.64,12.53,126.82-6.89,190.64-9.59,58.22-2.46,116,9,173.41,19.05a3496.51,3496.51,0,0,0,693.07,50.73c46.13-1.23,97.17-5.5,129-38.94,29.41-30.94,33.28-77.45,35.56-120.08q9.19-172.59,18.4-345.2c3-56.2,5.93-113.19-6-168.18S1957.05-7.88,1909.24-37.56C1864.77-65.18,1810-69,1757.76-71.74q-297.46-15.62-595.45-17c-26.65-.12-53.53-.13-79.62,5.29-14.41,3-28.47,7.63-43,9.92C1016-69.79,991.83-72.4,968-74.63a2194.73,2194.73,0,0,0-264.49-8.65c-29.58.81-60.39,2.57-86.18,17.08S572.62-20.52,581.77,7.61A293.31,293.31,0,0,0,431.16-25c8.15-.26,15.84,6.73,16.37,14.87" transform="translate(3 113.27)"/><path class="cls-5" d="M446.35-11.39c-2.6,6.73-6.62,14.07-7.86,21.16-1,5.71-.1,12.73.16,18.5a271.07,271.07,0,0,0,4.4,37.9,272.35,272.35,0,0,0,24.45,72.2,262.81,262.81,0,0,0,19.63,32.86c7.5,10.68,16.29,20.32,24,30.83,7.28,9.94,14.07,21.6,13,34.38-1,11.05-7.11,21.77-18.63,24-3.44.67-4.19,5.25-2,7.53L579.15,346c17.23,17.77,54.61,50.83,34.86,78.34-6.75,9.4-17.11,17.42-13.74,30.43,2.87,11.1,13.43,18,22.06,24.53C643,494.86,658.1,516,669.46,539c23.25,47.16,32.27,99.83,54.09,147.59,5.47,12,12.49,21.79,25.08,26.81,14.28,5.7,30.89,7.09,46.11,7.9,34.45,1.84,68.75-3.39,102.8-7.83,34.77-4.54,69.24-7.19,104.29-4.78,35.87,2.46,71.32,8.67,106.67,14.92,69.65,12.29,139.55,22.88,209.79,31.18a3499.57,3499.57,0,0,0,425.64,24.09c33.14-.15,66.45-.1,99.55-2.13,26.22-1.61,52.9-5.27,77-16.35a105.69,105.69,0,0,0,53.16-54.54c10.85-25,13.88-52.58,15.62-79.53,4.62-71.47,7.69-143.06,11.5-214.57,3.79-71.11,9.83-142.53,10.26-213.75.36-61.47-7.5-124.77-40.12-178.17-13.92-22.79-32.12-43-54.31-58C1891.84-54.87,1862.88-64,1833.68-69c-31.27-5.36-63.07-6.58-94.71-8.2q-53.23-2.7-106.49-5-108.86-4.62-217.79-7.32T1196.8-93c-33.47-.25-67.48-1.86-100.73,2.75-17.11,2.38-33.47,7.63-50.35,11.08-17.76,3.63-35.83,3.45-53.83,2.16-35.44-2.54-70.76-6.26-106.26-8.23q-53.65-3-107.41-3.33c-34.7-.22-69.94-.86-104.52,2.36-27.35,2.56-55.92,9.43-76.09,29.3-17.26,17-27.34,41.8-20.17,65.73l6.61-5.08A301.51,301.51,0,0,0,431.16-29.55c-5.79.28-5.8,8.73,0,9,6.76.32,11.09,5.07,12,11.57.82,5.71,9.5,3.28,8.68-2.4C450.34-22,441.65-29,431.16-29.55v9A292.29,292.29,0,0,1,579.5,11.5c3.36,1.73,7.79-1.15,6.61-5.08-8.24-27.53,9.93-55.37,33.44-68.74,27.1-15.4,59.83-15.88,90.14-16.63Q814-81.53,918.27-74.2c34.28,2.42,69.16,8.3,103.57,6.9,15.84-.65,31-4.12,46.3-8a267.8,267.8,0,0,1,51.2-8.16c34.06-2,68.44-.63,102.54-.31q52.51.49,105,1.42,210,3.75,419.89,14.57c59.36,3.06,124.49,5.25,173.48,43.4,44.91,35,68.18,90.74,76.79,145.64,10.7,68.25,2.75,138.84-.91,207.38q-5.6,105.14-11.21,210.27c-1.73,32.4-2.8,64.92-5.43,97.27-2.26,27.79-6.72,56.84-21.87,80.84-31.33,49.63-96.78,50.81-149.05,52a3497.2,3497.2,0,0,1-412.21-14.87q-103.65-9.89-206.58-25.95C1122.89,717.73,1056,701.68,988.09,699c-34-1.36-67.41,2.48-101,6.92-33,4.35-66.39,8.78-99.72,6-14.85-1.26-35.16-2.5-46.34-13.76-9.45-9.53-14-25.49-18.64-37.79-8.85-23.57-15.82-47.77-23.75-71.65-7.82-23.53-16.54-47-29.1-68.52-12-20.47-27.34-36.9-46.16-51.16-4.87-3.68-11-8.11-13.47-13.9-3.76-8.68,2.79-15,8-21.18,7.62-9,11.64-19.17,10-31.11-3.82-27.73-28.38-48.65-46.7-67.55l-71.35-73.62-2,7.52c20.24-3.89,28.51-27.49,24.12-45.77-3-12.41-10.71-23-18.51-32.86-8.76-11-17.61-21.77-25.17-33.67a263.59,263.59,0,0,1-33.2-77.53,258.54,258.54,0,0,1-7-43.09C447.6,29.23,447,22,447.4,15.06,447.89,6.71,452-1.24,455-9c2.08-5.41-6.62-7.75-8.68-2.39Z" transform="translate(3 113.27)"/><path class="cls-6" d="M641-30.37,672.44,72.29l-21,13.06a971.14,971.14,0,0,1,150.32,41A88.12,88.12,0,0,0,773,178.2c25.33-9,54.24.33,75.3,17s35.79,39.87,50.14,62.59l43.92,69.57c8.27,13.09,16.74,26.71,18.89,42.05s-3.83,33-17.86,39.53l95.13,69.9c10.11,7.43,20.7,15.08,33,17.3,9.25,1.67,19.08.19,27.9,3.45C1114,505,1121,521,1126.83,535.24a1087.45,1087.45,0,0,0,101.71,191.85c10.65,16,22.17,32.13,38.47,42.3,19.78,12.35,44.08,14.39,67.33,16.11L1548,801.29c51.89-28.29,115.28-9.44,173.7-.49a486.56,486.56,0,0,0,204-12.32c19.4-5.42,39.24-12.53,53.21-27,31.06-32.23,21-84.16,13.13-128.23-28.57-160.06.85-324.88-12.72-486.9-4.7-56.09-15-113.06-43.17-161.8-4.51-7.81-9.75-15.66-17.58-20.14-6.86-3.94-15-4.86-22.85-5.71L1574.52-76c-22-2.36-49.41-2-59.7,17.54-118.41-26-240.92-24-362.13-21.93Q839.1-74.87,525.53-68.77q58.62,14.19,116.86,29.82" transform="translate(3 113.27)"/><path d="M636.69-29.17,668.1,73.49l2.07-5.09-21,13.06c-3,1.9-2.91,7.47,1.08,8.23a988.64,988.64,0,0,1,150.32,41l-2-7.52A94,94,0,0,0,768.68,177c-.55,3.14,2,6.71,5.53,5.54,56.64-18.81,96.3,39.45,121.88,80,16,25.29,32.53,50.31,47.88,76,11.5,19.22,23.59,53.06-2.83,66.6-3.29,1.69-2.52,5.92,0,7.77l55.68,40.92c17.12,12.58,33.85,26.41,51.89,37.65,7.47,4.65,15.46,8.24,24.22,9.47,9.9,1.39,20.73-.35,29.58,5.23,14.51,9.14,19.84,30.25,26.11,45a1091.88,1091.88,0,0,0,55.23,111.91q15.24,26.85,32,52.83c10.41,16.13,20.83,33.12,34.87,46.41,28.73,27.21,69.7,26.67,106.75,29.41l135.73,10,31.76,2.34,14.44,1.07c6.64.49,9.49.61,15.35-2.25,17.57-8.59,37.18-11.83,56.6-12.07,40.06-.48,79.12,10.36,118.58,15.65a489.32,489.32,0,0,0,125.94.57,493.79,493.79,0,0,0,61.84-11.73c17.59-4.54,35.79-9.69,51.12-19.77C1997,757,2005.62,725.12,2004.55,693c-.59-17.59-3.51-35.05-6.57-52.35-3.73-21.06-7-42.15-9.15-63.44-8.95-87.56-4.26-175.69-2.08-263.47,1.09-44,1.57-88.06-.55-132.05-2-40.74-5.73-81.8-15.58-121.48a324.47,324.47,0,0,0-18.76-54.91c-6.95-15.47-15.49-35.92-31-44.8-7-4-14.92-5.14-22.75-6.06-11.39-1.34-22.8-2.46-34.2-3.69l-66.57-7.17-136-14.66-66.57-7.17c-16.84-1.82-34-4.66-50.94-2.28-13.51,1.9-26,7.6-32.9,19.86l5.08-2.06c-123.15-26.8-249.79-24.1-375-21.9Q943.87-81.2,746.79-77.5q-110.62,2.07-221.26,4.23c-5,.09-6.25,7.61-1.19,8.84q58.6,14.21,116.86,29.82c5.6,1.5,8-7.18,2.39-8.68Q585.35-58.9,526.73-73.11l-1.2,8.84q195.62-3.81,391.24-7.37,97.44-1.77,194.89-3.49c63.55-1.12,127.15-2.74,190.71-1.32,70.9,1.59,141.85,7.27,211.26,22.37a4.62,4.62,0,0,0,5.08-2.06c8-14.22,25.24-16.48,40.15-16.32,18.73.2,37.59,3.37,56.18,5.37l130.24,14,130.24,14c10.22,1.1,20.83,1.5,30.87,3.71s16.8,7.89,22.38,16.28c11,16.5,18.91,35.53,25.21,54.24,12.53,37.21,18.16,76.32,21.25,115.34,3.32,42,3.81,84.12,3.25,126.21-1.15,85.11-6.71,170.29-2.12,255.39,2.17,40.34,7.75,79.86,14.46,119.65,5.3,31.4,10.85,69.25-7.83,97.49-10,15.16-26,24.08-42.78,30-18.47,6.51-37.86,10.9-57.08,14.48a483.18,483.18,0,0,1-123.2,6.83c-39.16-2.83-77.23-12.55-116.18-16.94-18.43-2.07-37.08-2.73-55.49-.06a131.74,131.74,0,0,0-23.46,5.5,125.22,125.22,0,0,0-12.4,5c-5.6,2.59-9.7,2.33-15.91,1.87l-130-9.61L1343,781.64c-19.83-1.47-40.35-2.2-59.21-9.11-18.41-6.74-31.87-20.18-43.16-35.79-11.47-15.85-21.85-32.59-32-49.29a1089.79,1089.79,0,0,1-56.4-105.28c-8.45-18.09-15.94-36.54-23.87-54.85-5.41-12.49-12.67-25.7-25.83-31.28-8.29-3.51-17.07-2.89-25.84-3.73-11.21-1.06-20.68-6.54-29.75-12.88-17-11.91-33.5-24.55-50.21-36.84l-51.05-37.51v7.77c16.09-8.24,22.47-27.47,19.93-44.61-3.74-25.15-22-47.39-35.24-68.31-13.91-22-27.36-44.45-42-66-12.84-18.83-27.66-37.1-47.22-49.28-20.53-12.78-45.9-18.58-69.3-10.81l5.54,5.53a86.15,86.15,0,0,1,27.57-49.89c2.7-2.43,1-6.45-2-7.53A988.64,988.64,0,0,0,652.62,81l1.07,8.23,21-13.06a4.6,4.6,0,0,0,2.07-5.09L645.36-31.57c-1.69-5.52-10.38-3.16-8.67,2.4Z" transform="translate(3 113.27)"/><path class="cls-7" d="M964.07-40.21c-11.13,13.38-9.56,33.91-1,49.07s22.68,26.22,36.37,37c37.44,29.39,75.24,60.69,97.74,102.64,8.79,16.4,15.16,34.29,26.6,49s29.92,25.95,48.12,22c5.71-1.24,11.43-3.91,17.14-2.65,7.1,1.57,11.43,8.56,15,14.92l95.48,172.48c6,10.78,12.28,21.95,22.41,29s25.25,8.49,34.1-.08c1-6.38-11.78-2.92-10.13,3.33s9.3,8.27,15.63,9.57c50.79,10.41,96.08,44.92,119.62,91.11,13.63,26.78,20.13,56.7,33.35,83.68,15.25,31.1,39,57.38,54.56,88.32,16,31.73,24.49,69.71,52.8,91.19,23.6,17.9,55.28,19.71,84.89,20.82l206.91,7.72c16.23.6,34.55.41,45.84-11.26,10.29-10.65,10.94-27.06,11.14-41.87,1.16-86.23,8.06-172.47,23.1-257.39,11.23-63.4,27-126.35,29.63-190.69,3-73.29-11.24-146.78-4.57-219.83,3.36-36.85,11.89-74.89.56-110.11-11.68-36.3-43.32-63.51-78.43-78.39s-73.72-19-111.74-21.91c-181.11-13.7-363.07-2-544.32,9.68-10.42.67-21.06,1.39-30.68,5.45-6.59,2.78-12.5,7.06-19.2,9.58-13.65,5.13-28.82,2.45-43.29.63a343.19,343.19,0,0,0-172.27,22.88c-17.46,7.16-36.46,15.95-54.43,10.16" transform="translate(3 113.27)"/><path d="M960.89-43.39C945.51-24,951.38,2.43,965.62,20.68c8.26,10.58,18.75,19,29.25,27.25,10.79,8.49,21.56,17,32,25.93,20.9,17.84,40.87,37.28,56.28,60.15,14.83,22,22.13,48.9,39.51,69.16,7.92,9.25,18.63,16.93,30.51,20.07a42.48,42.48,0,0,0,16.68,1.1c7-1,15.49-6,22-1.34,4.77,3.42,7.51,9.74,10.27,14.72L1214.46,260l23.61,42.65L1284.79,387c11.41,20.61,23.18,51.67,49.7,56a31.54,31.54,0,0,0,15.37-1.05c4.17-1.46,10.76-4.48,10.66-9.68-.18-8.86-11.69-8.17-16.41-3.52-7.92,7.79,1.6,17.05,9.2,19.77,5.23,1.87,10.86,2.58,16.22,4a168.6,168.6,0,0,1,18.06,5.92,172.62,172.62,0,0,1,59.75,39.64c18.74,19,31.44,41.72,40.72,66.63,10.17,27.27,18.78,54.46,34.27,79.35,14.88,23.91,32.68,46,44.85,71.55,10.18,21.35,17.22,44.36,30.19,64.3,13.78,21.18,33.85,34.66,58.4,40.37,27.5,6.39,56.65,5.55,84.69,6.6l97.12,3.62,46.45,1.74c14.6.54,29.4,1.84,44,1.16,11.47-.53,23.34-2.87,32.31-10.52,9.14-7.8,12.62-19.49,13.92-31,1.61-14.28,1-28.9,1.36-43.26q.68-24,2-48,2.58-47.4,7.89-94.59,5.4-47.54,14-94.62c5.67-31,12.24-61.9,17.66-93,5.35-30.71,9.63-61.71,10.75-92.89s-.78-62.32-2.8-93.41c-2.07-31.75-4.28-63.55-3.49-95.38.76-30.67,6.71-60.84,7.76-91.45.93-27.11-3.94-53.88-19.29-76.68-13.19-19.59-31.85-35.15-52.55-46.32-25-13.47-52.88-20.44-80.78-24.49-30.33-4.4-61.09-6.14-91.68-7.79-128.19-6.89-256.65-2.11-384.7,5.32q-47.28,2.76-94.55,5.85c-14.58.94-29.87.79-44.15,4.17-14,3.32-25,13.68-39.55,15s-29.41-2.31-43.91-3.55a340.44,340.44,0,0,0-44.37-.87,349.26,349.26,0,0,0-86.58,14.93c-13.56,4.16-26.55,9.53-39.72,14.76s-27.25,10-41.39,5.8c-5.57-1.64-8,7-2.4,8.68,21.73,6.4,42.43-4.6,62.21-12.32a342.1,342.1,0,0,1,65-18.16,337.59,337.59,0,0,1,68-4.91q16.39.47,32.71,2.51c11,1.38,22.13,3.2,33.27,1.82,10.65-1.32,18.82-6.53,28.25-11.14,10.2-5,21.55-5.69,32.7-6.41q36.23-2.34,72.47-4.61c49-3,98.08-5.81,147.17-7.85,97.67-4,195.58-5.11,293.21.78,45.45,2.75,92.68,4.92,135.58,21.63C1969.06-65,2002.11-39,2014.45-2.6c7.26,21.4,6.75,44.26,4.63,66.47-2.22,23.3-5.68,46.38-6.4,69.81-1.5,48.15,4.08,96.11,5.94,144.16,1.89,48.7-2.67,96.39-11.24,144.31-8.44,47.14-18.69,93.9-25.45,141.34s-11.23,95.44-13.67,143.42c-1.22,24-1.73,48-2.25,72-.2,9.43-.58,19.5-4.75,28.15-4.3,8.93-12.34,13.86-21.78,16-9.15,2-18.7,1.59-28,1.25l-38-1.42-72.85-2.72-73.89-2.75c-21.14-.79-42.72-.65-63.56-4.7-19.5-3.8-37.36-11.92-50.51-27.18-12.09-14-19.42-31.62-26.48-48.54-7.61-18.23-15.62-35.88-26.27-52.59-11.63-18.26-24.8-35.54-35.52-54.39-21.13-37.13-27.15-80.94-52.17-116.12A182.78,182.78,0,0,0,1387,448.65a201.58,201.58,0,0,0-25.74-7.26c-3.29-.74-8.61-1.59-10.51-4.78-1.63-2.74-.21-.25.17-1.81.1-.44,1.4-.32,1.52-.55l.2,0q1.26.13-1.2-1.11l1.32-3.18c-7.21,6.47-18.15,5.43-26.13.95-8.79-4.93-14.63-13.82-19.57-22.31-12.12-20.8-23.4-42.14-35-63.2l-36.45-65.84-18-32.45c-5-9-9.37-19.32-16.12-27.23-6.45-7.57-14.79-8.94-24.14-6.5-10.57,2.75-19.74,3.19-29.79-1.81-19.18-9.55-28.94-29.07-37.74-47.55-9.08-19.08-19.37-36.81-32.87-53.15S1048,80,1031.88,66.34c-17.46-14.81-37.2-27.69-53.1-44.2C964.48,7.3,952.38-18.25,967.26-37c3.56-4.49-2.77-10.9-6.37-6.36Z" transform="translate(3 113.27)"/><path class="cls-8" d="M1469.59-55.84l-59,44c36.57,31.62,72,64.5,109.26,95.35,20.6,17.06,41.71,33.49,62.82,49.92,18.17,14.15,38.12,28.95,61.14,29.34l-.3,27.63a30.62,30.62,0,0,0-14.32-14.35c-11.46,16.31-2.11,38.56,7.16,56.21A2282.65,2282.65,0,0,1,1750.26,485.4c14.24,37.61,31.16,79.63,68.25,95.18,11.45,4.8,24,6.57,35.4,11.41s22.31,14,23.86,26.33c.49,3.91,0,7.91.57,11.82,1.62,11.25,11.85,19.69,22.79,22.76s22.57,1.81,33.86.54c-.24-42.53-.34-86,13.23-126.28,8.92-26.49,23.49-50.77,32.68-77.16,12.37-35.5,14.64-73.7,14.67-111.3.08-106.86-17-213.34-14-320.15.61-22.14,1.22-46.85-13.67-63.24-14.22-15.66-37.58-18.07-58.7-19.33q-175.58-10.44-351.59-9.31c-31.94.21-64.38.77-94.92,10.13" transform="translate(3 113.27)"/><path d="M1467.32-59.73l-59,44c-2.13,1.59-3.32,5-.91,7.06C1468,43.81,1526.75,98.62,1591.68,145.87c15.46,11.25,32.61,20.79,52.15,21.41l-4.5-4.5-.3,27.63,8.38-2.27a36.1,36.1,0,0,0-15.92-16,4.63,4.63,0,0,0-6.16,1.62c-11.06,16.67-4.34,37.08,3.54,53.57,9.61,20.14,20.49,39.71,30.36,59.74q30.86,62.61,57.84,127,13.4,32,25.81,64.46c6.51,17,12.77,34.19,21,50.49,7.63,15.12,17.12,29.82,29.93,41.08a83.49,83.49,0,0,0,20.5,13.45c9.67,4.37,20,6.51,30.1,9.69,9.76,3.09,20,7.86,25.66,16.84,5.82,9.22,1.74,20.55,7.1,30.13,11.54,20.65,37.54,19.93,57.83,17.66,2.41-.27,4.51-1.84,4.5-4.5-.22-39.8-.47-80.45,11.11-118.93,5.78-19.2,14.82-37.1,23.11-55.28,8-17.66,14.85-35.65,18.94-54.66,8.46-39.36,8.09-80.24,6.9-120.28-1.26-42.29-4.58-84.48-7.66-126.67S1986,93.26,1985.7,51c-.13-19,1.45-38.13.24-57.07-1-15.48-4.76-31.4-15.92-42.84-11-11.26-26.56-15.76-41.71-17.83-19.1-2.61-38.62-2.9-57.85-3.91q-64-3.34-128.08-5.15T1614.2-77.9q-32.07-.13-64.16.13c-19.84.2-39.71.84-59.37,3.76a207.21,207.21,0,0,0-29.23,6.47c-5.53,1.66-3.17,10.35,2.4,8.67,38.58-11.58,79.71-10,119.56-10.07q63.11-.09,126.19,1.29,62.6,1.38,125.14,4.23Q1866-62,1897.25-60.21c16.58,1,33.88,1.12,49.64,7,36.34,13.58,30.15,56.32,29.83,87.47-.42,41.29,1.89,82.55,4.77,123.72s6.33,82.42,8.2,123.71c1.82,39.95,3.3,80.76-2.21,120.49a240.13,240.13,0,0,1-14.43,56C1966,476,1957,493,1949.68,510.64c-15,36.29-18.71,75.1-19.18,114.05-.11,9.58-.07,19.17,0,28.75l4.5-4.5c-16.81,1.88-44,4.38-51.32-15.91-1.61-4.49-.9-9.23-1.32-13.87a31,31,0,0,0-3.48-11.74c-3.82-7.21-10.43-12.85-17.48-16.78-16.73-9.31-36.66-9.87-52.89-20.48-13.8-9-24-22.53-32.08-36.7-8.44-14.81-14.76-30.69-20.81-46.59-7.66-20.15-15.5-40.23-23.68-60.18q-24.93-60.82-53.3-120.18-16.2-33.88-33.53-67.24c-9-17.32-24.71-41.78-12-60.94l-6.16,1.61a28,28,0,0,1,12.7,12.74c2.08,4.11,8.34,2,8.39-2.27l.3-27.63a4.57,4.57,0,0,0-4.5-4.5c-17-.54-32-9.06-45.57-18.71-15.61-11.12-30.51-23.35-45.53-35.25C1522,80,1492.41,54.45,1463.12,28.46c-16.4-14.54-32.75-29.13-49.33-43.47l-.91,7.07,59-44c4.59-3.42.1-11.24-4.54-7.77Z" transform="translate(3 113.27)"/></svg>