<svg id="Layer_1" data-name="Layer 1" xmlns="http://www.w3.org/2000/svg" xmlns:xlink="http://www.w3.org/1999/xlink" viewBox="0 0 250.59 210.18"><defs><style>.cls-1,.cls-2{stroke:#000;stroke-miterlimit:10;}.cls-1{stroke-width:5.43px;fill:url(#linear-gradient);}.cls-2{stroke-width:4px;fill:url(#linear-gradient-2);}</style><linearGradient id="linear-gradient" x1="140.6" y1="163.03" x2="140.6" y2="14.26" gradientUnits="userSpaceOnUse"><stop offset="0" stop-color="#3c9400"/><stop offset="1" stop-color="#7f6000"/></linearGradient><linearGradient id="linear-gradient-2" x1="174.84" y1="225.82" x2="174.84" y2="159.77" gradientUnits="userSpaceOnUse"><stop offset="0" stop-color="#bf7440"/><stop offset="1" stop-color="#956874"/></linearGradient></defs><title>weed</title><polygon class="cls-1" points="76.07 163.03 218.72 163.03 218.81 162.96 169.75 139.52 187.39 51.83 143.72 99.28 122.59 14.26 109.89 104.81 62.39 72.26 88.09 152.86 76.07 163.03"/><path class="cls-2" d="M293.84,212.21l-5.92-2.55a11.25,11.25,0,0,0,2.32-6.68c0-8.19-9.59-14.84-21.42-14.84a29.71,29.71,0,0,0-7.38.93c-.29-10.34-12.65-18.66-27.86-18.66a38.7,38.7,0,0,0-11.9,1.82c-1.65-7.06-10.46-12.46-21.12-12.46-6.56,0-12.42,2-16.35,5.26l-6.56-2.82a7.1,7.1,0,0,0-5.61,0l-17.65,7.59a40.51,40.51,0,0,0-7.41-.68c-13.72,0-25.12,6.77-27.44,15.68l-1.41.61a39.13,39.13,0,0,0-10.7-1.46c-14.91,0-27.09,8-27.84,18L55.85,212.21c-7.08,3-4.91,13.61,2.8,13.61H291C298.74,225.82,300.92,215.26,293.84,212.21Z" transform="translate(-49.55 -17.64)"/></svg>