<svg id="Layer_1" data-name="Layer 1" xmlns="http://www.w3.org/2000/svg" viewBox="0 0 502.08 501.54"><defs><style>.cls-1{fill:#f3ffdf;}.cls-1,.cls-10,.cls-11,.cls-12,.cls-13,.cls-14,.cls-15,.cls-16,.cls-17,.cls-2,.cls-3,.cls-4,.cls-5,.cls-6,.cls-7,.cls-8,.cls-9{stroke:#000;stroke-miterlimit:10;}.cls-2,.cls-7,.cls-8{fill:#c7b299;}.cls-2{stroke-width:5px;}.cls-3{fill:aqua;}.cls-3,.cls-4,.cls-5,.cls-6{stroke-width:2.08px;}.cls-4{fill:#c69c6d;}.cls-5{fill:#ccc;}.cls-10,.cls-6{fill:#e6e6e6;}.cls-7{stroke-width:1.88px;}.cls-10,.cls-8{stroke-width:2px;}.cls-9{fill:#a67c52;stroke-width:1.84px;}.cls-11{fill:#ffdea2;}.cls-11,.cls-12,.cls-13,.cls-14,.cls-15,.cls-16,.cls-17{stroke-width:1.27px;}.cls-12{fill:#8b6900;}.cls-13{fill:#a2ffa2;}.cls-14{fill:#dfd0ff;}.cls-15{fill:#5c5600;}.cls-16{fill:#c1272d;}.cls-17{fill:#f15a24;}</style></defs><title>windowwall</title><rect class="cls-1" x="1.04" y="0.5" width="500" height="500"/><rect class="cls-2" x="42.35" y="29.94" width="133.2" height="133.2" rx="5.53"/><rect class="cls-3" x="49.81" y="99.68" width="55.45" height="55.45" rx="3.84"/><rect class="cls-3" x="112.64" y="37.95" width="55.45" height="55.45" rx="3.84"/><rect class="cls-3" x="112.64" y="99.68" width="55.45" height="55.45" rx="3.84"/><rect class="cls-3" x="49.81" y="37.95" width="55.45" height="55.45" rx="3.84"/><rect class="cls-4" x="190.71" y="59.86" width="108.61" height="5.82"/><rect class="cls-4" x="219.66" y="121.59" width="108.61" height="5.82"/><rect class="cls-4" x="195.07" y="170.4" width="108.61" height="5.82"/><rect class="cls-5" x="1.04" y="204.94" width="500" height="295.56"/><rect class="cls-6" x="35.79" y="219.7" width="145.49" height="33.2" rx="9.22"/><rect class="cls-7" x="1.04" y="259.45" width="500" height="241.05"/><rect class="cls-8" x="29.94" y="263.96" width="75.33" height="103.69"/><rect class="cls-8" x="119.75" y="263.96" width="75.33" height="103.69"/><rect class="cls-9" x="123.05" y="267.79" width="68.73" height="96.02"/><rect class="cls-9" x="33.24" y="267.79" width="68.73" height="96.02"/><circle class="cls-10" cx="126.37" cy="315.8" r="4.73"/><circle class="cls-10" cx="98.66" cy="315.8" r="4.73"/><rect class="cls-11" x="1.04" y="391.01" width="500" height="109.49"/><path class="cls-12" d="M229,172.81H212.68a6.37,6.37,0,0,1-6.27-5.22l-2.64-14.22a6.38,6.38,0,0,1,6.27-7.53h21.28a6.37,6.37,0,0,1,6.29,7.42l-2.38,14.22A6.37,6.37,0,0,1,229,172.81Z" transform="translate(1.04 0.5)"/><path class="cls-13" d="M275,172.81H258.69a6.38,6.38,0,0,1-6.27-5.22l-2.63-14.22a6.37,6.37,0,0,1,6.27-7.53h21.28a6.37,6.37,0,0,1,6.29,7.42l-2.38,14.22A6.37,6.37,0,0,1,275,172.81Z" transform="translate(1.04 0.5)"/><path class="cls-14" d="M248.93,123H232.66a6.37,6.37,0,0,1-6.27-5.21l-2.63-14.22A6.37,6.37,0,0,1,230,96h21.28a6.37,6.37,0,0,1,6.28,7.43l-2.37,14.22A6.39,6.39,0,0,1,248.93,123Z" transform="translate(1.04 0.5)"/><path class="cls-15" d="M292,123H275.71a6.38,6.38,0,0,1-6.27-5.21l-2.63-14.22A6.37,6.37,0,0,1,273.08,96h21.28a6.38,6.38,0,0,1,6.29,7.43l-2.38,14.22A6.37,6.37,0,0,1,292,123Z" transform="translate(1.04 0.5)"/><path class="cls-16" d="M221.47,62.27H205.2a6.38,6.38,0,0,1-6.27-5.22L196.3,42.83a6.37,6.37,0,0,1,6.27-7.53h21.28a6.37,6.37,0,0,1,6.29,7.42l-2.38,14.22A6.37,6.37,0,0,1,221.47,62.27Z" transform="translate(1.04 0.5)"/><path class="cls-17" d="M266,62.27H249.68a6.37,6.37,0,0,1-6.27-5.22l-2.64-14.22A6.38,6.38,0,0,1,247,35.3h21.28a6.37,6.37,0,0,1,6.29,7.42l-2.37,14.22A6.38,6.38,0,0,1,266,62.27Z" transform="translate(1.04 0.5)"/></svg>