<svg id="Layer_1" data-name="Layer 1" xmlns="http://www.w3.org/2000/svg" viewBox="0 0 507.3 507.3"><defs><style>.cls-1{fill:#8cc63f;}.cls-1,.cls-10,.cls-11,.cls-12,.cls-13,.cls-2,.cls-3,.cls-4,.cls-5,.cls-6,.cls-7,.cls-8,.cls-9{stroke:#000;stroke-miterlimit:10;}.cls-1,.cls-11,.cls-12,.cls-3{stroke-width:6.48px;}.cls-2{fill:#42210b;}.cls-2,.cls-4,.cls-7{stroke-width:4.91px;}.cls-3{fill:aqua;}.cls-4,.cls-6,.cls-9{fill:#a67c52;}.cls-5,.cls-8{fill:#006837;}.cls-5{stroke-width:8.12px;}.cls-6{stroke-width:6.07px;}.cls-11,.cls-7{fill:#754c24;}.cls-10,.cls-8{stroke-width:8.42px;}.cls-9{stroke-width:7.01px;}.cls-12,.cls-13{fill:#e6e6e6;}.cls-13{stroke-width:3.07px;}</style></defs><title>woods01</title><rect class="cls-1" x="3.24" y="354.68" width="500" height="73.43"/><rect class="cls-2" x="348.76" y="131.27" width="90.11" height="234.43" rx="12.68"/><rect class="cls-3" x="3.24" y="4.06" width="500" height="73.43"/><rect class="cls-4" x="413.13" y="139.14" width="90.11" height="234.43" rx="12.68"/><rect class="cls-5" x="170.04" y="4.06" width="333.2" height="275.75" rx="67.39"/><rect class="cls-2" x="208.18" y="134.43" width="90.11" height="234.43" rx="12.68"/><rect class="cls-6" x="262.26" y="165.88" width="137.7" height="234.43" rx="15.67"/><rect class="cls-2" x="5.75" y="124.9" width="90.11" height="234.43" rx="12.68"/><rect class="cls-7" x="21.71" y="128.22" width="90.11" height="234.43" rx="12.68"/><rect class="cls-8" x="5.75" y="7.27" width="333.2" height="296.22" rx="69.85"/><rect class="cls-9" x="97.96" y="109.96" width="137.7" height="312.89" rx="18.11"/><rect class="cls-10" x="121.32" y="142.75" width="104.51" height="102.68" rx="30.18"/><rect class="cls-11" x="3.24" y="430.63" width="500" height="73.43"/><path class="cls-12" d="M29.93,317.52h23a33.61,33.61,0,0,1,33.61,33.61v14.55A12.5,12.5,0,0,1,74,378.17H20.71a12.5,12.5,0,0,1-12.5-12.5V339.24A21.72,21.72,0,0,1,29.93,317.52Z"/><path class="cls-13" d="M54.55,359.32H65.67a15.9,15.9,0,0,1,15.9,15.9v6.67a5.91,5.91,0,0,1-5.91,5.91H50.19a5.91,5.91,0,0,1-5.91-5.91V369.6A10.27,10.27,0,0,1,54.55,359.32Z"/></svg>