<svg id="Layer_1" data-name="Layer 1" xmlns="http://www.w3.org/2000/svg" viewBox="0 0 335.69 129.95"><defs><style>.cls-1{fill:#fbb03b;}.cls-1,.cls-2{stroke:#000;stroke-miterlimit:10;stroke-width:7px;}.cls-2{fill:#fff;}</style></defs><title>yellowfish</title><path class="cls-1" d="M422.18,112.51l-90,37.58c-17-23.75-62.43-40.73-115.77-40.73-67.9,0-122.95,27.52-122.95,61.48s55.05,61.47,123,61.47c53.34,0,98.74-17,115.76-40.72l90,37.57Z" transform="translate(-89.99 -105.86)"/><ellipse class="cls-2" cx="63.54" cy="51.04" rx="21.93" ry="11.89"/><ellipse class="cls-2" cx="53.5" cy="51.66" rx="5.74" ry="3.89"/><path d="M110.69,202.38c7.91,2.36,15.06-1.2,21.47-5.58s.34-14.62-6-10.28c-3.59,2.46-7.71,5.75-12.29,4.38-7.36-2.2-10.5,9.29-3.17,11.48Z" transform="translate(-89.99 -105.86)"/></svg>